<svg width="217" height="48" viewBox="0 0 217 48" fill="none" xmlns="http://www.w3.org/2000/svg">
<path d="M0.50167 1.54242C0.50167 0.68517 1.19594 -0.00976562 2.05237 -0.00976562H39.5479C41.902 -0.00976562 43.8105 1.90049 43.8105 4.2569V8.1072C43.8105 10.3067 42.9619 12.4213 41.442 14.0098L26.0006 30.1469V11.5346H10.4843C4.97104 11.5346 0.50167 7.06094 0.50167 1.54242Z" fill="#64B337"/>
<path d="M43.8093 46.4381C43.8093 47.2953 43.115 47.9902 42.2586 47.9902H4.76308C2.40892 47.9902 0.500488 46.08 0.500488 43.7236V39.8733C0.500488 37.6737 1.34899 35.5592 2.86897 33.9707L18.3104 17.8336V36.4459H33.8266C39.3399 36.4459 43.8093 40.9195 43.8093 46.4381Z" fill="#64B337"/>
<path d="M124.337 4.67554C127.458 4.67554 129.758 5.47056 131.236 7.0606C132.713 8.65065 133.452 11.1189 133.452 14.4654C133.452 17.3866 132.695 19.6146 131.18 21.1491C129.665 22.6652 127.458 23.4233 124.558 23.4233C121.51 23.4233 119.192 22.6375 117.604 21.0659C116.015 19.4944 115.221 17.1925 115.221 14.1603C115.221 10.9618 115.969 8.58594 117.465 7.03287C118.98 5.46132 121.27 4.67554 124.337 4.67554ZM124.42 7.8094C122.702 7.8094 121.455 8.29936 120.679 9.27927C119.922 10.2407 119.543 11.8215 119.543 14.0217C119.543 16.2034 119.931 17.8027 120.707 18.8195C121.483 19.8179 122.72 20.3171 124.42 20.3171C126.027 20.3171 127.209 19.8087 127.966 18.7918C128.742 17.7564 129.13 16.1756 129.13 14.0494C129.13 11.9047 128.742 10.3331 127.966 9.33474C127.209 8.31785 126.027 7.8094 124.42 7.8094Z" fill="#FCFFFA"/>
<path d="M99.2376 16.2956V23.3121H95.3032V4.81396H104.336C105.739 4.81396 106.875 4.89717 107.744 5.06357C108.612 5.22997 109.526 5.64597 110.487 6.31157C111.447 6.95868 111.927 8.17894 111.927 9.97237C111.927 12.7642 110.754 14.5669 108.409 15.3804C109.609 15.7871 110.468 16.3695 110.985 17.1276C111.503 17.8671 111.761 18.9949 111.761 20.511C111.761 21.2691 111.78 21.7775 111.817 22.0364C111.872 22.2952 112.001 22.7205 112.204 23.3121H107.799C107.688 22.9423 107.614 22.6742 107.577 22.5078C107.559 22.3414 107.476 21.5741 107.328 20.206C107.199 18.8378 106.774 17.8486 106.053 17.2385C105.352 16.6099 104.132 16.2956 102.396 16.2956H99.2376ZM99.2376 12.9953H104.751C105.749 12.9953 106.469 12.8012 106.912 12.4129C107.356 12.0246 107.577 11.3775 107.577 10.4716C107.577 9.62108 107.356 9.02019 106.912 8.6689C106.488 8.29912 105.767 8.11423 104.751 8.11423H99.2376V12.9953Z" fill="#FCFFFA"/>
<path d="M91.0838 4.81396V8.11423H85.958C84.6281 8.11423 83.6491 8.20668 83.0211 8.39157C82.4115 8.57646 81.9221 8.90926 81.5526 9.38997C81.2017 9.87068 80.9708 10.2867 80.86 10.638C80.7491 10.9893 80.6937 11.5994 80.6937 12.4684H91.0838V15.7686H80.6937C80.8415 17.3587 81.3033 18.468 82.0791 19.0966C82.8733 19.7068 84.2217 20.0118 86.1243 20.0118H91.0838V23.3121H85.958C83.9631 23.3121 82.43 23.1642 81.3587 22.8684C80.3058 22.5725 79.1883 21.8053 78.0061 20.5665C76.824 19.3277 76.2329 17.1645 76.2329 14.0769C76.2329 10.6565 76.9163 8.37308 78.2832 7.22677C79.6686 6.06197 80.7214 5.36863 81.4418 5.14677C82.1807 4.9249 83.1781 4.81396 84.4341 4.81396H91.0838Z" fill="#FCFFFA"/>
<path d="M68.7991 8.11423H57.1345V4.81396H73.2045V8.22517L61.9555 20.0118H73.2045V23.3121H57.1345V20.095L68.7991 8.11423Z" fill="#FCFFFA"/>
<path d="M196.306 23.3121V20.0118H204.729C206.077 20.0118 207.019 19.8547 207.555 19.5404C208.109 19.2076 208.386 18.6437 208.386 17.8486C208.386 16.3325 207.324 15.5745 205.2 15.5745H201.792C199.649 15.5745 198.051 15.1215 196.998 14.2156C195.946 13.2911 195.419 11.9599 195.419 10.222C195.419 9.05717 195.715 8.01254 196.306 7.0881C196.897 6.16365 197.534 5.58125 198.218 5.3409C198.901 5.10054 199.529 4.95263 200.102 4.89717C200.674 4.8417 201.505 4.81396 202.595 4.81396H211.739V8.11423H203.482C202.632 8.11423 202.087 8.12348 201.847 8.14197C201.626 8.16046 201.219 8.24366 200.628 8.39157C200.055 8.52099 199.769 9.10339 199.769 10.1388C199.769 10.9338 200.009 11.4885 200.49 11.8028C200.988 12.1171 201.875 12.2742 203.149 12.2742H206.114C207.499 12.2742 208.58 12.3852 209.356 12.607C210.15 12.8289 210.917 13.3281 211.655 14.1046C212.394 14.8627 212.764 16.1292 212.764 17.9041C212.764 18.884 212.551 19.7992 212.126 20.6497C211.702 21.4817 211.194 22.0826 210.603 22.4524C210.03 22.8037 209.383 23.0348 208.663 23.1457C207.961 23.2566 206.936 23.3121 205.588 23.3121H196.306Z" fill="#64B337"/>
<path d="M175.933 23.3121V20.0118H184.356C185.704 20.0118 186.646 19.8547 187.182 19.5404C187.736 19.2076 188.013 18.6437 188.013 17.8486C188.013 16.3325 186.951 15.5745 184.827 15.5745H181.419C179.276 15.5745 177.679 15.1215 176.626 14.2156C175.573 13.2911 175.046 11.9599 175.046 10.222C175.046 9.05717 175.342 8.01254 175.933 7.0881C176.524 6.16365 177.161 5.58125 177.845 5.3409C178.528 5.10054 179.156 4.95263 179.729 4.89717C180.301 4.8417 181.133 4.81396 182.222 4.81396H191.366V8.11423H183.109C182.259 8.11423 181.715 8.12348 181.474 8.14197C181.253 8.16046 180.846 8.24366 180.255 8.39157C179.683 8.52099 179.396 9.10339 179.396 10.1388C179.396 10.9338 179.636 11.4885 180.117 11.8028C180.615 12.1171 181.502 12.2742 182.777 12.2742H185.741C187.127 12.2742 188.207 12.3852 188.983 12.607C189.777 12.8289 190.544 13.3281 191.283 14.1046C192.021 14.8627 192.391 16.1292 192.391 17.9041C192.391 18.884 192.178 19.7992 191.754 20.6497C191.329 21.4817 190.821 22.0826 190.23 22.4524C189.657 22.8037 189.011 23.0348 188.29 23.1457C187.588 23.2566 186.563 23.3121 185.215 23.3121H175.933Z" fill="#64B337"/>
<path d="M162.975 4.67554C166.097 4.67554 168.397 5.47056 169.874 7.0606C171.352 8.65065 172.091 11.1189 172.091 14.4654C172.091 17.3866 171.334 19.6146 169.819 21.1491C168.304 22.6652 166.097 23.4233 163.197 23.4233C160.149 23.4233 157.831 22.6375 156.243 21.0659C154.654 19.4944 153.86 17.1925 153.86 14.1603C153.86 10.9618 154.608 8.58594 156.104 7.03287C157.619 5.46132 159.909 4.67554 162.975 4.67554ZM163.059 7.8094C161.341 7.8094 160.094 8.29936 159.318 9.27927C158.561 10.2407 158.182 11.8215 158.182 14.0217C158.182 16.2034 158.57 17.8027 159.346 18.8195C160.122 19.8179 161.359 20.3171 163.059 20.3171C164.666 20.3171 165.848 19.8087 166.605 18.7918C167.381 17.7564 167.769 16.1756 167.769 14.0494C167.769 11.9047 167.381 10.3331 166.605 9.33474C165.848 8.31785 164.666 7.8094 163.059 7.8094Z" fill="#64B337"/>
<path d="M138.782 4.81396H142.716V15.1862C142.716 16.0552 142.725 16.6099 142.744 16.8502C142.762 17.0721 142.827 17.5713 142.938 18.3478C143.067 19.1244 143.538 19.5866 144.351 19.7345C145.164 19.8824 145.736 19.9656 146.069 19.9841C146.42 20.0026 146.955 20.0118 147.676 20.0118H151.444V23.3121H147.26L145.154 23.2844C143.787 23.2844 142.661 23.044 141.774 22.5633C140.887 22.0641 140.232 21.4447 139.807 20.7052C139.382 19.9471 139.105 19.1706 138.976 18.3756C138.846 17.5621 138.782 16.4989 138.782 15.1862V4.81396Z" fill="#64B337"/>
<path d="M214.366 37.167C214.749 37.167 215.082 37.2566 215.366 37.4358C215.649 37.615 215.853 37.8415 215.978 38.1153V37.2267H216.5V41.4081C216.5 41.7814 216.418 42.1124 216.254 42.4011C216.095 42.6898 215.871 42.9113 215.582 43.0657C215.294 43.2249 214.966 43.3046 214.598 43.3046C214.075 43.3046 213.64 43.1801 213.292 42.9313C212.949 42.6824 212.735 42.3439 212.651 41.9158H213.165C213.255 42.1995 213.424 42.426 213.673 42.5953C213.926 42.7645 214.235 42.8491 214.598 42.8491C214.861 42.8491 215.097 42.7919 215.306 42.6774C215.515 42.5679 215.679 42.4036 215.799 42.1846C215.918 41.9656 215.978 41.7067 215.978 41.4081V40.4001C215.848 40.6788 215.642 40.9103 215.358 41.0945C215.08 41.2737 214.749 41.3633 214.366 41.3633C213.993 41.3633 213.658 41.2761 213.359 41.1019C213.066 40.9277 212.835 40.6813 212.666 40.3627C212.501 40.0441 212.419 39.6758 212.419 39.2577C212.419 38.8395 212.501 38.4737 212.666 38.1601C212.835 37.8415 213.066 37.5976 213.359 37.4283C213.658 37.2541 213.993 37.167 214.366 37.167ZM215.978 39.2651C215.978 38.9366 215.911 38.6479 215.776 38.399C215.642 38.1501 215.458 37.9585 215.224 37.8241C214.995 37.6897 214.742 37.6225 214.463 37.6225C214.175 37.6225 213.916 37.6872 213.688 37.8166C213.459 37.946 213.277 38.1352 213.143 38.3841C213.014 38.628 212.949 38.9192 212.949 39.2577C212.949 39.5912 213.014 39.8849 213.143 40.1387C213.277 40.3876 213.459 40.5793 213.688 40.7137C213.916 40.8431 214.175 40.9078 214.463 40.9078C214.742 40.9078 214.995 40.8406 215.224 40.7062C215.458 40.5718 215.642 40.3801 215.776 40.1313C215.911 39.8824 215.978 39.5937 215.978 39.2651Z" fill="white"/>
<path d="M208.654 37.1526C209.141 37.1526 209.539 37.3044 209.848 37.6081C210.156 37.9067 210.31 38.3423 210.31 38.9147V41.3041H209.795V38.9745C209.795 38.5314 209.683 38.1929 209.46 37.959C209.241 37.725 208.94 37.6081 208.557 37.6081C208.164 37.6081 207.851 37.7325 207.617 37.9814C207.383 38.2303 207.267 38.5961 207.267 39.079V41.3041H206.744V37.2273H207.267V37.9217C207.396 37.6728 207.582 37.4836 207.826 37.3542C208.07 37.2198 208.346 37.1526 208.654 37.1526Z" fill="white"/>
<path d="M204.108 36.458C204.003 36.458 203.913 36.4207 203.839 36.346C203.764 36.2714 203.727 36.1793 203.727 36.0698C203.727 35.9603 203.764 35.8707 203.839 35.801C203.913 35.7263 204.003 35.689 204.108 35.689C204.212 35.689 204.302 35.7263 204.376 35.801C204.451 35.8707 204.488 35.9603 204.488 36.0698C204.488 36.1793 204.451 36.2714 204.376 36.346C204.302 36.4207 204.212 36.458 204.108 36.458ZM204.369 37.2271V41.3039H203.846V37.2271H204.369Z" fill="white"/>
<path d="M197.38 39.258C197.38 38.8399 197.465 38.474 197.634 38.1604C197.803 37.8419 198.034 37.5979 198.328 37.4287C198.626 37.2545 198.962 37.1674 199.335 37.1674C199.693 37.1674 200.016 37.2545 200.305 37.4287C200.593 37.6029 200.804 37.8294 200.939 38.1082V35.7786H201.461V41.3039H200.939V40.393C200.814 40.6767 200.61 40.9107 200.327 41.0948C200.043 41.274 199.71 41.3636 199.327 41.3636C198.954 41.3636 198.619 41.2765 198.32 41.1023C198.027 40.9281 197.796 40.6817 197.627 40.3631C197.462 40.0445 197.38 39.6762 197.38 39.258ZM200.939 39.2655C200.939 38.937 200.871 38.6483 200.737 38.3994C200.603 38.1505 200.419 37.9588 200.185 37.8244C199.956 37.69 199.703 37.6228 199.424 37.6228C199.136 37.6228 198.877 37.6875 198.648 37.817C198.42 37.9464 198.238 38.1355 198.104 38.3844C197.975 38.6283 197.91 38.9195 197.91 39.258C197.91 39.5915 197.975 39.8852 198.104 40.1391C198.238 40.388 198.42 40.5796 198.648 40.714C198.877 40.8435 199.136 40.9082 199.424 40.9082C199.703 40.9082 199.956 40.841 200.185 40.7066C200.419 40.5722 200.603 40.3805 200.737 40.1316C200.871 39.8827 200.939 39.594 200.939 39.2655Z" fill="white"/>
<path d="M191.153 39.2577C191.153 38.8395 191.235 38.4737 191.399 38.1601C191.568 37.8415 191.799 37.5976 192.093 37.4283C192.391 37.2541 192.727 37.167 193.1 37.167C193.488 37.167 193.821 37.2566 194.099 37.4358C194.383 37.615 194.587 37.844 194.711 38.1227V37.2267H195.233V41.3035H194.711V40.4001C194.582 40.6788 194.375 40.9103 194.092 41.0945C193.813 41.2737 193.48 41.3633 193.092 41.3633C192.724 41.3633 192.391 41.2761 192.093 41.1019C191.799 40.9277 191.568 40.6813 191.399 40.3627C191.235 40.0441 191.153 39.6758 191.153 39.2577ZM194.711 39.2651C194.711 38.9366 194.644 38.6479 194.51 38.399C194.375 38.1501 194.191 37.9585 193.958 37.8241C193.729 37.6897 193.475 37.6225 193.197 37.6225C192.908 37.6225 192.65 37.6872 192.421 37.8166C192.192 37.946 192.011 38.1352 191.876 38.3841C191.747 38.628 191.682 38.9192 191.682 39.2577C191.682 39.5912 191.747 39.8849 191.876 40.1387C192.011 40.3876 192.192 40.5793 192.421 40.7137C192.65 40.8431 192.908 40.9078 193.197 40.9078C193.475 40.9078 193.729 40.8406 193.958 40.7062C194.191 40.5718 194.375 40.3801 194.51 40.1313C194.644 39.8824 194.711 39.5937 194.711 39.2651Z" fill="white"/>
<path d="M188.018 37.9515C188.132 37.6977 188.306 37.501 188.54 37.3617C188.778 37.2223 189.069 37.1526 189.412 37.1526V37.6977H189.271C188.893 37.6977 188.589 37.7997 188.361 38.0038C188.132 38.2079 188.018 38.5489 188.018 39.0267V41.3041H187.495V37.2273H188.018V37.9515Z" fill="white"/>
<path d="M185.478 36.0847V36.5178H184.03V41.3039H183.508V36.5178H182.054V36.0847H185.478Z" fill="white"/>
<path d="M177.037 39.0561C177.037 39.2353 177.033 39.3721 177.023 39.4667H173.643C173.658 39.7753 173.733 40.0392 173.867 40.2582C174.001 40.4772 174.178 40.644 174.397 40.7585C174.616 40.868 174.854 40.9227 175.113 40.9227C175.451 40.9227 175.735 40.8406 175.963 40.6763C176.197 40.5121 176.351 40.2905 176.426 40.0118H176.978C176.878 40.41 176.665 40.7361 176.336 40.9899C176.013 41.2388 175.605 41.3633 175.113 41.3633C174.73 41.3633 174.387 41.2786 174.084 41.1094C173.78 40.9352 173.541 40.6913 173.367 40.3777C173.198 40.0591 173.114 39.6882 173.114 39.2651C173.114 38.842 173.198 38.4712 173.367 38.1526C173.536 37.834 173.773 37.5901 174.076 37.4209C174.379 37.2516 174.725 37.167 175.113 37.167C175.501 37.167 175.839 37.2516 176.127 37.4209C176.421 37.5901 176.645 37.8191 176.799 38.1078C176.958 38.3915 177.037 38.7076 177.037 39.0561ZM176.508 39.0411C176.513 38.7375 176.451 38.4786 176.321 38.2646C176.197 38.0505 176.025 37.8888 175.807 37.7793C175.588 37.6697 175.349 37.615 175.091 37.615C174.703 37.615 174.372 37.7394 174.098 37.9883C173.825 38.2372 173.673 38.5881 173.643 39.0411H176.508Z" fill="white"/>
<path d="M169.978 37.9515C170.092 37.6977 170.266 37.501 170.5 37.3617C170.739 37.2223 171.03 37.1526 171.373 37.1526V37.6977H171.231C170.853 37.6977 170.55 37.7997 170.321 38.0038C170.092 38.2079 169.978 38.5489 169.978 39.0267V41.3041H169.456V37.2273H169.978V37.9515Z" fill="white"/>
<path d="M167.071 37.2271V41.3039H166.548V40.5871C166.429 40.8409 166.245 41.0351 165.996 41.1695C165.748 41.3039 165.469 41.3711 165.161 41.3711C164.674 41.3711 164.276 41.2217 163.967 40.9231C163.659 40.6194 163.505 40.1814 163.505 39.6089V37.2271H164.02V39.5492C164.02 39.9922 164.129 40.3307 164.348 40.5647C164.572 40.7986 164.875 40.9156 165.258 40.9156C165.651 40.9156 165.964 40.7911 166.198 40.5423C166.432 40.2934 166.548 39.9275 166.548 39.4447V37.2271H167.071Z" fill="white"/>
<path d="M160.369 37.6676V40.1988C160.369 40.4477 160.416 40.6194 160.51 40.714C160.605 40.8085 160.771 40.8558 161.01 40.8558H161.487V41.3038H160.928C160.56 41.3038 160.286 41.2192 160.107 41.05C159.928 40.8757 159.839 40.592 159.839 40.1988V37.6676H159.272V37.227H159.839V36.2041H160.369V37.227H161.487V37.6676H160.369Z" fill="white"/>
<path d="M157.304 37.2271V41.3039H156.782V40.5871C156.662 40.8409 156.478 41.0351 156.23 41.1695C155.981 41.3039 155.703 41.3711 155.394 41.3711C154.907 41.3711 154.509 41.2217 154.201 40.9231C153.892 40.6194 153.738 40.1814 153.738 39.6089V37.2271H154.253V39.5492C154.253 39.9922 154.362 40.3307 154.581 40.5647C154.805 40.7986 155.108 40.9156 155.491 40.9156C155.884 40.9156 156.197 40.7911 156.431 40.5423C156.665 40.2934 156.782 39.9275 156.782 39.4447V37.2271H157.304Z" fill="white"/>
<path d="M151.723 36.0847V36.5178H149.425V38.4666H151.365V38.8997H149.425V41.3039H148.903V36.0847H151.723Z" fill="white"/>
<path d="M141.466 41.3633C141.083 41.3633 140.737 41.2786 140.429 41.1094C140.126 40.9352 139.884 40.6913 139.705 40.3777C139.531 40.0591 139.444 39.6882 139.444 39.2651C139.444 38.842 139.534 38.4737 139.713 38.1601C139.892 37.8415 140.136 37.5976 140.444 37.4283C140.752 37.2541 141.098 37.167 141.481 37.167C141.864 37.167 142.209 37.2541 142.518 37.4283C142.831 37.5976 143.075 37.8415 143.249 38.1601C143.428 38.4737 143.517 38.842 143.517 39.2651C143.517 39.6833 143.428 40.0516 143.249 40.3702C143.07 40.6888 142.824 40.9352 142.51 41.1094C142.197 41.2786 141.849 41.3633 141.466 41.3633ZM141.466 40.9078C141.734 40.9078 141.983 40.8481 142.212 40.7286C142.441 40.6041 142.625 40.42 142.764 40.1761C142.908 39.9272 142.98 39.6235 142.98 39.2651C142.98 38.9067 142.911 38.6056 142.771 38.3617C142.632 38.1128 142.448 37.9286 142.219 37.8091C141.991 37.6847 141.742 37.6225 141.473 37.6225C141.205 37.6225 140.956 37.6847 140.727 37.8091C140.499 37.9286 140.315 38.1128 140.175 38.3617C140.041 38.6056 139.974 38.9067 139.974 39.2651C139.974 39.6235 140.041 39.9272 140.175 40.1761C140.315 40.42 140.496 40.6041 140.72 40.7286C140.949 40.8481 141.197 40.9078 141.466 40.9078Z" fill="white"/>
<path d="M136.509 37.6676V40.1988C136.509 40.4477 136.556 40.6194 136.651 40.714C136.745 40.8085 136.912 40.8558 137.151 40.8558H137.628V41.3038H137.069C136.701 41.3038 136.427 41.2192 136.248 41.05C136.069 40.8757 135.98 40.592 135.98 40.1988V37.6676H135.413V37.227H135.98V36.2041H136.509V37.227H137.628V37.6676H136.509Z" fill="white"/>
<path d="M130.118 38.1227C130.247 37.8489 130.451 37.6225 130.73 37.4433C131.013 37.2591 131.349 37.167 131.737 37.167C132.105 37.167 132.435 37.2541 132.729 37.4283C133.027 37.5976 133.258 37.8415 133.423 38.1601C133.592 38.4737 133.676 38.8395 133.676 39.2577C133.676 39.6758 133.592 40.0441 133.423 40.3627C133.258 40.6813 133.027 40.9277 132.729 41.1019C132.435 41.2761 132.105 41.3633 131.737 41.3633C131.354 41.3633 131.021 41.2737 130.737 41.0945C130.454 40.9103 130.247 40.6813 130.118 40.4075V43.2299H129.603V37.2267H130.118V38.1227ZM133.147 39.2577C133.147 38.9192 133.079 38.628 132.945 38.3841C132.816 38.1352 132.637 37.946 132.408 37.8166C132.179 37.6872 131.921 37.6225 131.632 37.6225C131.354 37.6225 131.098 37.6897 130.864 37.8241C130.635 37.9585 130.454 38.1501 130.319 38.399C130.185 38.6479 130.118 38.9366 130.118 39.2651C130.118 39.5937 130.185 39.8824 130.319 40.1313C130.454 40.3801 130.635 40.5718 130.864 40.7062C131.098 40.8406 131.354 40.9078 131.632 40.9078C131.921 40.9078 132.179 40.8431 132.408 40.7137C132.637 40.5793 132.816 40.3876 132.945 40.1387C133.079 39.8849 133.147 39.5912 133.147 39.2577Z" fill="white"/>
<path d="M127.702 37.2271L125.285 43.2228H124.74L125.531 41.2815L123.86 37.2271H124.434L125.822 40.7065L127.165 37.2271H127.702Z" fill="white"/>
<path d="M120.971 37.9515C121.085 37.6977 121.259 37.501 121.493 37.3617C121.732 37.2223 122.022 37.1526 122.366 37.1526V37.6977H122.224C121.846 37.6977 121.543 37.7997 121.314 38.0038C121.085 38.2079 120.971 38.5489 120.971 39.0267V41.3041H120.448V37.2273H120.971V37.9515Z" fill="white"/>
<path d="M113.262 38.6905C113.262 38.1778 113.374 37.7198 113.597 37.3166C113.821 36.9085 114.127 36.5924 114.515 36.3684C114.903 36.1394 115.335 36.0249 115.813 36.0249C116.395 36.0249 116.892 36.1643 117.305 36.443C117.723 36.7168 118.026 37.1051 118.215 37.6078H117.603C117.454 37.2544 117.225 36.9781 116.917 36.779C116.614 36.5799 116.246 36.4804 115.813 36.4804C115.43 36.4804 115.084 36.57 114.776 36.7492C114.473 36.9284 114.234 37.1872 114.06 37.5257C113.886 37.8592 113.799 38.2475 113.799 38.6905C113.799 39.1335 113.886 39.5218 114.06 39.8553C114.234 40.1888 114.473 40.4452 114.776 40.6244C115.084 40.8036 115.43 40.8932 115.813 40.8932C116.246 40.8932 116.614 40.7961 116.917 40.602C117.225 40.4029 117.454 40.1291 117.603 39.7806H118.215C118.026 40.2784 117.723 40.6642 117.305 40.938C116.887 41.2117 116.39 41.3486 115.813 41.3486C115.335 41.3486 114.903 41.2366 114.515 41.0126C114.127 40.7837 113.821 40.4676 113.597 40.0644C113.374 39.6612 113.262 39.2032 113.262 38.6905Z" fill="white"/>
<path d="M103.794 39.258C103.794 38.8399 103.878 38.474 104.048 38.1604C104.217 37.8419 104.448 37.5979 104.741 37.4287C105.04 37.2545 105.375 37.1674 105.748 37.1674C106.106 37.1674 106.43 37.2545 106.718 37.4287C107.007 37.6029 107.218 37.8294 107.352 38.1082V35.7786H107.874V41.3039H107.352V40.393C107.228 40.6767 107.024 40.9107 106.74 41.0948C106.457 41.274 106.124 41.3636 105.741 41.3636C105.368 41.3636 105.032 41.2765 104.734 41.1023C104.44 40.9281 104.209 40.6817 104.04 40.3631C103.876 40.0445 103.794 39.6762 103.794 39.258ZM107.352 39.2655C107.352 38.937 107.285 38.6483 107.151 38.3994C107.016 38.1505 106.832 37.9588 106.599 37.8244C106.37 37.69 106.116 37.6228 105.838 37.6228C105.549 37.6228 105.291 37.6875 105.062 37.817C104.833 37.9464 104.652 38.1355 104.518 38.3844C104.388 38.6283 104.324 38.9195 104.324 39.258C104.324 39.5915 104.388 39.8852 104.518 40.1391C104.652 40.388 104.833 40.5796 105.062 40.714C105.291 40.8435 105.549 40.9082 105.838 40.9082C106.116 40.9082 106.37 40.841 106.599 40.7066C106.832 40.5722 107.016 40.3805 107.151 40.1316C107.285 39.8827 107.352 39.594 107.352 39.2655Z" fill="white"/>
<path d="M101.884 39.0561C101.884 39.2353 101.879 39.3721 101.869 39.4667H98.4896C98.5045 39.7753 98.5791 40.0392 98.7134 40.2582C98.8476 40.4772 99.0242 40.644 99.243 40.7585C99.4618 40.868 99.7005 40.9227 99.9591 40.9227C100.297 40.9227 100.581 40.8406 100.81 40.6763C101.043 40.5121 101.197 40.2905 101.272 40.0118H101.824C101.725 40.41 101.511 40.7361 101.182 40.9899C100.859 41.2388 100.451 41.3633 99.9591 41.3633C99.5762 41.3633 99.2331 41.2786 98.9297 41.1094C98.6263 40.9352 98.3876 40.6913 98.2136 40.3777C98.0445 40.0591 97.96 39.6882 97.96 39.2651C97.96 38.842 98.0445 38.4712 98.2136 38.1526C98.3827 37.834 98.6189 37.5901 98.9222 37.4209C99.2256 37.2516 99.5712 37.167 99.9591 37.167C100.347 37.167 100.685 37.2516 100.974 37.4209C101.267 37.5901 101.491 37.8191 101.645 38.1078C101.804 38.3915 101.884 38.7076 101.884 39.0561ZM101.354 39.0411C101.359 38.7375 101.297 38.4786 101.168 38.2646C101.043 38.0505 100.872 37.8888 100.653 37.7793C100.434 37.6697 100.195 37.615 99.9367 37.615C99.5488 37.615 99.2181 37.7394 98.9446 37.9883C98.6711 38.2372 98.5194 38.5881 98.4896 39.0411H101.354Z" fill="white"/>
<path d="M95.0248 37.6676V40.1988C95.0248 40.4477 95.072 40.6194 95.1665 40.714C95.261 40.8085 95.4276 40.8558 95.6663 40.8558H96.1437V41.3038H95.5842C95.2162 41.3038 94.9427 41.2192 94.7637 41.05C94.5847 40.8757 94.4951 40.592 94.4951 40.1988V37.6676H93.9282V37.227H94.4951V36.2041H95.0248V37.227H96.1437V37.6676H95.0248Z" fill="white"/>
<path d="M87.8804 39.2577C87.8804 38.8395 87.9624 38.4737 88.1265 38.1601C88.2956 37.8415 88.5269 37.5976 88.8203 37.4283C89.1187 37.2541 89.4543 37.167 89.8273 37.167C90.2152 37.167 90.5484 37.2566 90.8269 37.4358C91.1104 37.615 91.3142 37.844 91.4386 38.1227V37.2267H91.9607V41.3035H91.4386V40.4001C91.3093 40.6788 91.1029 40.9103 90.8194 41.0945C90.5409 41.2737 90.2077 41.3633 89.8199 41.3633C89.4518 41.3633 89.1187 41.2761 88.8203 41.1019C88.5269 40.9277 88.2956 40.6813 88.1265 40.3627C87.9624 40.0441 87.8804 39.6758 87.8804 39.2577ZM91.4386 39.2651C91.4386 38.9366 91.3714 38.6479 91.2372 38.399C91.1029 38.1501 90.9189 37.9585 90.6852 37.8241C90.4564 37.6897 90.2028 37.6225 89.9243 37.6225C89.6358 37.6225 89.3773 37.6872 89.1485 37.8166C88.9197 37.946 88.7382 38.1352 88.6039 38.3841C88.4746 38.628 88.41 38.9192 88.41 39.2577C88.41 39.5912 88.4746 39.8849 88.6039 40.1387C88.7382 40.3876 88.9197 40.5793 89.1485 40.7137C89.3773 40.8431 89.6358 40.9078 89.9243 40.9078C90.2028 40.9078 90.4564 40.8406 90.6852 40.7062C90.9189 40.5718 91.1029 40.3801 91.2372 40.1313C91.3714 39.8824 91.4386 39.5937 91.4386 39.2651Z" fill="white"/>
<path d="M84.1473 37.1526C84.6247 37.1526 85.0126 37.3044 85.311 37.6081C85.6143 37.9067 85.766 38.3423 85.766 38.9147V41.3041H85.2513V38.9745C85.2513 38.5314 85.1444 38.1929 84.9305 37.959C84.7167 37.725 84.4258 37.6081 84.0578 37.6081C83.6749 37.6081 83.369 37.735 83.1403 37.9889C82.9115 38.2427 82.7971 38.6111 82.7971 39.0939V41.3041H82.2824V38.9745C82.2824 38.5314 82.1755 38.1929 81.9616 37.959C81.7478 37.725 81.4544 37.6081 81.0814 37.6081C80.6985 37.6081 80.3927 37.735 80.1639 37.9889C79.9351 38.2427 79.8208 38.6111 79.8208 39.0939V41.3041H79.2986V37.2273H79.8208V37.9291C79.9501 37.6753 80.1341 37.4836 80.3728 37.3542C80.6115 37.2198 80.8775 37.1526 81.1709 37.1526C81.524 37.1526 81.8323 37.2372 82.0959 37.4065C82.3645 37.5757 82.5584 37.8246 82.6778 38.1531C82.7872 37.8296 82.9737 37.5832 83.2372 37.4139C83.5058 37.2397 83.8091 37.1526 84.1473 37.1526Z" fill="white"/>
<path d="M75.1014 41.3633C74.7184 41.3633 74.3728 41.2786 74.0645 41.1094C73.7611 40.9352 73.5199 40.6913 73.3409 40.3777C73.1669 40.0591 73.0798 39.6882 73.0798 39.2651C73.0798 38.842 73.1693 38.4737 73.3484 38.1601C73.5274 37.8415 73.7711 37.5976 74.0794 37.4283C74.3877 37.2541 74.7334 37.167 75.1163 37.167C75.4992 37.167 75.8448 37.2541 76.1532 37.4283C76.4665 37.5976 76.7101 37.8415 76.8842 38.1601C77.0632 38.4737 77.1527 38.842 77.1527 39.2651C77.1527 39.6833 77.0632 40.0516 76.8842 40.3702C76.7052 40.6888 76.459 40.9352 76.1457 41.1094C75.8324 41.2786 75.4843 41.3633 75.1014 41.3633ZM75.1014 40.9078C75.3699 40.9078 75.6186 40.8481 75.8473 40.7286C76.0761 40.6041 76.2601 40.42 76.3993 40.1761C76.5435 39.9272 76.6157 39.6235 76.6157 39.2651C76.6157 38.9067 76.546 38.6056 76.4068 38.3617C76.2675 38.1128 76.0835 37.9286 75.8548 37.8091C75.626 37.6847 75.3774 37.6225 75.1088 37.6225C74.8403 37.6225 74.5916 37.6847 74.3629 37.8091C74.1341 37.9286 73.9501 38.1128 73.8109 38.3617C73.6766 38.6056 73.6095 38.9067 73.6095 39.2651C73.6095 39.6235 73.6766 39.9272 73.8109 40.1761C73.9501 40.42 74.1316 40.6041 74.3554 40.7286C74.5842 40.8481 74.8328 40.9078 75.1014 40.9078Z" fill="white"/>
<path d="M70.1451 37.6676V40.1988C70.1451 40.4477 70.1924 40.6194 70.2869 40.714C70.3814 40.8085 70.548 40.8558 70.7867 40.8558H71.2641V41.3038H70.7046C70.3366 41.3038 70.0631 41.2192 69.8841 41.05C69.705 40.8757 69.6155 40.592 69.6155 40.1988V37.6676H69.0486V37.227H69.6155V36.2041H70.1451V37.227H71.2641V37.6676H70.1451Z" fill="white"/>
<path d="M67.0803 37.2271V41.3039H66.5581V40.5871C66.4388 40.8409 66.2548 41.0351 66.0061 41.1695C65.7575 41.3039 65.479 41.3711 65.1707 41.3711C64.6833 41.3711 64.2855 41.2217 63.9771 40.9231C63.6688 40.6194 63.5146 40.1814 63.5146 39.6089V37.2271H64.0294V39.5492C64.0294 39.9922 64.1388 40.3307 64.3576 40.5647C64.5814 40.7986 64.8847 40.9156 65.2676 40.9156C65.6605 40.9156 65.9738 40.7911 66.2075 40.5423C66.4413 40.2934 66.5581 39.9275 66.5581 39.4447V37.2271H67.0803Z" fill="white"/>
<path d="M60.5137 40.0639H58.1416L57.6865 41.3034H57.1345L59.0367 36.1514H59.626L61.5207 41.3034H60.9687L60.5137 40.0639ZM60.357 39.6308L59.3276 36.8084L58.2982 39.6308H60.357Z" fill="white"/>
</svg>
