<svg width="32" height="33" viewBox="0 0 32 33" fill="none" xmlns="http://www.w3.org/2000/svg">
<rect y="0.9729" width="32" height="32" rx="10" fill="#CFE2DA"/>
<path d="M19 21.1345H22C22.2833 21.1345 22.5208 21.0387 22.7125 20.847C22.9042 20.6554 23 20.4179 23 20.1345V14.1345C23 13.8512 22.9042 13.6137 22.7125 13.422C22.5208 13.2304 22.2833 13.1345 22 13.1345H19C18.7167 13.1345 18.4792 13.2304 18.2875 13.422C18.0958 13.6137 18 13.8512 18 14.1345V20.1345C18 20.4179 18.0958 20.6554 18.2875 20.847C18.4792 21.0387 18.7167 21.1345 19 21.1345ZM20 19.1345V15.1345H21V19.1345H20ZM13 21.1345H16C16.2833 21.1345 16.5208 21.0387 16.7125 20.847C16.9042 20.6554 17 20.4179 17 20.1345V14.1345C17 13.8512 16.9042 13.6137 16.7125 13.422C16.5208 13.2304 16.2833 13.1345 16 13.1345H13C12.7167 13.1345 12.4792 13.2304 12.2875 13.422C12.0958 13.6137 12 13.8512 12 14.1345V20.1345C12 20.4179 12.0958 20.6554 12.2875 20.847C12.4792 21.0387 12.7167 21.1345 13 21.1345ZM14 19.1345V15.1345H15V19.1345H14ZM9 21.1345H11V13.1345H9V21.1345ZM6 25.1345V9.13452H26V25.1345H6ZM8 23.1345H24V11.1345H8V23.1345Z" fill="#5F6368"/>
</svg>
