<svg width="56" height="33" viewBox="0 0 56 33" fill="none" xmlns="http://www.w3.org/2000/svg">
<path d="M27 23.4729L31 19.4729L27 15.4729L25.6 16.8729L28.2 19.4729L25.6 22.0729L27 23.4729ZM20 26.9729C19.45 26.9729 18.9792 26.7771 18.5875 26.3854C18.1958 25.9937 18 25.5229 18 24.9729V13.9729C18 13.4229 18.1958 12.9521 18.5875 12.5604C18.9792 12.1687 19.45 11.9729 20 11.9729H24V9.9729C24 9.4229 24.1958 8.95207 24.5875 8.5604C24.9792 8.16873 25.45 7.9729 26 7.9729H30C30.55 7.9729 31.0208 8.16873 31.4125 8.5604C31.8042 8.95207 32 9.4229 32 9.9729V11.9729H36C36.55 11.9729 37.0208 12.1687 37.4125 12.5604C37.8042 12.9521 38 13.4229 38 13.9729V24.9729C38 25.5229 37.8042 25.9937 37.4125 26.3854C37.0208 26.7771 36.55 26.9729 36 26.9729H20ZM20 24.9729H36V13.9729H20V24.9729ZM26 11.9729H30V9.9729H26V11.9729Z" fill="#757575"/>
</svg>
