<svg width="476" height="175" viewBox="0 0 476 175" fill="none" xmlns="http://www.w3.org/2000/svg">
<path d="M6.441 19.1649C5.865 19.1649 5.34233 19.0689 4.873 18.8769C4.41433 18.6742 4.01967 18.3916 3.689 18.0289C3.369 17.6556 3.12367 17.2022 2.953 16.6689C2.78233 16.1356 2.697 15.5382 2.697 14.8769C2.697 14.0449 2.81967 13.2662 3.065 12.5409C3.31033 11.8049 3.625 11.1382 4.009 10.5409C4.40367 9.9329 4.83567 9.39957 5.305 8.9409C5.77433 8.47157 6.233 8.0929 6.681 7.8049H8.409C7.81167 8.24223 7.27833 8.6689 6.809 9.0849C6.33967 9.5009 5.929 9.93823 5.577 10.3969C5.225 10.8449 4.92633 11.3302 4.681 11.8529C4.43567 12.3649 4.23833 12.9462 4.089 13.5969L4.169 13.6289C4.43567 13.1702 4.777 12.7916 5.193 12.4929C5.61967 12.1836 6.17433 12.0289 6.857 12.0289C7.337 12.0289 7.77967 12.1089 8.185 12.2689C8.59033 12.4289 8.937 12.6582 9.225 12.9569C9.513 13.2556 9.737 13.6182 9.897 14.0449C10.0677 14.4716 10.153 14.9462 10.153 15.4689C10.153 16.0129 10.0623 16.5142 9.881 16.9729C9.71033 17.4209 9.45967 17.8102 9.129 18.1409C8.809 18.4609 8.41967 18.7116 7.961 18.8929C7.50233 19.0742 6.99567 19.1649 6.441 19.1649ZM6.425 17.9969C7.161 17.9969 7.73167 17.7942 8.137 17.3889C8.553 16.9836 8.761 16.4022 8.761 15.6449V15.5169C8.761 14.7596 8.553 14.1782 8.137 13.7729C7.73167 13.3676 7.161 13.1649 6.425 13.1649C5.689 13.1649 5.113 13.3676 4.697 13.7729C4.29167 14.1782 4.089 14.7596 4.089 15.5169V15.6449C4.089 16.4022 4.29167 16.9836 4.697 17.3889C5.113 17.7942 5.689 17.9969 6.425 17.9969ZM16.0188 19.1649C14.6854 19.1649 13.7094 18.6582 13.0908 17.6449C12.4828 16.6316 12.1788 15.2129 12.1788 13.3889C12.1788 11.5649 12.4828 10.1462 13.0908 9.1329C13.7094 8.11957 14.6854 7.6129 16.0188 7.6129C17.3521 7.6129 18.3228 8.11957 18.9308 9.1329C19.5494 10.1462 19.8588 11.5649 19.8588 13.3889C19.8588 15.2129 19.5494 16.6316 18.9308 17.6449C18.3228 18.6582 17.3521 19.1649 16.0188 19.1649ZM16.0188 17.9969C16.4561 17.9969 16.8294 17.9062 17.1388 17.7249C17.4481 17.5436 17.6988 17.2876 17.8908 16.9569C18.0828 16.6262 18.2214 16.2369 18.3068 15.7889C18.4028 15.3409 18.4508 14.8449 18.4508 14.3009V12.4769C18.4508 11.9329 18.4028 11.4369 18.3068 10.9889C18.2214 10.5409 18.0828 10.1516 17.8908 9.8209C17.6988 9.49023 17.4481 9.23423 17.1388 9.0529C16.8294 8.87157 16.4561 8.7809 16.0188 8.7809C15.5814 8.7809 15.2081 8.87157 14.8988 9.0529C14.5894 9.23423 14.3388 9.49023 14.1468 9.8209C13.9548 10.1516 13.8108 10.5409 13.7148 10.9889C13.6294 11.4369 13.5868 11.9329 13.5868 12.4769V14.3009C13.5868 14.8449 13.6294 15.3409 13.7148 15.7889C13.8108 16.2369 13.9548 16.6262 14.1468 16.9569C14.3388 17.2876 14.5894 17.5436 14.8988 17.7249C15.2081 17.9062 15.5814 17.9969 16.0188 17.9969ZM25.6125 19.1649C24.2792 19.1649 23.3032 18.6582 22.6845 17.6449C22.0765 16.6316 21.7725 15.2129 21.7725 13.3889C21.7725 11.5649 22.0765 10.1462 22.6845 9.1329C23.3032 8.11957 24.2792 7.6129 25.6125 7.6129C26.9458 7.6129 27.9165 8.11957 28.5245 9.1329C29.1432 10.1462 29.4525 11.5649 29.4525 13.3889C29.4525 15.2129 29.1432 16.6316 28.5245 17.6449C27.9165 18.6582 26.9458 19.1649 25.6125 19.1649ZM25.6125 17.9969C26.0498 17.9969 26.4232 17.9062 26.7325 17.7249C27.0418 17.5436 27.2925 17.2876 27.4845 16.9569C27.6765 16.6262 27.8152 16.2369 27.9005 15.7889C27.9965 15.3409 28.0445 14.8449 28.0445 14.3009V12.4769C28.0445 11.9329 27.9965 11.4369 27.9005 10.9889C27.8152 10.5409 27.6765 10.1516 27.4845 9.8209C27.2925 9.49023 27.0418 9.23423 26.7325 9.0529C26.4232 8.87157 26.0498 8.7809 25.6125 8.7809C25.1752 8.7809 24.8018 8.87157 24.4925 9.0529C24.1832 9.23423 23.9325 9.49023 23.7405 9.8209C23.5485 10.1516 23.4045 10.5409 23.3085 10.9889C23.2232 11.4369 23.1805 11.9329 23.1805 12.4769V14.3009C23.1805 14.8449 23.2232 15.3409 23.3085 15.7889C23.4045 16.2369 23.5485 16.6262 23.7405 16.9569C23.9325 17.2876 24.1832 17.5436 24.4925 17.7249C24.8018 17.9062 25.1752 17.9969 25.6125 17.9969ZM35.2063 19.1649C33.8729 19.1649 32.8969 18.6582 32.2783 17.6449C31.6703 16.6316 31.3663 15.2129 31.3663 13.3889C31.3663 11.5649 31.6703 10.1462 32.2783 9.1329C32.8969 8.11957 33.8729 7.6129 35.2063 7.6129C36.5396 7.6129 37.5103 8.11957 38.1183 9.1329C38.7369 10.1462 39.0463 11.5649 39.0463 13.3889C39.0463 15.2129 38.7369 16.6316 38.1183 17.6449C37.5103 18.6582 36.5396 19.1649 35.2063 19.1649ZM35.2063 17.9969C35.6436 17.9969 36.0169 17.9062 36.3263 17.7249C36.6356 17.5436 36.8863 17.2876 37.0783 16.9569C37.2703 16.6262 37.4089 16.2369 37.4943 15.7889C37.5903 15.3409 37.6383 14.8449 37.6383 14.3009V12.4769C37.6383 11.9329 37.5903 11.4369 37.4943 10.9889C37.4089 10.5409 37.2703 10.1516 37.0783 9.8209C36.8863 9.49023 36.6356 9.23423 36.3263 9.0529C36.0169 8.87157 35.6436 8.7809 35.2063 8.7809C34.7689 8.7809 34.3956 8.87157 34.0863 9.0529C33.7769 9.23423 33.5263 9.49023 33.3343 9.8209C33.1423 10.1516 32.9983 10.5409 32.9023 10.9889C32.8169 11.4369 32.7743 11.9329 32.7743 12.4769V14.3009C32.7743 14.8449 32.8169 15.3409 32.9023 15.7889C32.9983 16.2369 33.1423 16.6262 33.3343 16.9569C33.5263 17.2876 33.7769 17.5436 34.0863 17.7249C34.3956 17.9062 34.7689 17.9969 35.2063 17.9969Z" fill="#032123"/>
<g filter="url(#filter0_f_2467_5386)">
<line x1="52" y1="12.4729" x2="420" y2="12.4729" stroke="#B6CDC3"/>
</g>
<path d="M436.816 19.1649C436.24 19.1649 435.717 19.0689 435.248 18.8769C434.789 18.6742 434.395 18.3916 434.064 18.0289C433.744 17.6556 433.499 17.2022 433.328 16.6689C433.157 16.1356 433.072 15.5382 433.072 14.8769C433.072 14.0449 433.195 13.2662 433.44 12.5409C433.685 11.8049 434 11.1382 434.384 10.5409C434.779 9.9329 435.211 9.39957 435.68 8.9409C436.149 8.47157 436.608 8.0929 437.056 7.8049H438.784C438.187 8.24223 437.653 8.6689 437.184 9.0849C436.715 9.5009 436.304 9.93823 435.952 10.3969C435.6 10.8449 435.301 11.3302 435.056 11.8529C434.811 12.3649 434.613 12.9462 434.464 13.5969L434.544 13.6289C434.811 13.1702 435.152 12.7916 435.568 12.4929C435.995 12.1836 436.549 12.0289 437.232 12.0289C437.712 12.0289 438.155 12.1089 438.56 12.2689C438.965 12.4289 439.312 12.6582 439.6 12.9569C439.888 13.2556 440.112 13.6182 440.272 14.0449C440.443 14.4716 440.528 14.9462 440.528 15.4689C440.528 16.0129 440.437 16.5142 440.256 16.9729C440.085 17.4209 439.835 17.8102 439.504 18.1409C439.184 18.4609 438.795 18.7116 438.336 18.8929C437.877 19.0742 437.371 19.1649 436.816 19.1649ZM436.8 17.9969C437.536 17.9969 438.107 17.7942 438.512 17.3889C438.928 16.9836 439.136 16.4022 439.136 15.6449V15.5169C439.136 14.7596 438.928 14.1782 438.512 13.7729C438.107 13.3676 437.536 13.1649 436.8 13.1649C436.064 13.1649 435.488 13.3676 435.072 13.7729C434.667 14.1782 434.464 14.7596 434.464 15.5169V15.6449C434.464 16.4022 434.667 16.9836 435.072 17.3889C435.488 17.7942 436.064 17.9969 436.8 17.9969ZM446.394 19.1649C445.06 19.1649 444.084 18.6582 443.466 17.6449C442.858 16.6316 442.554 15.2129 442.554 13.3889C442.554 11.5649 442.858 10.1462 443.466 9.1329C444.084 8.11957 445.06 7.6129 446.394 7.6129C447.727 7.6129 448.698 8.11957 449.306 9.1329C449.924 10.1462 450.234 11.5649 450.234 13.3889C450.234 15.2129 449.924 16.6316 449.306 17.6449C448.698 18.6582 447.727 19.1649 446.394 19.1649ZM446.394 17.9969C446.831 17.9969 447.204 17.9062 447.514 17.7249C447.823 17.5436 448.074 17.2876 448.266 16.9569C448.458 16.6262 448.596 16.2369 448.682 15.7889C448.778 15.3409 448.826 14.8449 448.826 14.3009V12.4769C448.826 11.9329 448.778 11.4369 448.682 10.9889C448.596 10.5409 448.458 10.1516 448.266 9.8209C448.074 9.49023 447.823 9.23423 447.514 9.0529C447.204 8.87157 446.831 8.7809 446.394 8.7809C445.956 8.7809 445.583 8.87157 445.274 9.0529C444.964 9.23423 444.714 9.49023 444.522 9.8209C444.33 10.1516 444.186 10.5409 444.09 10.9889C444.004 11.4369 443.962 11.9329 443.962 12.4769V14.3009C443.962 14.8449 444.004 15.3409 444.09 15.7889C444.186 16.2369 444.33 16.6262 444.522 16.9569C444.714 17.2876 444.964 17.5436 445.274 17.7249C445.583 17.9062 445.956 17.9969 446.394 17.9969ZM455.988 19.1649C454.654 19.1649 453.678 18.6582 453.06 17.6449C452.452 16.6316 452.148 15.2129 452.148 13.3889C452.148 11.5649 452.452 10.1462 453.06 9.1329C453.678 8.11957 454.654 7.6129 455.988 7.6129C457.321 7.6129 458.292 8.11957 458.9 9.1329C459.518 10.1462 459.828 11.5649 459.828 13.3889C459.828 15.2129 459.518 16.6316 458.9 17.6449C458.292 18.6582 457.321 19.1649 455.988 19.1649ZM455.988 17.9969C456.425 17.9969 456.798 17.9062 457.108 17.7249C457.417 17.5436 457.668 17.2876 457.86 16.9569C458.052 16.6262 458.19 16.2369 458.276 15.7889C458.372 15.3409 458.42 14.8449 458.42 14.3009V12.4769C458.42 11.9329 458.372 11.4369 458.276 10.9889C458.19 10.5409 458.052 10.1516 457.86 9.8209C457.668 9.49023 457.417 9.23423 457.108 9.0529C456.798 8.87157 456.425 8.7809 455.988 8.7809C455.55 8.7809 455.177 8.87157 454.868 9.0529C454.558 9.23423 454.308 9.49023 454.116 9.8209C453.924 10.1516 453.78 10.5409 453.684 10.9889C453.598 11.4369 453.556 11.9329 453.556 12.4769V14.3009C453.556 14.8449 453.598 15.3409 453.684 15.7889C453.78 16.2369 453.924 16.6262 454.116 16.9569C454.308 17.2876 454.558 17.5436 454.868 17.7249C455.177 17.9062 455.55 17.9969 455.988 17.9969ZM465.581 19.1649C464.248 19.1649 463.272 18.6582 462.653 17.6449C462.045 16.6316 461.741 15.2129 461.741 13.3889C461.741 11.5649 462.045 10.1462 462.653 9.1329C463.272 8.11957 464.248 7.6129 465.581 7.6129C466.915 7.6129 467.885 8.11957 468.493 9.1329C469.112 10.1462 469.421 11.5649 469.421 13.3889C469.421 15.2129 469.112 16.6316 468.493 17.6449C467.885 18.6582 466.915 19.1649 465.581 19.1649ZM465.581 17.9969C466.019 17.9969 466.392 17.9062 466.701 17.7249C467.011 17.5436 467.261 17.2876 467.453 16.9569C467.645 16.6262 467.784 16.2369 467.869 15.7889C467.965 15.3409 468.013 14.8449 468.013 14.3009V12.4769C468.013 11.9329 467.965 11.4369 467.869 10.9889C467.784 10.5409 467.645 10.1516 467.453 9.8209C467.261 9.49023 467.011 9.23423 466.701 9.0529C466.392 8.87157 466.019 8.7809 465.581 8.7809C465.144 8.7809 464.771 8.87157 464.461 9.0529C464.152 9.23423 463.901 9.49023 463.709 9.8209C463.517 10.1516 463.373 10.5409 463.277 10.9889C463.192 11.4369 463.149 11.9329 463.149 12.4769V14.3009C463.149 14.8449 463.192 15.3409 463.277 15.7889C463.373 16.2369 463.517 16.6262 463.709 16.9569C463.901 17.2876 464.152 17.5436 464.461 17.7249C464.771 17.9062 465.144 17.9969 465.581 17.9969Z" fill="#032123"/>
<path d="M7.625 66.9729V64.7809H2.233V63.5969L6.905 55.8049H8.905V63.6609H10.521V64.7809H8.905V66.9729H7.625ZM3.497 63.6609H7.625V56.8449H7.545L3.497 63.6609ZM16.0188 67.1649C14.6854 67.1649 13.7094 66.6582 13.0908 65.6449C12.4828 64.6316 12.1788 63.2129 12.1788 61.3889C12.1788 59.5649 12.4828 58.1462 13.0908 57.1329C13.7094 56.1196 14.6854 55.6129 16.0188 55.6129C17.3521 55.6129 18.3228 56.1196 18.9308 57.1329C19.5494 58.1462 19.8588 59.5649 19.8588 61.3889C19.8588 63.2129 19.5494 64.6316 18.9308 65.6449C18.3228 66.6582 17.3521 67.1649 16.0188 67.1649ZM16.0188 65.9969C16.4561 65.9969 16.8294 65.9062 17.1388 65.7249C17.4481 65.5436 17.6988 65.2876 17.8908 64.9569C18.0828 64.6262 18.2214 64.2369 18.3068 63.7889C18.4028 63.3409 18.4508 62.8449 18.4508 62.3009V60.4769C18.4508 59.9329 18.4028 59.4369 18.3068 58.9889C18.2214 58.5409 18.0828 58.1516 17.8908 57.8209C17.6988 57.4902 17.4481 57.2342 17.1388 57.0529C16.8294 56.8716 16.4561 56.7809 16.0188 56.7809C15.5814 56.7809 15.2081 56.8716 14.8988 57.0529C14.5894 57.2342 14.3388 57.4902 14.1468 57.8209C13.9548 58.1516 13.8108 58.5409 13.7148 58.9889C13.6294 59.4369 13.5868 59.9329 13.5868 60.4769V62.3009C13.5868 62.8449 13.6294 63.3409 13.7148 63.7889C13.8108 64.2369 13.9548 64.6262 14.1468 64.9569C14.3388 65.2876 14.5894 65.5436 14.8988 65.7249C15.2081 65.9062 15.5814 65.9969 16.0188 65.9969ZM25.6125 67.1649C24.2792 67.1649 23.3032 66.6582 22.6845 65.6449C22.0765 64.6316 21.7725 63.2129 21.7725 61.3889C21.7725 59.5649 22.0765 58.1462 22.6845 57.1329C23.3032 56.1196 24.2792 55.6129 25.6125 55.6129C26.9458 55.6129 27.9165 56.1196 28.5245 57.1329C29.1432 58.1462 29.4525 59.5649 29.4525 61.3889C29.4525 63.2129 29.1432 64.6316 28.5245 65.6449C27.9165 66.6582 26.9458 67.1649 25.6125 67.1649ZM25.6125 65.9969C26.0498 65.9969 26.4232 65.9062 26.7325 65.7249C27.0418 65.5436 27.2925 65.2876 27.4845 64.9569C27.6765 64.6262 27.8152 64.2369 27.9005 63.7889C27.9965 63.3409 28.0445 62.8449 28.0445 62.3009V60.4769C28.0445 59.9329 27.9965 59.4369 27.9005 58.9889C27.8152 58.5409 27.6765 58.1516 27.4845 57.8209C27.2925 57.4902 27.0418 57.2342 26.7325 57.0529C26.4232 56.8716 26.0498 56.7809 25.6125 56.7809C25.1752 56.7809 24.8018 56.8716 24.4925 57.0529C24.1832 57.2342 23.9325 57.4902 23.7405 57.8209C23.5485 58.1516 23.4045 58.5409 23.3085 58.9889C23.2232 59.4369 23.1805 59.9329 23.1805 60.4769V62.3009C23.1805 62.8449 23.2232 63.3409 23.3085 63.7889C23.4045 64.2369 23.5485 64.6262 23.7405 64.9569C23.9325 65.2876 24.1832 65.5436 24.4925 65.7249C24.8018 65.9062 25.1752 65.9969 25.6125 65.9969ZM35.2063 67.1649C33.8729 67.1649 32.8969 66.6582 32.2783 65.6449C31.6703 64.6316 31.3663 63.2129 31.3663 61.3889C31.3663 59.5649 31.6703 58.1462 32.2783 57.1329C32.8969 56.1196 33.8729 55.6129 35.2063 55.6129C36.5396 55.6129 37.5103 56.1196 38.1183 57.1329C38.7369 58.1462 39.0463 59.5649 39.0463 61.3889C39.0463 63.2129 38.7369 64.6316 38.1183 65.6449C37.5103 66.6582 36.5396 67.1649 35.2063 67.1649ZM35.2063 65.9969C35.6436 65.9969 36.0169 65.9062 36.3263 65.7249C36.6356 65.5436 36.8863 65.2876 37.0783 64.9569C37.2703 64.6262 37.4089 64.2369 37.4943 63.7889C37.5903 63.3409 37.6383 62.8449 37.6383 62.3009V60.4769C37.6383 59.9329 37.5903 59.4369 37.4943 58.9889C37.4089 58.5409 37.2703 58.1516 37.0783 57.8209C36.8863 57.4902 36.6356 57.2342 36.3263 57.0529C36.0169 56.8716 35.6436 56.7809 35.2063 56.7809C34.7689 56.7809 34.3956 56.8716 34.0863 57.0529C33.7769 57.2342 33.5263 57.4902 33.3343 57.8209C33.1423 58.1516 32.9983 58.5409 32.9023 58.9889C32.8169 59.4369 32.7743 59.9329 32.7743 60.4769V62.3009C32.7743 62.8449 32.8169 63.3409 32.9023 63.7889C32.9983 64.2369 33.1423 64.6262 33.3343 64.9569C33.5263 65.2876 33.7769 65.5436 34.0863 65.7249C34.3956 65.9062 34.7689 65.9969 35.2063 65.9969Z" fill="#032123"/>
<g filter="url(#filter1_f_2467_5386)">
<line x1="52" y1="60.4729" x2="420" y2="60.4729" stroke="#B6CDC3"/>
</g>
<path d="M438 66.9729V64.7809H432.608V63.5969L437.28 55.8049H439.28V63.6609H440.896V64.7809H439.28V66.9729H438ZM433.872 63.6609H438V56.8449H437.92L433.872 63.6609ZM446.394 67.1649C445.06 67.1649 444.084 66.6582 443.466 65.6449C442.858 64.6316 442.554 63.2129 442.554 61.3889C442.554 59.5649 442.858 58.1462 443.466 57.1329C444.084 56.1196 445.06 55.6129 446.394 55.6129C447.727 55.6129 448.698 56.1196 449.306 57.1329C449.924 58.1462 450.234 59.5649 450.234 61.3889C450.234 63.2129 449.924 64.6316 449.306 65.6449C448.698 66.6582 447.727 67.1649 446.394 67.1649ZM446.394 65.9969C446.831 65.9969 447.204 65.9062 447.514 65.7249C447.823 65.5436 448.074 65.2876 448.266 64.9569C448.458 64.6262 448.596 64.2369 448.682 63.7889C448.778 63.3409 448.826 62.8449 448.826 62.3009V60.4769C448.826 59.9329 448.778 59.4369 448.682 58.9889C448.596 58.5409 448.458 58.1516 448.266 57.8209C448.074 57.4902 447.823 57.2342 447.514 57.0529C447.204 56.8716 446.831 56.7809 446.394 56.7809C445.956 56.7809 445.583 56.8716 445.274 57.0529C444.964 57.2342 444.714 57.4902 444.522 57.8209C444.33 58.1516 444.186 58.5409 444.09 58.9889C444.004 59.4369 443.962 59.9329 443.962 60.4769V62.3009C443.962 62.8449 444.004 63.3409 444.09 63.7889C444.186 64.2369 444.33 64.6262 444.522 64.9569C444.714 65.2876 444.964 65.5436 445.274 65.7249C445.583 65.9062 445.956 65.9969 446.394 65.9969ZM455.988 67.1649C454.654 67.1649 453.678 66.6582 453.06 65.6449C452.452 64.6316 452.148 63.2129 452.148 61.3889C452.148 59.5649 452.452 58.1462 453.06 57.1329C453.678 56.1196 454.654 55.6129 455.988 55.6129C457.321 55.6129 458.292 56.1196 458.9 57.1329C459.518 58.1462 459.828 59.5649 459.828 61.3889C459.828 63.2129 459.518 64.6316 458.9 65.6449C458.292 66.6582 457.321 67.1649 455.988 67.1649ZM455.988 65.9969C456.425 65.9969 456.798 65.9062 457.108 65.7249C457.417 65.5436 457.668 65.2876 457.86 64.9569C458.052 64.6262 458.19 64.2369 458.276 63.7889C458.372 63.3409 458.42 62.8449 458.42 62.3009V60.4769C458.42 59.9329 458.372 59.4369 458.276 58.9889C458.19 58.5409 458.052 58.1516 457.86 57.8209C457.668 57.4902 457.417 57.2342 457.108 57.0529C456.798 56.8716 456.425 56.7809 455.988 56.7809C455.55 56.7809 455.177 56.8716 454.868 57.0529C454.558 57.2342 454.308 57.4902 454.116 57.8209C453.924 58.1516 453.78 58.5409 453.684 58.9889C453.598 59.4369 453.556 59.9329 453.556 60.4769V62.3009C453.556 62.8449 453.598 63.3409 453.684 63.7889C453.78 64.2369 453.924 64.6262 454.116 64.9569C454.308 65.2876 454.558 65.5436 454.868 65.7249C455.177 65.9062 455.55 65.9969 455.988 65.9969ZM465.581 67.1649C464.248 67.1649 463.272 66.6582 462.653 65.6449C462.045 64.6316 461.741 63.2129 461.741 61.3889C461.741 59.5649 462.045 58.1462 462.653 57.1329C463.272 56.1196 464.248 55.6129 465.581 55.6129C466.915 55.6129 467.885 56.1196 468.493 57.1329C469.112 58.1462 469.421 59.5649 469.421 61.3889C469.421 63.2129 469.112 64.6316 468.493 65.6449C467.885 66.6582 466.915 67.1649 465.581 67.1649ZM465.581 65.9969C466.019 65.9969 466.392 65.9062 466.701 65.7249C467.011 65.5436 467.261 65.2876 467.453 64.9569C467.645 64.6262 467.784 64.2369 467.869 63.7889C467.965 63.3409 468.013 62.8449 468.013 62.3009V60.4769C468.013 59.9329 467.965 59.4369 467.869 58.9889C467.784 58.5409 467.645 58.1516 467.453 57.8209C467.261 57.4902 467.011 57.2342 466.701 57.0529C466.392 56.8716 466.019 56.7809 465.581 56.7809C465.144 56.7809 464.771 56.8716 464.461 57.0529C464.152 57.2342 463.901 57.4902 463.709 57.8209C463.517 58.1516 463.373 58.5409 463.277 58.9889C463.192 59.4369 463.149 59.9329 463.149 60.4769V62.3009C463.149 62.8449 463.192 63.3409 463.277 63.7889C463.373 64.2369 463.517 64.6262 463.709 64.9569C463.901 65.2876 464.152 65.5436 464.461 65.7249C464.771 65.9062 465.144 65.9969 465.581 65.9969Z" fill="#032123"/>
<path d="M10.153 114.973H2.825V113.597L6.473 110.237C6.99567 109.757 7.433 109.25 7.785 108.717C8.137 108.173 8.313 107.629 8.313 107.085V106.893C8.313 106.274 8.14233 105.773 7.801 105.389C7.45967 105.005 6.94233 104.813 6.249 104.813C5.90767 104.813 5.609 104.861 5.353 104.957C5.097 105.053 4.873 105.186 4.681 105.357C4.49967 105.528 4.345 105.73 4.217 105.965C4.09967 106.189 4.00367 106.434 3.929 106.701L2.729 106.237C2.83567 105.906 2.97967 105.586 3.161 105.277C3.353 104.957 3.58767 104.674 3.865 104.429C4.153 104.184 4.49433 103.986 4.889 103.837C5.29433 103.688 5.769 103.613 6.313 103.613C6.857 103.613 7.34233 103.693 7.769 103.853C8.19567 104.013 8.553 104.237 8.841 104.525C9.129 104.813 9.34767 105.154 9.497 105.549C9.657 105.944 9.737 106.381 9.737 106.861C9.737 107.298 9.673 107.704 9.545 108.077C9.42767 108.45 9.26233 108.808 9.049 109.149C8.83567 109.48 8.57433 109.805 8.265 110.125C7.96633 110.445 7.641 110.765 7.289 111.085L4.281 113.789H10.153V114.973ZM16.0188 115.165C14.6854 115.165 13.7094 114.658 13.0908 113.645C12.4828 112.632 12.1788 111.213 12.1788 109.389C12.1788 107.565 12.4828 106.146 13.0908 105.133C13.7094 104.12 14.6854 103.613 16.0188 103.613C17.3521 103.613 18.3228 104.12 18.9308 105.133C19.5494 106.146 19.8588 107.565 19.8588 109.389C19.8588 111.213 19.5494 112.632 18.9308 113.645C18.3228 114.658 17.3521 115.165 16.0188 115.165ZM16.0188 113.997C16.4561 113.997 16.8294 113.906 17.1388 113.725C17.4481 113.544 17.6988 113.288 17.8908 112.957C18.0828 112.626 18.2214 112.237 18.3068 111.789C18.4028 111.341 18.4508 110.845 18.4508 110.301V108.477C18.4508 107.933 18.4028 107.437 18.3068 106.989C18.2214 106.541 18.0828 106.152 17.8908 105.821C17.6988 105.49 17.4481 105.234 17.1388 105.053C16.8294 104.872 16.4561 104.781 16.0188 104.781C15.5814 104.781 15.2081 104.872 14.8988 105.053C14.5894 105.234 14.3388 105.49 14.1468 105.821C13.9548 106.152 13.8108 106.541 13.7148 106.989C13.6294 107.437 13.5868 107.933 13.5868 108.477V110.301C13.5868 110.845 13.6294 111.341 13.7148 111.789C13.8108 112.237 13.9548 112.626 14.1468 112.957C14.3388 113.288 14.5894 113.544 14.8988 113.725C15.2081 113.906 15.5814 113.997 16.0188 113.997ZM25.6125 115.165C24.2792 115.165 23.3032 114.658 22.6845 113.645C22.0765 112.632 21.7725 111.213 21.7725 109.389C21.7725 107.565 22.0765 106.146 22.6845 105.133C23.3032 104.12 24.2792 103.613 25.6125 103.613C26.9458 103.613 27.9165 104.12 28.5245 105.133C29.1432 106.146 29.4525 107.565 29.4525 109.389C29.4525 111.213 29.1432 112.632 28.5245 113.645C27.9165 114.658 26.9458 115.165 25.6125 115.165ZM25.6125 113.997C26.0498 113.997 26.4232 113.906 26.7325 113.725C27.0418 113.544 27.2925 113.288 27.4845 112.957C27.6765 112.626 27.8152 112.237 27.9005 111.789C27.9965 111.341 28.0445 110.845 28.0445 110.301V108.477C28.0445 107.933 27.9965 107.437 27.9005 106.989C27.8152 106.541 27.6765 106.152 27.4845 105.821C27.2925 105.49 27.0418 105.234 26.7325 105.053C26.4232 104.872 26.0498 104.781 25.6125 104.781C25.1752 104.781 24.8018 104.872 24.4925 105.053C24.1832 105.234 23.9325 105.49 23.7405 105.821C23.5485 106.152 23.4045 106.541 23.3085 106.989C23.2232 107.437 23.1805 107.933 23.1805 108.477V110.301C23.1805 110.845 23.2232 111.341 23.3085 111.789C23.4045 112.237 23.5485 112.626 23.7405 112.957C23.9325 113.288 24.1832 113.544 24.4925 113.725C24.8018 113.906 25.1752 113.997 25.6125 113.997ZM35.2063 115.165C33.8729 115.165 32.8969 114.658 32.2783 113.645C31.6703 112.632 31.3663 111.213 31.3663 109.389C31.3663 107.565 31.6703 106.146 32.2783 105.133C32.8969 104.12 33.8729 103.613 35.2063 103.613C36.5396 103.613 37.5103 104.12 38.1183 105.133C38.7369 106.146 39.0463 107.565 39.0463 109.389C39.0463 111.213 38.7369 112.632 38.1183 113.645C37.5103 114.658 36.5396 115.165 35.2063 115.165ZM35.2063 113.997C35.6436 113.997 36.0169 113.906 36.3263 113.725C36.6356 113.544 36.8863 113.288 37.0783 112.957C37.2703 112.626 37.4089 112.237 37.4943 111.789C37.5903 111.341 37.6383 110.845 37.6383 110.301V108.477C37.6383 107.933 37.5903 107.437 37.4943 106.989C37.4089 106.541 37.2703 106.152 37.0783 105.821C36.8863 105.49 36.6356 105.234 36.3263 105.053C36.0169 104.872 35.6436 104.781 35.2063 104.781C34.7689 104.781 34.3956 104.872 34.0863 105.053C33.7769 105.234 33.5263 105.49 33.3343 105.821C33.1423 106.152 32.9983 106.541 32.9023 106.989C32.8169 107.437 32.7743 107.933 32.7743 108.477V110.301C32.7743 110.845 32.8169 111.341 32.9023 111.789C32.9983 112.237 33.1423 112.626 33.3343 112.957C33.5263 113.288 33.7769 113.544 34.0863 113.725C34.3956 113.906 34.7689 113.997 35.2063 113.997Z" fill="#032123"/>
<g filter="url(#filter2_f_2467_5386)">
<line x1="52" y1="108.473" x2="420" y2="108.473" stroke="#B6CDC3"/>
</g>
<path d="M440.528 114.973H433.2V113.597L436.848 110.237C437.371 109.757 437.808 109.25 438.16 108.717C438.512 108.173 438.688 107.629 438.688 107.085V106.893C438.688 106.274 438.517 105.773 438.176 105.389C437.835 105.005 437.317 104.813 436.624 104.813C436.283 104.813 435.984 104.861 435.728 104.957C435.472 105.053 435.248 105.186 435.056 105.357C434.875 105.528 434.72 105.73 434.592 105.965C434.475 106.189 434.379 106.434 434.304 106.701L433.104 106.237C433.211 105.906 433.355 105.586 433.536 105.277C433.728 104.957 433.963 104.674 434.24 104.429C434.528 104.184 434.869 103.986 435.264 103.837C435.669 103.688 436.144 103.613 436.688 103.613C437.232 103.613 437.717 103.693 438.144 103.853C438.571 104.013 438.928 104.237 439.216 104.525C439.504 104.813 439.723 105.154 439.872 105.549C440.032 105.944 440.112 106.381 440.112 106.861C440.112 107.298 440.048 107.704 439.92 108.077C439.803 108.45 439.637 108.808 439.424 109.149C439.211 109.48 438.949 109.805 438.64 110.125C438.341 110.445 438.016 110.765 437.664 111.085L434.656 113.789H440.528V114.973ZM446.394 115.165C445.06 115.165 444.084 114.658 443.466 113.645C442.858 112.632 442.554 111.213 442.554 109.389C442.554 107.565 442.858 106.146 443.466 105.133C444.084 104.12 445.06 103.613 446.394 103.613C447.727 103.613 448.698 104.12 449.306 105.133C449.924 106.146 450.234 107.565 450.234 109.389C450.234 111.213 449.924 112.632 449.306 113.645C448.698 114.658 447.727 115.165 446.394 115.165ZM446.394 113.997C446.831 113.997 447.204 113.906 447.514 113.725C447.823 113.544 448.074 113.288 448.266 112.957C448.458 112.626 448.596 112.237 448.682 111.789C448.778 111.341 448.826 110.845 448.826 110.301V108.477C448.826 107.933 448.778 107.437 448.682 106.989C448.596 106.541 448.458 106.152 448.266 105.821C448.074 105.49 447.823 105.234 447.514 105.053C447.204 104.872 446.831 104.781 446.394 104.781C445.956 104.781 445.583 104.872 445.274 105.053C444.964 105.234 444.714 105.49 444.522 105.821C444.33 106.152 444.186 106.541 444.09 106.989C444.004 107.437 443.962 107.933 443.962 108.477V110.301C443.962 110.845 444.004 111.341 444.09 111.789C444.186 112.237 444.33 112.626 444.522 112.957C444.714 113.288 444.964 113.544 445.274 113.725C445.583 113.906 445.956 113.997 446.394 113.997ZM455.988 115.165C454.654 115.165 453.678 114.658 453.06 113.645C452.452 112.632 452.148 111.213 452.148 109.389C452.148 107.565 452.452 106.146 453.06 105.133C453.678 104.12 454.654 103.613 455.988 103.613C457.321 103.613 458.292 104.12 458.9 105.133C459.518 106.146 459.828 107.565 459.828 109.389C459.828 111.213 459.518 112.632 458.9 113.645C458.292 114.658 457.321 115.165 455.988 115.165ZM455.988 113.997C456.425 113.997 456.798 113.906 457.108 113.725C457.417 113.544 457.668 113.288 457.86 112.957C458.052 112.626 458.19 112.237 458.276 111.789C458.372 111.341 458.42 110.845 458.42 110.301V108.477C458.42 107.933 458.372 107.437 458.276 106.989C458.19 106.541 458.052 106.152 457.86 105.821C457.668 105.49 457.417 105.234 457.108 105.053C456.798 104.872 456.425 104.781 455.988 104.781C455.55 104.781 455.177 104.872 454.868 105.053C454.558 105.234 454.308 105.49 454.116 105.821C453.924 106.152 453.78 106.541 453.684 106.989C453.598 107.437 453.556 107.933 453.556 108.477V110.301C453.556 110.845 453.598 111.341 453.684 111.789C453.78 112.237 453.924 112.626 454.116 112.957C454.308 113.288 454.558 113.544 454.868 113.725C455.177 113.906 455.55 113.997 455.988 113.997ZM465.581 115.165C464.248 115.165 463.272 114.658 462.653 113.645C462.045 112.632 461.741 111.213 461.741 109.389C461.741 107.565 462.045 106.146 462.653 105.133C463.272 104.12 464.248 103.613 465.581 103.613C466.915 103.613 467.885 104.12 468.493 105.133C469.112 106.146 469.421 107.565 469.421 109.389C469.421 111.213 469.112 112.632 468.493 113.645C467.885 114.658 466.915 115.165 465.581 115.165ZM465.581 113.997C466.019 113.997 466.392 113.906 466.701 113.725C467.011 113.544 467.261 113.288 467.453 112.957C467.645 112.626 467.784 112.237 467.869 111.789C467.965 111.341 468.013 110.845 468.013 110.301V108.477C468.013 107.933 467.965 107.437 467.869 106.989C467.784 106.541 467.645 106.152 467.453 105.821C467.261 105.49 467.011 105.234 466.701 105.053C466.392 104.872 466.019 104.781 465.581 104.781C465.144 104.781 464.771 104.872 464.461 105.053C464.152 105.234 463.901 105.49 463.709 105.821C463.517 106.152 463.373 106.541 463.277 106.989C463.192 107.437 463.149 107.933 463.149 108.477V110.301C463.149 110.845 463.192 111.341 463.277 111.789C463.373 112.237 463.517 112.626 463.709 112.957C463.901 113.288 464.152 113.544 464.461 113.725C464.771 113.906 465.144 113.997 465.581 113.997Z" fill="#032123"/>
<path d="M35.2063 163.165C33.8729 163.165 32.8969 162.658 32.2783 161.645C31.6703 160.632 31.3663 159.213 31.3663 157.389C31.3663 155.565 31.6703 154.146 32.2783 153.133C32.8969 152.12 33.8729 151.613 35.2063 151.613C36.5396 151.613 37.5103 152.12 38.1183 153.133C38.7369 154.146 39.0463 155.565 39.0463 157.389C39.0463 159.213 38.7369 160.632 38.1183 161.645C37.5103 162.658 36.5396 163.165 35.2063 163.165ZM35.2063 161.997C35.6436 161.997 36.0169 161.906 36.3263 161.725C36.6356 161.544 36.8863 161.288 37.0783 160.957C37.2703 160.626 37.4089 160.237 37.4943 159.789C37.5903 159.341 37.6383 158.845 37.6383 158.301V156.477C37.6383 155.933 37.5903 155.437 37.4943 154.989C37.4089 154.541 37.2703 154.152 37.0783 153.821C36.8863 153.49 36.6356 153.234 36.3263 153.053C36.0169 152.872 35.6436 152.781 35.2063 152.781C34.7689 152.781 34.3956 152.872 34.0863 153.053C33.7769 153.234 33.5263 153.49 33.3343 153.821C33.1423 154.152 32.9983 154.541 32.9023 154.989C32.8169 155.437 32.7743 155.933 32.7743 156.477V158.301C32.7743 158.845 32.8169 159.341 32.9023 159.789C32.9983 160.237 33.1423 160.626 33.3343 160.957C33.5263 161.288 33.7769 161.544 34.0863 161.725C34.3956 161.906 34.7689 161.997 35.2063 161.997Z" fill="#032123"/>
<g filter="url(#filter3_f_2467_5386)">
<line x1="52" y1="156.473" x2="420" y2="156.473" stroke="#B6CDC3"/>
</g>
<path d="M436.8 163.165C435.467 163.165 434.491 162.658 433.872 161.645C433.264 160.632 432.96 159.213 432.96 157.389C432.96 155.565 433.264 154.146 433.872 153.133C434.491 152.12 435.467 151.613 436.8 151.613C438.133 151.613 439.104 152.12 439.712 153.133C440.331 154.146 440.64 155.565 440.64 157.389C440.64 159.213 440.331 160.632 439.712 161.645C439.104 162.658 438.133 163.165 436.8 163.165ZM436.8 161.997C437.237 161.997 437.611 161.906 437.92 161.725C438.229 161.544 438.48 161.288 438.672 160.957C438.864 160.626 439.003 160.237 439.088 159.789C439.184 159.341 439.232 158.845 439.232 158.301V156.477C439.232 155.933 439.184 155.437 439.088 154.989C439.003 154.541 438.864 154.152 438.672 153.821C438.48 153.49 438.229 153.234 437.92 153.053C437.611 152.872 437.237 152.781 436.8 152.781C436.363 152.781 435.989 152.872 435.68 153.053C435.371 153.234 435.12 153.49 434.928 153.821C434.736 154.152 434.592 154.541 434.496 154.989C434.411 155.437 434.368 155.933 434.368 156.477V158.301C434.368 158.845 434.411 159.341 434.496 159.789C434.592 160.237 434.736 160.626 434.928 160.957C435.12 161.288 435.371 161.544 435.68 161.725C435.989 161.906 436.363 161.997 436.8 161.997Z" fill="#032123"/>
<path d="M70.8878 119.973V119.233H72.8378V113.613H72.7678L71.0078 115.253L70.5178 114.723L72.3678 112.993H73.6778V119.233H75.4778V119.973H70.8878ZM79.0039 120.093C78.1706 120.093 77.5606 119.776 77.1739 119.143C76.7939 118.51 76.6039 117.623 76.6039 116.483C76.6039 115.343 76.7939 114.456 77.1739 113.823C77.5606 113.19 78.1706 112.873 79.0039 112.873C79.8372 112.873 80.4439 113.19 80.8239 113.823C81.2106 114.456 81.4039 115.343 81.4039 116.483C81.4039 117.623 81.2106 118.51 80.8239 119.143C80.4439 119.776 79.8372 120.093 79.0039 120.093ZM79.0039 119.363C79.2772 119.363 79.5106 119.306 79.7039 119.193C79.8972 119.08 80.0539 118.92 80.1739 118.713C80.2939 118.506 80.3806 118.263 80.4339 117.983C80.4939 117.703 80.5239 117.393 80.5239 117.053V115.913C80.5239 115.573 80.4939 115.263 80.4339 114.983C80.3806 114.703 80.2939 114.46 80.1739 114.253C80.0539 114.046 79.8972 113.886 79.7039 113.773C79.5106 113.66 79.2772 113.603 79.0039 113.603C78.7306 113.603 78.4972 113.66 78.3039 113.773C78.1106 113.886 77.9539 114.046 77.8339 114.253C77.7139 114.46 77.6239 114.703 77.5639 114.983C77.5106 115.263 77.4839 115.573 77.4839 115.913V117.053C77.4839 117.393 77.5106 117.703 77.5639 117.983C77.6239 118.263 77.7139 118.506 77.8339 118.713C77.9539 118.92 78.1106 119.08 78.3039 119.193C78.4972 119.306 78.7306 119.363 79.0039 119.363ZM85 120.093C84.1667 120.093 83.5567 119.776 83.17 119.143C82.79 118.51 82.6 117.623 82.6 116.483C82.6 115.343 82.79 114.456 83.17 113.823C83.5567 113.19 84.1667 112.873 85 112.873C85.8333 112.873 86.44 113.19 86.82 113.823C87.2067 114.456 87.4 115.343 87.4 116.483C87.4 117.623 87.2067 118.51 86.82 119.143C86.44 119.776 85.8333 120.093 85 120.093ZM85 119.363C85.2733 119.363 85.5067 119.306 85.7 119.193C85.8933 119.08 86.05 118.92 86.17 118.713C86.29 118.506 86.3767 118.263 86.43 117.983C86.49 117.703 86.52 117.393 86.52 117.053V115.913C86.52 115.573 86.49 115.263 86.43 114.983C86.3767 114.703 86.29 114.46 86.17 114.253C86.05 114.046 85.8933 113.886 85.7 113.773C85.5067 113.66 85.2733 113.603 85 113.603C84.7267 113.603 84.4933 113.66 84.3 113.773C84.1067 113.886 83.95 114.046 83.83 114.253C83.71 114.46 83.62 114.703 83.56 114.983C83.5067 115.263 83.48 115.573 83.48 115.913V117.053C83.48 117.393 83.5067 117.703 83.56 117.983C83.62 118.263 83.71 118.506 83.83 118.713C83.95 118.92 84.1067 119.08 84.3 119.193C84.4933 119.306 84.7267 119.363 85 119.363ZM90.9961 120.093C90.1628 120.093 89.5528 119.776 89.1661 119.143C88.7861 118.51 88.5961 117.623 88.5961 116.483C88.5961 115.343 88.7861 114.456 89.1661 113.823C89.5528 113.19 90.1628 112.873 90.9961 112.873C91.8294 112.873 92.4361 113.19 92.8161 113.823C93.2028 114.456 93.3961 115.343 93.3961 116.483C93.3961 117.623 93.2028 118.51 92.8161 119.143C92.4361 119.776 91.8294 120.093 90.9961 120.093ZM90.9961 119.363C91.2694 119.363 91.5028 119.306 91.6961 119.193C91.8894 119.08 92.0461 118.92 92.1661 118.713C92.2861 118.506 92.3728 118.263 92.4261 117.983C92.4861 117.703 92.5161 117.393 92.5161 117.053V115.913C92.5161 115.573 92.4861 115.263 92.4261 114.983C92.3728 114.703 92.2861 114.46 92.1661 114.253C92.0461 114.046 91.8894 113.886 91.6961 113.773C91.5028 113.66 91.2694 113.603 90.9961 113.603C90.7228 113.603 90.4894 113.66 90.2961 113.773C90.1028 113.886 89.9461 114.046 89.8261 114.253C89.7061 114.46 89.6161 114.703 89.5561 114.983C89.5028 115.263 89.4761 115.573 89.4761 115.913V117.053C89.4761 117.393 89.5028 117.703 89.5561 117.983C89.6161 118.263 89.7061 118.506 89.8261 118.713C89.9461 118.92 90.1028 119.08 90.2961 119.193C90.4894 119.306 90.7228 119.363 90.9961 119.363Z" fill="#0B2E31"/>
<g filter="url(#filter4_f_2467_5386)">
<rect x="66" y="126.973" width="32" height="30" rx="4" fill="#53C07D"/>
</g>
<path d="M71.0107 172.093C70.1774 172.093 69.5674 171.776 69.1807 171.143C68.8007 170.51 68.6107 169.623 68.6107 168.483C68.6107 167.343 68.8007 166.456 69.1807 165.823C69.5674 165.19 70.1774 164.873 71.0107 164.873C71.8441 164.873 72.4507 165.19 72.8307 165.823C73.2174 166.456 73.4107 167.343 73.4107 168.483C73.4107 169.623 73.2174 170.51 72.8307 171.143C72.4507 171.776 71.8441 172.093 71.0107 172.093ZM71.0107 171.363C71.2841 171.363 71.5174 171.306 71.7107 171.193C71.9041 171.08 72.0607 170.92 72.1807 170.713C72.3007 170.506 72.3874 170.263 72.4407 169.983C72.5007 169.703 72.5307 169.393 72.5307 169.053V167.913C72.5307 167.573 72.5007 167.263 72.4407 166.983C72.3874 166.703 72.3007 166.46 72.1807 166.253C72.0607 166.046 71.9041 165.886 71.7107 165.773C71.5174 165.66 71.2841 165.603 71.0107 165.603C70.7374 165.603 70.5041 165.66 70.3107 165.773C70.1174 165.886 69.9607 166.046 69.8407 166.253C69.7207 166.46 69.6307 166.703 69.5707 166.983C69.5174 167.263 69.4907 167.573 69.4907 167.913V169.053C69.4907 169.393 69.5174 169.703 69.5707 169.983C69.6307 170.263 69.7207 170.506 69.8407 170.713C69.9607 170.92 70.1174 171.08 70.3107 171.193C70.5041 171.306 70.7374 171.363 71.0107 171.363ZM74.8868 171.973V171.233H76.8368V165.613H76.7668L75.0068 167.253L74.5168 166.723L76.3668 164.993H77.6768V171.233H79.4768V171.973H74.8868ZM80.6929 169.363V168.503H83.3029V169.363H80.6929ZM86.9971 172.093C86.1637 172.093 85.5537 171.776 85.1671 171.143C84.7871 170.51 84.5971 169.623 84.5971 168.483C84.5971 167.343 84.7871 166.456 85.1671 165.823C85.5537 165.19 86.1637 164.873 86.9971 164.873C87.8304 164.873 88.4371 165.19 88.8171 165.823C89.2037 166.456 89.3971 167.343 89.3971 168.483C89.3971 169.623 89.2037 170.51 88.8171 171.143C88.4371 171.776 87.8304 172.093 86.9971 172.093ZM86.9971 171.363C87.2704 171.363 87.5037 171.306 87.6971 171.193C87.8904 171.08 88.0471 170.92 88.1671 170.713C88.2871 170.506 88.3737 170.263 88.4271 169.983C88.4871 169.703 88.5171 169.393 88.5171 169.053V167.913C88.5171 167.573 88.4871 167.263 88.4271 166.983C88.3737 166.703 88.2871 166.46 88.1671 166.253C88.0471 166.046 87.8904 165.886 87.6971 165.773C87.5037 165.66 87.2704 165.603 86.9971 165.603C86.7237 165.603 86.4904 165.66 86.2971 165.773C86.1037 165.886 85.9471 166.046 85.8271 166.253C85.7071 166.46 85.6171 166.703 85.5571 166.983C85.5037 167.263 85.4771 167.573 85.4771 167.913V169.053C85.4771 169.393 85.5037 169.703 85.5571 169.983C85.6171 170.263 85.7071 170.506 85.8271 170.713C85.9471 170.92 86.1037 171.08 86.2971 171.193C86.4904 171.306 86.7237 171.363 86.9971 171.363ZM91.7432 171.973L94.4132 165.713H91.4332V167.013H90.6832V164.993H95.2632V165.733L92.6432 171.973H91.7432Z" fill="#0B2E31"/>
<path d="M123.338 80.9729H118.758V80.1129L121.038 78.0129C121.364 77.7129 121.638 77.3962 121.858 77.0629C122.078 76.7229 122.188 76.3829 122.188 76.0429V75.9229C122.188 75.5362 122.081 75.2229 121.868 74.9829C121.654 74.7429 121.331 74.6229 120.898 74.6229C120.684 74.6229 120.498 74.6529 120.338 74.7129C120.178 74.7729 120.038 74.8562 119.918 74.9629C119.804 75.0696 119.708 75.1962 119.628 75.3429C119.554 75.4829 119.494 75.6362 119.448 75.8029L118.698 75.5129C118.764 75.3062 118.854 75.1062 118.968 74.9129C119.088 74.7129 119.234 74.5362 119.408 74.3829C119.588 74.2296 119.801 74.1062 120.048 74.0129C120.301 73.9196 120.598 73.8729 120.938 73.8729C121.278 73.8729 121.581 73.9229 121.848 74.0229C122.114 74.1229 122.338 74.2629 122.518 74.4429C122.698 74.6229 122.834 74.8362 122.928 75.0829C123.028 75.3296 123.078 75.6029 123.078 75.9029C123.078 76.1762 123.038 76.4296 122.958 76.6629C122.884 76.8962 122.781 77.1196 122.648 77.3329C122.514 77.5396 122.351 77.7429 122.158 77.9429C121.971 78.1429 121.768 78.3429 121.548 78.5429L119.668 80.2329H123.338V80.9729ZM128.984 74.7329H125.924L125.724 77.3929H125.794C125.961 77.1596 126.147 76.9729 126.354 76.8329C126.567 76.6929 126.857 76.6229 127.224 76.6229C127.524 76.6229 127.801 76.6729 128.054 76.7729C128.307 76.8729 128.527 77.0162 128.714 77.2029C128.901 77.3829 129.044 77.6062 129.144 77.8729C129.251 78.1396 129.304 78.4429 129.304 78.7829C129.304 79.1229 129.251 79.4362 129.144 79.7229C129.037 80.0029 128.881 80.2462 128.674 80.4529C128.474 80.6529 128.227 80.8096 127.934 80.9229C127.647 81.0362 127.321 81.0929 126.954 81.0929C126.661 81.0929 126.401 81.0596 126.174 80.9929C125.954 80.9262 125.757 80.8362 125.584 80.7229C125.411 80.6096 125.257 80.4829 125.124 80.3429C124.997 80.2029 124.881 80.0562 124.774 79.9029L125.404 79.4229C125.491 79.5629 125.581 79.6896 125.674 79.8029C125.774 79.9162 125.881 80.0129 125.994 80.0929C126.114 80.1729 126.251 80.2362 126.404 80.2829C126.557 80.3229 126.741 80.3429 126.954 80.3429C127.434 80.3429 127.797 80.2162 128.044 79.9629C128.291 79.7096 128.414 79.3529 128.414 78.8929V78.7929C128.414 78.3329 128.291 77.9762 128.044 77.7229C127.797 77.4696 127.434 77.3429 126.954 77.3429C126.634 77.3429 126.381 77.4029 126.194 77.5229C126.014 77.6362 125.851 77.7729 125.704 77.9329L124.994 77.8329L125.244 73.9929H128.984V74.7329ZM133 81.0929C132.167 81.0929 131.557 80.7762 131.17 80.1429C130.79 79.5096 130.6 78.6229 130.6 77.4829C130.6 76.3429 130.79 75.4562 131.17 74.8229C131.557 74.1896 132.167 73.8729 133 73.8729C133.833 73.8729 134.44 74.1896 134.82 74.8229C135.207 75.4562 135.4 76.3429 135.4 77.4829C135.4 78.6229 135.207 79.5096 134.82 80.1429C134.44 80.7762 133.833 81.0929 133 81.0929ZM133 80.3629C133.273 80.3629 133.507 80.3062 133.7 80.1929C133.893 80.0796 134.05 79.9196 134.17 79.7129C134.29 79.5062 134.377 79.2629 134.43 78.9829C134.49 78.7029 134.52 78.3929 134.52 78.0529V76.9129C134.52 76.5729 134.49 76.2629 134.43 75.9829C134.377 75.7029 134.29 75.4596 134.17 75.2529C134.05 75.0462 133.893 74.8862 133.7 74.7729C133.507 74.6596 133.273 74.6029 133 74.6029C132.727 74.6029 132.493 74.6596 132.3 74.7729C132.107 74.8862 131.95 75.0462 131.83 75.2529C131.71 75.4596 131.62 75.7029 131.56 75.9829C131.507 76.2629 131.48 76.5729 131.48 76.9129V78.0529C131.48 78.3929 131.507 78.7029 131.56 78.9829C131.62 79.2629 131.71 79.5062 131.83 79.7129C131.95 79.9196 132.107 80.0796 132.3 80.1929C132.493 80.3062 132.727 80.3629 133 80.3629ZM138.996 81.0929C138.163 81.0929 137.553 80.7762 137.166 80.1429C136.786 79.5096 136.596 78.6229 136.596 77.4829C136.596 76.3429 136.786 75.4562 137.166 74.8229C137.553 74.1896 138.163 73.8729 138.996 73.8729C139.829 73.8729 140.436 74.1896 140.816 74.8229C141.203 75.4562 141.396 76.3429 141.396 77.4829C141.396 78.6229 141.203 79.5096 140.816 80.1429C140.436 80.7762 139.829 81.0929 138.996 81.0929ZM138.996 80.3629C139.269 80.3629 139.503 80.3062 139.696 80.1929C139.889 80.0796 140.046 79.9196 140.166 79.7129C140.286 79.5062 140.373 79.2629 140.426 78.9829C140.486 78.7029 140.516 78.3929 140.516 78.0529V76.9129C140.516 76.5729 140.486 76.2629 140.426 75.9829C140.373 75.7029 140.286 75.4596 140.166 75.2529C140.046 75.0462 139.889 74.8862 139.696 74.7729C139.503 74.6596 139.269 74.6029 138.996 74.6029C138.723 74.6029 138.489 74.6596 138.296 74.7729C138.103 74.8862 137.946 75.0462 137.826 75.2529C137.706 75.4596 137.616 75.7029 137.556 75.9829C137.503 76.2629 137.476 76.5729 137.476 76.9129V78.0529C137.476 78.3929 137.503 78.7029 137.556 78.9829C137.616 79.2629 137.706 79.5062 137.826 79.7129C137.946 79.9196 138.103 80.0796 138.296 80.1929C138.489 80.3062 138.723 80.3629 138.996 80.3629Z" fill="#0B2E31"/>
<g filter="url(#filter5_f_2467_5386)">
<rect x="118" y="87.9729" width="32" height="69" rx="4" fill="#53C07D"/>
</g>
<path d="M121.011 172.093C120.177 172.093 119.567 171.776 119.181 171.143C118.801 170.51 118.611 169.623 118.611 168.483C118.611 167.343 118.801 166.456 119.181 165.823C119.567 165.19 120.177 164.873 121.011 164.873C121.844 164.873 122.451 165.19 122.831 165.823C123.217 166.456 123.411 167.343 123.411 168.483C123.411 169.623 123.217 170.51 122.831 171.143C122.451 171.776 121.844 172.093 121.011 172.093ZM121.011 171.363C121.284 171.363 121.517 171.306 121.711 171.193C121.904 171.08 122.061 170.92 122.181 170.713C122.301 170.506 122.387 170.263 122.441 169.983C122.501 169.703 122.531 169.393 122.531 169.053V167.913C122.531 167.573 122.501 167.263 122.441 166.983C122.387 166.703 122.301 166.46 122.181 166.253C122.061 166.046 121.904 165.886 121.711 165.773C121.517 165.66 121.284 165.603 121.011 165.603C120.737 165.603 120.504 165.66 120.311 165.773C120.117 165.886 119.961 166.046 119.841 166.253C119.721 166.46 119.631 166.703 119.571 166.983C119.517 167.263 119.491 167.573 119.491 167.913V169.053C119.491 169.393 119.517 169.703 119.571 169.983C119.631 170.263 119.721 170.506 119.841 170.713C119.961 170.92 120.117 171.08 120.311 171.193C120.504 171.306 120.737 171.363 121.011 171.363ZM129.337 171.973H124.757V171.113L127.037 169.013C127.364 168.713 127.637 168.396 127.857 168.063C128.077 167.723 128.187 167.383 128.187 167.043V166.923C128.187 166.536 128.08 166.223 127.867 165.983C127.654 165.743 127.33 165.623 126.897 165.623C126.684 165.623 126.497 165.653 126.337 165.713C126.177 165.773 126.037 165.856 125.917 165.963C125.804 166.07 125.707 166.196 125.627 166.343C125.554 166.483 125.494 166.636 125.447 166.803L124.697 166.513C124.764 166.306 124.854 166.106 124.967 165.913C125.087 165.713 125.234 165.536 125.407 165.383C125.587 165.23 125.8 165.106 126.047 165.013C126.3 164.92 126.597 164.873 126.937 164.873C127.277 164.873 127.58 164.923 127.847 165.023C128.114 165.123 128.337 165.263 128.517 165.443C128.697 165.623 128.834 165.836 128.927 166.083C129.027 166.33 129.077 166.603 129.077 166.903C129.077 167.176 129.037 167.43 128.957 167.663C128.884 167.896 128.78 168.12 128.647 168.333C128.514 168.54 128.35 168.743 128.157 168.943C127.97 169.143 127.767 169.343 127.547 169.543L125.667 171.233H129.337V171.973ZM130.693 169.363V168.503H133.303V169.363H130.693ZM136.997 172.093C136.164 172.093 135.554 171.776 135.167 171.143C134.787 170.51 134.597 169.623 134.597 168.483C134.597 167.343 134.787 166.456 135.167 165.823C135.554 165.19 136.164 164.873 136.997 164.873C137.83 164.873 138.437 165.19 138.817 165.823C139.204 166.456 139.397 167.343 139.397 168.483C139.397 169.623 139.204 170.51 138.817 171.143C138.437 171.776 137.83 172.093 136.997 172.093ZM136.997 171.363C137.27 171.363 137.504 171.306 137.697 171.193C137.89 171.08 138.047 170.92 138.167 170.713C138.287 170.506 138.374 170.263 138.427 169.983C138.487 169.703 138.517 169.393 138.517 169.053V167.913C138.517 167.573 138.487 167.263 138.427 166.983C138.374 166.703 138.287 166.46 138.167 166.253C138.047 166.046 137.89 165.886 137.697 165.773C137.504 165.66 137.27 165.603 136.997 165.603C136.724 165.603 136.49 165.66 136.297 165.773C136.104 165.886 135.947 166.046 135.827 166.253C135.707 166.46 135.617 166.703 135.557 166.983C135.504 167.263 135.477 167.573 135.477 167.913V169.053C135.477 169.393 135.504 169.703 135.557 169.983C135.617 170.263 135.707 170.506 135.827 170.713C135.947 170.92 136.104 171.08 136.297 171.193C136.49 171.306 136.724 171.363 136.997 171.363ZM141.743 171.973L144.413 165.713H141.433V167.013H140.683V164.993H145.263V165.733L142.643 171.973H141.743Z" fill="#0B2E31"/>
<path d="M170.888 104.973V104.233H172.838V98.6129H172.768L171.008 100.253L170.518 99.7229L172.368 97.9929H173.678V104.233H175.478V104.973H170.888ZM180.984 98.7329H177.924L177.724 101.393H177.794C177.961 101.16 178.147 100.973 178.354 100.833C178.567 100.693 178.857 100.623 179.224 100.623C179.524 100.623 179.801 100.673 180.054 100.773C180.307 100.873 180.527 101.016 180.714 101.203C180.901 101.383 181.044 101.606 181.144 101.873C181.251 102.14 181.304 102.443 181.304 102.783C181.304 103.123 181.251 103.436 181.144 103.723C181.037 104.003 180.881 104.246 180.674 104.453C180.474 104.653 180.227 104.81 179.934 104.923C179.647 105.036 179.321 105.093 178.954 105.093C178.661 105.093 178.401 105.06 178.174 104.993C177.954 104.926 177.757 104.836 177.584 104.723C177.411 104.61 177.257 104.483 177.124 104.343C176.997 104.203 176.881 104.056 176.774 103.903L177.404 103.423C177.491 103.563 177.581 103.69 177.674 103.803C177.774 103.916 177.881 104.013 177.994 104.093C178.114 104.173 178.251 104.236 178.404 104.283C178.557 104.323 178.741 104.343 178.954 104.343C179.434 104.343 179.797 104.216 180.044 103.963C180.291 103.71 180.414 103.353 180.414 102.893V102.793C180.414 102.333 180.291 101.976 180.044 101.723C179.797 101.47 179.434 101.343 178.954 101.343C178.634 101.343 178.381 101.403 178.194 101.523C178.014 101.636 177.851 101.773 177.704 101.933L176.994 101.833L177.244 97.9929H180.984V98.7329ZM185 105.093C184.167 105.093 183.557 104.776 183.17 104.143C182.79 103.51 182.6 102.623 182.6 101.483C182.6 100.343 182.79 99.4562 183.17 98.8229C183.557 98.1896 184.167 97.8729 185 97.8729C185.833 97.8729 186.44 98.1896 186.82 98.8229C187.207 99.4562 187.4 100.343 187.4 101.483C187.4 102.623 187.207 103.51 186.82 104.143C186.44 104.776 185.833 105.093 185 105.093ZM185 104.363C185.273 104.363 185.507 104.306 185.7 104.193C185.893 104.08 186.05 103.92 186.17 103.713C186.29 103.506 186.377 103.263 186.43 102.983C186.49 102.703 186.52 102.393 186.52 102.053V100.913C186.52 100.573 186.49 100.263 186.43 99.9829C186.377 99.7029 186.29 99.4596 186.17 99.2529C186.05 99.0462 185.893 98.8862 185.7 98.7729C185.507 98.6596 185.273 98.6029 185 98.6029C184.727 98.6029 184.493 98.6596 184.3 98.7729C184.107 98.8862 183.95 99.0462 183.83 99.2529C183.71 99.4596 183.62 99.7029 183.56 99.9829C183.507 100.263 183.48 100.573 183.48 100.913V102.053C183.48 102.393 183.507 102.703 183.56 102.983C183.62 103.263 183.71 103.506 183.83 103.713C183.95 103.92 184.107 104.08 184.3 104.193C184.493 104.306 184.727 104.363 185 104.363ZM190.996 105.093C190.163 105.093 189.553 104.776 189.166 104.143C188.786 103.51 188.596 102.623 188.596 101.483C188.596 100.343 188.786 99.4562 189.166 98.8229C189.553 98.1896 190.163 97.8729 190.996 97.8729C191.829 97.8729 192.436 98.1896 192.816 98.8229C193.203 99.4562 193.396 100.343 193.396 101.483C193.396 102.623 193.203 103.51 192.816 104.143C192.436 104.776 191.829 105.093 190.996 105.093ZM190.996 104.363C191.269 104.363 191.503 104.306 191.696 104.193C191.889 104.08 192.046 103.92 192.166 103.713C192.286 103.506 192.373 103.263 192.426 102.983C192.486 102.703 192.516 102.393 192.516 102.053V100.913C192.516 100.573 192.486 100.263 192.426 99.9829C192.373 99.7029 192.286 99.4596 192.166 99.2529C192.046 99.0462 191.889 98.8862 191.696 98.7729C191.503 98.6596 191.269 98.6029 190.996 98.6029C190.723 98.6029 190.489 98.6596 190.296 98.7729C190.103 98.8862 189.946 99.0462 189.826 99.2529C189.706 99.4596 189.616 99.7029 189.556 99.9829C189.503 100.263 189.476 100.573 189.476 100.913V102.053C189.476 102.393 189.503 102.703 189.556 102.983C189.616 103.263 189.706 103.506 189.826 103.713C189.946 103.92 190.103 104.08 190.296 104.193C190.489 104.306 190.723 104.363 190.996 104.363Z" fill="#0B2E31"/>
<g filter="url(#filter6_f_2467_5386)">
<rect x="170" y="111.973" width="32" height="45" rx="4" fill="#53C07D"/>
</g>
<path d="M173.011 172.093C172.177 172.093 171.567 171.776 171.181 171.143C170.801 170.51 170.611 169.623 170.611 168.483C170.611 167.343 170.801 166.456 171.181 165.823C171.567 165.19 172.177 164.873 173.011 164.873C173.844 164.873 174.451 165.19 174.831 165.823C175.217 166.456 175.411 167.343 175.411 168.483C175.411 169.623 175.217 170.51 174.831 171.143C174.451 171.776 173.844 172.093 173.011 172.093ZM173.011 171.363C173.284 171.363 173.517 171.306 173.711 171.193C173.904 171.08 174.061 170.92 174.181 170.713C174.301 170.506 174.387 170.263 174.441 169.983C174.501 169.703 174.531 169.393 174.531 169.053V167.913C174.531 167.573 174.501 167.263 174.441 166.983C174.387 166.703 174.301 166.46 174.181 166.253C174.061 166.046 173.904 165.886 173.711 165.773C173.517 165.66 173.284 165.603 173.011 165.603C172.737 165.603 172.504 165.66 172.311 165.773C172.117 165.886 171.961 166.046 171.841 166.253C171.721 166.46 171.631 166.703 171.571 166.983C171.517 167.263 171.491 167.573 171.491 167.913V169.053C171.491 169.393 171.517 169.703 171.571 169.983C171.631 170.263 171.721 170.506 171.841 170.713C171.961 170.92 172.117 171.08 172.311 171.193C172.504 171.306 172.737 171.363 173.011 171.363ZM178.617 167.953C179.09 167.953 179.444 167.846 179.677 167.633C179.917 167.413 180.037 167.133 180.037 166.793V166.723C180.037 166.356 179.92 166.083 179.687 165.903C179.46 165.716 179.16 165.623 178.787 165.623C178.427 165.623 178.134 165.703 177.907 165.863C177.68 166.016 177.494 166.226 177.347 166.493L176.727 166.013C176.814 165.873 176.917 165.736 177.037 165.603C177.164 165.463 177.31 165.34 177.477 165.233C177.644 165.126 177.837 165.04 178.057 164.973C178.277 164.906 178.527 164.873 178.807 164.873C179.1 164.873 179.377 164.913 179.637 164.993C179.897 165.066 180.12 165.18 180.307 165.333C180.5 165.48 180.65 165.663 180.757 165.883C180.87 166.103 180.927 166.353 180.927 166.633C180.927 166.86 180.89 167.063 180.817 167.243C180.75 167.423 180.657 167.58 180.537 167.713C180.417 167.846 180.274 167.96 180.107 168.053C179.947 168.146 179.774 168.216 179.587 168.263V168.303C179.774 168.343 179.954 168.41 180.127 168.503C180.307 168.59 180.464 168.706 180.597 168.853C180.737 168.993 180.847 169.166 180.927 169.373C181.014 169.573 181.057 169.803 181.057 170.063C181.057 170.363 181 170.64 180.887 170.893C180.774 171.14 180.614 171.353 180.407 171.533C180.2 171.706 179.95 171.843 179.657 171.943C179.364 172.043 179.04 172.093 178.687 172.093C178.387 172.093 178.12 172.06 177.887 171.993C177.654 171.926 177.447 171.836 177.267 171.723C177.087 171.61 176.927 171.483 176.787 171.343C176.654 171.203 176.534 171.056 176.427 170.903L177.057 170.423C177.144 170.563 177.237 170.69 177.337 170.803C177.444 170.916 177.56 171.013 177.687 171.093C177.814 171.173 177.957 171.236 178.117 171.283C178.277 171.323 178.464 171.343 178.677 171.343C179.17 171.343 179.544 171.233 179.797 171.013C180.05 170.786 180.177 170.466 180.177 170.053V169.973C180.177 169.56 180.05 169.243 179.797 169.023C179.544 168.796 179.17 168.683 178.677 168.683H177.857V167.953H178.617ZM182.693 169.363V168.503H185.303V169.363H182.693ZM188.997 172.093C188.164 172.093 187.554 171.776 187.167 171.143C186.787 170.51 186.597 169.623 186.597 168.483C186.597 167.343 186.787 166.456 187.167 165.823C187.554 165.19 188.164 164.873 188.997 164.873C189.83 164.873 190.437 165.19 190.817 165.823C191.204 166.456 191.397 167.343 191.397 168.483C191.397 169.623 191.204 170.51 190.817 171.143C190.437 171.776 189.83 172.093 188.997 172.093ZM188.997 171.363C189.27 171.363 189.504 171.306 189.697 171.193C189.89 171.08 190.047 170.92 190.167 170.713C190.287 170.506 190.374 170.263 190.427 169.983C190.487 169.703 190.517 169.393 190.517 169.053V167.913C190.517 167.573 190.487 167.263 190.427 166.983C190.374 166.703 190.287 166.46 190.167 166.253C190.047 166.046 189.89 165.886 189.697 165.773C189.504 165.66 189.27 165.603 188.997 165.603C188.724 165.603 188.49 165.66 188.297 165.773C188.104 165.886 187.947 166.046 187.827 166.253C187.707 166.46 187.617 166.703 187.557 166.983C187.504 167.263 187.477 167.573 187.477 167.913V169.053C187.477 169.393 187.504 169.703 187.557 169.983C187.617 170.263 187.707 170.506 187.827 170.713C187.947 170.92 188.104 171.08 188.297 171.193C188.49 171.306 188.724 171.363 188.997 171.363ZM193.743 171.973L196.413 165.713H193.433V167.013H192.683V164.993H197.263V165.733L194.643 171.973H193.743Z" fill="#0B2E31"/>
<path d="M225.758 23.9729V22.6029H222.388V21.8629L225.308 16.9929H226.558V21.9029H227.568V22.6029H226.558V23.9729H225.758ZM223.178 21.9029H225.758V17.6429H225.708L223.178 21.9029ZM233.334 23.9729H228.754V23.1129L231.034 21.0129C231.361 20.7129 231.634 20.3962 231.854 20.0629C232.074 19.7229 232.184 19.3829 232.184 19.0429V18.9229C232.184 18.5362 232.077 18.2229 231.864 17.9829C231.651 17.7429 231.327 17.6229 230.894 17.6229C230.681 17.6229 230.494 17.6529 230.334 17.7129C230.174 17.7729 230.034 17.8562 229.914 17.9629C229.801 18.0696 229.704 18.1962 229.624 18.3429C229.551 18.4829 229.491 18.6362 229.444 18.8029L228.694 18.5129C228.761 18.3062 228.851 18.1062 228.964 17.9129C229.084 17.7129 229.231 17.5362 229.404 17.3829C229.584 17.2296 229.797 17.1062 230.044 17.0129C230.297 16.9196 230.594 16.8729 230.934 16.8729C231.274 16.8729 231.577 16.9229 231.844 17.0229C232.111 17.1229 232.334 17.2629 232.514 17.4429C232.694 17.6229 232.831 17.8362 232.924 18.0829C233.024 18.3296 233.074 18.6029 233.074 18.9029C233.074 19.1762 233.034 19.4296 232.954 19.6629C232.881 19.8962 232.777 20.1196 232.644 20.3329C232.511 20.5396 232.347 20.7429 232.154 20.9429C231.967 21.1429 231.764 21.3429 231.544 21.5429L229.664 23.2329H233.334V23.9729ZM237 24.0929C236.167 24.0929 235.557 23.7762 235.17 23.1429C234.79 22.5096 234.6 21.6229 234.6 20.4829C234.6 19.3429 234.79 18.4562 235.17 17.8229C235.557 17.1896 236.167 16.8729 237 16.8729C237.833 16.8729 238.44 17.1896 238.82 17.8229C239.207 18.4562 239.4 19.3429 239.4 20.4829C239.4 21.6229 239.207 22.5096 238.82 23.1429C238.44 23.7762 237.833 24.0929 237 24.0929ZM237 23.3629C237.273 23.3629 237.507 23.3062 237.7 23.1929C237.893 23.0796 238.05 22.9196 238.17 22.7129C238.29 22.5062 238.377 22.2629 238.43 21.9829C238.49 21.7029 238.52 21.3929 238.52 21.0529V19.9129C238.52 19.5729 238.49 19.2629 238.43 18.9829C238.377 18.7029 238.29 18.4596 238.17 18.2529C238.05 18.0462 237.893 17.8862 237.7 17.7729C237.507 17.6596 237.273 17.6029 237 17.6029C236.727 17.6029 236.493 17.6596 236.3 17.7729C236.107 17.8862 235.95 18.0462 235.83 18.2529C235.71 18.4596 235.62 18.7029 235.56 18.9829C235.507 19.2629 235.48 19.5729 235.48 19.9129V21.0529C235.48 21.3929 235.507 21.7029 235.56 21.9829C235.62 22.2629 235.71 22.5062 235.83 22.7129C235.95 22.9196 236.107 23.0796 236.3 23.1929C236.493 23.3062 236.727 23.3629 237 23.3629ZM242.996 24.0929C242.163 24.0929 241.553 23.7762 241.166 23.1429C240.786 22.5096 240.596 21.6229 240.596 20.4829C240.596 19.3429 240.786 18.4562 241.166 17.8229C241.553 17.1896 242.163 16.8729 242.996 16.8729C243.829 16.8729 244.436 17.1896 244.816 17.8229C245.203 18.4562 245.396 19.3429 245.396 20.4829C245.396 21.6229 245.203 22.5096 244.816 23.1429C244.436 23.7762 243.829 24.0929 242.996 24.0929ZM242.996 23.3629C243.269 23.3629 243.503 23.3062 243.696 23.1929C243.889 23.0796 244.046 22.9196 244.166 22.7129C244.286 22.5062 244.373 22.2629 244.426 21.9829C244.486 21.7029 244.516 21.3929 244.516 21.0529V19.9129C244.516 19.5729 244.486 19.2629 244.426 18.9829C244.373 18.7029 244.286 18.4596 244.166 18.2529C244.046 18.0462 243.889 17.8862 243.696 17.7729C243.503 17.6596 243.269 17.6029 242.996 17.6029C242.723 17.6029 242.489 17.6596 242.296 17.7729C242.103 17.8862 241.946 18.0462 241.826 18.2529C241.706 18.4596 241.616 18.7029 241.556 18.9829C241.503 19.2629 241.476 19.5729 241.476 19.9129V21.0529C241.476 21.3929 241.503 21.7029 241.556 21.9829C241.616 22.2629 241.706 22.5062 241.826 22.7129C241.946 22.9196 242.103 23.0796 242.296 23.1929C242.489 23.3062 242.723 23.3629 242.996 23.3629Z" fill="#0B2E31"/>
<g filter="url(#filter7_f_2467_5386)">
<rect x="222" y="30.9729" width="32" height="126" rx="4" fill="#53C07D"/>
</g>
<path d="M225.011 172.093C224.177 172.093 223.567 171.776 223.181 171.143C222.801 170.51 222.611 169.623 222.611 168.483C222.611 167.343 222.801 166.456 223.181 165.823C223.567 165.19 224.177 164.873 225.011 164.873C225.844 164.873 226.451 165.19 226.831 165.823C227.217 166.456 227.411 167.343 227.411 168.483C227.411 169.623 227.217 170.51 226.831 171.143C226.451 171.776 225.844 172.093 225.011 172.093ZM225.011 171.363C225.284 171.363 225.517 171.306 225.711 171.193C225.904 171.08 226.061 170.92 226.181 170.713C226.301 170.506 226.387 170.263 226.441 169.983C226.501 169.703 226.531 169.393 226.531 169.053V167.913C226.531 167.573 226.501 167.263 226.441 166.983C226.387 166.703 226.301 166.46 226.181 166.253C226.061 166.046 225.904 165.886 225.711 165.773C225.517 165.66 225.284 165.603 225.011 165.603C224.737 165.603 224.504 165.66 224.311 165.773C224.117 165.886 223.961 166.046 223.841 166.253C223.721 166.46 223.631 166.703 223.571 166.983C223.517 167.263 223.491 167.573 223.491 167.913V169.053C223.491 169.393 223.517 169.703 223.571 169.983C223.631 170.263 223.721 170.506 223.841 170.713C223.961 170.92 224.117 171.08 224.311 171.193C224.504 171.306 224.737 171.363 225.011 171.363ZM231.757 171.973V170.603H228.387V169.863L231.307 164.993H232.557V169.903H233.567V170.603H232.557V171.973H231.757ZM229.177 169.903H231.757V165.643H231.707L229.177 169.903ZM234.693 169.363V168.503H237.303V169.363H234.693ZM240.997 172.093C240.164 172.093 239.554 171.776 239.167 171.143C238.787 170.51 238.597 169.623 238.597 168.483C238.597 167.343 238.787 166.456 239.167 165.823C239.554 165.19 240.164 164.873 240.997 164.873C241.83 164.873 242.437 165.19 242.817 165.823C243.204 166.456 243.397 167.343 243.397 168.483C243.397 169.623 243.204 170.51 242.817 171.143C242.437 171.776 241.83 172.093 240.997 172.093ZM240.997 171.363C241.27 171.363 241.504 171.306 241.697 171.193C241.89 171.08 242.047 170.92 242.167 170.713C242.287 170.506 242.374 170.263 242.427 169.983C242.487 169.703 242.517 169.393 242.517 169.053V167.913C242.517 167.573 242.487 167.263 242.427 166.983C242.374 166.703 242.287 166.46 242.167 166.253C242.047 166.046 241.89 165.886 241.697 165.773C241.504 165.66 241.27 165.603 240.997 165.603C240.724 165.603 240.49 165.66 240.297 165.773C240.104 165.886 239.947 166.046 239.827 166.253C239.707 166.46 239.617 166.703 239.557 166.983C239.504 167.263 239.477 167.573 239.477 167.913V169.053C239.477 169.393 239.504 169.703 239.557 169.983C239.617 170.263 239.707 170.506 239.827 170.713C239.947 170.92 240.104 171.08 240.297 171.193C240.49 171.306 240.724 171.363 240.997 171.363ZM245.743 171.973L248.413 165.713H245.433V167.013H244.683V164.993H249.263V165.733L246.643 171.973H245.743Z" fill="#0B2E31"/>
<path d="M279.338 62.9729H274.758V62.1129L277.038 60.0129C277.364 59.7129 277.638 59.3962 277.858 59.0629C278.078 58.7229 278.188 58.3829 278.188 58.0429V57.9229C278.188 57.5362 278.081 57.2229 277.868 56.9829C277.654 56.7429 277.331 56.6229 276.898 56.6229C276.684 56.6229 276.498 56.6529 276.338 56.7129C276.178 56.7729 276.038 56.8562 275.918 56.9629C275.804 57.0696 275.708 57.1962 275.628 57.3429C275.554 57.4829 275.494 57.6362 275.448 57.8029L274.698 57.5129C274.764 57.3062 274.854 57.1062 274.968 56.9129C275.088 56.7129 275.234 56.5362 275.408 56.3829C275.588 56.2296 275.801 56.1062 276.048 56.0129C276.301 55.9196 276.598 55.8729 276.938 55.8729C277.278 55.8729 277.581 55.9229 277.848 56.0229C278.114 56.1229 278.338 56.2629 278.518 56.4429C278.698 56.6229 278.834 56.8362 278.928 57.0829C279.028 57.3296 279.078 57.6029 279.078 57.9029C279.078 58.1762 279.038 58.4296 278.958 58.6629C278.884 58.8962 278.781 59.1196 278.648 59.3329C278.514 59.5396 278.351 59.7429 278.158 59.9429C277.971 60.1429 277.768 60.3429 277.548 60.5429L275.668 62.2329H279.338V62.9729ZM285.334 58.5529C285.334 59.0729 285.257 59.5629 285.104 60.0229C284.951 60.4762 284.751 60.8929 284.504 61.2729C284.264 61.6462 283.997 61.9796 283.704 62.2729C283.411 62.5596 283.124 62.7929 282.844 62.9729H281.764C282.137 62.6996 282.471 62.4329 282.764 62.1729C283.057 61.9129 283.314 61.6429 283.534 61.3629C283.754 61.0762 283.941 60.7729 284.094 60.4529C284.247 60.1262 284.371 59.7596 284.464 59.3529L284.414 59.3329C284.247 59.6196 284.031 59.8596 283.764 60.0529C283.504 60.2396 283.161 60.3329 282.734 60.3329C282.434 60.3329 282.157 60.2829 281.904 60.1829C281.651 60.0829 281.434 59.9396 281.254 59.7529C281.074 59.5662 280.931 59.3429 280.824 59.0829C280.724 58.8162 280.674 58.5162 280.674 58.1829C280.674 57.8429 280.727 57.5329 280.834 57.2529C280.947 56.9662 281.104 56.7229 281.304 56.5229C281.511 56.3162 281.754 56.1562 282.034 56.0429C282.321 55.9296 282.641 55.8729 282.994 55.8729C283.354 55.8729 283.677 55.9362 283.964 56.0629C284.257 56.1829 284.504 56.3596 284.704 56.5929C284.911 56.8196 285.067 57.0996 285.174 57.4329C285.281 57.7662 285.334 58.1396 285.334 58.5529ZM283.004 59.6229C283.464 59.6229 283.821 59.4962 284.074 59.2429C284.334 58.9896 284.464 58.6262 284.464 58.1529V58.0729C284.464 57.5996 284.334 57.2362 284.074 56.9829C283.821 56.7296 283.464 56.6029 283.004 56.6029C282.544 56.6029 282.184 56.7296 281.924 56.9829C281.671 57.2362 281.544 57.5996 281.544 58.0729V58.1529C281.544 58.6262 281.671 58.9896 281.924 59.2429C282.184 59.4962 282.544 59.6229 283.004 59.6229ZM289 63.0929C288.167 63.0929 287.557 62.7762 287.17 62.1429C286.79 61.5096 286.6 60.6229 286.6 59.4829C286.6 58.3429 286.79 57.4562 287.17 56.8229C287.557 56.1896 288.167 55.8729 289 55.8729C289.833 55.8729 290.44 56.1896 290.82 56.8229C291.207 57.4562 291.4 58.3429 291.4 59.4829C291.4 60.6229 291.207 61.5096 290.82 62.1429C290.44 62.7762 289.833 63.0929 289 63.0929ZM289 62.3629C289.273 62.3629 289.507 62.3062 289.7 62.1929C289.893 62.0796 290.05 61.9196 290.17 61.7129C290.29 61.5062 290.377 61.2629 290.43 60.9829C290.49 60.7029 290.52 60.3929 290.52 60.0529V58.9129C290.52 58.5729 290.49 58.2629 290.43 57.9829C290.377 57.7029 290.29 57.4596 290.17 57.2529C290.05 57.0462 289.893 56.8862 289.7 56.7729C289.507 56.6596 289.273 56.6029 289 56.6029C288.727 56.6029 288.493 56.6596 288.3 56.7729C288.107 56.8862 287.95 57.0462 287.83 57.2529C287.71 57.4596 287.62 57.7029 287.56 57.9829C287.507 58.2629 287.48 58.5729 287.48 58.9129V60.0529C287.48 60.3929 287.507 60.7029 287.56 60.9829C287.62 61.2629 287.71 61.5062 287.83 61.7129C287.95 61.9196 288.107 62.0796 288.3 62.1929C288.493 62.3062 288.727 62.3629 289 62.3629ZM294.996 63.0929C294.163 63.0929 293.553 62.7762 293.166 62.1429C292.786 61.5096 292.596 60.6229 292.596 59.4829C292.596 58.3429 292.786 57.4562 293.166 56.8229C293.553 56.1896 294.163 55.8729 294.996 55.8729C295.829 55.8729 296.436 56.1896 296.816 56.8229C297.203 57.4562 297.396 58.3429 297.396 59.4829C297.396 60.6229 297.203 61.5096 296.816 62.1429C296.436 62.7762 295.829 63.0929 294.996 63.0929ZM294.996 62.3629C295.269 62.3629 295.503 62.3062 295.696 62.1929C295.889 62.0796 296.046 61.9196 296.166 61.7129C296.286 61.5062 296.373 61.2629 296.426 60.9829C296.486 60.7029 296.516 60.3929 296.516 60.0529V58.9129C296.516 58.5729 296.486 58.2629 296.426 57.9829C296.373 57.7029 296.286 57.4596 296.166 57.2529C296.046 57.0462 295.889 56.8862 295.696 56.7729C295.503 56.6596 295.269 56.6029 294.996 56.6029C294.723 56.6029 294.489 56.6596 294.296 56.7729C294.103 56.8862 293.946 57.0462 293.826 57.2529C293.706 57.4596 293.616 57.7029 293.556 57.9829C293.503 58.2629 293.476 58.5729 293.476 58.9129V60.0529C293.476 60.3929 293.503 60.7029 293.556 60.9829C293.616 61.2629 293.706 61.5062 293.826 61.7129C293.946 61.9196 294.103 62.0796 294.296 62.1929C294.489 62.3062 294.723 62.3629 294.996 62.3629Z" fill="#0B2E31"/>
<g filter="url(#filter8_f_2467_5386)">
<rect x="274" y="69.9729" width="32" height="87" rx="4" fill="#53C07D"/>
</g>
<path d="M277.011 172.093C276.177 172.093 275.567 171.776 275.181 171.143C274.801 170.51 274.611 169.623 274.611 168.483C274.611 167.343 274.801 166.456 275.181 165.823C275.567 165.19 276.177 164.873 277.011 164.873C277.844 164.873 278.451 165.19 278.831 165.823C279.217 166.456 279.411 167.343 279.411 168.483C279.411 169.623 279.217 170.51 278.831 171.143C278.451 171.776 277.844 172.093 277.011 172.093ZM277.011 171.363C277.284 171.363 277.517 171.306 277.711 171.193C277.904 171.08 278.061 170.92 278.181 170.713C278.301 170.506 278.387 170.263 278.441 169.983C278.501 169.703 278.531 169.393 278.531 169.053V167.913C278.531 167.573 278.501 167.263 278.441 166.983C278.387 166.703 278.301 166.46 278.181 166.253C278.061 166.046 277.904 165.886 277.711 165.773C277.517 165.66 277.284 165.603 277.011 165.603C276.737 165.603 276.504 165.66 276.311 165.773C276.117 165.886 275.961 166.046 275.841 166.253C275.721 166.46 275.631 166.703 275.571 166.983C275.517 167.263 275.491 167.573 275.491 167.913V169.053C275.491 169.393 275.517 169.703 275.571 169.983C275.631 170.263 275.721 170.506 275.841 170.713C275.961 170.92 276.117 171.08 276.311 171.193C276.504 171.306 276.737 171.363 277.011 171.363ZM284.987 165.733H281.927L281.727 168.393H281.797C281.964 168.16 282.15 167.973 282.357 167.833C282.57 167.693 282.86 167.623 283.227 167.623C283.527 167.623 283.804 167.673 284.057 167.773C284.31 167.873 284.53 168.016 284.717 168.203C284.904 168.383 285.047 168.606 285.147 168.873C285.254 169.14 285.307 169.443 285.307 169.783C285.307 170.123 285.254 170.436 285.147 170.723C285.04 171.003 284.884 171.246 284.677 171.453C284.477 171.653 284.23 171.81 283.937 171.923C283.65 172.036 283.324 172.093 282.957 172.093C282.664 172.093 282.404 172.06 282.177 171.993C281.957 171.926 281.76 171.836 281.587 171.723C281.414 171.61 281.26 171.483 281.127 171.343C281 171.203 280.884 171.056 280.777 170.903L281.407 170.423C281.494 170.563 281.584 170.69 281.677 170.803C281.777 170.916 281.884 171.013 281.997 171.093C282.117 171.173 282.254 171.236 282.407 171.283C282.56 171.323 282.744 171.343 282.957 171.343C283.437 171.343 283.8 171.216 284.047 170.963C284.294 170.71 284.417 170.353 284.417 169.893V169.793C284.417 169.333 284.294 168.976 284.047 168.723C283.8 168.47 283.437 168.343 282.957 168.343C282.637 168.343 282.384 168.403 282.197 168.523C282.017 168.636 281.854 168.773 281.707 168.933L280.997 168.833L281.247 164.993H284.987V165.733ZM286.693 169.363V168.503H289.303V169.363H286.693ZM292.997 172.093C292.164 172.093 291.554 171.776 291.167 171.143C290.787 170.51 290.597 169.623 290.597 168.483C290.597 167.343 290.787 166.456 291.167 165.823C291.554 165.19 292.164 164.873 292.997 164.873C293.83 164.873 294.437 165.19 294.817 165.823C295.204 166.456 295.397 167.343 295.397 168.483C295.397 169.623 295.204 170.51 294.817 171.143C294.437 171.776 293.83 172.093 292.997 172.093ZM292.997 171.363C293.27 171.363 293.504 171.306 293.697 171.193C293.89 171.08 294.047 170.92 294.167 170.713C294.287 170.506 294.374 170.263 294.427 169.983C294.487 169.703 294.517 169.393 294.517 169.053V167.913C294.517 167.573 294.487 167.263 294.427 166.983C294.374 166.703 294.287 166.46 294.167 166.253C294.047 166.046 293.89 165.886 293.697 165.773C293.504 165.66 293.27 165.603 292.997 165.603C292.724 165.603 292.49 165.66 292.297 165.773C292.104 165.886 291.947 166.046 291.827 166.253C291.707 166.46 291.617 166.703 291.557 166.983C291.504 167.263 291.477 167.573 291.477 167.913V169.053C291.477 169.393 291.504 169.703 291.557 169.983C291.617 170.263 291.707 170.506 291.827 170.713C291.947 170.92 292.104 171.08 292.297 171.193C292.49 171.306 292.724 171.363 292.997 171.363ZM297.743 171.973L300.413 165.713H297.433V167.013H296.683V164.993H301.263V165.733L298.643 171.973H297.743Z" fill="#0B2E31"/>
<path d="M328.618 51.9529C329.091 51.9529 329.444 51.8462 329.678 51.6329C329.918 51.4129 330.038 51.1329 330.038 50.7929V50.7229C330.038 50.3562 329.921 50.0829 329.688 49.9029C329.461 49.7162 329.161 49.6229 328.788 49.6229C328.428 49.6229 328.134 49.7029 327.908 49.8629C327.681 50.0162 327.494 50.2262 327.348 50.4929L326.728 50.0129C326.814 49.8729 326.918 49.7362 327.038 49.6029C327.164 49.4629 327.311 49.3396 327.478 49.2329C327.644 49.1262 327.838 49.0396 328.058 48.9729C328.278 48.9062 328.528 48.8729 328.808 48.8729C329.101 48.8729 329.378 48.9129 329.638 48.9929C329.898 49.0662 330.121 49.1796 330.308 49.3329C330.501 49.4796 330.651 49.6629 330.758 49.8829C330.871 50.1029 330.928 50.3529 330.928 50.6329C330.928 50.8596 330.891 51.0629 330.818 51.2429C330.751 51.4229 330.658 51.5796 330.538 51.7129C330.418 51.8462 330.274 51.9596 330.108 52.0529C329.948 52.1462 329.774 52.2162 329.588 52.2629V52.3029C329.774 52.3429 329.954 52.4096 330.128 52.5029C330.308 52.5896 330.464 52.7062 330.598 52.8529C330.738 52.9929 330.848 53.1662 330.928 53.3729C331.014 53.5729 331.058 53.8029 331.058 54.0629C331.058 54.3629 331.001 54.6396 330.888 54.8929C330.774 55.1396 330.614 55.3529 330.408 55.5329C330.201 55.7062 329.951 55.8429 329.658 55.9429C329.364 56.0429 329.041 56.0929 328.688 56.0929C328.388 56.0929 328.121 56.0596 327.888 55.9929C327.654 55.9262 327.448 55.8362 327.268 55.7229C327.088 55.6096 326.928 55.4829 326.788 55.3429C326.654 55.2029 326.534 55.0562 326.428 54.9029L327.058 54.4229C327.144 54.5629 327.238 54.6896 327.338 54.8029C327.444 54.9162 327.561 55.0129 327.688 55.0929C327.814 55.1729 327.958 55.2362 328.118 55.2829C328.278 55.3229 328.464 55.3429 328.678 55.3429C329.171 55.3429 329.544 55.2329 329.798 55.0129C330.051 54.7862 330.178 54.4662 330.178 54.0529V53.9729C330.178 53.5596 330.051 53.2429 329.798 53.0229C329.544 52.7962 329.171 52.6829 328.678 52.6829H327.858V51.9529H328.618ZM332.884 55.9729V55.2329H334.834V49.6129H334.764L333.004 51.2529L332.514 50.7229L334.364 48.9929H335.674V55.2329H337.474V55.9729H332.884ZM342.98 49.7329H339.92L339.72 52.3929H339.79C339.957 52.1596 340.143 51.9729 340.35 51.8329C340.563 51.6929 340.853 51.6229 341.22 51.6229C341.52 51.6229 341.797 51.6729 342.05 51.7729C342.303 51.8729 342.523 52.0162 342.71 52.2029C342.897 52.3829 343.04 52.6062 343.14 52.8729C343.247 53.1396 343.3 53.4429 343.3 53.7829C343.3 54.1229 343.247 54.4362 343.14 54.7229C343.033 55.0029 342.877 55.2462 342.67 55.4529C342.47 55.6529 342.223 55.8096 341.93 55.9229C341.643 56.0362 341.317 56.0929 340.95 56.0929C340.657 56.0929 340.397 56.0596 340.17 55.9929C339.95 55.9262 339.753 55.8362 339.58 55.7229C339.407 55.6096 339.253 55.4829 339.12 55.3429C338.993 55.2029 338.877 55.0562 338.77 54.9029L339.4 54.4229C339.487 54.5629 339.577 54.6896 339.67 54.8029C339.77 54.9162 339.877 55.0129 339.99 55.0929C340.11 55.1729 340.247 55.2362 340.4 55.2829C340.553 55.3229 340.737 55.3429 340.95 55.3429C341.43 55.3429 341.793 55.2162 342.04 54.9629C342.287 54.7096 342.41 54.3529 342.41 53.8929V53.7929C342.41 53.3329 342.287 52.9762 342.04 52.7229C341.793 52.4696 341.43 52.3429 340.95 52.3429C340.63 52.3429 340.377 52.4029 340.19 52.5229C340.01 52.6362 339.847 52.7729 339.7 52.9329L338.99 52.8329L339.24 48.9929H342.98V49.7329ZM346.996 56.0929C346.163 56.0929 345.553 55.7762 345.166 55.1429C344.786 54.5096 344.596 53.6229 344.596 52.4829C344.596 51.3429 344.786 50.4562 345.166 49.8229C345.553 49.1896 346.163 48.8729 346.996 48.8729C347.829 48.8729 348.436 49.1896 348.816 49.8229C349.203 50.4562 349.396 51.3429 349.396 52.4829C349.396 53.6229 349.203 54.5096 348.816 55.1429C348.436 55.7762 347.829 56.0929 346.996 56.0929ZM346.996 55.3629C347.269 55.3629 347.503 55.3062 347.696 55.1929C347.889 55.0796 348.046 54.9196 348.166 54.7129C348.286 54.5062 348.373 54.2629 348.426 53.9829C348.486 53.7029 348.516 53.3929 348.516 53.0529V51.9129C348.516 51.5729 348.486 51.2629 348.426 50.9829C348.373 50.7029 348.286 50.4596 348.166 50.2529C348.046 50.0462 347.889 49.8862 347.696 49.7729C347.503 49.6596 347.269 49.6029 346.996 49.6029C346.723 49.6029 346.489 49.6596 346.296 49.7729C346.103 49.8862 345.946 50.0462 345.826 50.2529C345.706 50.4596 345.616 50.7029 345.556 50.9829C345.503 51.2629 345.476 51.5729 345.476 51.9129V53.0529C345.476 53.3929 345.503 53.7029 345.556 53.9829C345.616 54.2629 345.706 54.5062 345.826 54.7129C345.946 54.9196 346.103 55.0796 346.296 55.1929C346.489 55.3062 346.723 55.3629 346.996 55.3629Z" fill="#0B2E31"/>
<g filter="url(#filter9_f_2467_5386)">
<rect x="326" y="62.9729" width="32" height="94" rx="4" fill="#53C07D"/>
</g>
<path d="M329.011 172.093C328.177 172.093 327.567 171.776 327.181 171.143C326.801 170.51 326.611 169.623 326.611 168.483C326.611 167.343 326.801 166.456 327.181 165.823C327.567 165.19 328.177 164.873 329.011 164.873C329.844 164.873 330.451 165.19 330.831 165.823C331.217 166.456 331.411 167.343 331.411 168.483C331.411 169.623 331.217 170.51 330.831 171.143C330.451 171.776 329.844 172.093 329.011 172.093ZM329.011 171.363C329.284 171.363 329.517 171.306 329.711 171.193C329.904 171.08 330.061 170.92 330.181 170.713C330.301 170.506 330.387 170.263 330.441 169.983C330.501 169.703 330.531 169.393 330.531 169.053V167.913C330.531 167.573 330.501 167.263 330.441 166.983C330.387 166.703 330.301 166.46 330.181 166.253C330.061 166.046 329.904 165.886 329.711 165.773C329.517 165.66 329.284 165.603 329.011 165.603C328.737 165.603 328.504 165.66 328.311 165.773C328.117 165.886 327.961 166.046 327.841 166.253C327.721 166.46 327.631 166.703 327.571 166.983C327.517 167.263 327.491 167.573 327.491 167.913V169.053C327.491 169.393 327.517 169.703 327.571 169.983C327.631 170.263 327.721 170.506 327.841 170.713C327.961 170.92 328.117 171.08 328.311 171.193C328.504 171.306 328.737 171.363 329.011 171.363ZM335.017 172.093C334.657 172.093 334.33 172.033 334.037 171.913C333.75 171.786 333.504 171.61 333.297 171.383C333.097 171.15 332.944 170.866 332.837 170.533C332.73 170.2 332.677 169.826 332.677 169.413C332.677 168.893 332.754 168.406 332.907 167.953C333.06 167.493 333.257 167.076 333.497 166.703C333.744 166.323 334.014 165.99 334.307 165.703C334.6 165.41 334.887 165.173 335.167 164.993H336.247C335.874 165.266 335.54 165.533 335.247 165.793C334.954 166.053 334.697 166.326 334.477 166.613C334.257 166.893 334.07 167.196 333.917 167.523C333.764 167.843 333.64 168.206 333.547 168.613L333.597 168.633C333.764 168.346 333.977 168.11 334.237 167.923C334.504 167.73 334.85 167.633 335.277 167.633C335.577 167.633 335.854 167.683 336.107 167.783C336.36 167.883 336.577 168.026 336.757 168.213C336.937 168.4 337.077 168.626 337.177 168.893C337.284 169.16 337.337 169.456 337.337 169.783C337.337 170.123 337.28 170.436 337.167 170.723C337.06 171.003 336.904 171.246 336.697 171.453C336.497 171.653 336.254 171.81 335.967 171.923C335.68 172.036 335.364 172.093 335.017 172.093ZM335.007 171.363C335.467 171.363 335.824 171.236 336.077 170.983C336.337 170.73 336.467 170.366 336.467 169.893V169.813C336.467 169.34 336.337 168.976 336.077 168.723C335.824 168.47 335.467 168.343 335.007 168.343C334.547 168.343 334.187 168.47 333.927 168.723C333.674 168.976 333.547 169.34 333.547 169.813V169.893C333.547 170.366 333.674 170.73 333.927 170.983C334.187 171.236 334.547 171.363 335.007 171.363ZM338.693 169.363V168.503H341.303V169.363H338.693ZM344.997 172.093C344.164 172.093 343.554 171.776 343.167 171.143C342.787 170.51 342.597 169.623 342.597 168.483C342.597 167.343 342.787 166.456 343.167 165.823C343.554 165.19 344.164 164.873 344.997 164.873C345.83 164.873 346.437 165.19 346.817 165.823C347.204 166.456 347.397 167.343 347.397 168.483C347.397 169.623 347.204 170.51 346.817 171.143C346.437 171.776 345.83 172.093 344.997 172.093ZM344.997 171.363C345.27 171.363 345.504 171.306 345.697 171.193C345.89 171.08 346.047 170.92 346.167 170.713C346.287 170.506 346.374 170.263 346.427 169.983C346.487 169.703 346.517 169.393 346.517 169.053V167.913C346.517 167.573 346.487 167.263 346.427 166.983C346.374 166.703 346.287 166.46 346.167 166.253C346.047 166.046 345.89 165.886 345.697 165.773C345.504 165.66 345.27 165.603 344.997 165.603C344.724 165.603 344.49 165.66 344.297 165.773C344.104 165.886 343.947 166.046 343.827 166.253C343.707 166.46 343.617 166.703 343.557 166.983C343.504 167.263 343.477 167.573 343.477 167.913V169.053C343.477 169.393 343.504 169.703 343.557 169.983C343.617 170.263 343.707 170.506 343.827 170.713C343.947 170.92 344.104 171.08 344.297 171.193C344.49 171.306 344.724 171.363 344.997 171.363ZM349.743 171.973L352.413 165.713H349.433V167.013H348.683V164.993H353.263V165.733L350.643 171.973H349.743Z" fill="#0B2E31"/>
<path d="M381.756 137.973V136.603H378.386V135.863L381.306 130.993H382.556V135.903H383.566V136.603H382.556V137.973H381.756ZM379.176 135.903H381.756V131.643H381.706L379.176 135.903ZM387.002 138.093C386.169 138.093 385.559 137.776 385.172 137.143C384.792 136.51 384.602 135.623 384.602 134.483C384.602 133.343 384.792 132.456 385.172 131.823C385.559 131.19 386.169 130.873 387.002 130.873C387.835 130.873 388.442 131.19 388.822 131.823C389.209 132.456 389.402 133.343 389.402 134.483C389.402 135.623 389.209 136.51 388.822 137.143C388.442 137.776 387.835 138.093 387.002 138.093ZM387.002 137.363C387.275 137.363 387.509 137.306 387.702 137.193C387.895 137.08 388.052 136.92 388.172 136.713C388.292 136.506 388.379 136.263 388.432 135.983C388.492 135.703 388.522 135.393 388.522 135.053V133.913C388.522 133.573 388.492 133.263 388.432 132.983C388.379 132.703 388.292 132.46 388.172 132.253C388.052 132.046 387.895 131.886 387.702 131.773C387.509 131.66 387.275 131.603 387.002 131.603C386.729 131.603 386.495 131.66 386.302 131.773C386.109 131.886 385.952 132.046 385.832 132.253C385.712 132.46 385.622 132.703 385.562 132.983C385.509 133.263 385.482 133.573 385.482 133.913V135.053C385.482 135.393 385.509 135.703 385.562 135.983C385.622 136.263 385.712 136.506 385.832 136.713C385.952 136.92 386.109 137.08 386.302 137.193C386.495 137.306 386.729 137.363 387.002 137.363ZM392.998 138.093C392.165 138.093 391.555 137.776 391.168 137.143C390.788 136.51 390.598 135.623 390.598 134.483C390.598 133.343 390.788 132.456 391.168 131.823C391.555 131.19 392.165 130.873 392.998 130.873C393.831 130.873 394.438 131.19 394.818 131.823C395.205 132.456 395.398 133.343 395.398 134.483C395.398 135.623 395.205 136.51 394.818 137.143C394.438 137.776 393.831 138.093 392.998 138.093ZM392.998 137.363C393.271 137.363 393.505 137.306 393.698 137.193C393.891 137.08 394.048 136.92 394.168 136.713C394.288 136.506 394.375 136.263 394.428 135.983C394.488 135.703 394.518 135.393 394.518 135.053V133.913C394.518 133.573 394.488 133.263 394.428 132.983C394.375 132.703 394.288 132.46 394.168 132.253C394.048 132.046 393.891 131.886 393.698 131.773C393.505 131.66 393.271 131.603 392.998 131.603C392.725 131.603 392.491 131.66 392.298 131.773C392.105 131.886 391.948 132.046 391.828 132.253C391.708 132.46 391.618 132.703 391.558 132.983C391.505 133.263 391.478 133.573 391.478 133.913V135.053C391.478 135.393 391.505 135.703 391.558 135.983C391.618 136.263 391.708 136.506 391.828 136.713C391.948 136.92 392.105 137.08 392.298 137.193C392.491 137.306 392.725 137.363 392.998 137.363Z" fill="#0B2E31"/>
<g filter="url(#filter10_f_2467_5386)">
<rect x="378" y="144.973" width="32" height="12" rx="4" fill="#53C07D"/>
</g>
<path d="M381.011 172.093C380.177 172.093 379.567 171.776 379.181 171.143C378.801 170.51 378.611 169.623 378.611 168.483C378.611 167.343 378.801 166.456 379.181 165.823C379.567 165.19 380.177 164.873 381.011 164.873C381.844 164.873 382.451 165.19 382.831 165.823C383.217 166.456 383.411 167.343 383.411 168.483C383.411 169.623 383.217 170.51 382.831 171.143C382.451 171.776 381.844 172.093 381.011 172.093ZM381.011 171.363C381.284 171.363 381.517 171.306 381.711 171.193C381.904 171.08 382.061 170.92 382.181 170.713C382.301 170.506 382.387 170.263 382.441 169.983C382.501 169.703 382.531 169.393 382.531 169.053V167.913C382.531 167.573 382.501 167.263 382.441 166.983C382.387 166.703 382.301 166.46 382.181 166.253C382.061 166.046 381.904 165.886 381.711 165.773C381.517 165.66 381.284 165.603 381.011 165.603C380.737 165.603 380.504 165.66 380.311 165.773C380.117 165.886 379.961 166.046 379.841 166.253C379.721 166.46 379.631 166.703 379.571 166.983C379.517 167.263 379.491 167.573 379.491 167.913V169.053C379.491 169.393 379.517 169.703 379.571 169.983C379.631 170.263 379.721 170.506 379.841 170.713C379.961 170.92 380.117 171.08 380.311 171.193C380.504 171.306 380.737 171.363 381.011 171.363ZM385.757 171.973L388.427 165.713H385.447V167.013H384.697V164.993H389.277V165.733L386.657 171.973H385.757ZM390.693 169.363V168.503H393.303V169.363H390.693ZM396.997 172.093C396.164 172.093 395.554 171.776 395.167 171.143C394.787 170.51 394.597 169.623 394.597 168.483C394.597 167.343 394.787 166.456 395.167 165.823C395.554 165.19 396.164 164.873 396.997 164.873C397.83 164.873 398.437 165.19 398.817 165.823C399.204 166.456 399.397 167.343 399.397 168.483C399.397 169.623 399.204 170.51 398.817 171.143C398.437 171.776 397.83 172.093 396.997 172.093ZM396.997 171.363C397.27 171.363 397.504 171.306 397.697 171.193C397.89 171.08 398.047 170.92 398.167 170.713C398.287 170.506 398.374 170.263 398.427 169.983C398.487 169.703 398.517 169.393 398.517 169.053V167.913C398.517 167.573 398.487 167.263 398.427 166.983C398.374 166.703 398.287 166.46 398.167 166.253C398.047 166.046 397.89 165.886 397.697 165.773C397.504 165.66 397.27 165.603 396.997 165.603C396.724 165.603 396.49 165.66 396.297 165.773C396.104 165.886 395.947 166.046 395.827 166.253C395.707 166.46 395.617 166.703 395.557 166.983C395.504 167.263 395.477 167.573 395.477 167.913V169.053C395.477 169.393 395.504 169.703 395.557 169.983C395.617 170.263 395.707 170.506 395.827 170.713C395.947 170.92 396.104 171.08 396.297 171.193C396.49 171.306 396.724 171.363 396.997 171.363ZM401.743 171.973L404.413 165.713H401.433V167.013H400.683V164.993H405.263V165.733L402.643 171.973H401.743Z" fill="#0B2E31"/>
<defs>
<filter id="filter0_f_2467_5386" x="51" y="10.9729" width="370" height="3" filterUnits="userSpaceOnUse" color-interpolation-filters="sRGB">
<feFlood flood-opacity="0" result="BackgroundImageFix"/>
<feBlend mode="normal" in="SourceGraphic" in2="BackgroundImageFix" result="shape"/>
<feGaussianBlur stdDeviation="0.5" result="effect1_foregroundBlur_2467_5386"/>
</filter>
<filter id="filter1_f_2467_5386" x="51" y="58.9729" width="370" height="3" filterUnits="userSpaceOnUse" color-interpolation-filters="sRGB">
<feFlood flood-opacity="0" result="BackgroundImageFix"/>
<feBlend mode="normal" in="SourceGraphic" in2="BackgroundImageFix" result="shape"/>
<feGaussianBlur stdDeviation="0.5" result="effect1_foregroundBlur_2467_5386"/>
</filter>
<filter id="filter2_f_2467_5386" x="51" y="106.973" width="370" height="3" filterUnits="userSpaceOnUse" color-interpolation-filters="sRGB">
<feFlood flood-opacity="0" result="BackgroundImageFix"/>
<feBlend mode="normal" in="SourceGraphic" in2="BackgroundImageFix" result="shape"/>
<feGaussianBlur stdDeviation="0.5" result="effect1_foregroundBlur_2467_5386"/>
</filter>
<filter id="filter3_f_2467_5386" x="51" y="154.973" width="370" height="3" filterUnits="userSpaceOnUse" color-interpolation-filters="sRGB">
<feFlood flood-opacity="0" result="BackgroundImageFix"/>
<feBlend mode="normal" in="SourceGraphic" in2="BackgroundImageFix" result="shape"/>
<feGaussianBlur stdDeviation="0.5" result="effect1_foregroundBlur_2467_5386"/>
</filter>
<filter id="filter4_f_2467_5386" x="65.5" y="126.473" width="33" height="31" filterUnits="userSpaceOnUse" color-interpolation-filters="sRGB">
<feFlood flood-opacity="0" result="BackgroundImageFix"/>
<feBlend mode="normal" in="SourceGraphic" in2="BackgroundImageFix" result="shape"/>
<feGaussianBlur stdDeviation="0.25" result="effect1_foregroundBlur_2467_5386"/>
</filter>
<filter id="filter5_f_2467_5386" x="117.5" y="87.4729" width="33" height="70" filterUnits="userSpaceOnUse" color-interpolation-filters="sRGB">
<feFlood flood-opacity="0" result="BackgroundImageFix"/>
<feBlend mode="normal" in="SourceGraphic" in2="BackgroundImageFix" result="shape"/>
<feGaussianBlur stdDeviation="0.25" result="effect1_foregroundBlur_2467_5386"/>
</filter>
<filter id="filter6_f_2467_5386" x="169.5" y="111.473" width="33" height="46" filterUnits="userSpaceOnUse" color-interpolation-filters="sRGB">
<feFlood flood-opacity="0" result="BackgroundImageFix"/>
<feBlend mode="normal" in="SourceGraphic" in2="BackgroundImageFix" result="shape"/>
<feGaussianBlur stdDeviation="0.25" result="effect1_foregroundBlur_2467_5386"/>
</filter>
<filter id="filter7_f_2467_5386" x="221.5" y="30.4729" width="33" height="127" filterUnits="userSpaceOnUse" color-interpolation-filters="sRGB">
<feFlood flood-opacity="0" result="BackgroundImageFix"/>
<feBlend mode="normal" in="SourceGraphic" in2="BackgroundImageFix" result="shape"/>
<feGaussianBlur stdDeviation="0.25" result="effect1_foregroundBlur_2467_5386"/>
</filter>
<filter id="filter8_f_2467_5386" x="273.5" y="69.4729" width="33" height="88" filterUnits="userSpaceOnUse" color-interpolation-filters="sRGB">
<feFlood flood-opacity="0" result="BackgroundImageFix"/>
<feBlend mode="normal" in="SourceGraphic" in2="BackgroundImageFix" result="shape"/>
<feGaussianBlur stdDeviation="0.25" result="effect1_foregroundBlur_2467_5386"/>
</filter>
<filter id="filter9_f_2467_5386" x="325.5" y="62.4729" width="33" height="95" filterUnits="userSpaceOnUse" color-interpolation-filters="sRGB">
<feFlood flood-opacity="0" result="BackgroundImageFix"/>
<feBlend mode="normal" in="SourceGraphic" in2="BackgroundImageFix" result="shape"/>
<feGaussianBlur stdDeviation="0.25" result="effect1_foregroundBlur_2467_5386"/>
</filter>
<filter id="filter10_f_2467_5386" x="377.5" y="144.473" width="33" height="13" filterUnits="userSpaceOnUse" color-interpolation-filters="sRGB">
<feFlood flood-opacity="0" result="BackgroundImageFix"/>
<feBlend mode="normal" in="SourceGraphic" in2="BackgroundImageFix" result="shape"/>
<feGaussianBlur stdDeviation="0.25" result="effect1_foregroundBlur_2467_5386"/>
</filter>
</defs>
</svg>
