<svg width="48" height="49" viewBox="0 0 48 49" fill="none" xmlns="http://www.w3.org/2000/svg">
<path d="M24 30.9729C27.3137 30.9729 30 28.2866 30 24.9729C30 21.6592 27.3137 18.9729 24 18.9729C20.6863 18.9729 18 21.6592 18 24.9729C18 28.2866 20.6863 30.9729 24 30.9729Z" fill="#41D77B"/>
<path d="M17.09 17.7619L14.321 14.8729C11.663 17.4209 10 20.9999 10 24.9729C10 28.9459 11.663 32.5249 14.321 35.0729L17.09 32.1839C15.19 30.3619 14 27.8059 14 24.9729C14 22.1399 15.19 19.5829 17.09 17.7619Z" fill="#41D77B"/>
<path d="M33.6789 14.8729L30.9099 17.7619C32.8099 19.5839 33.9999 22.1399 33.9999 24.9729C33.9999 27.8059 32.8099 30.3619 30.9099 32.1839L33.6789 35.0729C36.3369 32.5249 37.9999 28.9459 37.9999 24.9729C37.9999 20.9999 36.3369 17.4209 33.6789 14.8729Z" fill="#41D77B"/>
<path d="M11.561 11.9939L8.782 9.09387C4.605 13.0979 2 18.7299 2 24.9729C2 31.2159 4.605 36.8479 8.782 40.8519L11.561 37.9519C8.142 34.6739 6 30.0729 6 24.9729C6 19.8729 8.142 15.2719 11.561 11.9939Z" fill="#41D77B"/>
<path d="M39.218 9.09387L36.439 11.9939C39.858 15.2719 42 19.8729 42 24.9729C42 30.0729 39.858 34.6739 36.439 37.9519L39.218 40.8519C43.395 36.8479 46 31.2159 46 24.9729C46 18.7299 43.395 13.0979 39.218 9.09387Z" fill="#41D77B"/>
</svg>
