<svg width="32" height="33" viewBox="0 0 32 33" fill="none" xmlns="http://www.w3.org/2000/svg">
<rect y="0.9729" width="32" height="32" rx="10" fill="#8DB9B9"/>
<path d="M7.5 25.9729C7.22386 25.9729 7 25.749 7 25.4729V24.18C7 24.0474 7.05268 23.9202 7.14645 23.8265L8.14645 22.8265C8.46143 22.5115 9 22.7346 9 23.18V25.4729C9 25.749 8.77614 25.9729 8.5 25.9729H7.5ZM11.5 25.9729C11.2239 25.9729 11 25.749 11 25.4729V20.18C11 20.0474 11.0527 19.9202 11.1464 19.8265L12.1464 18.8265C12.4614 18.5115 13 18.7346 13 19.18V25.4729C13 25.749 12.7761 25.9729 12.5 25.9729H11.5ZM15.5 25.9729C15.2239 25.9729 15 25.749 15 25.4729V19.1907C15 18.7437 15.5417 18.5213 15.8557 18.8393L16.8557 19.8518C16.9482 19.9454 17 20.0717 17 20.2032V25.4729C17 25.749 16.7761 25.9729 16.5 25.9729H15.5ZM19.5 25.9729C19.2239 25.9729 19 25.749 19 25.4729V20.205C19 20.0724 19.0527 19.9452 19.1464 19.8515L20.1464 18.8515C20.4614 18.5365 21 18.7596 21 19.205V25.4729C21 25.749 20.7761 25.9729 20.5 25.9729H19.5ZM23.5 25.9729C23.2239 25.9729 23 25.749 23 25.4729V16.18C23 16.0474 23.0527 15.9202 23.1464 15.8265L24.1464 14.8265C24.4614 14.5115 25 14.7346 25 15.18V25.4729C25 25.749 24.7761 25.9729 24.5 25.9729H23.5ZM7.85355 19.9443C7.53857 20.2593 7 20.0362 7 19.5908V18.18C7 18.0474 7.05268 17.9202 7.14645 17.8265L13.6464 11.3265C13.8417 11.1312 14.1583 11.1312 14.3536 11.3265L17.6464 14.6193C17.8417 14.8146 18.1583 14.8146 18.3536 14.6193L24.1464 8.82645C24.4614 8.51147 25 8.73455 25 9.18001V10.5908C25 10.7234 24.9473 10.8506 24.8536 10.9443L18.3536 17.4443C18.1583 17.6396 17.8417 17.6396 17.6464 17.4443L14.3536 14.1515C14.1583 13.9562 13.8417 13.9562 13.6464 14.1515L7.85355 19.9443Z" fill="#2F2F2F"/>
</svg>
