<svg width="32" height="33" viewBox="0 0 32 33" fill="none" xmlns="http://www.w3.org/2000/svg">
<rect y="0.9729" width="32" height="32" rx="10" fill="#CFE2DA"/>
<path d="M7 27.1345V25.6345H9.5V24.8845H8V23.3845H9.5V22.6345H7V21.1345H10C10.2833 21.1345 10.5208 21.2304 10.7125 21.422C10.9042 21.6137 11 21.8512 11 22.1345V23.1345C11 23.4179 10.9042 23.6554 10.7125 23.847C10.5208 24.0387 10.2833 24.1345 10 24.1345C10.2833 24.1345 10.5208 24.2304 10.7125 24.422C10.9042 24.6137 11 24.8512 11 25.1345V26.1345C11 26.4179 10.9042 26.6554 10.7125 26.847C10.5208 27.0387 10.2833 27.1345 10 27.1345H7ZM7 20.1345V17.3845C7 17.1012 7.09583 16.8637 7.2875 16.672C7.47917 16.4804 7.71667 16.3845 8 16.3845H9.5V15.6345H7V14.1345H10C10.2833 14.1345 10.5208 14.2304 10.7125 14.422C10.9042 14.6137 11 14.8512 11 15.1345V16.8845C11 17.1679 10.9042 17.4054 10.7125 17.597C10.5208 17.7887 10.2833 17.8845 10 17.8845H8.5V18.6345H11V20.1345H7ZM8.5 13.1345V8.63452H7V7.13452H10V13.1345H8.5ZM13 24.1345V22.1345H25V24.1345H13ZM13 18.1345V16.1345H25V18.1345H13ZM13 12.1345V10.1345H25V12.1345H13Z" fill="#5F6368"/>
</svg>
