<svg width="16" height="11" viewBox="0 0 16 11" fill="none" xmlns="http://www.w3.org/2000/svg">
<path d="M8.0013 8.49365C8.83464 8.49365 9.54297 8.20199 10.1263 7.61865C10.7096 7.03532 11.0013 6.32699 11.0013 5.49365C11.0013 4.66032 10.7096 3.95199 10.1263 3.36865C9.54297 2.78532 8.83464 2.49365 8.0013 2.49365C7.16797 2.49365 6.45964 2.78532 5.8763 3.36865C5.29297 3.95199 5.0013 4.66032 5.0013 5.49365C5.0013 6.32699 5.29297 7.03532 5.8763 7.61865C6.45964 8.20199 7.16797 8.49365 8.0013 8.49365ZM8.0013 7.29365C7.5013 7.29365 7.0763 7.11865 6.7263 6.76865C6.3763 6.41865 6.2013 5.99365 6.2013 5.49365C6.2013 4.99365 6.3763 4.56865 6.7263 4.21865C7.0763 3.86865 7.5013 3.69365 8.0013 3.69365C8.5013 3.69365 8.9263 3.86865 9.2763 4.21865C9.6263 4.56865 9.8013 4.99365 9.8013 5.49365C9.8013 5.99365 9.6263 6.41865 9.2763 6.76865C8.9263 7.11865 8.5013 7.29365 8.0013 7.29365ZM8.0013 10.4937C6.37908 10.4937 4.9013 10.0409 3.56797 9.13532C2.23464 8.22976 1.26797 7.01587 0.667969 5.49365C1.26797 3.97143 2.23464 2.75754 3.56797 1.85199C4.9013 0.94643 6.37908 0.493652 8.0013 0.493652C9.62352 0.493652 11.1013 0.94643 12.4346 1.85199C13.768 2.75754 14.7346 3.97143 15.3346 5.49365C14.7346 7.01587 13.768 8.22976 12.4346 9.13532C11.1013 10.0409 9.62352 10.4937 8.0013 10.4937ZM8.0013 9.16032C9.25686 9.16032 10.4096 8.82976 11.4596 8.16865C12.5096 7.50754 13.3124 6.61587 13.868 5.49365C13.3124 4.37143 12.5096 3.47976 11.4596 2.81865C10.4096 2.15754 9.25686 1.82699 8.0013 1.82699C6.74575 1.82699 5.59297 2.15754 4.54297 2.81865C3.49297 3.47976 2.69019 4.37143 2.13464 5.49365C2.69019 6.61587 3.49297 7.50754 4.54297 8.16865C5.59297 8.82976 6.74575 9.16032 8.0013 9.16032Z" fill="#5F6368"/>
</svg>
