<svg width="1600" height="129" viewBox="0 0 1600 129" fill="none" xmlns="http://www.w3.org/2000/svg">
<g filter="url(#filter0_b_2467_5608)">
<path d="M-132.141 67.9274C-132.234 63.5101 -128.729 59.812 -124.313 59.6675L1648.48 1.63438C1652.9 1.48983 1656.55 4.95357 1656.65 9.37088L1657.74 61.5798C1657.83 65.9971 1654.33 69.6952 1649.91 69.8398L-122.884 127.873C-127.3 128.017 -130.955 124.554 -131.047 120.136L-132.141 67.9274Z" fill="url(#paint0_linear_2467_5608)"/>
<path d="M-124.321 59.2675C-128.958 59.4193 -132.638 63.3024 -132.541 67.9405L-131.447 120.149C-131.35 124.788 -127.512 128.425 -122.876 128.273L1649.92 70.2397C1654.56 70.0879 1658.24 66.2049 1658.14 61.5667L1657.05 9.3578C1656.95 4.71962 1653.11 1.08268 1648.48 1.23447L-124.321 59.2675Z" stroke="url(#paint1_linear_2467_5608)" stroke-width="0.8"/>
<path d="M-32.1291 98.7796L-33.4676 95.0417L-38.6848 95.2124L-39.825 99.0315L-42.1237 99.1068L-37.6586 84.9941L-34.8202 84.9012L-29.7703 98.7024L-32.1291 98.7796ZM-36.1958 87.0272L-36.2958 87.0305L-38.1857 93.2552L-34.0679 93.1204L-36.1958 87.0272ZM-27.9017 84.6747L-22.9643 84.5131C-22.0715 84.4839 -21.2622 84.6041 -20.5364 84.8738C-19.7973 85.1431 -19.1684 85.5627 -18.6498 86.1327C-18.118 86.6889 -17.703 87.4023 -17.4047 88.2729C-17.1067 89.1302 -16.9456 90.1388 -16.9213 91.2985C-16.897 92.4583 -17.0156 93.4826 -17.277 94.3716C-17.5387 95.2472 -17.9233 95.9868 -18.4307 96.5904C-18.9251 97.1802 -19.5357 97.6337 -20.2625 97.9509C-20.9759 98.2678 -21.7791 98.4408 -22.672 98.47L-27.6093 98.6316L-27.9017 84.6747ZM-22.7138 96.4705C-21.6744 96.4364 -20.8417 96.0824 -20.2157 95.4082C-19.5897 94.7341 -19.29 93.7638 -19.3165 92.4974L-19.3635 90.2579C-19.39 88.9916 -19.7299 88.0422 -20.3833 87.41C-21.0366 86.7777 -21.883 86.4786 -22.9224 86.5126L-25.601 86.6003L-25.3924 96.5581L-22.7138 96.4705ZM-5.71745 97.915L-7.05594 94.1771L-12.2731 94.3478L-13.4133 98.1669L-15.7121 98.2422L-11.247 84.1295L-8.40852 84.0366L-3.35872 97.8378L-5.71745 97.915ZM-9.7842 86.1626L-9.88415 86.1659L-11.7741 92.3906L-7.65627 92.2558L-9.7842 86.1626ZM-2.7136 100.838L2.45025 82.8407L4.32924 82.7792L-0.834603 100.777L-2.7136 100.838ZM8.98419 83.4672L9.16429 92.0654C9.18915 93.2518 9.4344 94.1375 9.90005 94.7225C10.3657 95.3076 11.1449 95.5822 12.2377 95.5464C13.3304 95.5106 14.097 95.1854 14.5376 94.5707C14.9781 93.956 15.1859 93.0555 15.1611 91.869L14.981 83.2709L17.1998 83.1983L17.3724 91.4365C17.3939 92.4629 17.3191 93.3525 17.1482 94.1051C16.9773 94.8577 16.6904 95.4874 16.2876 95.9941C15.8846 96.4875 15.3524 96.8651 14.6911 97.1269C14.0432 97.3882 13.2395 97.5346 12.28 97.566C11.3205 97.5974 10.5051 97.504 9.83373 97.2859C9.17572 97.0673 8.63513 96.7248 8.21197 96.2585C7.78853 95.7788 7.4757 95.1687 7.2735 94.4283C7.0713 93.6879 6.95944 92.8045 6.93794 91.7781L6.76538 83.5399L8.98419 83.4672ZM25.0241 97.1488C23.8514 97.1872 22.8474 97.0066 22.0123 96.6071C21.1904 96.2071 20.4788 95.6568 19.8774 94.9562L21.406 93.4454C21.9116 94.0292 22.4608 94.4647 23.0536 94.7521C23.6597 95.0391 24.3425 95.1702 25.1021 95.1453C25.995 95.1161 26.6638 94.8941 27.1085 94.4793C27.5532 94.0646 27.7684 93.5173 27.7542 92.8374C27.7427 92.2909 27.5737 91.8629 27.2472 91.5534C26.9207 91.244 26.3493 91.0226 25.5331 90.8892L24.2891 90.7098C22.9245 90.5011 21.8957 90.0879 21.2027 89.4702C20.5096 88.8526 20.1514 87.9839 20.1279 86.8642C20.1151 86.251 20.2168 85.6941 20.433 85.1934C20.6623 84.679 20.98 84.2484 21.3861 83.9016C21.8053 83.5411 22.3127 83.2577 22.9085 83.0514C23.5043 82.8452 24.1753 82.7298 24.9216 82.7054C25.9743 82.6709 26.8911 82.8277 27.6718 83.1756C28.4523 83.5103 29.123 84.0152 29.6838 84.6905L28.134 86.1419C27.7644 85.6871 27.3169 85.3283 26.7913 85.0653C26.2657 84.8024 25.6164 84.6836 24.8435 84.7089C24.0439 84.7351 23.4276 84.9153 22.9946 85.2496C22.5615 85.584 22.3514 86.0577 22.3642 86.6709C22.3765 87.2575 22.5656 87.6915 22.9316 87.973C23.2973 88.2411 23.8614 88.4361 24.6241 88.5579L25.8689 88.7772C27.2737 88.998 28.3027 89.4179 28.9557 90.0368C29.6221 90.6553 29.967 91.5244 29.9905 92.6442C30.0042 93.2974 29.9033 93.8943 29.6879 94.4349C29.4726 94.9756 29.149 95.4464 28.7174 95.8473C28.2988 96.2345 27.7785 96.545 27.1566 96.7788C26.5345 96.9993 25.8236 97.1226 25.0241 97.1488ZM32.4957 82.6976L37.433 82.536C38.3259 82.5067 39.1352 82.627 39.8609 82.8967C40.6 83.166 41.2289 83.5856 41.7476 84.1555C42.2793 84.7117 42.6943 85.4252 42.9926 86.2958C43.2906 87.1531 43.4517 88.1616 43.476 89.3214C43.5003 90.4811 43.3818 91.5055 43.1203 92.3945C42.8586 93.2701 42.4741 94.0097 41.9666 94.6132C41.4722 95.203 40.8617 95.6566 40.1349 95.9738C39.4214 96.2906 38.6182 96.4637 37.7254 96.4929L32.788 96.6545L32.4957 82.6976ZM37.6835 94.4933C38.7229 94.4593 39.5556 94.1052 40.1816 93.4311C40.8076 92.757 41.1073 91.7867 41.0808 90.5203L41.0339 88.2808C41.0073 87.0144 40.6674 86.0651 40.0141 85.4329C39.3607 84.8006 38.5143 84.5015 37.4749 84.5355L34.7963 84.6232L35.0049 94.581L37.6835 94.4933ZM50.8327 84.0982L51.0832 96.0556L48.8244 96.1296L48.5739 84.1722L44.4162 84.3083L44.3743 82.3087L54.9486 81.9626L54.9905 83.9621L50.8327 84.0982Z" fill="#D3DBDB"/>
<path d="M65.1388 94.3349L65.0617 90.6557L61.6835 90.7663L61.6341 88.4068L65.0123 88.2962L64.9352 84.6171L67.4939 84.5333L67.5709 88.2125L70.9491 88.1019L70.9986 90.4614L67.6204 90.572L67.6974 94.2512L65.1388 94.3349ZM82.6304 83.6776L76.2938 83.8851L76.0865 88.3139L76.2464 88.3087C76.3727 87.971 76.513 87.6663 76.6674 87.3945C76.8347 87.1089 77.0297 86.869 77.2524 86.675C77.4747 86.4676 77.7447 86.3054 78.0623 86.1883C78.3799 86.0712 78.7586 86.0054 79.1983 85.991C79.798 85.9714 80.3598 86.053 80.8837 86.236C81.4076 86.4189 81.8669 86.6973 82.2614 87.0713C82.6557 87.4319 82.972 87.8884 83.2103 88.4409C83.4483 88.98 83.5745 89.5962 83.589 90.2893C83.6038 90.9959 83.4977 91.6596 83.2707 92.2807C83.0567 92.888 82.7211 93.4192 82.2639 93.8744C81.82 94.3291 81.2676 94.694 80.6066 94.9691C79.9453 95.2309 79.1882 95.3757 78.3354 95.4036C77.6557 95.4259 77.0545 95.3722 76.5317 95.2426C76.0089 95.1129 75.5451 94.9347 75.1403 94.7078C74.7352 94.4677 74.3827 94.1924 74.0828 93.8821C73.783 93.5717 73.5227 93.2401 73.3019 92.8871L75.4447 91.0962C75.7627 91.6327 76.1389 92.0873 76.5734 92.4599C77.0077 92.8192 77.5846 92.9871 78.3042 92.9635C79.0239 92.9399 79.5592 92.7157 79.9104 92.2906C80.2749 91.8652 80.45 91.3125 80.4357 90.6327L80.4324 90.4727C80.419 89.8329 80.2218 89.3324 79.8409 88.9714C79.4599 88.6103 78.9429 88.4405 78.29 88.4619C77.7436 88.4798 77.2929 88.6079 76.9378 88.8463C76.5958 89.0709 76.3337 89.2929 76.1516 89.5123L73.6858 89.2529L74.0401 81.3376L82.5755 81.0582L82.6304 83.6776ZM87.5222 95.0829C86.9225 95.1025 86.473 94.9705 86.1737 94.6868C85.8874 94.3894 85.7394 94.0074 85.7296 93.5408L85.7213 93.1409C85.7115 92.6743 85.8435 92.2898 86.1172 91.9874C86.4039 91.6712 86.8471 91.5033 87.4468 91.4837C88.0465 91.464 88.4895 91.6029 88.7757 91.9004C89.0751 92.1841 89.2296 92.5592 89.2394 93.0257L89.2478 93.4256C89.2575 93.8922 89.119 94.2836 88.8323 94.5998C88.5586 94.9022 88.1219 95.0633 87.5222 95.0829ZM97.3437 94.5413L97.2876 91.8619L91.1509 92.0627L91.0973 89.5033L96.3518 80.6072L99.9098 80.4908L100.097 89.4488L101.857 89.3912L101.905 91.7107L100.146 91.7683L100.202 94.4477L97.3437 94.5413ZM93.501 89.6647L97.239 89.5424L97.1163 83.6836L96.9164 83.6902L93.501 89.6647ZM108.595 94.4131C107.769 94.4401 107.027 94.3643 106.37 94.1858C105.726 93.9934 105.18 93.7245 104.733 93.379C104.285 93.0334 103.937 92.618 103.686 92.1326C103.45 91.6468 103.325 91.1106 103.313 90.5241C103.294 89.631 103.525 88.8964 104.007 88.3204C104.488 87.731 105.146 87.3093 105.98 87.0552L105.977 86.8952C105.292 86.6642 104.724 86.2959 104.274 85.7904C103.836 85.2845 103.609 84.625 103.592 83.8118C103.581 83.2786 103.671 82.7821 103.861 82.3223C104.065 81.8621 104.363 81.4655 104.756 81.1325C105.162 80.7857 105.657 80.5161 106.239 80.3236C106.835 80.1173 107.52 80.0015 108.293 79.9762C109.065 79.9509 109.747 80.022 110.337 80.1894C110.941 80.3431 111.446 80.58 111.852 80.9002C112.272 81.2066 112.587 81.5831 112.796 82.0298C113.019 82.4761 113.136 82.9658 113.147 83.499C113.164 84.3122 112.958 84.9859 112.529 85.5202C112.114 86.054 111.569 86.4587 110.894 86.7342L110.898 86.8942C111.742 87.0933 112.417 87.4714 112.922 88.0285C113.427 88.5723 113.688 89.2907 113.707 90.1838C113.719 90.7704 113.611 91.3142 113.381 91.8152C113.165 92.3159 112.841 92.7534 112.409 93.1277C111.976 93.502 111.436 93.8065 110.787 94.0412C110.152 94.2621 109.421 94.386 108.595 94.4131ZM108.547 92.1136C109.213 92.0918 109.716 91.9219 110.056 91.6039C110.409 91.2722 110.58 90.8264 110.568 90.2666L110.56 89.8667C110.548 89.3068 110.359 88.8794 109.993 88.5846C109.64 88.276 109.13 88.1326 108.464 88.1544C107.798 88.1763 107.288 88.353 106.935 88.6847C106.595 89.0027 106.43 89.4416 106.442 90.0014L106.451 90.4014C106.462 90.9612 106.645 91.3955 106.998 91.7041C107.364 91.9989 107.88 92.1354 108.547 92.1136ZM108.418 85.9549C109.057 85.934 109.541 85.7714 109.868 85.4673C110.194 85.1497 110.352 84.7311 110.342 84.2112L110.335 83.8912C110.324 83.3713 110.149 82.9702 109.81 82.6879C109.47 82.3922 108.98 82.2548 108.341 82.2757C107.701 82.2967 107.218 82.4659 106.891 82.7834C106.564 83.0876 106.406 83.4996 106.417 84.0195L106.424 84.3394C106.435 84.8593 106.61 85.2671 106.949 85.5628C107.289 85.8452 107.778 85.9759 108.418 85.9549Z" fill="#41D87B"/>
<path d="M131.896 74.451L135.775 82.0386L144.091 83.9635L136.462 87.9341L134.44 96.2787L130.562 88.6911L122.246 86.7662L129.875 82.7956L131.896 74.451Z" fill="url(#paint2_linear_2467_5608)"/>
<path d="M175.956 80.0023L176.207 91.9596L173.948 92.0336L173.697 80.0762L169.54 80.2123L169.498 78.2127L180.072 77.8666L180.114 79.8661L175.956 80.0023ZM184.825 91.6775L182.566 91.7515L182.274 77.7945L188.291 77.5976C189.543 77.5565 190.537 77.9042 191.273 78.6405C192.008 79.3634 192.389 80.3714 192.416 81.6644C192.437 82.6642 192.222 83.505 191.769 84.1868C191.33 84.8548 190.666 85.3368 189.779 85.6326L192.921 91.4125L190.402 91.4949L187.485 85.9478L184.707 86.0387L184.825 91.6775ZM188.265 84.0214C188.838 84.0026 189.281 83.8414 189.595 83.5376C189.909 83.2206 190.059 82.7821 190.048 82.2222L190.028 81.2624C190.016 80.7025 189.847 80.2812 189.521 79.9984C189.195 79.7023 188.745 79.5636 188.172 79.5824L184.574 79.7001L184.667 84.1392L188.265 84.0214ZM206.299 90.9746L203.64 91.0616L200.146 85.6134L200.086 85.6153L196.864 91.2834L194.365 91.3652L198.733 84.0789L194.233 77.403L196.891 77.316L200.179 82.4108L200.219 82.4095L203.328 77.1053L205.827 77.0235L201.571 83.966L206.299 90.9746ZM206.915 93.9758L212.079 75.9784L213.958 75.9169L208.794 93.9143L206.915 93.9758ZM218.613 76.6049L218.793 85.203C218.818 86.3895 219.063 87.2752 219.529 87.8602C219.995 88.4452 220.774 88.7199 221.867 88.6841C222.959 88.6483 223.726 88.3231 224.166 87.7084C224.607 87.0937 224.815 86.1931 224.79 85.0067L224.61 76.4086L226.829 76.336L227.001 84.5742C227.023 85.6006 226.948 86.4902 226.777 87.2428C226.606 87.9954 226.319 88.6251 225.917 89.1318C225.513 89.6252 224.981 90.0028 224.32 90.2646C223.672 90.5259 222.868 90.6723 221.909 90.7037C220.949 90.7351 220.134 90.6417 219.463 90.4236C218.805 90.205 218.264 89.8625 217.841 89.3962C217.417 88.9165 217.105 88.3064 216.902 87.566C216.7 86.8256 216.588 85.9422 216.567 84.9158L216.394 76.6776L218.613 76.6049ZM234.653 90.2865C233.48 90.3249 232.476 90.1443 231.641 89.7448C230.819 89.3448 230.108 88.7945 229.506 88.0939L231.035 86.5831C231.54 87.1669 232.09 87.6024 232.682 87.8898C233.289 88.1768 233.971 88.3079 234.731 88.283C235.624 88.2538 236.293 88.0318 236.737 87.617C237.182 87.2023 237.397 86.655 237.383 85.9751C237.372 85.4286 237.203 85.0006 236.876 84.6911C236.55 84.3817 235.978 84.1603 235.162 84.0269L233.918 83.8475C232.553 83.6387 231.525 83.2256 230.832 82.6079C230.139 81.9903 229.78 81.1216 229.757 80.0019C229.744 79.3887 229.846 78.8318 230.062 78.3311C230.291 77.8167 230.609 77.3861 231.015 77.0393C231.434 76.6788 231.942 76.3954 232.537 76.1891C233.133 75.9829 233.804 75.8675 234.55 75.8431C235.603 75.8086 236.52 75.9654 237.301 76.3133C238.081 76.648 238.752 77.1529 239.313 77.8282L237.763 79.2796C237.393 78.8248 236.946 78.466 236.42 78.203C235.895 77.9401 235.245 77.8213 234.472 77.8466C233.673 77.8728 233.057 78.053 232.623 78.3873C232.19 78.7217 231.98 79.1954 231.993 79.8086C232.005 80.3952 232.195 80.8292 232.56 81.1107C232.926 81.3788 233.49 81.5738 234.253 81.6956L235.498 81.9149C236.903 82.1357 237.932 82.5556 238.585 83.1745C239.251 83.793 239.596 84.6621 239.619 85.7819C239.633 86.4351 239.532 87.032 239.317 87.5726C239.101 88.1132 238.778 88.5841 238.346 88.985C237.928 89.3722 237.407 89.6827 236.786 89.9165C236.163 90.137 235.453 90.2603 234.653 90.2865ZM242.125 75.8353L247.062 75.6737C247.955 75.6444 248.764 75.7647 249.49 76.0344C250.229 76.3037 250.858 76.7233 251.376 77.2932C251.908 77.8494 252.323 78.5628 252.621 79.4335C252.919 80.2908 253.081 81.2993 253.105 82.4591C253.129 83.6188 253.011 84.6432 252.749 85.5322C252.488 86.4078 252.103 87.1474 251.596 87.7509C251.101 88.3407 250.491 88.7942 249.764 89.1115C249.05 89.4283 248.247 89.6014 247.354 89.6306L242.417 89.7922L242.125 75.8353ZM247.312 87.631C248.352 87.597 249.185 87.2429 249.81 86.5688C250.436 85.8947 250.736 84.9244 250.71 83.658L250.663 81.4185C250.636 80.1521 250.296 79.2028 249.643 78.5705C248.99 77.9383 248.143 77.6392 247.104 77.6732L244.425 77.7609L244.634 87.7187L247.312 87.631ZM260.462 77.2359L260.712 89.1933L258.453 89.2673L258.203 77.3099L254.045 77.446L254.003 75.4464L264.578 75.1003L264.619 77.0998L260.462 77.2359Z" fill="#D3DBDB"/>
<path d="M274.768 87.4726L274.691 83.7934L271.312 83.904L271.263 81.5445L274.641 81.4339L274.564 77.7547L277.123 77.671L277.2 81.3502L280.578 81.2396L280.627 83.5991L277.249 83.7097L277.326 87.3889L274.768 87.4726ZM292.259 76.8153L285.923 77.0228L285.715 81.4516L285.875 81.4464C286.002 81.1087 286.142 80.804 286.296 80.5322C286.464 80.2466 286.659 80.0067 286.881 79.8127C287.104 79.6053 287.374 79.4431 287.691 79.326C288.009 79.2088 288.387 79.1431 288.827 79.1287C289.427 79.1091 289.989 79.1907 290.513 79.3737C291.037 79.5566 291.496 79.835 291.89 80.209C292.285 80.5696 292.601 81.0261 292.839 81.5786C293.077 82.1177 293.203 82.7339 293.218 83.427C293.233 84.1335 293.127 84.7973 292.9 85.4184C292.686 86.0257 292.35 86.5569 291.893 87.0121C291.449 87.4668 290.896 87.8317 290.235 88.1068C289.574 88.3686 288.817 88.5134 287.964 88.5413C287.285 88.5636 286.683 88.5099 286.161 88.3803C285.638 88.2506 285.174 88.0724 284.769 87.8455C284.364 87.6053 284.012 87.3301 283.712 87.0198C283.412 86.7094 283.152 86.3778 282.931 86.0248L285.074 84.2339C285.392 84.7704 285.768 85.225 286.202 85.5976C286.637 85.9569 287.214 86.1248 287.933 86.1012C288.653 86.0776 289.188 85.8534 289.539 85.4283C289.904 85.0029 290.079 84.4502 290.065 83.7704L290.061 83.6104C290.048 82.9705 289.851 82.4701 289.47 82.1091C289.089 81.748 288.572 81.5782 287.919 81.5996C287.372 81.6175 286.922 81.7456 286.567 81.984C286.225 82.2086 285.963 82.4306 285.781 82.65L283.315 82.3906L283.669 74.4753L292.204 74.1959L292.259 76.8153ZM297.151 88.2206C296.551 88.2402 296.102 88.1082 295.803 87.8245C295.516 87.5271 295.368 87.1451 295.359 86.6785L295.35 86.2786C295.34 85.812 295.472 85.4275 295.746 85.1251C296.033 84.8089 296.476 84.641 297.076 84.6214C297.675 84.6017 298.118 84.7406 298.405 85.0381C298.704 85.3218 298.858 85.6969 298.868 86.1634L298.877 86.5633C298.886 87.0299 298.748 87.4213 298.461 87.7375C298.187 88.0399 297.751 88.2009 297.151 88.2206ZM306.973 87.679L306.916 84.9996L300.78 85.2004L300.726 82.641L305.981 73.7449L309.539 73.6285L309.726 82.5865L311.485 82.5289L311.534 84.8484L309.775 84.906L309.831 87.5854L306.973 87.679ZM303.13 82.8024L306.868 82.6801L306.745 76.8213L306.545 76.8279L303.13 82.8024ZM318.224 87.5508C317.398 87.5778 316.656 87.502 315.999 87.3235C315.355 87.1311 314.809 86.8622 314.362 86.5167C313.914 86.1711 313.566 85.7557 313.315 85.2703C313.078 84.7845 312.954 84.2483 312.942 83.6618C312.923 82.7686 313.154 82.0341 313.636 81.4581C314.117 80.8687 314.775 80.447 315.609 80.1929L315.606 80.0329C314.921 79.8019 314.353 79.4336 313.903 78.9281C313.465 78.4222 313.238 77.7627 313.221 76.9495C313.21 76.4163 313.299 75.9198 313.49 75.46C313.694 74.9998 313.992 74.6032 314.385 74.2702C314.791 73.9234 315.286 73.6538 315.868 73.4613C316.464 73.255 317.148 73.1392 317.921 73.1139C318.694 73.0886 319.376 73.1597 319.966 73.3271C320.569 73.4808 321.075 73.7177 321.481 74.0379C321.901 74.3443 322.216 74.7208 322.425 75.1675C322.648 75.6138 322.765 76.1035 322.776 76.6367C322.793 77.4499 322.587 78.1236 322.158 78.6579C321.743 79.1917 321.198 79.5964 320.523 79.8719L320.527 80.0319C321.371 80.231 322.046 80.6091 322.551 81.1662C323.056 81.7099 323.317 82.4284 323.336 83.3215C323.348 83.9081 323.24 84.4519 323.01 84.9529C322.794 85.4536 322.47 85.8911 322.037 86.2654C321.605 86.6397 321.065 86.9442 320.416 87.1789C319.781 87.3997 319.05 87.5237 318.224 87.5508ZM318.176 85.2513C318.842 85.2295 319.345 85.0596 319.685 84.7416C320.038 84.4099 320.209 83.9641 320.197 83.4043L320.189 83.0043C320.177 82.4445 319.988 82.0171 319.622 81.7223C319.269 81.4137 318.759 81.2703 318.093 81.2921C317.426 81.3139 316.917 81.4907 316.564 81.8224C316.224 82.1404 316.059 82.5793 316.071 83.1391L316.079 83.5391C316.091 84.0989 316.274 84.5332 316.627 84.8418C316.993 85.1366 317.509 85.2731 318.176 85.2513ZM318.047 79.0926C318.686 79.0717 319.17 78.9091 319.497 78.6049C319.823 78.2874 319.981 77.8687 319.97 77.3489L319.964 77.0289C319.953 76.509 319.778 76.1079 319.438 75.8256C319.099 75.5299 318.609 75.3925 317.97 75.4134C317.33 75.4344 316.847 75.6036 316.52 75.9211C316.193 76.2253 316.035 76.6373 316.046 77.1572L316.053 77.4771C316.063 77.997 316.239 78.4048 316.578 78.7005C316.918 78.9828 317.407 79.1136 318.047 79.0926Z" fill="#41D87B"/>
<path d="M340.772 67.6133L344.65 75.201L352.967 77.1258L345.338 81.0964L343.316 89.4411L339.437 81.8534L331.121 79.9285L338.75 75.9579L340.772 67.6133Z" fill="url(#paint3_linear_2467_5608)"/>
<path d="M379.612 71.3345L385.789 71.1323C386.949 71.0944 387.862 71.3913 388.528 72.0231C389.208 72.6545 389.56 73.5167 389.583 74.6098C389.593 75.1297 389.53 75.5787 389.391 75.9567C389.252 76.3215 389.071 76.6275 388.85 76.8749C388.628 77.1089 388.372 77.2907 388.081 77.4203C387.79 77.5365 387.505 77.6125 387.226 77.6484L387.228 77.7683C387.509 77.7725 387.816 77.8291 388.152 77.9382C388.501 78.0468 388.825 78.2296 389.124 78.4867C389.422 78.7303 389.676 79.0555 389.884 79.4622C390.093 79.8556 390.203 80.3455 390.215 80.9321C390.227 81.492 390.145 82.0216 389.968 82.5209C389.805 83.0198 389.568 83.4544 389.256 83.8248C388.943 84.1952 388.569 84.4943 388.134 84.7219C387.699 84.9363 387.221 85.052 386.701 85.069L379.905 85.2915L379.612 71.3345ZM382.123 83.2779L386.001 83.151C386.587 83.1318 387.044 82.9635 387.371 82.646C387.697 82.3284 387.855 81.8831 387.843 81.3099L387.828 80.63C387.816 80.0568 387.641 79.6224 387.301 79.3267C386.961 79.031 386.498 78.8927 385.912 78.9119L382.034 79.0389L382.123 83.2779ZM381.995 77.1593L385.493 77.0448C386.053 77.0265 386.483 76.8723 386.783 76.5823C387.084 76.279 387.228 75.8608 387.217 75.3276L387.204 74.6877C387.193 74.1545 387.031 73.7529 386.719 73.483C386.406 73.1998 385.97 73.0673 385.41 73.0856L381.912 73.2002L381.995 77.1593ZM397.501 72.7499L397.751 84.7073L395.492 84.7812L395.242 72.8238L391.084 72.9599L391.042 70.9604L401.616 70.6142L401.658 72.6138L397.501 72.7499ZM408.904 84.5823C407.078 84.642 405.633 84.0757 404.568 82.8834C403.502 81.6777 402.945 79.9017 402.896 77.5556C402.871 76.3825 402.983 75.345 403.231 74.4432C403.478 73.5413 403.849 72.7755 404.343 72.1457C404.836 71.516 405.44 71.036 406.153 70.7058C406.879 70.3619 407.695 70.1751 408.601 70.1455C409.814 70.1058 410.833 70.3392 411.657 70.8458C412.494 71.352 413.157 72.1173 413.645 73.1418L411.768 74.2438C411.514 73.5851 411.13 73.0708 410.615 72.7007C410.114 72.317 409.457 72.1384 408.644 72.165C407.564 72.2003 406.726 72.5946 406.128 73.3479C405.531 74.1011 405.245 75.1243 405.272 76.4173L405.317 78.5368C405.344 79.8299 405.672 80.833 406.3 81.5461C406.928 82.2592 407.782 82.5981 408.862 82.5627C409.701 82.5352 410.376 82.2997 410.887 81.8561C411.411 81.3988 411.792 80.826 412.031 80.1379L413.873 81.1781C413.428 82.2065 412.792 83.021 411.964 83.6217C411.137 84.2224 410.117 84.5426 408.904 84.5823ZM414.639 87.1758L419.803 69.1785L421.682 69.117L416.518 87.1143L414.639 87.1758ZM426.337 69.805L426.517 78.4031C426.542 79.5895 426.787 80.4752 427.253 81.0603C427.718 81.6453 428.498 81.9199 429.59 81.8842C430.683 81.8484 431.45 81.5232 431.89 80.9085C432.331 80.2938 432.539 79.3932 432.514 78.2068L432.334 69.6087L434.552 69.536L434.725 77.7742C434.747 78.8007 434.672 79.6902 434.501 80.4428C434.33 81.1954 434.043 81.8251 433.64 82.3319C433.237 82.8253 432.705 83.2029 432.044 83.4646C431.396 83.7259 430.592 83.8723 429.633 83.9037C428.673 83.9351 427.858 83.8418 427.186 83.6236C426.528 83.4051 425.988 83.0626 425.565 82.5962C425.141 82.1165 424.828 81.5065 424.626 80.7661C424.424 80.0257 424.312 79.1423 424.291 78.1158L424.118 69.8776L426.337 69.805ZM442.377 83.4865C441.204 83.5249 440.2 83.3444 439.365 82.9448C438.543 82.5449 437.831 81.9946 437.23 81.2939L438.759 79.7832C439.264 80.3669 439.813 80.8025 440.406 81.0899C441.012 81.3769 441.695 81.5079 442.455 81.4831C443.348 81.4538 444.016 81.2318 444.461 80.8171C444.906 80.4023 445.121 79.8551 445.107 79.1752C445.095 78.6287 444.926 78.2007 444.6 77.8912C444.273 77.5817 443.702 77.3603 442.886 77.227L441.642 77.0476C440.277 76.8388 439.248 76.4256 438.555 75.808C437.862 75.1904 437.504 74.3217 437.481 73.2019C437.468 72.5887 437.569 72.0318 437.786 71.5312C438.015 71.0168 438.333 70.5862 438.739 70.2394C439.158 69.8789 439.665 69.5954 440.261 69.3892C440.857 69.1829 441.528 69.0676 442.274 69.0432C443.327 69.0087 444.244 69.1654 445.024 69.5134C445.805 69.848 446.476 70.353 447.036 71.0283L445.487 72.4797C445.117 72.0249 444.67 71.666 444.144 71.4031C443.618 71.1402 442.969 71.0213 442.196 71.0466C441.397 71.0728 440.78 71.2531 440.347 71.5874C439.914 71.9217 439.704 72.3955 439.717 73.0087C439.729 73.5952 439.918 74.0292 440.284 74.3107C440.65 74.5789 441.214 74.7739 441.977 74.8956L443.222 75.115C444.626 75.3358 445.655 75.7557 446.308 76.3746C446.975 76.9931 447.32 77.8622 447.343 78.9819C447.357 79.6351 447.256 80.232 447.041 80.7727C446.825 81.3133 446.502 81.7841 446.07 82.1851C445.651 82.5723 445.131 82.8828 444.509 83.1166C443.887 83.337 443.176 83.4604 442.377 83.4865ZM449.848 69.0353L454.786 68.8737C455.679 68.8445 456.488 68.9647 457.214 69.2344C457.953 69.5037 458.582 69.9233 459.1 70.4933C459.632 71.0495 460.047 71.7629 460.345 72.6335C460.643 73.4909 460.804 74.4994 460.829 75.6591C460.853 76.8189 460.734 77.8432 460.473 78.7322C460.211 79.6079 459.827 80.3474 459.319 80.951C458.825 81.5408 458.214 81.9943 457.488 82.3116C456.774 82.6284 455.971 82.8014 455.078 82.8306L450.141 82.9923L449.848 69.0353ZM455.036 80.8311C456.076 80.7971 456.908 80.443 457.534 79.7689C458.16 79.0947 458.46 78.1245 458.433 76.8581L458.387 74.6186C458.36 73.3522 458.02 72.4029 457.367 71.7706C456.713 71.1384 455.867 70.8392 454.828 70.8733L452.149 70.961L452.358 80.9188L455.036 80.8311ZM468.185 70.436L468.436 82.3934L466.177 82.4673L465.927 70.5099L461.769 70.646L461.727 68.6465L472.301 68.3003L472.343 70.2999L468.185 70.436Z" fill="#D3DBDB"/>
<path d="M482.491 80.6727L482.414 76.9935L479.036 77.1041L478.987 74.7446L482.365 74.634L482.288 70.9548L484.847 70.871L484.924 74.5502L488.302 74.4397L488.351 76.7991L484.973 76.9097L485.05 80.5889L482.491 80.6727ZM500.8 81.3339L490.926 81.6572L490.868 78.9178L495.089 75.0979C495.468 74.752 495.788 74.4414 496.049 74.166C496.31 73.8774 496.518 73.6038 496.672 73.3453C496.84 73.073 496.954 72.8091 497.016 72.5536C497.09 72.2978 497.125 72.0232 497.119 71.7299L497.113 71.45C497.107 71.1834 497.049 70.9518 496.938 70.7554C496.827 70.5589 496.684 70.3968 496.508 70.2692C496.332 70.1416 496.13 70.0481 495.902 69.9889C495.687 69.9292 495.467 69.9031 495.24 69.9105C494.907 69.9214 494.615 69.9843 494.364 70.0993C494.126 70.2138 493.916 70.3674 493.734 70.5601C493.564 70.7391 493.422 70.9505 493.307 71.1944C493.192 71.4249 493.103 71.6746 493.042 71.9434L490.403 71.0293C490.553 70.5442 490.763 70.0838 491.034 69.648C491.305 69.199 491.643 68.8077 492.05 68.4742C492.469 68.127 492.963 67.8507 493.532 67.6453C494.102 67.44 494.746 67.3255 495.466 67.3019C496.225 67.2771 496.9 67.3617 497.491 67.5558C498.082 67.7499 498.581 68.027 498.989 68.3872C499.41 68.7469 499.732 69.1832 499.956 69.6961C500.18 70.1957 500.298 70.7454 500.311 71.3453C500.324 71.9451 500.235 72.495 500.045 72.9947C499.856 73.4945 499.592 73.97 499.255 74.4212C498.931 74.8587 498.546 75.2782 498.101 75.6796C497.656 76.081 497.192 76.4897 496.707 76.9058L494.151 79.0304L500.747 78.8145L500.8 81.3339ZM511.969 69.623L505.632 69.8304L505.425 74.2593L505.585 74.2541C505.711 73.9164 505.851 73.6117 506.006 73.3399C506.173 73.0543 506.368 72.8144 506.591 72.6204C506.813 72.413 507.083 72.2508 507.401 72.1337C507.718 72.0165 508.097 71.9508 508.537 71.9364C509.136 71.9168 509.698 71.9984 510.222 72.1814C510.746 72.3643 511.205 72.6427 511.6 73.0167C511.994 73.3773 512.31 73.8338 512.549 74.3863C512.787 74.9254 512.913 75.5416 512.927 76.2347C512.942 76.9412 512.836 77.605 512.609 78.2261C512.395 78.8334 512.06 79.3646 511.602 79.8198C511.158 80.2745 510.606 80.6394 509.945 80.9145C509.284 81.1763 508.527 81.3211 507.674 81.349C506.994 81.3713 506.393 81.3176 505.87 81.188C505.347 81.0583 504.884 80.8801 504.479 80.6532C504.074 80.413 503.721 80.1378 503.421 79.8275C503.121 79.5171 502.861 79.1855 502.64 78.8325L504.783 77.0416C505.101 77.5781 505.477 78.0327 505.912 78.4053C506.346 78.7646 506.923 78.9325 507.643 78.9089C508.362 78.8853 508.898 78.6611 509.249 78.236C509.613 77.8106 509.788 77.2579 509.774 76.5781L509.771 76.4181C509.757 75.7782 509.56 75.2778 509.179 74.9168C508.798 74.5557 508.281 74.3859 507.628 74.4073C507.082 74.4252 506.631 74.5533 506.276 74.7917C505.934 75.0163 505.672 75.2383 505.49 75.4577L503.024 75.1983L503.379 67.283L511.914 67.0036L511.969 69.623ZM516.861 81.0283C516.261 81.0479 515.811 80.9159 515.512 80.6322C515.226 80.3348 515.078 79.9528 515.068 79.4862L515.06 79.0863C515.05 78.6197 515.182 78.2352 515.456 77.9328C515.742 77.6166 516.186 77.4487 516.785 77.4291C517.385 77.4094 517.828 77.5483 518.114 77.8458C518.413 78.1294 518.568 78.5046 518.578 78.9711L518.586 79.371C518.596 79.8376 518.457 80.229 518.171 80.5452C517.897 80.8476 517.46 81.0086 516.861 81.0283ZM526.682 80.4867L526.626 77.8072L520.489 78.0081L520.436 75.4487L525.69 66.5526L529.248 66.4361L529.436 75.3942L531.195 75.3366L531.244 77.6561L529.484 77.7137L529.541 80.3931L526.682 80.4867ZM522.839 75.6101L526.577 75.4878L526.455 69.629L526.255 69.6356L522.839 75.6101ZM537.933 80.3585C537.107 80.3855 536.365 80.3097 535.708 80.1312C535.064 79.9388 534.518 79.6699 534.071 79.3244C533.624 78.9788 533.275 78.5634 533.025 78.078C532.788 77.5922 532.663 77.056 532.651 76.4695C532.632 75.5763 532.864 74.8418 533.345 74.2658C533.826 73.6764 534.484 73.2547 535.319 73.0006L535.315 72.8406C534.631 72.6096 534.063 72.2413 533.612 71.7358C533.175 71.2299 532.948 70.5704 532.931 69.7572C532.919 69.224 533.009 68.7275 533.199 68.2677C533.403 67.8075 533.702 67.4109 534.095 67.0779C534.501 66.7311 534.995 66.4615 535.578 66.269C536.174 66.0627 536.858 65.9469 537.631 65.9216C538.404 65.8963 539.085 65.9674 539.676 66.1348C540.279 66.2885 540.784 66.5254 541.191 66.8456C541.611 67.152 541.925 67.5285 542.135 67.9752C542.357 68.4215 542.474 68.9112 542.485 69.4444C542.502 70.2576 542.297 70.9313 541.868 71.4656C541.452 71.9994 540.907 72.4041 540.233 72.6796L540.236 72.8396C541.081 73.0387 541.755 73.4168 542.26 73.9739C542.765 74.5176 543.027 75.2361 543.046 76.1292C543.058 76.7158 542.949 77.2596 542.72 77.7606C542.503 78.2613 542.179 78.6988 541.747 79.0731C541.315 79.4474 540.774 79.7519 540.126 79.9865C539.49 80.2074 538.76 80.3314 537.933 80.3585ZM537.885 78.059C538.551 78.0372 539.055 77.8673 539.395 77.5493C539.748 77.2176 539.919 76.7718 539.907 76.212L539.898 75.812C539.887 75.2522 539.698 74.8248 539.331 74.53C538.978 74.2214 538.469 74.078 537.802 74.0998C537.136 74.1216 536.626 74.2984 536.273 74.6301C535.933 74.9481 535.769 75.387 535.781 75.9468L535.789 76.3468C535.801 76.9066 535.983 77.3409 536.336 77.6495C536.703 77.9443 537.219 78.0808 537.885 78.059ZM537.756 71.9003C538.396 71.8794 538.879 71.7168 539.206 71.4126C539.533 71.0951 539.691 70.6764 539.68 70.1566L539.673 69.8366C539.662 69.3167 539.487 68.9156 539.148 68.6333C538.808 68.3376 538.319 68.2002 537.679 68.2211C537.039 68.2421 536.556 68.4113 536.23 68.7288C535.903 69.033 535.744 69.445 535.755 69.9649L535.762 70.2848C535.773 70.8047 535.948 71.2125 536.288 71.5082C536.627 71.7905 537.117 71.9213 537.756 71.9003Z" fill="#41D87B"/>
<path d="M560.641 60.4158L564.52 68.0034L572.836 69.9283L565.207 73.8989L563.186 82.2435L559.307 74.6559L550.991 72.731L558.62 68.7604L560.641 60.4158Z" fill="url(#paint4_linear_2467_5608)"/>
<path d="M599.775 78.094L599.483 64.137L608.418 63.8445L608.46 65.8441L601.783 66.0626L601.865 69.9418L607.921 69.7435L607.963 71.7431L601.906 71.9413L601.992 76.0205L608.668 75.8019L608.71 77.8015L599.775 78.094ZM616.551 65.5792L616.801 77.5366L614.543 77.6105L614.292 65.6532L610.134 65.7893L610.092 63.7897L620.667 63.4435L620.709 65.4431L616.551 65.5792ZM631.609 70.969L625.292 71.1758L625.42 77.2545L623.161 77.3284L622.869 63.3715L625.127 63.2975L625.25 69.1762L631.567 68.9695L631.444 63.0908L633.703 63.0168L633.995 76.9737L631.736 77.0477L631.609 70.969ZM635.915 79.9323L641.079 61.935L642.958 61.8735L637.794 79.8708L635.915 79.9323ZM647.612 62.5615L647.793 71.1596C647.817 72.346 648.063 73.2317 648.528 73.8167C648.994 74.4018 649.773 74.6764 650.866 74.6406C651.959 74.6049 652.725 74.2796 653.166 73.6649C653.606 73.0502 653.814 72.1497 653.789 70.9633L653.609 62.3652L655.828 62.2925L656.001 70.5307C656.022 71.5572 655.947 72.4467 655.776 73.1993C655.606 73.9519 655.319 74.5816 654.916 75.0883C654.513 75.5818 653.981 75.9593 653.319 76.2211C652.671 76.4824 651.868 76.6288 650.908 76.6602C649.949 76.6916 649.133 76.5982 648.462 76.3801C647.804 76.1615 647.263 75.8191 646.84 75.3527C646.417 74.873 646.104 74.2629 645.902 73.5226C645.7 72.7822 645.588 71.8987 645.566 70.8723L645.394 62.6341L647.612 62.5615ZM663.652 76.243C662.48 76.2814 661.476 76.1008 660.641 75.7013C659.819 75.3014 659.107 74.751 658.506 74.0504L660.034 72.5397C660.54 73.1234 661.089 73.559 661.682 73.8464C662.288 74.1333 662.971 74.2644 663.73 74.2395C664.623 74.2103 665.292 73.9883 665.737 73.5736C666.181 73.1588 666.397 72.6115 666.382 71.9317C666.371 71.3851 666.202 70.9571 665.875 70.6477C665.549 70.3382 664.978 70.1168 664.161 69.9834L662.917 69.8041C661.553 69.5953 660.524 69.1821 659.831 68.5645C659.138 67.9469 658.78 67.0782 658.756 65.9584C658.743 65.3452 658.845 64.7883 659.061 64.2877C659.291 63.7733 659.608 63.3427 660.014 62.9959C660.434 62.6353 660.941 62.3519 661.537 62.1457C662.133 61.9394 662.804 61.8241 663.55 61.7996C664.603 61.7652 665.519 61.9219 666.3 62.2699C667.081 62.6045 667.751 63.1094 668.312 63.7847L666.762 65.2361C666.393 64.7813 665.945 64.4225 665.42 64.1596C664.894 63.8966 664.245 63.7778 663.472 63.8031C662.672 63.8293 662.056 64.0096 661.623 64.3439C661.19 64.6782 660.98 65.152 660.992 65.7652C661.005 66.3517 661.194 66.7857 661.56 67.0672C661.926 67.3354 662.49 67.5303 663.252 67.6521L664.497 67.8715C665.902 68.0923 666.931 68.5121 667.584 69.1311C668.25 69.7495 668.595 70.6187 668.619 71.7384C668.632 72.3916 668.532 72.9885 668.316 73.5292C668.101 74.0698 667.777 74.5406 667.346 74.9416C666.927 75.3288 666.407 75.6393 665.785 75.8731C665.163 76.0935 664.452 76.2168 663.652 76.243ZM671.124 61.7918L676.061 61.6302C676.954 61.601 677.763 61.7212 678.489 61.9909C679.228 62.2602 679.857 62.6798 680.376 63.2498C680.908 63.806 681.323 64.5194 681.621 65.39C681.919 66.2473 682.08 67.2559 682.104 68.4156C682.129 69.5754 682.01 70.5997 681.749 71.4887C681.487 72.3643 681.102 73.1039 680.595 73.7075C680.101 74.2973 679.49 74.7508 678.763 75.068C678.05 75.3849 677.246 75.5579 676.354 75.5871L671.416 75.7488L671.124 61.7918ZM676.312 73.5876C677.351 73.5535 678.184 73.1995 678.81 72.5253C679.436 71.8512 679.736 70.8809 679.709 69.6146L679.662 67.375C679.636 66.1087 679.296 65.1593 678.642 64.5271C677.989 63.8948 677.143 63.5957 676.103 63.6297L673.425 63.7174L673.633 73.6752L676.312 73.5876ZM689.461 63.1925L689.711 75.1499L687.453 75.2238L687.202 63.2664L683.044 63.4025L683.003 61.403L693.577 61.0568L693.619 63.0564L689.461 63.1925Z" fill="#D3DBDB"/>
<path d="M703.767 73.4292L703.69 69.75L700.312 69.8605L700.262 67.5011L703.641 67.3905L703.564 63.7113L706.122 63.6275L706.199 67.3067L709.577 67.1961L709.627 69.5556L706.249 69.6662L706.326 73.3454L703.767 73.4292ZM721.259 62.7719L714.922 62.9793L714.715 67.4081L714.875 67.4029C715.001 67.0653 715.141 66.7605 715.296 66.4887C715.463 66.2031 715.658 65.9633 715.881 65.7692C716.103 65.5619 716.373 65.3996 716.691 65.2825C717.008 65.1654 717.387 65.0996 717.827 65.0852C718.426 65.0656 718.988 65.1473 719.512 65.3302C720.036 65.5131 720.495 65.7916 720.89 66.1655C721.284 66.5261 721.6 66.9826 721.839 67.5351C722.077 68.0742 722.203 68.6904 722.217 69.3836C722.232 70.0901 722.126 70.7539 721.899 71.3749C721.685 71.9822 721.349 72.5134 720.892 72.9686C720.448 73.4233 719.896 73.7883 719.235 74.0633C718.574 74.3251 717.816 74.4699 716.964 74.4979C716.284 74.5201 715.683 74.4664 715.16 74.3368C714.637 74.2072 714.173 74.0289 713.769 73.8021C713.363 73.5619 713.011 73.2866 712.711 72.9763C712.411 72.666 712.151 72.3343 711.93 71.9814L714.073 70.1904C714.391 70.7269 714.767 71.1815 715.202 71.5541C715.636 71.9134 716.213 72.0813 716.933 72.0577C717.652 72.0342 718.188 71.8099 718.539 71.3849C718.903 70.9594 719.078 70.4068 719.064 69.7269L719.061 69.5669C719.047 68.9271 718.85 68.4266 718.469 68.0656C718.088 67.7046 717.571 67.5347 716.918 67.5561C716.372 67.574 715.921 67.7021 715.566 67.9405C715.224 68.1652 714.962 68.3872 714.78 68.6066L712.314 68.3471L712.668 60.4318L721.204 60.1524L721.259 62.7719ZM726.15 74.1771C725.551 74.1967 725.101 74.0647 724.802 73.7811C724.516 73.4836 724.368 73.1016 724.358 72.635L724.35 72.2351C724.34 71.7686 724.472 71.3841 724.745 71.0816C725.032 70.7654 725.475 70.5975 726.075 70.5779C726.675 70.5583 727.118 70.6972 727.404 70.9946C727.703 71.2783 727.858 71.6534 727.868 72.12L727.876 72.5199C727.886 72.9864 727.747 73.3778 727.461 73.694C727.187 73.9965 726.75 74.1575 726.15 74.1771ZM731.115 73.7945L731.064 71.375L734.822 71.252L734.626 61.8941L734.446 61.9L731.685 65.7121L729.735 64.2752L732.981 59.7669L737.579 59.6164L737.82 71.1539L740.779 71.057L740.829 73.4765L731.115 73.7945ZM747.223 73.5073C746.397 73.5343 745.655 73.4586 744.998 73.28C744.354 73.0877 743.808 72.8187 743.361 72.4732C742.914 72.1277 742.565 71.7122 742.315 71.2268C742.078 70.741 741.953 70.2049 741.941 69.6183C741.922 68.7252 742.154 67.9906 742.635 67.4146C743.116 66.8252 743.774 66.4035 744.609 66.1494L744.605 65.9895C743.92 65.7584 743.353 65.3902 742.902 64.8847C742.465 64.3787 742.237 63.7192 742.22 62.9061C742.209 62.3728 742.299 61.8763 742.489 61.4166C742.693 60.9563 742.991 60.5597 743.384 60.2267C743.791 59.8799 744.285 59.6103 744.868 59.4178C745.464 59.2115 746.148 59.0958 746.921 59.0705C747.694 59.0452 748.375 59.1162 748.966 59.2837C749.569 59.4373 750.074 59.6742 750.481 59.9944C750.9 60.3008 751.215 60.6774 751.424 61.1241C751.647 61.5703 751.764 62.0601 751.775 62.5933C751.792 63.4064 751.586 64.0801 751.158 64.6144C750.742 65.1483 750.197 65.553 749.523 65.8285L749.526 65.9884C750.37 66.1876 751.045 66.5657 751.55 67.1227C752.055 67.6665 752.317 68.3849 752.335 69.2781C752.348 69.8646 752.239 70.4084 752.009 70.9095C751.793 71.4101 751.469 71.8476 751.037 72.2219C750.605 72.5962 750.064 72.9007 749.416 73.1354C748.78 73.3563 748.049 73.4803 747.223 73.5073ZM747.175 71.2078C747.841 71.186 748.345 71.0161 748.685 70.6982C749.038 70.3665 749.208 69.9207 749.197 69.3608L749.188 68.9609C749.177 68.401 748.988 67.9737 748.621 67.6788C748.268 67.3702 747.758 67.2269 747.092 67.2487C746.426 67.2705 745.916 67.4472 745.563 67.779C745.223 68.0969 745.059 68.5358 745.07 69.0957L745.079 69.4956C745.091 70.0555 745.273 70.4897 745.626 70.7983C745.992 71.0931 746.509 71.2296 747.175 71.2078ZM747.046 65.0492C747.686 65.0282 748.169 64.8657 748.496 64.5615C748.823 64.244 748.981 63.8253 748.97 63.3054L748.963 62.9855C748.952 62.4656 748.777 62.0645 748.438 61.7821C748.098 61.4864 747.609 61.349 746.969 61.37C746.329 61.3909 745.846 61.5601 745.519 61.8776C745.192 62.1818 745.034 62.5938 745.045 63.1137L745.052 63.4337C745.063 63.9535 745.238 64.3613 745.578 64.657C745.917 64.9394 746.406 65.0701 747.046 65.0492Z" fill="#41D87B"/>
<path d="M770.516 53.5456L774.395 61.1332L782.711 63.0581L775.082 67.0287L773.061 75.3733L769.182 67.7857L760.866 65.8608L768.495 61.8902L770.516 53.5456Z" fill="url(#paint5_linear_2467_5608)"/>
<path d="M820.284 70.8756L817.626 70.9626L814.131 65.5144L814.071 65.5164L810.849 71.1845L808.351 71.2662L812.719 63.9799L808.218 57.3041L810.877 57.217L814.164 62.3119L814.204 62.3106L817.313 57.0063L819.812 56.9245L815.557 63.867L820.284 70.8756ZM824.675 70.7319L822.417 70.8058L822.124 56.8489L828.141 56.6519C829.394 56.6109 830.388 56.9585 831.123 57.6948C831.859 58.4177 832.24 59.4257 832.267 60.7188C832.288 61.7186 832.072 62.5594 831.62 63.2412C831.18 63.9092 830.517 64.3911 829.629 64.6869L832.771 70.4668L830.252 70.5493L827.336 65.0021L824.557 65.0931L824.675 70.7319ZM828.116 63.0757C828.689 63.057 829.132 62.8957 829.446 62.592C829.759 62.2749 829.91 61.8364 829.898 61.2766L829.878 60.3168C829.866 59.7569 829.697 59.3356 829.371 59.0528C829.045 58.7566 828.596 58.6179 828.023 58.6367L824.424 58.7545L824.517 63.1935L828.116 63.0757ZM835.515 70.377L835.223 56.4201L841.219 56.2238C842.512 56.1815 843.52 56.5287 844.242 57.2654C844.964 58.0021 845.338 59.0103 845.365 60.29C845.392 61.5697 845.06 62.6011 844.37 63.384C843.68 64.167 842.688 64.5796 841.395 64.6219L837.657 64.7443L837.774 70.3031L835.515 70.377ZM837.616 62.7647L841.214 62.6469C841.787 62.6282 842.23 62.4669 842.544 62.1632C842.857 61.8461 843.008 61.4077 842.997 60.8478L842.976 59.888C842.965 59.3281 842.796 58.9068 842.47 58.624C842.144 58.3278 841.694 58.1892 841.121 58.2079L837.523 58.3257L837.616 62.7647ZM845.185 73.0819L850.348 55.0845L852.227 55.023L847.064 73.0204L845.185 73.0819ZM856.882 55.711L857.062 64.3092C857.087 65.4956 857.333 66.3813 857.798 66.9663C858.264 67.5514 859.043 67.826 860.136 67.7902C861.229 67.7544 861.995 67.4292 862.436 66.8145C862.876 66.1998 863.084 65.2993 863.059 64.1128L862.879 55.5147L865.098 55.4421L865.27 63.6803C865.292 64.7067 865.217 65.5963 865.046 66.3489C864.875 67.1015 864.589 67.7312 864.186 68.2379C863.783 68.7313 863.251 69.1089 862.589 69.3707C861.941 69.632 861.138 69.7784 860.178 69.8098C859.219 69.8412 858.403 69.7478 857.732 69.5297C857.074 69.3111 856.533 68.9686 856.11 68.5023C855.687 68.0226 855.374 67.4125 855.172 66.6721C854.969 65.9317 854.858 65.0483 854.836 64.0219L854.663 55.7837L856.882 55.711ZM872.922 69.3926C871.749 69.431 870.746 69.2504 869.91 68.8509C869.089 68.4509 868.377 67.9006 867.776 67.2L869.304 65.6892C869.81 66.273 870.359 66.7085 870.952 66.9959C871.558 67.2829 872.241 67.414 873 67.3891C873.893 67.3599 874.562 67.1379 875.007 66.7231C875.451 66.3084 875.667 65.7611 875.652 65.0813C875.641 64.5347 875.472 64.1067 875.145 63.7972C874.819 63.4878 874.247 63.2664 873.431 63.133L872.187 62.9536C870.823 62.7449 869.794 62.3317 869.101 61.714C868.408 61.0964 868.05 60.2278 868.026 59.108C868.013 58.4948 868.115 57.9379 868.331 57.4372C868.56 56.9228 868.878 56.4922 869.284 56.1455C869.703 55.7849 870.211 55.5015 870.807 55.2952C871.402 55.089 872.073 54.9736 872.82 54.9492C873.872 54.9148 874.789 55.0715 875.57 55.4194C876.35 55.7541 877.021 56.259 877.582 56.9343L876.032 58.3857C875.663 57.9309 875.215 57.5721 874.689 57.3091C874.164 57.0462 873.515 56.9274 872.742 56.9527C871.942 56.9789 871.326 57.1591 870.893 57.4935C870.46 57.8278 870.25 58.3015 870.262 58.9147C870.275 59.5013 870.464 59.9353 870.83 60.2168C871.195 60.4849 871.76 60.6799 872.522 60.8017L873.767 61.021C875.172 61.2419 876.201 61.6617 876.854 62.2806C877.52 62.8991 877.865 63.7682 877.889 64.888C877.902 65.5412 877.801 66.1381 877.586 66.6787C877.371 67.2194 877.047 67.6902 876.615 68.0911C876.197 68.4784 875.677 68.7889 875.055 69.0226C874.433 69.2431 873.722 69.3664 872.922 69.3926ZM880.394 54.9414L885.331 54.7798C886.224 54.7505 887.033 54.8708 887.759 55.1405C888.498 55.4098 889.127 55.8294 889.646 56.3993C890.177 56.9555 890.592 57.669 890.891 58.5396C891.189 59.3969 891.35 60.4054 891.374 61.5652C891.398 62.7249 891.28 63.7493 891.018 64.6383C890.757 65.5139 890.372 66.2535 889.865 66.857C889.37 67.4468 888.76 67.9004 888.033 68.2176C887.32 68.5344 886.516 68.7075 885.623 68.7367L880.686 68.8983L880.394 54.9414ZM885.582 66.7371C886.621 66.7031 887.454 66.349 888.08 65.6749C888.706 65.0008 889.005 64.0305 888.979 62.7641L888.932 60.5246C888.905 59.2582 888.566 58.3089 887.912 57.6767C887.259 57.0444 886.412 56.7453 885.373 56.7793L882.694 56.867L882.903 66.8248L885.582 66.7371ZM898.731 56.342L898.981 68.2994L896.723 68.3734L896.472 56.416L892.314 56.5521L892.272 54.5525L902.847 54.2064L902.889 56.2059L898.731 56.342Z" fill="#D3DBDB"/>
<path d="M913.037 66.5787L912.96 62.8995L909.582 63.0101L909.532 60.6506L912.91 60.54L912.833 56.8609L915.392 56.7771L915.469 60.4563L918.847 60.3457L918.897 62.7052L915.518 62.8158L915.596 66.495L913.037 66.5787ZM922.211 67.539L922.16 65.1195L925.918 64.9965L925.722 55.6386L925.542 55.6445L922.781 59.4566L920.831 58.0197L924.077 53.5114L928.675 53.3609L928.916 64.8984L931.875 64.8015L931.925 67.221L922.211 67.539ZM943.331 66.8476L933.457 67.1709L933.399 64.4315L937.62 60.6116C937.999 60.2657 938.32 59.955 938.581 59.6797C938.841 59.3911 939.049 59.1175 939.204 58.859C939.371 58.5867 939.486 58.3228 939.547 58.0673C939.622 57.8114 939.656 57.5369 939.65 57.2436L939.644 56.9637C939.638 56.697 939.58 56.4655 939.469 56.269C939.359 56.0726 939.215 55.9105 939.039 55.7829C938.863 55.6553 938.661 55.5618 938.433 55.5026C938.219 55.4429 937.998 55.4168 937.771 55.4242C937.438 55.4351 937.146 55.498 936.895 55.613C936.658 55.7275 936.447 55.8811 936.265 56.0738C936.095 56.2528 935.953 56.4642 935.838 56.7081C935.723 56.9386 935.635 57.1883 935.574 57.4571L932.934 56.543C933.084 56.0579 933.294 55.5974 933.565 55.1617C933.836 54.7126 934.174 54.3214 934.581 53.9879C935 53.6407 935.495 53.3644 936.064 53.159C936.633 52.9536 937.277 52.8392 937.997 52.8156C938.756 52.7908 939.432 52.8754 940.022 53.0695C940.613 53.2636 941.112 53.5407 941.52 53.9008C941.941 54.2606 942.263 54.6969 942.488 55.2098C942.711 55.7094 942.83 56.2591 942.842 56.859C942.855 57.4588 942.766 58.0086 942.577 58.5084C942.387 59.0082 942.124 59.4837 941.786 59.9349C941.462 60.3724 941.078 60.7919 940.633 61.1933C940.188 61.5947 939.723 62.0034 939.238 62.4195L936.682 64.5441L943.279 64.3282L943.331 66.8476ZM947.406 66.9343C946.806 66.954 946.357 66.8219 946.058 66.5383C945.771 66.2408 945.623 65.8588 945.614 65.3923L945.605 64.9923C945.595 64.5258 945.727 64.1413 946.001 63.8389C946.288 63.5227 946.731 63.3547 947.331 63.3351C947.93 63.3155 948.373 63.4544 948.66 63.7518C948.959 64.0355 949.113 64.4106 949.123 64.8772L949.132 65.2771C949.141 65.7437 949.003 66.135 948.716 66.4512C948.442 66.7537 948.006 66.9147 947.406 66.9343ZM955.552 58.0036C956.298 57.9792 956.835 57.8216 957.162 57.5307C957.502 57.2261 957.668 56.8605 957.659 56.434L957.656 56.294C957.646 55.7874 957.47 55.3863 957.131 55.0906C956.805 54.7945 956.342 54.6562 955.742 54.6759C955.182 54.6942 954.659 54.858 954.172 55.1675C953.685 55.4635 953.274 55.8839 952.938 56.4284L951.022 54.7303C951.282 54.375 951.562 54.0524 951.862 53.7624C952.163 53.4591 952.504 53.2011 952.886 52.9885C953.268 52.7626 953.698 52.5884 954.175 52.4661C954.653 52.3304 955.191 52.2528 955.791 52.2331C956.537 52.2087 957.212 52.2733 957.815 52.427C958.432 52.5802 958.957 52.8165 959.39 53.1358C959.837 53.4413 960.178 53.817 960.414 54.2628C960.663 54.7082 960.794 55.2108 960.806 55.7707C960.815 56.2106 960.75 56.6129 960.611 56.9776C960.485 57.3419 960.299 57.6615 960.051 57.9364C959.817 58.2109 959.541 58.44 959.225 58.6237C958.909 58.7942 958.571 58.9186 958.213 58.997L958.215 59.117C958.63 59.1835 959.013 59.3043 959.363 59.4796C959.727 59.6411 960.038 59.8577 960.297 60.1294C960.569 60.4006 960.783 60.7271 960.938 61.1089C961.092 61.4773 961.174 61.9015 961.184 62.3814C961.197 63.0079 961.083 63.5786 960.84 64.0934C960.597 64.6083 960.247 65.0533 959.788 65.4285C959.329 65.8037 958.775 66.1019 958.126 66.3233C957.477 66.5313 956.76 66.6481 955.973 66.6739C955.267 66.697 954.639 66.6442 954.09 66.5154C953.54 66.3867 953.056 66.2091 952.638 65.9827C952.233 65.7425 951.874 65.4674 951.561 65.1576C951.261 64.8472 950.994 64.5158 950.76 64.1633L952.943 62.371C953.261 62.9342 953.644 63.3952 954.092 63.7541C954.553 64.0992 955.163 64.2593 955.922 64.2344C956.602 64.2122 957.125 64.0283 957.491 63.6828C957.87 63.3236 958.054 62.8507 958.041 62.2642L958.039 62.1442C958.027 61.571 957.798 61.1516 957.352 60.8861C956.92 60.6068 956.324 60.4795 955.564 60.5044L954.305 60.5456L954.252 58.0462L955.552 58.0036ZM972.674 54.5418L966.337 54.7492L966.13 59.1781L966.29 59.1728C966.416 58.8352 966.557 58.5305 966.711 58.2586C966.878 57.973 967.073 57.7332 967.296 57.5392C967.518 57.3318 967.788 57.1695 968.106 57.0524C968.423 56.9353 968.802 56.8696 969.242 56.8552C969.842 56.8355 970.403 56.9172 970.927 57.1001C971.451 57.2831 971.91 57.5615 972.305 57.9354C972.699 58.296 973.015 58.7526 973.254 59.305C973.492 59.8442 973.618 60.4603 973.633 61.1535C973.647 61.86 973.541 62.5238 973.314 63.1448C973.1 63.7521 972.765 64.2834 972.307 64.7385C971.864 65.1933 971.311 65.5582 970.65 65.8333C969.989 66.095 969.232 66.2399 968.379 66.2678C967.699 66.29 967.098 66.2363 966.575 66.1067C966.052 65.9771 965.589 65.7989 965.184 65.572C964.779 65.3318 964.426 65.0566 964.126 64.7462C963.826 64.4359 963.566 64.1042 963.345 63.7513L965.488 61.9604C965.806 62.4969 966.182 62.9514 966.617 63.3241C967.051 63.6834 967.628 63.8512 968.348 63.8277C969.067 63.8041 969.603 63.5798 969.954 63.1548C970.318 62.7293 970.493 62.1767 970.479 61.4968L970.476 61.3369C970.463 60.697 970.265 60.1966 969.884 59.8355C969.503 59.4745 968.986 59.3047 968.333 59.326C967.787 59.3439 967.336 59.4721 966.981 59.7105C966.639 59.9351 966.377 60.1571 966.195 60.3765L963.729 60.1171L964.084 52.2018L972.619 51.9224L972.674 54.5418Z" fill="#41D87B"/>
<path d="M991.386 46.3153L995.264 53.903L1003.58 55.8279L995.951 59.7985L993.93 68.1431L990.051 60.5554L981.735 58.6306L989.364 54.66L991.386 46.3153Z" fill="url(#paint6_linear_2467_5608)"/>
<path d="M1030.52 63.9935L1030.23 50.0366L1032.49 49.9626L1032.74 61.92L1038.41 61.7342L1038.45 63.7337L1030.52 63.9935ZM1044.25 51.5784L1044.5 63.5358L1042.24 63.6098L1041.99 51.6524L1037.83 51.7885L1037.79 49.7889L1048.37 49.4428L1048.41 51.4423L1044.25 51.5784ZM1055.65 63.4108C1053.83 63.4706 1052.38 62.9043 1051.32 61.7119C1050.25 60.5062 1049.69 58.7303 1049.64 56.3841C1049.62 55.2111 1049.73 54.1736 1049.98 53.2717C1050.23 52.3699 1050.6 51.6041 1051.09 50.9743C1051.59 50.3445 1052.19 49.8645 1052.9 49.5344C1053.63 49.1905 1054.44 49.0037 1055.35 48.974C1056.56 48.9343 1057.58 49.1678 1058.41 49.6744C1059.24 50.1805 1059.91 50.9459 1060.39 51.9704L1058.52 53.0723C1058.26 52.4136 1057.88 51.8993 1057.36 51.5293C1056.86 51.1455 1056.21 50.9669 1055.39 50.9936C1054.31 51.0289 1053.47 51.4232 1052.88 52.1764C1052.28 52.9297 1051.99 53.9528 1052.02 55.2459L1052.07 57.3654C1052.09 58.6584 1052.42 59.6615 1053.05 60.3746C1053.68 61.0877 1054.53 61.4266 1055.61 61.3913C1056.45 61.3638 1057.13 61.1283 1057.64 60.6847C1058.16 60.2273 1058.54 59.6546 1058.78 58.9664L1060.62 60.0066C1060.18 61.035 1059.54 61.8496 1058.71 62.4503C1057.89 63.0509 1056.87 63.3711 1055.65 63.4108ZM1061.39 66.0044L1066.55 48.007L1068.43 47.9455L1063.27 65.9429L1061.39 66.0044ZM1073.09 48.6335L1073.27 57.2317C1073.29 58.4181 1073.54 59.3038 1074 59.8888C1074.47 60.4739 1075.25 60.7485 1076.34 60.7127C1077.43 60.6769 1078.2 60.3517 1078.64 59.737C1079.08 59.1223 1079.29 58.2218 1079.26 57.0353L1079.08 48.4372L1081.3 48.3646L1081.47 56.6028C1081.5 57.6292 1081.42 58.5188 1081.25 59.2714C1081.08 60.024 1080.79 60.6537 1080.39 61.1604C1079.99 61.6538 1079.45 62.0314 1078.79 62.2932C1078.14 62.5545 1077.34 62.7009 1076.38 62.7323C1075.42 62.7637 1074.61 62.6703 1073.94 62.4522C1073.28 62.2336 1072.74 61.8911 1072.31 61.4248C1071.89 60.9451 1071.58 60.335 1071.38 59.5946C1071.17 58.8542 1071.06 57.9708 1071.04 56.9444L1070.87 48.7062L1073.09 48.6335ZM1089.13 62.3151C1087.95 62.3535 1086.95 62.1729 1086.11 61.7734C1085.29 61.3734 1084.58 60.8231 1083.98 60.1225L1085.51 58.6118C1086.01 59.1955 1086.56 59.631 1087.16 59.9184C1087.76 60.2054 1088.44 60.3365 1089.2 60.3116C1090.1 60.2824 1090.77 60.0604 1091.21 59.6456C1091.65 59.2309 1091.87 58.6836 1091.86 58.0038C1091.84 57.4572 1091.68 57.0292 1091.35 56.7197C1091.02 56.4103 1090.45 56.1889 1089.63 56.0555L1088.39 55.8761C1087.03 55.6674 1086 55.2542 1085.3 54.6365C1084.61 54.0189 1084.25 53.1503 1084.23 52.0305C1084.22 51.4173 1084.32 50.8604 1084.53 50.3597C1084.76 49.8453 1085.08 49.4147 1085.49 49.068C1085.91 48.7074 1086.41 48.424 1087.01 48.2177C1087.61 48.0115 1088.28 47.8961 1089.02 47.8717C1090.08 47.8373 1090.99 47.994 1091.77 48.3419C1092.55 48.6766 1093.22 49.1815 1093.79 49.8568L1092.24 51.3082C1091.87 50.8534 1091.42 50.4946 1090.89 50.2316C1090.37 49.9687 1089.72 49.8499 1088.95 49.8752C1088.15 49.9014 1087.53 50.0816 1087.1 50.416C1086.66 50.7503 1086.45 51.224 1086.47 51.8372C1086.48 52.4238 1086.67 52.8578 1087.03 53.1393C1087.4 53.4074 1087.96 53.6024 1088.73 53.7242L1089.97 53.9435C1091.38 54.1644 1092.4 54.5842 1093.06 55.2031C1093.72 55.8216 1094.07 56.6907 1094.09 57.8105C1094.11 58.4637 1094.01 59.0606 1093.79 59.6012C1093.57 60.1419 1093.25 60.6127 1092.82 61.0136C1092.4 61.4009 1091.88 61.7114 1091.26 61.9451C1090.64 62.1656 1089.93 62.2889 1089.13 62.3151ZM1096.6 47.8639L1101.53 47.7023C1102.43 47.673 1103.24 47.7933 1103.96 48.063C1104.7 48.3323 1105.33 48.7519 1105.85 49.3218C1106.38 49.878 1106.8 50.5915 1107.09 51.4621C1107.39 52.3194 1107.55 53.3279 1107.58 54.4877C1107.6 55.6474 1107.48 56.6718 1107.22 57.5608C1106.96 58.4364 1106.58 59.176 1106.07 59.7795C1105.57 60.3693 1104.96 60.8229 1104.24 61.1401C1103.52 61.4569 1102.72 61.63 1101.83 61.6592L1096.89 61.8208L1096.6 47.8639ZM1101.79 59.6596C1102.82 59.6256 1103.66 59.2715 1104.28 58.5974C1104.91 57.9233 1105.21 56.953 1105.18 55.6866L1105.14 53.4471C1105.11 52.1807 1104.77 51.2314 1104.12 50.5992C1103.46 49.9669 1102.62 49.6678 1101.58 49.7018L1098.9 49.7895L1099.11 59.7473L1101.79 59.6596ZM1114.93 49.2645L1115.18 61.2219L1112.93 61.2959L1112.68 49.3385L1108.52 49.4746L1108.48 47.475L1119.05 47.1289L1119.09 49.1284L1114.93 49.2645Z" fill="#D3DBDB"/>
<path d="M1129.24 59.5012L1129.16 55.822L1125.79 55.9326L1125.74 53.5731L1129.11 53.4625L1129.04 49.7834L1131.6 49.6996L1131.67 53.3788L1135.05 53.2682L1135.1 55.6277L1131.72 55.7383L1131.8 59.4175L1129.24 59.5012ZM1147.51 51.4998C1147.53 52.4862 1147.39 53.4177 1147.11 54.2942C1146.83 55.1703 1146.46 55.9894 1146 56.7516C1145.55 57.5001 1145.03 58.1774 1144.44 58.7836C1143.87 59.3893 1143.28 59.9019 1142.69 60.3215L1138.55 60.4569C1139.39 59.8158 1140.15 59.2109 1140.82 58.6421C1141.48 58.0599 1142.06 57.4809 1142.54 56.9048C1143.04 56.3284 1143.44 55.7483 1143.74 55.1646C1144.05 54.5676 1144.27 53.9335 1144.4 53.2622L1144.22 53.2081C1144.11 53.4786 1143.97 53.7433 1143.8 54.0023C1143.65 54.2608 1143.44 54.4942 1143.19 54.7024C1142.96 54.8969 1142.68 55.0596 1142.34 55.1905C1142.01 55.3213 1141.63 55.394 1141.19 55.4084C1140.62 55.4271 1140.07 55.3448 1139.56 55.1614C1139.07 54.9643 1138.63 54.6852 1138.25 54.3242C1137.88 53.9627 1137.58 53.5188 1137.36 52.9926C1137.15 52.4659 1137.03 51.8693 1137.02 51.2028C1137.01 50.483 1137.11 49.8192 1137.34 49.2115C1137.58 48.6033 1137.92 48.0785 1138.37 47.6371C1138.82 47.1819 1139.37 46.8239 1140 46.563C1140.64 46.3021 1141.36 46.1586 1142.15 46.1324C1142.98 46.1054 1143.72 46.2145 1144.38 46.4597C1145.04 46.6916 1145.59 47.047 1146.04 47.5258C1146.51 47.9909 1146.86 48.5596 1147.1 49.2321C1147.35 49.9041 1147.49 50.66 1147.51 51.4998ZM1142.3 53.0709C1142.97 53.0491 1143.48 52.8521 1143.85 52.48C1144.21 52.0945 1144.39 51.5619 1144.37 50.882L1144.37 50.5221C1144.35 49.8423 1144.16 49.3285 1143.77 48.9808C1143.39 48.6197 1142.87 48.4501 1142.2 48.4719C1141.54 48.4937 1141.02 48.6974 1140.66 49.0828C1140.29 49.455 1140.12 49.981 1140.13 50.6608L1140.14 51.0207C1140.15 51.7006 1140.35 52.221 1140.73 52.5821C1141.11 52.9298 1141.63 53.0927 1142.3 53.0709ZM1151.62 60.2492C1151.02 60.2688 1150.57 60.1368 1150.28 59.8531C1149.99 59.5557 1149.84 59.1737 1149.83 58.7071L1149.82 58.3072C1149.81 57.8406 1149.95 57.4561 1150.22 57.1537C1150.51 56.8375 1150.95 56.6696 1151.55 56.65C1152.15 56.6303 1152.59 56.7692 1152.88 57.0667C1153.18 57.3504 1153.33 57.7255 1153.34 58.192L1153.35 58.592C1153.36 59.0585 1153.22 59.4499 1152.93 59.7661C1152.66 60.0685 1152.22 60.2296 1151.62 60.2492ZM1164.91 48.249L1158.57 48.4564L1158.36 52.8853L1158.52 52.88C1158.65 52.5424 1158.79 52.2377 1158.94 51.9658C1159.11 51.6802 1159.31 51.4404 1159.53 51.2464C1159.75 51.039 1160.02 50.8768 1160.34 50.7596C1160.66 50.6425 1161.03 50.5768 1161.47 50.5624C1162.07 50.5427 1162.64 50.6244 1163.16 50.8073C1163.68 50.9903 1164.14 51.2687 1164.54 51.6427C1164.93 52.0033 1165.25 52.4598 1165.49 53.0122C1165.72 53.5514 1165.85 54.1675 1165.86 54.8607C1165.88 55.5672 1165.77 56.231 1165.55 56.8521C1165.33 57.4593 1165 57.9906 1164.54 58.4457C1164.1 58.9005 1163.54 59.2654 1162.88 59.5405C1162.22 59.8022 1161.46 59.9471 1160.61 59.975C1159.93 59.9973 1159.33 59.9436 1158.81 59.8139C1158.28 59.6843 1157.82 59.5061 1157.42 59.2792C1157.01 59.039 1156.66 58.7638 1156.36 58.4534C1156.06 58.1431 1155.8 57.8115 1155.58 57.4585L1157.72 55.6676C1158.04 56.2041 1158.41 56.6587 1158.85 57.0313C1159.28 57.3906 1159.86 57.5584 1160.58 57.5349C1161.3 57.5113 1161.83 57.287 1162.19 56.862C1162.55 56.4366 1162.73 55.8839 1162.71 55.2041L1162.71 55.0441C1162.69 54.4042 1162.5 53.9038 1162.12 53.5427C1161.74 53.1817 1161.22 53.0119 1160.57 53.0333C1160.02 53.0511 1159.57 53.1793 1159.21 53.4177C1158.87 53.6423 1158.61 53.8643 1158.43 54.0837L1155.96 53.8243L1156.32 45.909L1164.85 45.6296L1164.91 48.249ZM1172.7 59.5794C1171.87 59.6064 1171.13 59.5307 1170.47 59.3521C1169.83 59.1597 1169.28 58.8908 1168.83 58.5453C1168.39 58.1997 1168.04 57.7843 1167.79 57.2989C1167.55 56.8131 1167.43 56.2769 1167.41 55.6904C1167.4 54.7973 1167.63 54.0627 1168.11 53.4867C1168.59 52.8973 1169.25 52.4756 1170.08 52.2215L1170.08 52.0615C1169.39 51.8305 1168.83 51.4622 1168.38 50.9567C1167.94 50.4508 1167.71 49.7913 1167.69 48.9781C1167.68 48.4449 1167.77 47.9484 1167.96 47.4886C1168.17 47.0284 1168.46 46.6318 1168.86 46.2988C1169.26 45.952 1169.76 45.6824 1170.34 45.4899C1170.94 45.2836 1171.62 45.1678 1172.39 45.1425C1173.17 45.1172 1173.85 45.1883 1174.44 45.3557C1175.04 45.5094 1175.55 45.7463 1175.95 46.0665C1176.37 46.3729 1176.69 46.7494 1176.9 47.1961C1177.12 47.6424 1177.24 48.1321 1177.25 48.6653C1177.27 49.4785 1177.06 50.1522 1176.63 50.6865C1176.22 51.2203 1175.67 51.625 1175 51.9006L1175 52.0605C1175.84 52.2597 1176.52 52.6378 1177.02 53.1948C1177.53 53.7386 1177.79 54.457 1177.81 55.3501C1177.82 55.9367 1177.71 56.4805 1177.48 56.9816C1177.27 57.4822 1176.94 57.9197 1176.51 58.294C1176.08 58.6683 1175.54 58.9728 1174.89 59.2075C1174.25 59.4284 1173.52 59.5523 1172.7 59.5794ZM1172.65 57.2799C1173.31 57.2581 1173.82 57.0882 1174.16 56.7702C1174.51 56.4385 1174.68 55.9927 1174.67 55.4329L1174.66 55.033C1174.65 54.4731 1174.46 54.0457 1174.09 53.7509C1173.74 53.4423 1173.23 53.2989 1172.57 53.3207C1171.9 53.3426 1171.39 53.5193 1171.04 53.851C1170.7 54.169 1170.53 54.6079 1170.54 55.1678L1170.55 55.5677C1170.56 56.1275 1170.75 56.5618 1171.1 56.8704C1171.47 57.1652 1171.98 57.3017 1172.65 57.2799ZM1172.52 51.1212C1173.16 51.1003 1173.64 50.9377 1173.97 50.6336C1174.3 50.3161 1174.45 49.8974 1174.44 49.3775L1174.44 49.0575C1174.43 48.5377 1174.25 48.1365 1173.91 47.8542C1173.57 47.5585 1173.08 47.4211 1172.44 47.442C1171.8 47.463 1171.32 47.6322 1170.99 47.9497C1170.67 48.2539 1170.51 48.6659 1170.52 49.1858L1170.53 49.5057C1170.54 50.0256 1170.71 50.4334 1171.05 50.7291C1171.39 51.0115 1171.88 51.1422 1172.52 51.1212Z" fill="#41D87B"/>
<path d="M1195.26 39.6413L1199.14 47.2289L1207.46 49.1538L1199.83 53.1244L1197.81 61.469L1193.93 53.8814L1185.61 51.9565L1193.24 47.9859L1195.26 39.6413Z" fill="url(#paint7_linear_2467_5608)"/>
<path d="M1234.1 43.3625L1239.04 43.2009C1239.93 43.1716 1240.74 43.2919 1241.47 43.5616C1242.21 43.8309 1242.84 44.2505 1243.36 44.8204C1243.89 45.3766 1244.3 46.0901 1244.6 46.9607C1244.9 47.818 1245.06 48.8265 1245.09 49.9863C1245.11 51.146 1244.99 52.1704 1244.73 53.0594C1244.47 53.935 1244.08 54.6746 1243.58 55.2781C1243.08 55.8679 1242.47 56.3215 1241.74 56.6387C1241.03 56.9555 1240.23 57.1286 1239.33 57.1578L1234.4 57.3194L1234.1 43.3625ZM1239.29 55.1582C1240.33 55.1242 1241.16 54.7701 1241.79 54.096C1242.42 53.4219 1242.72 52.4516 1242.69 51.1852L1242.64 48.9457C1242.62 47.6793 1242.28 46.73 1241.62 46.0978C1240.97 45.4655 1240.12 45.1664 1239.08 45.2004L1236.41 45.2881L1236.61 55.2459L1239.29 55.1582ZM1253.44 56.936C1252.54 56.9657 1251.71 56.8394 1250.96 56.5573C1250.22 56.2613 1249.57 55.8221 1249.03 55.2397C1248.5 54.6435 1248.07 53.9037 1247.76 53.0201C1247.46 52.1228 1247.3 51.0876 1247.28 49.9146C1247.25 48.7415 1247.37 47.7038 1247.63 46.8015C1247.91 45.8854 1248.3 45.119 1248.8 44.5021C1249.32 43.8714 1249.95 43.3908 1250.67 43.0602C1251.41 42.7159 1252.24 42.5288 1253.14 42.4992C1254.05 42.4695 1254.87 42.6027 1255.61 42.8986C1256.36 43.1808 1257.01 43.6199 1257.54 44.2161C1258.08 44.7985 1258.51 45.5384 1258.81 46.4357C1259.12 47.3193 1259.29 48.3476 1259.31 49.5206C1259.33 50.6937 1259.21 51.7383 1258.94 52.6543C1258.67 53.5566 1258.28 54.3231 1257.76 54.9538C1257.26 55.5707 1256.63 56.0513 1255.89 56.3956C1255.17 56.7262 1254.35 56.9064 1253.44 56.936ZM1253.4 54.9165C1253.93 54.899 1254.42 54.7898 1254.86 54.5888C1255.3 54.3873 1255.68 54.1083 1255.98 53.7516C1256.29 53.3812 1256.53 52.9399 1256.69 52.4277C1256.85 51.9155 1256.93 51.3394 1256.91 50.6996L1256.87 48.5001C1256.85 47.8602 1256.76 47.2898 1256.57 46.7889C1256.39 46.2881 1256.13 45.8696 1255.81 45.5334C1255.49 45.1835 1255.11 44.9227 1254.65 44.7509C1254.21 44.5787 1253.72 44.5013 1253.18 44.5187C1252.64 44.5366 1252.15 44.6461 1251.71 44.8471C1251.27 45.0481 1250.9 45.3338 1250.59 45.7042C1250.29 46.0608 1250.06 46.4953 1249.9 47.0075C1249.73 47.5197 1249.66 48.0958 1249.67 48.7356L1249.72 50.9351C1249.73 51.575 1249.83 52.1454 1250.01 52.6463C1250.2 53.1471 1250.45 53.5725 1250.76 53.9224C1251.09 54.2585 1251.47 54.5127 1251.92 54.6849C1252.36 54.8572 1252.86 54.9343 1253.4 54.9165ZM1271.2 53.9936L1271.12 53.9962C1270.99 54.6808 1270.6 55.2605 1269.96 55.7351C1269.33 56.1959 1268.48 56.4438 1267.42 56.4787C1266.59 56.5057 1265.82 56.3775 1265.11 56.094C1264.39 55.7972 1263.77 55.3574 1263.24 54.7745C1262.72 54.1779 1262.3 53.4378 1261.99 52.5543C1261.69 51.657 1261.53 50.6218 1261.51 49.4487C1261.48 48.289 1261.61 47.2577 1261.88 46.355C1262.16 45.4389 1262.55 44.6656 1263.07 44.0349C1263.59 43.4043 1264.22 42.9234 1264.96 42.5924C1265.7 42.248 1266.53 42.0608 1267.45 42.0307C1268.71 41.9897 1269.77 42.235 1270.65 42.7665C1271.53 43.2847 1272.21 44.0292 1272.72 44.9999L1270.9 46.1399C1270.62 45.4954 1270.19 44.9824 1269.63 44.6008C1269.06 44.2059 1268.35 44.0224 1267.49 44.0503C1266.39 44.0865 1265.5 44.469 1264.84 45.1977C1264.19 45.9261 1263.87 46.9367 1263.9 48.2298L1263.95 50.5093C1263.98 51.8023 1264.33 52.7912 1265.01 53.4759C1265.71 54.1602 1266.61 54.4842 1267.71 54.448C1268.15 54.4336 1268.57 54.3665 1268.97 54.2468C1269.37 54.1137 1269.71 53.9358 1270 53.7129C1270.3 53.4762 1270.53 53.1951 1270.7 52.8695C1270.88 52.5301 1270.96 52.1405 1270.96 51.7006L1270.93 50.6208L1268.05 50.7151L1268.01 48.7755L1273.07 48.6099L1273.23 56.0483L1271.25 56.1131L1271.2 53.9936ZM1276.37 55.9455L1276.07 41.9886L1285.01 41.6961L1285.05 43.6957L1278.38 43.9142L1278.46 47.7934L1284.51 47.5951L1284.55 49.5946L1278.5 49.7929L1278.58 53.872L1285.26 53.6535L1285.3 55.653L1276.37 55.9455ZM1286.7 58.6287L1291.86 40.6313L1293.74 40.5698L1288.58 58.5672L1286.7 58.6287ZM1298.4 41.2578L1298.58 49.8559C1298.6 51.0423 1298.85 51.9281 1299.31 52.5131C1299.78 53.0981 1300.56 53.3728 1301.65 53.337C1302.74 53.3012 1303.51 52.976 1303.95 52.3613C1304.39 51.7466 1304.6 50.846 1304.57 49.6596L1304.39 41.0615L1306.61 40.9889L1306.79 49.2271C1306.81 50.2535 1306.73 51.143 1306.56 51.8957C1306.39 52.6483 1306.1 53.2779 1305.7 53.7847C1305.3 54.2781 1304.77 54.6557 1304.1 54.9175C1303.46 55.1788 1302.65 55.3251 1301.69 55.3566C1300.73 55.388 1299.92 55.2946 1299.25 55.0765C1298.59 54.8579 1298.05 54.5154 1297.63 54.0491C1297.2 53.5694 1296.89 52.9593 1296.69 52.2189C1296.48 51.4785 1296.37 50.5951 1296.35 49.5687L1296.18 41.3305L1298.4 41.2578ZM1314.44 54.9394C1313.26 54.9778 1312.26 54.7972 1311.43 54.3977C1310.6 53.9977 1309.89 53.4474 1309.29 52.7468L1310.82 51.236C1311.33 51.8198 1311.87 52.2553 1312.47 52.5427C1313.07 52.8297 1313.76 52.9608 1314.52 52.9359C1315.41 52.9067 1316.08 52.6847 1316.52 52.2699C1316.97 51.8552 1317.18 51.3079 1317.17 50.628C1317.16 50.0815 1316.99 49.6535 1316.66 49.344C1316.33 49.0346 1315.76 48.8132 1314.95 48.6798L1313.7 48.5004C1312.34 48.2916 1311.31 47.8784 1310.62 47.2608C1309.92 46.6432 1309.56 45.7745 1309.54 44.6548C1309.53 44.0416 1309.63 43.4847 1309.85 42.984C1310.08 42.4696 1310.39 42.039 1310.8 41.6922C1311.22 41.3317 1311.73 41.0483 1312.32 40.842C1312.92 40.6358 1313.59 40.5204 1314.34 40.496C1315.39 40.4615 1316.3 40.6183 1317.09 40.9662C1317.87 41.3008 1318.54 41.8058 1319.1 42.4811L1317.55 43.9325C1317.18 43.4777 1316.73 43.1188 1316.2 42.8559C1315.68 42.593 1315.03 42.4742 1314.26 42.4995C1313.46 42.5257 1312.84 42.7059 1312.41 43.0402C1311.98 43.3746 1311.76 43.8483 1311.78 44.4615C1311.79 45.0481 1311.98 45.4821 1312.35 45.7636C1312.71 46.0317 1313.27 46.2267 1314.04 46.3485L1315.28 46.5678C1316.69 46.7886 1317.72 47.2085 1318.37 47.8274C1319.04 48.4459 1319.38 49.315 1319.4 50.4348C1319.42 51.088 1319.32 51.6849 1319.1 52.2255C1318.89 52.7661 1318.56 53.2369 1318.13 53.6379C1317.71 54.0251 1317.19 54.3356 1316.57 54.5694C1315.95 54.7899 1315.24 54.9132 1314.44 54.9394ZM1321.91 40.4882L1326.85 40.3265C1327.74 40.2973 1328.55 40.4176 1329.27 40.6873C1330.01 40.9565 1330.64 41.3762 1331.16 41.9461C1331.69 42.5023 1332.11 43.2157 1332.41 44.0864C1332.7 44.9437 1332.87 45.9522 1332.89 47.112C1332.91 48.2717 1332.8 49.2961 1332.53 50.185C1332.27 51.0607 1331.89 51.8003 1331.38 52.4038C1330.89 52.9936 1330.28 53.4471 1329.55 53.7644C1328.83 54.0812 1328.03 54.2543 1327.14 54.2835L1322.2 54.4451L1321.91 40.4882ZM1327.1 52.2839C1328.14 52.2499 1328.97 51.8958 1329.6 51.2217C1330.22 50.5476 1330.52 49.5773 1330.49 48.3109L1330.45 46.0714C1330.42 44.805 1330.08 43.8557 1329.43 43.2234C1328.77 42.5912 1327.93 42.2921 1326.89 42.3261L1324.21 42.4138L1324.42 52.3716L1327.1 52.2839ZM1340.25 41.8888L1340.5 53.8462L1338.24 53.9202L1337.99 41.9628L1333.83 42.0989L1333.79 40.0993L1344.36 39.7532L1344.4 41.7527L1340.25 41.8888Z" fill="#D3DBDB"/>
<path d="M1354.55 52.1255L1354.48 48.4463L1351.1 48.5569L1351.05 46.1974L1354.43 46.0868L1354.35 42.4076L1356.91 42.3239L1356.98 46.0031L1360.36 45.8925L1360.41 48.252L1357.03 48.3626L1357.11 52.0417L1354.55 52.1255ZM1365.17 53.0387L1369.6 41.3681L1365.24 41.5107L1365.3 44.0502L1362.76 44.1333L1362.65 39.1544L1372.53 38.8311L1372.58 41.4306L1368.32 52.9353L1365.17 53.0387ZM1376.94 52.8735C1376.34 52.8931 1375.89 52.7611 1375.59 52.4774C1375.3 52.18 1375.15 51.798 1375.14 51.3314L1375.13 50.9315C1375.13 50.4649 1375.26 50.0804 1375.53 49.778C1375.82 49.4618 1376.26 49.2939 1376.86 49.2743C1377.46 49.2546 1377.9 49.3935 1378.19 49.691C1378.49 49.9746 1378.64 50.3498 1378.65 50.8163L1378.66 51.2162C1378.67 51.6828 1378.53 52.0742 1378.25 52.3904C1377.97 52.6928 1377.54 52.8538 1376.94 52.8735ZM1386.1 52.5934C1385.28 52.6204 1384.53 52.518 1383.88 52.2861C1383.22 52.0409 1382.66 51.6857 1382.19 51.2207C1381.74 50.7418 1381.39 50.1664 1381.14 49.4944C1380.9 48.822 1380.77 48.0659 1380.75 47.2261C1380.73 46.2529 1380.86 45.3283 1381.13 44.4523C1381.42 43.5624 1381.79 42.7433 1382.24 41.9948C1382.7 41.2326 1383.22 40.5487 1383.8 39.9429C1384.38 39.3368 1384.97 38.8239 1385.57 38.4044L1389.7 38.2689C1388.86 38.91 1388.11 39.5217 1387.44 40.1038C1386.77 40.6726 1386.19 41.2452 1385.7 41.8217C1385.22 42.3977 1384.81 42.9844 1384.49 43.5818C1384.19 44.1655 1383.97 44.7928 1383.85 45.4637L1384.03 45.5178C1384.15 45.2472 1384.28 44.9827 1384.44 44.7242C1384.61 44.4653 1384.81 44.2385 1385.04 44.0441C1385.29 43.8358 1385.58 43.6663 1385.91 43.5354C1386.24 43.4045 1386.63 43.3319 1387.07 43.3175C1387.64 43.2987 1388.18 43.3879 1388.67 43.5851C1389.18 43.7684 1389.62 44.0409 1389.99 44.4023C1390.37 44.7634 1390.67 45.2139 1390.88 45.7539C1391.1 46.2801 1391.22 46.8698 1391.24 47.523C1391.25 48.2429 1391.14 48.9069 1390.9 49.515C1390.67 50.1227 1390.33 50.6542 1389.87 51.1094C1389.43 51.5508 1388.89 51.9019 1388.25 52.1628C1387.62 52.4237 1386.9 52.5672 1386.1 52.5934ZM1386.05 50.2539C1386.72 50.2321 1387.24 50.0351 1387.6 49.663C1387.97 49.2775 1388.14 48.7449 1388.13 48.065L1388.12 47.7051C1388.11 47.0252 1387.91 46.5115 1387.53 46.1638C1387.15 45.8027 1386.62 45.6331 1385.96 45.6549C1385.29 45.6767 1384.78 45.8804 1384.41 46.2658C1384.04 46.638 1383.87 47.164 1383.88 47.8438L1383.89 48.2037C1383.9 48.8836 1384.1 49.404 1384.48 49.7651C1384.86 50.1128 1385.39 50.2757 1386.05 50.2539ZM1398.01 52.2037C1397.18 52.2307 1396.44 52.1549 1395.78 51.9764C1395.14 51.784 1394.59 51.5151 1394.15 51.1695C1393.7 50.824 1393.35 50.4086 1393.1 49.9232C1392.86 49.4374 1392.74 48.9012 1392.73 48.3147C1392.71 47.4215 1392.94 46.687 1393.42 46.1109C1393.9 45.5216 1394.56 45.0999 1395.39 44.8458L1395.39 44.6858C1394.71 44.4548 1394.14 44.0865 1393.69 43.581C1393.25 43.0751 1393.02 42.4156 1393.01 41.6024C1392.99 41.0692 1393.08 40.5727 1393.27 40.1129C1393.48 39.6527 1393.78 39.2561 1394.17 38.9231C1394.58 38.5763 1395.07 38.3066 1395.65 38.1142C1396.25 37.9079 1396.93 37.7921 1397.71 37.7668C1398.48 37.7415 1399.16 37.8126 1399.75 37.98C1400.35 38.1337 1400.86 38.3706 1401.27 38.6908C1401.69 38.9972 1402 39.3737 1402.21 39.8204C1402.43 40.2667 1402.55 40.7564 1402.56 41.2896C1402.58 42.1028 1402.37 42.7765 1401.94 43.3108C1401.53 43.8446 1400.98 44.2493 1400.31 44.5248L1400.31 44.6848C1401.16 44.8839 1401.83 45.262 1402.34 45.8191C1402.84 46.3628 1403.1 47.0813 1403.12 47.9744C1403.13 48.561 1403.02 49.1048 1402.79 49.6058C1402.58 50.1065 1402.25 50.544 1401.82 50.9183C1401.39 51.2926 1400.85 51.5971 1400.2 51.8317C1399.57 52.0526 1398.83 52.1766 1398.01 52.2037ZM1397.96 49.9042C1398.63 49.8823 1399.13 49.7125 1399.47 49.3945C1399.82 49.0628 1399.99 48.617 1399.98 48.0572L1399.97 47.6572C1399.96 47.0974 1399.77 46.67 1399.41 46.3752C1399.05 46.0666 1398.54 45.9232 1397.88 45.945C1397.21 45.9668 1396.7 46.1436 1396.35 46.4753C1396.01 46.7933 1395.84 47.2322 1395.86 47.792L1395.86 48.1919C1395.88 48.7518 1396.06 49.1861 1396.41 49.4946C1396.78 49.7895 1397.29 49.926 1397.96 49.9042ZM1397.83 43.7455C1398.47 43.7246 1398.95 43.562 1399.28 43.2578C1399.61 42.9403 1399.77 42.5216 1399.76 42.0018L1399.75 41.6818C1399.74 41.1619 1399.56 40.7608 1399.22 40.4784C1398.88 40.1828 1398.39 40.0454 1397.75 40.0663C1397.11 40.0873 1396.63 40.2565 1396.3 40.574C1395.98 40.8782 1395.82 41.2902 1395.83 41.8101L1395.84 42.13C1395.85 42.6499 1396.02 43.0577 1396.36 43.3534C1396.7 43.6357 1397.19 43.7665 1397.83 43.7455Z" fill="#41D87B"/>
<path d="M1421.13 32.2475L1425.01 39.8351L1433.32 41.76L1425.7 45.7306L1423.67 54.0752L1419.8 46.4876L1411.48 44.5627L1419.11 40.5921L1421.13 32.2475Z" fill="url(#paint8_linear_2467_5608)"/>
<path d="M1468.98 49.6403L1467.64 45.9024L1462.42 46.0732L1461.28 49.8922L1458.98 49.9675L1463.45 35.8548L1466.29 35.7619L1471.34 49.5631L1468.98 49.6403ZM1464.91 37.8879L1464.81 37.8912L1462.92 44.1159L1467.04 43.9811L1464.91 37.8879ZM1473.21 35.5354L1478.14 35.3738C1479.04 35.3446 1479.85 35.4648 1480.57 35.7345C1481.31 36.0038 1481.94 36.4234 1482.46 36.9934C1482.99 37.5496 1483.41 38.263 1483.7 39.1336C1484 39.991 1484.16 40.9995 1484.19 42.1592C1484.21 43.319 1484.09 44.3433 1483.83 45.2323C1483.57 46.1079 1483.18 46.8475 1482.68 47.4511C1482.18 48.0409 1481.57 48.4944 1480.85 48.8117C1480.13 49.1285 1479.33 49.3015 1478.44 49.3307L1473.5 49.4924L1473.21 35.5354ZM1478.39 47.3312C1479.43 47.2972 1480.27 46.9431 1480.89 46.2689C1481.52 45.5948 1481.82 44.6246 1481.79 43.3582L1481.74 41.1187C1481.72 39.8523 1481.38 38.9029 1480.72 38.2707C1480.07 37.6384 1479.23 37.3393 1478.19 37.3734L1475.51 37.461L1475.72 47.4189L1478.39 47.3312ZM1495.39 48.7757L1494.05 45.0378L1488.84 45.2086L1487.69 49.0277L1485.4 49.1029L1489.86 34.9902L1492.7 34.8973L1497.75 48.6985L1495.39 48.7757ZM1491.32 37.0233L1491.22 37.0266L1489.33 43.2513L1493.45 43.1165L1491.32 37.0233ZM1498.39 51.6988L1503.56 33.7015L1505.44 33.6399L1500.27 51.6373L1498.39 51.6988ZM1510.09 34.328L1510.27 42.9261C1510.3 44.1125 1510.54 44.9982 1511.01 45.5832C1511.47 46.1683 1512.25 46.4429 1513.35 46.4071C1514.44 46.3714 1515.21 46.0461 1515.65 45.4314C1516.09 44.8167 1516.29 43.9162 1516.27 42.7298L1516.09 34.1316L1518.31 34.059L1518.48 42.2972C1518.5 43.3236 1518.43 44.2132 1518.26 44.9658C1518.09 45.7184 1517.8 46.3481 1517.4 46.8548C1516.99 47.3482 1516.46 47.7258 1515.8 47.9876C1515.15 48.2489 1514.35 48.3953 1513.39 48.4267C1512.43 48.4581 1511.61 48.3647 1510.94 48.1466C1510.28 47.928 1509.74 47.5856 1509.32 47.1192C1508.9 46.6395 1508.58 46.0294 1508.38 45.289C1508.18 44.5486 1508.07 43.6652 1508.05 42.6388L1507.87 34.4006L1510.09 34.328ZM1526.13 48.0095C1524.96 48.0479 1523.96 47.8673 1523.12 47.4678C1522.3 47.0678 1521.59 46.5175 1520.99 45.8169L1522.51 44.3062C1523.02 44.8899 1523.57 45.3255 1524.16 45.6129C1524.77 45.8998 1525.45 46.0309 1526.21 46.006C1527.1 45.9768 1527.77 45.7548 1528.22 45.3401C1528.66 44.9253 1528.88 44.378 1528.86 43.6982C1528.85 43.1516 1528.68 42.7236 1528.36 42.4142C1528.03 42.1047 1527.46 41.8833 1526.64 41.7499L1525.4 41.5706C1524.03 41.3618 1523 40.9486 1522.31 40.331C1521.62 39.7134 1521.26 38.8447 1521.24 37.7249C1521.22 37.1117 1521.32 36.5548 1521.54 36.0542C1521.77 35.5397 1522.09 35.1091 1522.49 34.7624C1522.91 34.4018 1523.42 34.1184 1524.02 33.9122C1524.61 33.7059 1525.28 33.5906 1526.03 33.5661C1527.08 33.5317 1528 33.6884 1528.78 34.0364C1529.56 34.371 1530.23 34.8759 1530.79 35.5512L1529.24 37.0026C1528.87 36.5478 1528.43 36.189 1527.9 35.9261C1527.37 35.6631 1526.72 35.5443 1525.95 35.5696C1525.15 35.5958 1524.54 35.776 1524.1 36.1104C1523.67 36.4447 1523.46 36.9185 1523.47 37.5317C1523.48 38.1182 1523.67 38.5522 1524.04 38.8337C1524.41 39.1019 1524.97 39.2968 1525.73 39.4186L1526.98 39.638C1528.38 39.8588 1529.41 40.2786 1530.06 40.8975C1530.73 41.516 1531.08 42.3852 1531.1 43.5049C1531.11 44.1581 1531.01 44.755 1530.8 45.2956C1530.58 45.8363 1530.26 46.3071 1529.83 46.7081C1529.41 47.0953 1528.89 47.4058 1528.26 47.6396C1527.64 47.86 1526.93 47.9833 1526.13 48.0095ZM1533.6 33.5583L1538.54 33.3967C1539.43 33.3674 1540.24 33.4877 1540.97 33.7574C1541.71 34.0267 1542.34 34.4463 1542.86 35.0163C1543.39 35.5724 1543.8 36.2859 1544.1 37.1565C1544.4 38.0138 1544.56 39.0224 1544.58 40.1821C1544.61 41.3419 1544.49 42.3662 1544.23 43.2552C1543.97 44.1308 1543.58 44.8704 1543.07 45.474C1542.58 46.0637 1541.97 46.5173 1541.24 46.8345C1540.53 47.1514 1539.73 47.3244 1538.83 47.3536L1533.9 47.5152L1533.6 33.5583ZM1538.79 45.3541C1539.83 45.32 1540.66 44.9659 1541.29 44.2918C1541.92 43.6177 1542.22 42.6474 1542.19 41.381L1542.14 39.1415C1542.12 37.8751 1541.78 36.9258 1541.12 36.2936C1540.47 35.6613 1539.62 35.3622 1538.58 35.3962L1535.9 35.4839L1536.11 45.4417L1538.79 45.3541ZM1551.94 34.959L1552.19 46.9163L1549.93 46.9903L1549.68 35.0329L1545.52 35.169L1545.48 33.1694L1556.06 32.8233L1556.1 34.8229L1551.94 34.959Z" fill="#D3DBDB"/>
<path d="M1566.25 45.1956L1566.17 41.5164L1562.79 41.627L1562.74 39.2675L1566.12 39.157L1566.04 35.4778L1568.6 35.394L1568.68 39.0732L1572.06 38.9626L1572.11 41.3221L1568.73 41.4327L1568.81 45.1119L1566.25 45.1956ZM1583.74 34.5383L1577.4 34.7458L1577.19 39.1746L1577.35 39.1694C1577.48 38.8318 1577.62 38.527 1577.78 38.2552C1577.94 37.9696 1578.14 37.7298 1578.36 37.5357C1578.58 37.3283 1578.85 37.1661 1579.17 37.049C1579.49 36.9319 1579.87 36.8661 1580.31 36.8517C1580.91 36.8321 1581.47 36.9137 1581.99 37.0967C1582.52 37.2796 1582.98 37.5581 1583.37 37.932C1583.76 38.2926 1584.08 38.7491 1584.32 39.3016C1584.56 39.8407 1584.68 40.4569 1584.7 41.1501C1584.71 41.8566 1584.61 42.5204 1584.38 43.1414C1584.16 43.7487 1583.83 44.2799 1583.37 44.7351C1582.93 45.1898 1582.38 45.5547 1581.71 45.8298C1581.05 46.0916 1580.3 46.2364 1579.44 46.2643C1578.76 46.2866 1578.16 46.2329 1577.64 46.1033C1577.12 45.9737 1576.65 45.7954 1576.25 45.5686C1575.84 45.3284 1575.49 45.0531 1575.19 44.7428C1574.89 44.4324 1574.63 44.1008 1574.41 43.7479L1576.55 41.9569C1576.87 42.4934 1577.25 42.948 1577.68 43.3206C1578.12 43.6799 1578.69 43.8478 1579.41 43.8242C1580.13 43.8007 1580.67 43.5764 1581.02 43.1514C1581.38 42.7259 1581.56 42.1732 1581.54 41.4934L1581.54 41.3334C1581.53 40.6936 1581.33 40.1931 1580.95 39.8321C1580.57 39.471 1580.05 39.3012 1579.4 39.3226C1578.85 39.3405 1578.4 39.4686 1578.05 39.707C1577.7 39.9316 1577.44 40.1537 1577.26 40.373L1574.79 40.1136L1575.15 32.1983L1583.68 31.9189L1583.74 34.5383ZM1588.63 45.9436C1588.03 45.9632 1587.58 45.8312 1587.28 45.5475C1587 45.2501 1586.85 44.8681 1586.84 44.4015L1586.83 44.0016C1586.82 43.5351 1586.95 43.1506 1587.23 42.8481C1587.51 42.5319 1587.96 42.364 1588.55 42.3444C1589.15 42.3248 1589.6 42.4637 1589.88 42.7611C1590.18 43.0448 1590.34 43.4199 1590.35 43.8865L1590.36 44.2864C1590.37 44.7529 1590.23 45.1443 1589.94 45.4605C1589.67 45.7629 1589.23 45.924 1588.63 45.9436ZM1598.45 45.402L1598.4 42.7226L1592.26 42.9235L1592.21 40.364L1597.46 31.4679L1601.02 31.3515L1601.21 40.3095L1602.96 40.2519L1603.01 42.5714L1601.25 42.629L1601.31 45.3084L1598.45 45.402ZM1594.61 40.5254L1598.35 40.4031L1598.22 34.5444L1598.02 34.5509L1594.61 40.5254ZM1609.7 45.2738C1608.88 45.3008 1608.14 45.2251 1607.48 45.0465C1606.83 44.8541 1606.29 44.5852 1605.84 44.2397C1605.39 43.8942 1605.04 43.4787 1604.79 42.9933C1604.56 42.5075 1604.43 41.9713 1604.42 41.3848C1604.4 40.4917 1604.63 39.7571 1605.11 39.1811C1605.6 38.5917 1606.25 38.17 1607.09 37.9159L1607.09 37.7559C1606.4 37.5249 1605.83 37.1566 1605.38 36.6512C1604.94 36.1452 1604.72 35.4857 1604.7 34.6725C1604.69 34.1393 1604.78 33.6428 1604.97 33.183C1605.17 32.7228 1605.47 32.3262 1605.86 31.9932C1606.27 31.6464 1606.76 31.3768 1607.35 31.1843C1607.94 30.978 1608.63 30.8623 1609.4 30.837C1610.17 30.8116 1610.86 30.8827 1611.45 31.0501C1612.05 31.2038 1612.55 31.4407 1612.96 31.7609C1613.38 32.0673 1613.69 32.4439 1613.9 32.8905C1614.13 33.3368 1614.24 33.8265 1614.26 34.3598C1614.27 35.1729 1614.07 35.8466 1613.64 36.3809C1613.22 36.9148 1612.68 37.3194 1612 37.595L1612.01 37.7549C1612.85 37.9541 1613.52 38.3322 1614.03 38.8892C1614.53 39.433 1614.8 40.1514 1614.82 41.0445C1614.83 41.6311 1614.72 42.1749 1614.49 42.676C1614.27 43.1766 1613.95 43.6141 1613.52 43.9884C1613.08 44.3627 1612.54 44.6672 1611.9 44.9019C1611.26 45.1228 1610.53 45.2467 1609.7 45.2738ZM1609.65 42.9743C1610.32 42.9525 1610.82 42.7826 1611.16 42.4647C1611.52 42.133 1611.69 41.6872 1611.68 41.1273L1611.67 40.7274C1611.66 40.1675 1611.47 39.7401 1611.1 39.4453C1610.75 39.1367 1610.24 38.9933 1609.57 39.0152C1608.91 39.037 1608.4 39.2137 1608.04 39.5454C1607.7 39.8634 1607.54 40.3023 1607.55 40.8622L1607.56 41.2621C1607.57 41.822 1607.75 42.2562 1608.11 42.5648C1608.47 42.8596 1608.99 42.9961 1609.65 42.9743ZM1609.53 36.8156C1610.17 36.7947 1610.65 36.6321 1610.98 36.328C1611.3 36.0105 1611.46 35.5918 1611.45 35.0719L1611.44 34.752C1611.43 34.2321 1611.26 33.8309 1610.92 33.5486C1610.58 33.2529 1610.09 33.1155 1609.45 33.1364C1608.81 33.1574 1608.33 33.3266 1608 33.6441C1607.67 33.9483 1607.51 34.3603 1607.53 34.8802L1607.53 35.2001C1607.54 35.72 1607.72 36.1278 1608.06 36.4235C1608.4 36.7059 1608.89 36.8366 1609.53 36.8156Z" fill="#41D87B"/>
</g>
<defs>
<filter id="filter0_b_2467_5608" x="-134.943" y="-1.17029" width="1795.48" height="131.848" filterUnits="userSpaceOnUse" color-interpolation-filters="sRGB">
<feFlood flood-opacity="0" result="BackgroundImageFix"/>
<feGaussianBlur in="BackgroundImageFix" stdDeviation="1"/>
<feComposite in2="SourceAlpha" operator="in" result="effect1_backgroundBlur_2467_5608"/>
<feBlend mode="normal" in="SourceGraphic" in2="effect1_backgroundBlur_2467_5608" result="shape"/>
</filter>
<linearGradient id="paint0_linear_2467_5608" x1="-132.018" y1="73.7791" x2="-86.5242" y2="346.587" gradientUnits="userSpaceOnUse">
<stop stop-color="#D2CFCD" stop-opacity="0.2"/>
<stop offset="1" stop-color="#D6AD9C" stop-opacity="0.1"/>
</linearGradient>
<linearGradient id="paint1_linear_2467_5608" x1="-67.5087" y1="57.808" x2="-47.4323" y2="246.37" gradientUnits="userSpaceOnUse">
<stop stop-color="#C5B3AA" stop-opacity="0.8"/>
<stop offset="1" stop-color="#6F6A60" stop-opacity="0.4"/>
</linearGradient>
<linearGradient id="paint2_linear_2467_5608" x1="117.378" y1="74.8609" x2="145.351" y2="74.8438" gradientUnits="userSpaceOnUse">
<stop stop-color="#FF5ABB"/>
<stop offset="1" stop-color="#FFB70E"/>
</linearGradient>
<linearGradient id="paint3_linear_2467_5608" x1="326.253" y1="68.0233" x2="354.226" y2="68.0062" gradientUnits="userSpaceOnUse">
<stop stop-color="#FF5ABB"/>
<stop offset="1" stop-color="#FFB70E"/>
</linearGradient>
<linearGradient id="paint4_linear_2467_5608" x1="546.123" y1="60.8258" x2="574.096" y2="60.8087" gradientUnits="userSpaceOnUse">
<stop stop-color="#FF5ABB"/>
<stop offset="1" stop-color="#FFB70E"/>
</linearGradient>
<linearGradient id="paint5_linear_2467_5608" x1="755.998" y1="53.9555" x2="783.971" y2="53.9384" gradientUnits="userSpaceOnUse">
<stop stop-color="#FF5ABB"/>
<stop offset="1" stop-color="#FFB70E"/>
</linearGradient>
<linearGradient id="paint6_linear_2467_5608" x1="976.867" y1="46.7253" x2="1004.84" y2="46.7082" gradientUnits="userSpaceOnUse">
<stop stop-color="#FF5ABB"/>
<stop offset="1" stop-color="#FFB70E"/>
</linearGradient>
<linearGradient id="paint7_linear_2467_5608" x1="1180.74" y1="40.0512" x2="1208.72" y2="40.0341" gradientUnits="userSpaceOnUse">
<stop stop-color="#FF5ABB"/>
<stop offset="1" stop-color="#FFB70E"/>
</linearGradient>
<linearGradient id="paint8_linear_2467_5608" x1="1406.61" y1="32.6574" x2="1434.58" y2="32.6403" gradientUnits="userSpaceOnUse">
<stop stop-color="#FF5ABB"/>
<stop offset="1" stop-color="#FFB70E"/>
</linearGradient>
</defs>
</svg>
