<svg width="113" height="27" viewBox="0 0 113 27" fill="none" xmlns="http://www.w3.org/2000/svg">
<rect y="0.827148" width="113" height="26" rx="4" fill="#2EBD85" fill-opacity="0.1"/>
<mask id="mask0_2467_6039" style="mask-type:alpha" maskUnits="userSpaceOnUse" x="0" y="1" width="24" height="25">
<rect y="1.82715" width="24" height="24" fill="#D9D9D9"/>
</mask>
<g mask="url(#mask0_2467_6039)">
<path d="M8.6 24.3271L6.7 21.1271L3.1 20.3271L3.45 16.6271L1 13.8271L3.45 11.0271L3.1 7.32715L6.7 6.52715L8.6 3.32715L12 4.77715L15.4 3.32715L17.3 6.52715L20.9 7.32715L20.55 11.0271L23 13.8271L20.55 16.6271L20.9 20.3271L17.3 21.1271L15.4 24.3271L12 22.8771L8.6 24.3271ZM9.45 21.7771L12 20.6771L14.6 21.7771L16 19.3771L18.75 18.7271L18.5 15.9271L20.35 13.8271L18.5 11.6771L18.75 8.87715L16 8.27715L14.55 5.87715L12 6.97715L9.4 5.87715L8 8.27715L5.25 8.87715L5.5 11.6771L3.65 13.8271L5.5 15.9271L5.25 18.7771L8 19.3771L9.45 21.7771ZM10.95 17.3771L16.6 11.7271L15.2 10.2771L10.95 14.5271L8.8 12.4271L7.4 13.8271L10.95 17.3771Z" fill="#2EBD85"/>
</g>
<g filter="url(#filter0_b_2467_6039)">
<path d="M33.528 18.8271L30.28 9.05515H31.54L33.15 13.9831L34.228 17.6511H34.298L35.404 13.9831L37.028 9.05515H38.246L34.956 18.8271H33.528ZM42.0134 18.9951C41.5188 18.9951 41.0708 18.9065 40.6694 18.7291C40.2774 18.5518 39.9368 18.2998 39.6474 17.9731C39.3674 17.6371 39.1481 17.2405 38.9894 16.7831C38.8401 16.3165 38.7654 15.7938 38.7654 15.2151C38.7654 14.6458 38.8401 14.1278 38.9894 13.6611C39.1481 13.1945 39.3674 12.7978 39.6474 12.4711C39.9368 12.1351 40.2774 11.8785 40.6694 11.7011C41.0708 11.5238 41.5188 11.4351 42.0134 11.4351C42.4988 11.4351 42.9328 11.5238 43.3154 11.7011C43.6981 11.8785 44.0248 12.1258 44.2954 12.4431C44.5661 12.7511 44.7714 13.1198 44.9114 13.5491C45.0608 13.9785 45.1354 14.4498 45.1354 14.9631V15.4951H39.9414V15.8311C39.9414 16.1391 39.9881 16.4285 40.0814 16.6991C40.1841 16.9605 40.3241 17.1891 40.5014 17.3851C40.6881 17.5811 40.9121 17.7351 41.1734 17.8471C41.4441 17.9591 41.7474 18.0151 42.0834 18.0151C42.5408 18.0151 42.9374 17.9078 43.2734 17.6931C43.6188 17.4785 43.8848 17.1705 44.0714 16.7691L44.8694 17.3431C44.6361 17.8378 44.2721 18.2391 43.7774 18.5471C43.2828 18.8458 42.6948 18.9951 42.0134 18.9951ZM42.0134 12.3731C41.7054 12.3731 41.4254 12.4291 41.1734 12.5411C40.9214 12.6438 40.7021 12.7931 40.5154 12.9891C40.3381 13.1851 40.1981 13.4185 40.0954 13.6891C39.9928 13.9505 39.9414 14.2398 39.9414 14.5571V14.6551H43.9314V14.5011C43.9314 13.8571 43.7541 13.3438 43.3994 12.9611C43.0541 12.5691 42.5921 12.3731 42.0134 12.3731ZM46.981 18.8271V11.6031H48.101V12.9331H48.171C48.3017 12.5878 48.535 12.2798 48.871 12.0091C49.207 11.7385 49.669 11.6031 50.257 11.6031H50.691V12.7231H50.033C49.4263 12.7231 48.9503 12.8398 48.605 13.0731C48.269 13.2971 48.101 13.5818 48.101 13.9271V18.8271H46.981ZM52.6816 9.90915C52.439 9.90915 52.2616 9.85315 52.1496 9.74115C52.047 9.61981 51.9956 9.46581 51.9956 9.27915V9.09715C51.9956 8.91048 52.047 8.76115 52.1496 8.64915C52.2616 8.52781 52.439 8.46715 52.6816 8.46715C52.9243 8.46715 53.097 8.52781 53.1996 8.64915C53.3116 8.76115 53.3676 8.91048 53.3676 9.09715V9.27915C53.3676 9.46581 53.3116 9.61981 53.1996 9.74115C53.097 9.85315 52.9243 9.90915 52.6816 9.90915ZM52.1216 11.6031H53.2416V18.8271H52.1216V11.6031ZM56.0136 12.5831H54.8376V11.6031H56.0136V10.1471C56.0136 9.64315 56.1443 9.23715 56.4056 8.92915C56.667 8.62115 57.0636 8.46715 57.5956 8.46715H58.6876V9.44715H57.1336V11.6031H61.1796V18.8271H60.0596V12.5831H57.1336V18.8271H56.0136V12.5831ZM60.6196 9.90915C60.377 9.90915 60.1996 9.85315 60.0876 9.74115C59.985 9.61981 59.9336 9.46581 59.9336 9.27915V9.09715C59.9336 8.91048 59.985 8.76115 60.0876 8.64915C60.1996 8.52781 60.377 8.46715 60.6196 8.46715C60.8623 8.46715 61.035 8.52781 61.1376 8.64915C61.2496 8.76115 61.3056 8.91048 61.3056 9.09715V9.27915C61.3056 9.46581 61.2496 9.61981 61.1376 9.74115C61.035 9.85315 60.8623 9.90915 60.6196 9.90915ZM66.281 18.9951C65.7863 18.9951 65.3383 18.9065 64.937 18.7291C64.545 18.5518 64.2043 18.2998 63.915 17.9731C63.635 17.6371 63.4157 17.2405 63.257 16.7831C63.1077 16.3165 63.033 15.7938 63.033 15.2151C63.033 14.6458 63.1077 14.1278 63.257 13.6611C63.4157 13.1945 63.635 12.7978 63.915 12.4711C64.2043 12.1351 64.545 11.8785 64.937 11.7011C65.3383 11.5238 65.7863 11.4351 66.281 11.4351C66.7663 11.4351 67.2003 11.5238 67.583 11.7011C67.9657 11.8785 68.2923 12.1258 68.563 12.4431C68.8337 12.7511 69.039 13.1198 69.179 13.5491C69.3283 13.9785 69.403 14.4498 69.403 14.9631V15.4951H64.209V15.8311C64.209 16.1391 64.2557 16.4285 64.349 16.6991C64.4517 16.9605 64.5917 17.1891 64.769 17.3851C64.9557 17.5811 65.1797 17.7351 65.441 17.8471C65.7117 17.9591 66.015 18.0151 66.351 18.0151C66.8083 18.0151 67.205 17.9078 67.541 17.6931C67.8863 17.4785 68.1523 17.1705 68.339 16.7691L69.137 17.3431C68.9037 17.8378 68.5397 18.2391 68.045 18.5471C67.5503 18.8458 66.9623 18.9951 66.281 18.9951ZM66.281 12.3731C65.973 12.3731 65.693 12.4291 65.441 12.5411C65.189 12.6438 64.9697 12.7931 64.783 12.9891C64.6057 13.1851 64.4657 13.4185 64.363 13.6891C64.2603 13.9505 64.209 14.2398 64.209 14.5571V14.6551H68.199V14.5011C68.199 13.8571 68.0217 13.3438 67.667 12.9611C67.3217 12.5691 66.8597 12.3731 66.281 12.3731ZM75.8686 17.6511H75.8126C75.3739 18.5471 74.6693 18.9951 73.6986 18.9951C73.2506 18.9951 72.8446 18.9065 72.4806 18.7291C72.1166 18.5518 71.8039 18.2998 71.5426 17.9731C71.2906 17.6465 71.0946 17.2498 70.9546 16.7831C70.8239 16.3165 70.7586 15.7938 70.7586 15.2151C70.7586 14.6365 70.8239 14.1138 70.9546 13.6471C71.0946 13.1805 71.2906 12.7838 71.5426 12.4571C71.8039 12.1305 72.1166 11.8785 72.4806 11.7011C72.8446 11.5238 73.2506 11.4351 73.6986 11.4351C74.2026 11.4351 74.6319 11.5471 74.9866 11.7711C75.3506 11.9858 75.6259 12.3218 75.8126 12.7791H75.8686V8.46715H76.9886V18.8271H75.8686V17.6511ZM74.0066 17.9871C74.2586 17.9871 74.4966 17.9545 74.7206 17.8891C74.9539 17.8238 75.1546 17.7305 75.3226 17.6091C75.4906 17.4785 75.6213 17.3245 75.7146 17.1471C75.8173 16.9605 75.8686 16.7505 75.8686 16.5171V13.8291C75.8686 13.6331 75.8173 13.4511 75.7146 13.2831C75.6213 13.1058 75.4906 12.9565 75.3226 12.8351C75.1546 12.7138 74.9539 12.6205 74.7206 12.5551C74.4966 12.4805 74.2586 12.4431 74.0066 12.4431C73.3719 12.4431 72.8726 12.6438 72.5086 13.0451C72.1446 13.4371 71.9626 13.9551 71.9626 14.5991V15.8311C71.9626 16.4751 72.1446 16.9978 72.5086 17.3991C72.8726 17.7911 73.3719 17.9871 74.0066 17.9871ZM82.6783 11.6031H83.7983V12.7791H83.8543C84.0409 12.3218 84.3116 11.9858 84.6663 11.7711C85.0303 11.5471 85.4643 11.4351 85.9683 11.4351C86.4163 11.4351 86.8223 11.5238 87.1863 11.7011C87.5503 11.8785 87.8583 12.1305 88.1103 12.4571C88.3716 12.7838 88.5676 13.1805 88.6983 13.6471C88.8383 14.1138 88.9083 14.6365 88.9083 15.2151C88.9083 15.7938 88.8383 16.3165 88.6983 16.7831C88.5676 17.2498 88.3716 17.6465 88.1103 17.9731C87.8583 18.2998 87.5503 18.5518 87.1863 18.7291C86.8223 18.9065 86.4163 18.9951 85.9683 18.9951C84.9883 18.9951 84.2836 18.5471 83.8543 17.6511H83.7983V21.6271H82.6783V11.6031ZM85.6603 17.9871C86.2949 17.9871 86.7943 17.7911 87.1583 17.3991C87.5223 16.9978 87.7043 16.4751 87.7043 15.8311V14.5991C87.7043 13.9551 87.5223 13.4371 87.1583 13.0451C86.7943 12.6438 86.2949 12.4431 85.6603 12.4431C85.4083 12.4431 85.1656 12.4805 84.9323 12.5551C84.7083 12.6205 84.5123 12.7138 84.3443 12.8351C84.1763 12.9565 84.0409 13.1058 83.9383 13.2831C83.8449 13.4511 83.7983 13.6331 83.7983 13.8291V16.5171C83.7983 16.7505 83.8449 16.9605 83.9383 17.1471C84.0409 17.3245 84.1763 17.4785 84.3443 17.6091C84.5123 17.7305 84.7083 17.8238 84.9323 17.8891C85.1656 17.9545 85.4083 17.9871 85.6603 17.9871ZM91.9894 18.8271C91.5974 18.8271 91.2987 18.7198 91.0934 18.5051C90.8974 18.2811 90.7994 18.0011 90.7994 17.6651V8.46715H91.9194V17.8471H92.9834V18.8271H91.9894ZM99.0658 17.6511H99.0098C98.9352 17.8191 98.8418 17.9871 98.7298 18.1551C98.6272 18.3138 98.4965 18.4585 98.3378 18.5891C98.1792 18.7105 97.9878 18.8085 97.7638 18.8831C97.5398 18.9578 97.2785 18.9951 96.9798 18.9951C96.2332 18.9951 95.6405 18.7571 95.2018 18.2811C94.7632 17.7958 94.5438 17.1145 94.5438 16.2371V11.6031H95.6638V16.0411C95.6638 17.3385 96.2145 17.9871 97.3158 17.9871C97.5398 17.9871 97.7545 17.9591 97.9598 17.9031C98.1745 17.8471 98.3612 17.7631 98.5198 17.6511C98.6878 17.5391 98.8185 17.3991 98.9118 17.2311C99.0145 17.0538 99.0658 16.8438 99.0658 16.6011V11.6031H100.186V18.8271H99.0658V17.6511ZM104.741 18.9951C104.069 18.9951 103.504 18.8691 103.047 18.6171C102.599 18.3558 102.212 18.0105 101.885 17.5811L102.683 16.9371C102.963 17.2918 103.276 17.5671 103.621 17.7631C103.966 17.9498 104.368 18.0431 104.825 18.0431C105.301 18.0431 105.67 17.9405 105.931 17.7351C106.202 17.5298 106.337 17.2405 106.337 16.8671C106.337 16.5871 106.244 16.3491 106.057 16.1531C105.88 15.9478 105.553 15.8078 105.077 15.7331L104.503 15.6491C104.167 15.6025 103.859 15.5325 103.579 15.4391C103.299 15.3365 103.052 15.2058 102.837 15.0471C102.632 14.8791 102.468 14.6738 102.347 14.4311C102.235 14.1885 102.179 13.8991 102.179 13.5631C102.179 13.2085 102.244 12.9005 102.375 12.6391C102.506 12.3685 102.683 12.1445 102.907 11.9671C103.14 11.7898 103.416 11.6591 103.733 11.5751C104.05 11.4818 104.391 11.4351 104.755 11.4351C105.343 11.4351 105.833 11.5378 106.225 11.7431C106.626 11.9485 106.976 12.2331 107.275 12.5971L106.533 13.2691C106.374 13.0451 106.141 12.8445 105.833 12.6671C105.525 12.4805 105.138 12.3871 104.671 12.3871C104.204 12.3871 103.85 12.4898 103.607 12.6951C103.374 12.8911 103.257 13.1618 103.257 13.5071C103.257 13.8618 103.374 14.1185 103.607 14.2771C103.85 14.4358 104.195 14.5525 104.643 14.6271L105.203 14.7111C106.006 14.8325 106.575 15.0658 106.911 15.4111C107.247 15.7471 107.415 16.1905 107.415 16.7411C107.415 17.4411 107.177 17.9918 106.701 18.3931C106.225 18.7945 105.572 18.9951 104.741 18.9951Z" fill="#2EBD85"/>
</g>
<defs>
<filter id="filter0_b_2467_6039" x="16" y="-9.17285" width="107" height="46" filterUnits="userSpaceOnUse" color-interpolation-filters="sRGB">
<feFlood flood-opacity="0" result="BackgroundImageFix"/>
<feGaussianBlur in="BackgroundImageFix" stdDeviation="5"/>
<feComposite in2="SourceAlpha" operator="in" result="effect1_backgroundBlur_2467_6039"/>
<feBlend mode="normal" in="SourceGraphic" in2="effect1_backgroundBlur_2467_6039" result="shape"/>
</filter>
</defs>
</svg>
