<svg width="108" height="21" viewBox="0 0 108 21" fill="none" xmlns="http://www.w3.org/2000/svg">
<rect y="0.172913" width="20" height="20" fill="#00B67A"/>
<path d="M10 3.17291L11.5716 8.00979H16.6574L12.5429 10.9992L14.1145 15.836L10 12.8467L5.8855 15.836L7.4571 10.9992L3.3426 8.00979H8.4284L10 3.17291Z" fill="white"/>
<rect x="22" y="0.172913" width="20" height="20" fill="#00B67A"/>
<path d="M32 3.17291L33.5716 8.00979H38.6574L34.5429 10.9992L36.1145 15.836L32 12.8467L27.8855 15.836L29.4571 10.9992L25.3426 8.00979H30.4284L32 3.17291Z" fill="white"/>
<rect x="44" y="0.172913" width="20" height="20" fill="#00B67A"/>
<path d="M54 3.17291L55.5716 8.00979H60.6574L56.5429 10.9992L58.1145 15.836L54 12.8467L49.8855 15.836L51.4571 10.9992L47.3426 8.00979H52.4284L54 3.17291Z" fill="white"/>
<rect x="66" y="0.172913" width="20" height="20" fill="#00B67A"/>
<path d="M76 3.17291L77.5716 8.00979H82.6574L78.5429 10.9992L80.1145 15.836L76 12.8467L71.8855 15.836L73.4571 10.9992L69.3426 8.00979H74.4284L76 3.17291Z" fill="white"/>
<rect x="88" y="0.172913" width="20" height="20" fill="#00B67A"/>
<path d="M98 3.17291L99.5716 8.00979H104.657L100.543 10.9992L102.114 15.836L98 12.8467L93.8855 15.836L95.4571 10.9992L91.3426 8.00979H96.4284L98 3.17291Z" fill="white"/>
</svg>
