<svg width="108" height="21" viewBox="0 0 108 21" fill="none" xmlns="http://www.w3.org/2000/svg">
<rect y="0.9729" width="20" height="20" fill="#00B67A"/>
<path d="M10 3.9729L11.5716 8.80978H16.6574L12.5429 11.7991L14.1145 16.636L10 13.6467L5.8855 16.636L7.4571 11.7991L3.3426 8.80978H8.4284L10 3.9729Z" fill="white"/>
<rect x="22" y="0.9729" width="20" height="20" fill="#00B67A"/>
<path d="M32 3.9729L33.5716 8.80978H38.6574L34.5429 11.7991L36.1145 16.636L32 13.6467L27.8855 16.636L29.4571 11.7991L25.3426 8.80978H30.4284L32 3.9729Z" fill="white"/>
<rect x="44" y="0.9729" width="20" height="20" fill="#00B67A"/>
<path d="M54 3.9729L55.5716 8.80978H60.6574L56.5429 11.7991L58.1145 16.636L54 13.6467L49.8855 16.636L51.4571 11.7991L47.3426 8.80978H52.4284L54 3.9729Z" fill="white"/>
<rect x="66" y="0.9729" width="20" height="20" fill="#00B67A"/>
<path d="M76 3.9729L77.5716 8.80978H82.6574L78.5429 11.7991L80.1145 16.636L76 13.6467L71.8855 16.636L73.4571 11.7991L69.3426 8.80978H74.4284L76 3.9729Z" fill="white"/>
<rect x="88" y="0.9729" width="20" height="20" fill="#DCDCE6"/>
<path d="M98 3.9729L99.5716 8.80978H104.657L100.543 11.7991L102.114 16.636L98 13.6467L93.8855 16.636L95.4571 11.7991L91.3426 8.80978H96.4284L98 3.9729Z" fill="white"/>
</svg>
