<svg width="163" height="93" viewBox="0 0 163 93" fill="none" xmlns="http://www.w3.org/2000/svg">
<g filter="url(#filter0_dd_2467_4171)">
<g filter="url(#filter1_d_2467_4171)">
<rect x="8.02002" y="9.13452" width="146.489" height="72.2131" rx="8.25292" fill="#FBFFFD"/>
</g>
<g clip-path="url(#clip0_2467_4171)">
<path d="M91.5341 40.4953C90.0207 40.4953 88.8319 40.7896 87.6424 41.3767C87.6424 38.2417 87.6424 35.4003 87.7517 34.4213L80.5061 35.5969V36.184L81.2632 36.2823C82.235 36.4776 82.5604 36.9671 82.7751 38.1434C82.9928 40.4946 82.8836 53.0367 82.7751 55.0951C84.721 55.487 86.7761 55.7812 88.8304 55.7812C94.561 55.7812 98.0211 52.5472 98.0211 47.4521C98.0211 43.4351 95.2097 40.4946 91.5334 40.4946L91.5341 40.4953ZM89.0481 54.7025C88.6157 54.7025 88.0741 54.7025 87.7509 54.6056C87.6424 53.234 87.5347 47.4521 87.6424 42.3578C88.291 42.1611 88.7227 42.0635 89.2643 42.0635C91.6441 42.0635 92.9421 44.6107 92.9421 47.745C92.9414 51.6658 91.3187 54.7025 89.0481 54.7025ZM53.2595 34.8131H34.2302V35.6945L35.3113 35.7921C36.7162 35.9881 37.2579 36.7718 37.4733 38.6329C37.7988 42.1605 37.6895 48.5301 37.4733 51.5661C37.2571 53.4286 36.717 54.3106 35.3113 54.4076L34.2302 54.6042V55.388H46.4478V54.6042L45.1506 54.4076C43.7448 54.31 43.2039 53.4286 42.9885 51.5661C42.8793 50.2922 42.7715 48.2338 42.7715 45.6873L45.366 45.785C46.9887 45.785 47.7443 46.9606 48.069 48.6264H49.043V41.6716H48.069C47.7443 43.3375 46.9887 44.5124 45.366 44.5124L42.7715 44.6114C42.7715 41.2798 42.88 38.1441 42.9885 36.2823H46.7725C49.6932 36.2823 51.2059 37.9481 52.2869 40.8886L53.3679 40.5936L53.2595 34.8125V34.8131Z" fill="#032123"/>
<path d="M59.4238 40.2994C64.8305 40.2994 67.5335 43.631 67.5335 48.0407C67.5335 52.2537 64.5051 55.7819 59.0991 55.7819C53.6932 55.7819 50.9902 52.4496 50.9902 48.0407C50.9902 43.827 54.0171 40.2994 59.4238 40.2994ZM59.0991 41.2798C56.7201 41.2798 56.0715 44.2189 56.0715 48.04C56.0715 51.7635 57.1525 54.8009 59.3161 54.8009C61.8006 54.8009 62.4507 51.8611 62.4507 48.04C62.4507 44.3172 61.3704 41.2798 59.0991 41.2798ZM99.4274 48.139C99.4274 44.1212 102.238 40.2994 107.752 40.2994C112.292 40.2994 114.456 43.3382 114.456 47.3545H104.4C104.292 50.9797 106.238 53.6252 110.131 53.6252C111.861 53.6252 112.726 53.2347 113.808 52.5479L114.239 53.0374C113.158 54.409 110.779 55.7819 107.753 55.7819C102.887 55.7819 99.4274 52.6462 99.4274 48.139ZM104.4 46.2772L109.482 46.1782C109.482 44.2189 109.157 41.2798 107.32 41.2798C105.483 41.2798 104.508 44.0229 104.4 46.2772ZM127.324 41.0839C126.027 40.593 124.297 40.3001 122.351 40.3001C118.351 40.3001 115.863 42.4547 115.863 45.0026C115.863 47.5505 117.7 48.6278 120.297 49.4122C122.999 50.2936 123.757 50.9797 123.757 52.1554C123.757 53.331 122.784 54.4083 121.053 54.4083C119 54.4083 117.486 53.331 116.296 50.3912L115.539 50.5879L115.647 54.8992C116.945 55.3887 119.324 55.7812 121.378 55.7812C125.595 55.7812 128.299 53.8205 128.299 50.7838C128.299 48.7261 127.109 47.5505 124.298 46.5701C121.27 45.4928 120.189 44.8067 120.189 43.5327C120.189 42.2588 121.164 41.3767 122.461 41.3767C124.406 41.3767 125.704 42.4547 126.679 45.1009L127.434 44.905L127.324 41.0839ZM81.5877 40.692C79.7503 39.713 76.5064 40.2018 74.7768 43.73L74.8845 40.3001L67.6412 41.574V42.1619L68.3975 42.2595C69.3716 42.3578 69.8033 42.8473 69.9117 44.1219C70.128 46.4732 70.0195 50.5892 69.9117 52.6469C69.8033 53.8212 69.3716 54.409 68.3975 54.508L67.6412 54.6063V55.39H77.696V54.6063L76.3987 54.508C75.3177 54.409 74.993 53.8212 74.8845 52.6469C74.6683 50.7845 74.6683 47.061 74.7768 44.7097C75.3169 44.0236 77.696 43.4358 79.858 44.7097L81.5877 40.692Z" fill="#032123"/>
</g>
</g>
<defs>
<filter id="filter0_dd_2467_4171" x="0.0200195" y="0.134521" width="162.489" height="92.213" filterUnits="userSpaceOnUse" color-interpolation-filters="sRGB">
<feFlood flood-opacity="0" result="BackgroundImageFix"/>
<feColorMatrix in="SourceAlpha" type="matrix" values="0 0 0 0 0 0 0 0 0 0 0 0 0 0 0 0 0 0 127 0" result="hardAlpha"/>
<feOffset dx="2" dy="5"/>
<feGaussianBlur stdDeviation="3"/>
<feComposite in2="hardAlpha" operator="out"/>
<feColorMatrix type="matrix" values="0 0 0 0 0.778872 0 0 0 0 0.845833 0 0 0 0 0.805656 0 0 0 0.7 0"/>
<feBlend mode="normal" in2="BackgroundImageFix" result="effect1_dropShadow_2467_4171"/>
<feColorMatrix in="SourceAlpha" type="matrix" values="0 0 0 0 0 0 0 0 0 0 0 0 0 0 0 0 0 0 127 0" result="hardAlpha"/>
<feOffset dx="-2" dy="-3"/>
<feGaussianBlur stdDeviation="3"/>
<feComposite in2="hardAlpha" operator="out"/>
<feColorMatrix type="matrix" values="0 0 0 0 0.780392 0 0 0 0 0.847059 0 0 0 0 0.803922 0 0 0 0.7 0"/>
<feBlend mode="normal" in2="effect1_dropShadow_2467_4171" result="effect2_dropShadow_2467_4171"/>
<feBlend mode="normal" in="SourceGraphic" in2="effect2_dropShadow_2467_4171" result="shape"/>
</filter>
<filter id="filter1_d_2467_4171" x="4.02002" y="6.13452" width="154.489" height="80.213" filterUnits="userSpaceOnUse" color-interpolation-filters="sRGB">
<feFlood flood-opacity="0" result="BackgroundImageFix"/>
<feColorMatrix in="SourceAlpha" type="matrix" values="0 0 0 0 0 0 0 0 0 0 0 0 0 0 0 0 0 0 127 0" result="hardAlpha"/>
<feOffset dy="1"/>
<feGaussianBlur stdDeviation="2"/>
<feComposite in2="hardAlpha" operator="out"/>
<feColorMatrix type="matrix" values="0 0 0 0 0.0969792 0 0 0 0 0.127894 0 0 0 0 0.2375 0 0 0 0.08 0"/>
<feBlend mode="normal" in2="BackgroundImageFix" result="effect1_dropShadow_2467_4171"/>
<feBlend mode="normal" in="SourceGraphic" in2="effect1_dropShadow_2467_4171" result="shape"/>
</filter>
<clipPath id="clip0_2467_4171">
<rect width="94.069" height="22" fill="white" transform="translate(34.2302 34.2411)"/>
</clipPath>
</defs>
</svg>
