<svg width="164" height="93" viewBox="0 0 164 93" fill="none" xmlns="http://www.w3.org/2000/svg">
<g filter="url(#filter0_dd_2467_4167)">
<g filter="url(#filter1_d_2467_4167)">
<rect x="8.53052" y="9.13452" width="146.489" height="72.2131" rx="8.25292" fill="#FBFFFD"/>
</g>
<path d="M35.4611 54.0437L33.2629 51.1026L32.5854 54.0437H35.4611ZM35.8384 46.2614C37.0268 43.4453 36.6167 40.6145 34.9215 39.9396C33.2264 39.2642 30.8885 41 29.6995 43.8166C28.5111 46.6327 28.9212 49.4635 30.6157 50.139C32.3108 50.8144 34.6487 49.0787 35.8378 46.262L35.8384 46.2614ZM42.0665 40.5821V40.0015C42.0669 39.3822 41.9187 38.7714 41.6337 38.2172C41.3486 37.6631 40.9346 37.1809 40.4243 36.8088L37.514 41.1844L42.0665 40.5821ZM42.0659 48.6113V41.8351L37.4685 44.7997L42.0659 48.6113ZM36.2096 38.9931L39.5111 36.3061C39.0178 36.1097 38.4896 36.0088 37.9563 36.009H36.9405L36.2096 38.9931Z" fill="#032123"/>
<path d="M27.9548 55.4491L28.9573 51.8321L24.9413 54.5774L28.2416 49.369L24.923 49.2582L28.5672 46.4469L26.493 43.8542L29.82 43.5565L29.3012 39.0271L31.7211 41.1937L32.6841 37.4139H27.3904C26.8507 37.4141 26.3164 37.5174 25.818 37.7181C25.3195 37.9187 24.8668 38.2127 24.4856 38.5833C23.7147 39.3325 23.2818 40.3479 23.282 41.4064V51.4566C23.282 52.5158 23.7146 53.5313 24.485 54.2798C24.8663 54.6505 25.3193 54.9446 25.8179 55.1452C26.3166 55.3459 26.8511 55.4492 27.391 55.4491H27.9548ZM35.8307 49.9679L36.9164 55.4491H37.9554C38.4952 55.4494 39.0297 55.3462 39.5284 55.1457C40.0271 54.9451 40.4801 54.6511 40.8614 54.2804C41.2431 53.9095 41.5459 53.4693 41.7523 52.9849C41.9587 52.5005 42.0647 51.9814 42.0643 51.4572V50.5643L35.8307 49.9679ZM33.5711 37.4145L34.0274 40.0137L35.5925 37.4145H33.5711ZM30.9191 55.4491L30.718 53.0892L29.2094 55.4491H30.9191ZM49.8449 50.8631L48.2378 47.5791H47.4845V50.8631H45.2529V42.0383H48.8497C50.8656 42.0383 51.9495 43.4263 51.9495 44.8791C51.9495 46.0815 51.1839 46.837 50.4694 47.1818L52.4374 50.8631H49.8449ZM48.7482 43.985H47.4839V45.7697H48.7476C49.3606 45.7697 49.7173 45.3359 49.7173 44.8773C49.7173 44.4188 49.3606 43.9844 48.7482 43.9844V43.985ZM57.2627 43.972V50.8637H55.0317V43.972H52.7995V42.0389H59.4955V43.972H57.2627ZM60.4791 50.8631V42.0383H62.7083V48.9305H66.522V50.8637H60.4791V50.8631ZM74.6112 50.8631H70.6608V42.0383H74.424C76.3117 42.0383 77.3197 43.0673 77.3197 44.5921C77.3197 45.5958 76.6088 46.1534 76.3251 46.339C76.6945 46.563 77.4479 47.0209 77.4479 48.2581C77.443 49.9455 76.2315 50.8631 74.6112 50.8631ZM74.2794 43.985H72.8881V45.4219H74.2788C74.8913 45.4219 75.0826 45.0506 75.0826 44.7029C75.0826 44.3563 74.8919 43.9844 74.2794 43.9844V43.985ZM74.3943 47.3681H72.893V48.917H74.3937C75.0061 48.917 75.2102 48.508 75.2102 48.136C75.2102 47.7647 75.0073 47.3675 74.3949 47.3675L74.3943 47.3681ZM84.3948 49.9455C83.7314 50.5897 82.9658 50.9374 81.8558 50.9374C80.7458 50.9374 79.9809 50.5903 79.3174 49.9455C78.3611 49.016 78.4 47.7783 78.4 46.4504C78.4 45.1219 78.3623 43.8842 79.318 42.9553C79.9809 42.3106 80.7464 41.9628 81.8564 41.9628C82.967 41.9628 83.7314 42.31 84.3954 42.9548C85.3524 43.8842 85.3135 45.1237 85.3135 46.4498C85.3135 47.7765 85.3511 49.0166 84.3948 49.9455ZM82.7495 44.2815C82.6366 44.1605 82.4988 44.0639 82.345 43.9978C82.1913 43.9316 82.0249 43.8975 81.8567 43.8975C81.6885 43.8975 81.5222 43.9316 81.3684 43.9978C81.2146 44.0639 81.0768 44.1605 80.9639 44.2815C80.7604 44.5414 80.6322 44.8384 80.6322 46.4504C80.6322 48.0612 80.7598 48.3465 80.9639 48.6064C81.0747 48.7307 81.2118 48.8303 81.3659 48.8987C81.5199 48.967 81.6873 49.0024 81.8567 49.0024C82.0261 49.0024 82.1935 48.967 82.3476 48.8987C82.5016 48.8303 82.6387 48.7307 82.7495 48.6064C82.9531 48.3465 83.0813 48.0612 83.0813 46.4498C83.0813 44.8384 82.9537 44.5414 82.7495 44.2809V44.2815ZM89.9085 50.9368C88.0214 50.9368 86.4776 49.6979 86.4776 47.7641V42.0383H88.7092V47.7146C88.7092 48.5333 89.1685 49.0036 89.9085 49.0036C90.6491 49.0036 91.1334 48.5333 91.1334 47.7146V42.0389H93.365V47.7636C93.365 49.6979 91.7962 50.9368 89.9085 50.9368ZM94.8426 50.8631V42.0383H97.0784V48.9305H100.892V50.8637H94.8426V50.8631ZM101.872 50.8631V42.0383H108.046V43.972H104.105V45.4467H107.473V47.3799H104.105V48.93H108.046V50.8631H101.872ZM113.397 50.8631H111.738L108.741 42.0383H111.05L112.581 46.9708L114.081 42.0383H116.403L113.397 50.8631ZM121.462 50.8625L121.041 49.5494H118.247L117.801 50.8625H115.466L118.77 42.0394H120.492L123.795 50.8625H121.462ZM119.689 45.3848L118.873 47.7388H120.453L119.689 45.3848ZM129.206 50.8631L127.599 47.5791H126.846V50.8631H124.614V42.0383H128.208C130.224 42.0383 131.308 43.4263 131.308 44.8791C131.308 46.0815 130.542 46.837 129.828 47.1818L131.792 50.8631H129.206ZM128.109 43.985H126.845V45.7697H128.109C128.722 45.7697 129.078 45.3359 129.078 44.8773C129.078 44.4188 128.722 43.9844 128.109 43.9844V43.985ZM138.528 49.995C137.903 50.602 137.027 50.8625 136.079 50.8625H132.712V42.0383H136.079C137.024 42.0383 137.904 42.2988 138.529 42.9058C139.588 43.9343 139.473 45.0624 139.473 46.4504C139.473 47.8384 139.586 48.9671 138.528 49.995ZM136.997 44.4677C136.794 44.1701 136.487 43.9714 135.926 43.9714H134.944V48.93H135.926C136.487 48.93 136.795 48.7319 136.997 48.4343C137.176 48.1861 137.24 47.951 137.24 46.451C137.239 44.9634 137.176 44.7153 136.997 44.4677ZM139.424 54.7837H44.9898V55.4503H139.424V54.7843V54.7837ZM139.424 37.4145H44.9898V38.0805H139.424V37.4151V37.4145Z" fill="#032123"/>
</g>
<defs>
<filter id="filter0_dd_2467_4167" x="0.530518" y="0.134521" width="162.489" height="92.213" filterUnits="userSpaceOnUse" color-interpolation-filters="sRGB">
<feFlood flood-opacity="0" result="BackgroundImageFix"/>
<feColorMatrix in="SourceAlpha" type="matrix" values="0 0 0 0 0 0 0 0 0 0 0 0 0 0 0 0 0 0 127 0" result="hardAlpha"/>
<feOffset dx="2" dy="5"/>
<feGaussianBlur stdDeviation="3"/>
<feComposite in2="hardAlpha" operator="out"/>
<feColorMatrix type="matrix" values="0 0 0 0 0.778872 0 0 0 0 0.845833 0 0 0 0 0.805656 0 0 0 0.7 0"/>
<feBlend mode="normal" in2="BackgroundImageFix" result="effect1_dropShadow_2467_4167"/>
<feColorMatrix in="SourceAlpha" type="matrix" values="0 0 0 0 0 0 0 0 0 0 0 0 0 0 0 0 0 0 127 0" result="hardAlpha"/>
<feOffset dx="-2" dy="-3"/>
<feGaussianBlur stdDeviation="3"/>
<feComposite in2="hardAlpha" operator="out"/>
<feColorMatrix type="matrix" values="0 0 0 0 0.780392 0 0 0 0 0.847059 0 0 0 0 0.803922 0 0 0 0.7 0"/>
<feBlend mode="normal" in2="effect1_dropShadow_2467_4167" result="effect2_dropShadow_2467_4167"/>
<feBlend mode="normal" in="SourceGraphic" in2="effect2_dropShadow_2467_4167" result="shape"/>
</filter>
<filter id="filter1_d_2467_4167" x="4.53052" y="6.13452" width="154.489" height="80.213" filterUnits="userSpaceOnUse" color-interpolation-filters="sRGB">
<feFlood flood-opacity="0" result="BackgroundImageFix"/>
<feColorMatrix in="SourceAlpha" type="matrix" values="0 0 0 0 0 0 0 0 0 0 0 0 0 0 0 0 0 0 127 0" result="hardAlpha"/>
<feOffset dy="1"/>
<feGaussianBlur stdDeviation="2"/>
<feComposite in2="hardAlpha" operator="out"/>
<feColorMatrix type="matrix" values="0 0 0 0 0.0969792 0 0 0 0 0.127894 0 0 0 0 0.2375 0 0 0 0.08 0"/>
<feBlend mode="normal" in2="BackgroundImageFix" result="effect1_dropShadow_2467_4167"/>
<feBlend mode="normal" in="SourceGraphic" in2="effect1_dropShadow_2467_4167" result="shape"/>
</filter>
</defs>
</svg>
