<svg width="164" height="93" viewBox="0 0 164 93" fill="none" xmlns="http://www.w3.org/2000/svg">
<g filter="url(#filter0_dd_2467_4198)">
<g filter="url(#filter1_d_2467_4198)">
<rect x="8.97705" y="9.13452" width="146.489" height="72.2131" rx="8.25292" fill="#FBFFFD"/>
</g>
<g clip-path="url(#clip0_2467_4198)">
<path d="M40.007 51.3992L35.0274 53.5195V53.3051C34.0714 53.5386 32.9956 53.6748 31.9999 53.7334C27.2992 53.6945 23.5941 51.2821 23.5341 48.442V47.392C25.068 49.5703 28.2154 51.0492 31.9999 50.9906C33.2745 51.0492 34.5895 50.8544 35.6848 50.5624L36.1227 49.5124C34.8286 49.9012 33.3944 50.1544 31.9999 50.1544C27.2992 50.1544 23.5941 47.7617 23.5341 44.8631V44.0065C25.0687 46.0302 28.216 47.4894 31.9999 47.392C33.713 47.4894 35.3662 47.1387 36.7802 46.5361L36.9991 45.4861C35.6249 46.1861 33.8518 46.594 32.0195 46.5361C27.3187 46.594 23.6136 44.2013 23.5543 41.2447V40.3888C25.0882 42.4506 28.2349 43.9295 32.0195 43.9874C34.1711 43.9295 36.2029 43.3651 37.8762 42.5092L38.0952 41.2447C36.5815 42.3342 34.3705 43.0539 32.0195 43.1513C27.3187 43.0539 23.6136 40.6414 23.5543 37.6461C23.5941 34.7863 27.3187 32.3942 32.0195 32.3547C34.8084 32.3942 37.4175 33.3474 38.9514 34.9033L39.111 35.156H40.2064L40.0468 34.9033C38.5135 32.8606 35.4261 31.5185 32.0195 31.5185C26.802 31.4994 22.6577 34.2803 22.6577 37.6263V48.6367C22.8369 51.9051 26.8802 54.5702 31.9797 54.5702C35.346 54.5893 38.393 53.286 40.007 51.3992Z" fill="#032123"/>
<path d="M37.9763 58.8504L39.7291 51.5748L34.6895 53.7149L37.7573 41.1092H31.8608L33.3947 34.904H52.218L50.6841 41.1092H44.5491L43.2348 44.5328L50.0273 41.7513L37.9763 58.8504ZM41.0434 50.0965L40.167 54.3761L47.398 43.6966L41.4813 46.2644L44.1112 40.273H50.0273L51.122 35.779H34.0327L32.9373 40.273H38.8533L36.0051 52.2366L41.0434 50.0965ZM64.7062 39.0862C64.7264 39.7671 64.5075 40.2927 64.0696 40.6815C63.6311 41.0704 63.0335 41.2651 62.2568 41.2651C61.4801 41.2651 60.8428 41.0125 60.3645 40.5256C59.8862 40.0395 59.6477 39.398 59.6477 38.6197V37.3553C59.6477 36.577 59.8862 35.9349 60.345 35.4487C60.8226 34.9625 61.4397 34.7099 62.1968 34.7099C62.9938 34.7099 63.6109 34.904 64.0696 35.2737C64.5277 35.6625 64.7466 36.1882 64.7264 36.8691V36.8882H63.4519C63.4519 36.4796 63.3522 36.1691 63.1528 35.9744C62.954 35.7796 62.6354 35.6823 62.217 35.6823C61.8183 35.6823 61.5198 35.8382 61.3009 36.1494C61.0813 36.4605 60.962 36.8494 60.962 37.3355V38.6197C60.962 39.1059 61.0813 39.5145 61.3009 39.8256C61.5394 40.1375 61.858 40.2927 62.277 40.2927C62.6745 40.2927 62.954 40.1954 63.1528 40.0006C63.3522 39.8059 63.4519 39.4947 63.4519 39.0862H64.7062ZM71.917 38.5612C71.917 39.3395 71.6583 40.0006 71.1605 40.5065C70.6626 41.0125 70.0052 41.2651 69.1887 41.2651C68.3716 41.2651 67.7343 41.0125 67.2162 40.5065C66.7184 40.0006 66.4597 39.3395 66.4597 38.5612V37.4138C66.4597 36.6355 66.7184 35.9935 67.2162 35.4685C67.7147 34.9625 68.3716 34.6902 69.1685 34.6902C69.985 34.6902 70.6424 34.9428 71.1403 35.4685C71.6583 35.9744 71.8975 36.6355 71.8975 37.4138V38.5612H71.917ZM70.6033 37.3947C70.6033 36.8888 70.4841 36.5 70.2254 36.1691C69.9661 35.8579 69.6272 35.6829 69.1698 35.6829C68.7313 35.6829 68.3722 35.8388 68.1337 36.1691C67.8946 36.4809 67.7551 36.8888 67.7551 37.3947V38.5427C67.7551 39.048 67.8744 39.4565 68.1331 39.7875C68.3722 40.0986 68.7313 40.2736 69.1691 40.2736C69.6272 40.2736 69.9661 40.1184 70.2248 39.7875C70.4841 39.4756 70.6033 39.048 70.6033 38.5427V37.3941V37.3947ZM75.3041 41.1684H73.9898V34.7875H75.3041V41.1677V41.1684ZM82.8537 41.1684H81.5375L78.9082 36.8697H78.8887V41.1684H77.5737V34.7875H78.888L81.5173 39.0862H81.5375V34.7882H82.8524V41.1684H82.8537ZM89.4468 35.7803H87.5741V41.1684H86.2597V35.7796H84.4267V34.7869H89.4468V35.7803ZM94.8643 38.3677H92.4345V40.196H95.3224V41.1684H91.1397V34.7875H95.3224V35.7796H92.454V37.3744H94.8845V38.3671H94.8643V38.3677ZM98.5095 40.196H101.438V41.1684H97.1952V34.7875H98.5095V40.196ZM107.015 38.3677H104.585V40.196H107.473V41.1684H103.29V34.7875H107.473V35.7796H104.605V37.3744H107.035V38.3671H107.015V38.3677ZM114.365 40.3125C114.166 40.5657 113.867 40.7986 113.448 40.9934C113.05 41.1881 112.532 41.2855 111.895 41.2855C111.098 41.2855 110.461 41.0519 109.963 40.5657C109.465 40.0795 109.206 39.4565 109.206 38.6789V37.3362C109.206 36.5585 109.445 35.9362 109.943 35.4494C110.421 34.9632 111.058 34.7105 111.815 34.7105C112.612 34.7105 113.229 34.9046 113.648 35.2744C114.066 35.6435 114.285 36.1303 114.266 36.7526V36.7717H113.031C113.031 36.4415 112.931 36.1691 112.732 35.975C112.532 35.7803 112.234 35.6829 111.855 35.6829C111.457 35.6829 111.138 35.8388 110.879 36.1303C110.64 36.4421 110.521 36.8303 110.521 37.2974V38.6401C110.521 39.1263 110.64 39.5151 110.899 39.8263C111.158 40.1381 111.497 40.2736 111.915 40.2736C112.234 40.2736 112.473 40.2348 112.652 40.1763C112.831 40.1184 112.971 40.0401 113.071 39.9434V38.698H111.815V37.8033H114.385V40.3125H114.365ZM117.751 38.6197V41.1684H116.437V34.7875H118.707C119.445 34.7875 120.042 34.9625 120.46 35.2935C120.878 35.6244 121.098 36.0908 121.098 36.6744C121.098 37.0053 121.018 37.2776 120.838 37.5303C120.659 37.7638 120.401 37.9585 120.062 38.1138C120.44 38.2303 120.719 38.4059 120.898 38.6776C121.058 38.9309 121.157 39.2618 121.157 39.6506V40.1177C121.157 40.2927 121.177 40.4868 121.237 40.6815C121.277 40.8763 121.377 41.0125 121.496 41.1098V41.2065H120.141C120.022 41.1098 119.942 40.9539 119.903 40.7401C119.864 40.5348 119.844 40.3265 119.843 40.1177V39.6697C119.843 39.3585 119.763 39.1059 119.584 38.9309C119.404 38.7559 119.146 38.6585 118.827 38.6585H117.751V38.6197ZM117.751 37.6474H118.687C119.046 37.6474 119.325 37.5697 119.504 37.4145C119.683 37.2585 119.783 37.0447 119.783 36.7335C119.783 36.4415 119.683 36.2079 119.504 36.0335C119.325 35.8579 119.066 35.7803 118.707 35.7803H117.751V37.6474ZM126.655 39.8065H124.544L124.105 41.1875H122.731L124.942 34.8073H126.276L128.468 41.1881H127.093L126.655 39.8072V39.8065ZM124.862 38.7954H126.336L125.619 36.5388H125.599L124.862 38.7954ZM131.376 38.8539V41.1684H130.061V34.7875H132.571C133.328 34.7875 133.905 34.9823 134.344 35.3514C134.782 35.7211 134.981 36.227 134.981 36.8303C134.981 37.4329 134.762 37.9388 134.344 38.3085C133.905 38.6776 133.328 38.8724 132.571 38.8724H131.376V38.8533V38.8539ZM131.376 37.8809H132.571C132.929 37.8809 133.208 37.7835 133.407 37.5895C133.592 37.386 133.692 37.122 133.686 36.85C133.686 36.5388 133.587 36.2862 133.407 36.0915C133.228 35.8967 132.949 35.7994 132.571 35.7994H131.376V37.8809ZM142.172 41.1684H140.857V38.523H138.188V41.1684H136.873V34.7875H138.188V37.5303H140.857V34.7875H142.172V41.1677V41.1684ZM62.0365 51.5939H61.2201V47.392H59.7461V46.7111H63.5105V47.392H62.0365V51.5939ZM67.5147 51.5939H66.6976V49.3176C66.6976 49.0262 66.6376 48.8124 66.5184 48.6762C66.3991 48.54 66.2193 48.4617 65.9606 48.4617C65.6217 48.4617 65.3833 48.5591 65.2243 48.7538C65.064 48.9485 64.9845 49.2788 64.9845 49.7459V51.5742H64.1882V46.3808H64.9845V47.7032C64.9845 47.9176 64.9649 48.1315 64.9454 48.3841H65.004C65.1044 48.2091 65.2634 48.0729 65.4627 47.9755C65.6728 47.8718 65.9051 47.8186 66.1404 47.8203C67.056 47.8203 67.5147 48.2676 67.5147 49.1821V51.5939ZM70.2828 51.6525C69.6852 51.6525 69.2271 51.4768 68.9085 51.1465C68.5697 50.8156 68.4107 50.3492 68.4107 49.7656C68.4107 49.1624 68.5703 48.6953 68.8688 48.3453C69.1678 47.9953 69.6057 47.8203 70.144 47.8203C70.6418 47.8203 71.0399 47.9755 71.3188 48.2676C71.6179 48.5591 71.7567 48.9676 71.7567 49.4933V49.9209H69.2271C69.2467 50.2709 69.347 50.563 69.5262 50.738C69.7054 50.9327 69.9843 51.0295 70.3232 51.0295C70.5421 51.0295 70.761 51.0104 70.9402 50.9715C71.1396 50.9327 71.339 50.8545 71.558 50.7577V51.3992C71.3687 51.4901 71.1677 51.5556 70.9604 51.5939C70.7372 51.6363 70.5101 51.6559 70.2828 51.6525ZM70.144 48.4229C69.8846 48.4229 69.6852 48.5012 69.5262 48.6565C69.3666 48.8124 69.2871 49.0453 69.2473 49.3565H70.9604C70.9604 49.0459 70.8803 48.8124 70.7408 48.6565C70.602 48.5012 70.402 48.4229 70.144 48.4229ZM76.378 48.4815H75.4618V51.5933H74.6453V48.4815H74.0276V48.1124L74.6453 47.8782V47.6453C74.6453 47.217 74.745 46.8861 74.964 46.6723C75.1829 46.4585 75.5016 46.3611 75.9199 46.3611C76.1988 46.3611 76.4777 46.3999 76.7566 46.4973L76.5376 47.1005C76.3511 47.0399 76.1562 47.0071 75.9596 47.0032C75.7804 47.0032 75.641 47.0611 75.5615 47.1585C75.482 47.2755 75.4423 47.4308 75.4423 47.6453V47.8782H76.3584V48.4815H76.378ZM79.7045 51.5933L79.5852 51.1077H79.5455C79.4258 51.2828 79.2608 51.4237 79.0672 51.5163C78.8502 51.6199 78.6115 51.6731 78.37 51.6715C77.9119 51.6715 77.5737 51.5551 77.3339 51.3406C77.0954 51.1268 76.9957 50.7768 76.9957 50.3295V47.8979H77.8122V50.1735C77.8122 50.4656 77.8721 50.6604 77.9914 50.8163C78.1113 50.9518 78.2905 51.0295 78.5492 51.0295C78.888 51.0295 79.1272 50.9327 79.2861 50.738C79.4458 50.5433 79.5253 50.213 79.5253 49.7459V47.8979H80.3418V51.5939L79.7045 51.5933ZM82.8915 51.0104C83.0945 51.0065 83.2958 50.9737 83.4891 50.913V51.4965C83.382 51.5459 83.2677 51.5787 83.1502 51.5939C83.0114 51.613 82.872 51.6327 82.7123 51.6327C81.9552 51.6327 81.5772 51.2439 81.5772 50.4656V48.4815H81.0592V48.1315L81.617 47.8394L81.8959 47.0611H82.3937V47.8782H83.4689V48.4815H82.3937V50.4656C82.3937 50.6604 82.4334 50.7965 82.5331 50.8933C82.5931 50.9715 82.7325 51.0104 82.8915 51.0104ZM86.8951 51.5939L86.7758 51.1077H86.7361C86.6165 51.2829 86.4515 51.4239 86.2578 51.5163C86.0408 51.62 85.8021 51.6731 85.5606 51.6715C85.1025 51.6715 84.7643 51.5551 84.5245 51.3406C84.3055 51.1268 84.1863 50.7768 84.1863 50.3295V47.8979H85.0028V50.1735C85.0028 50.4656 85.0627 50.6604 85.182 50.8163C85.3019 50.9518 85.4817 51.0295 85.7398 51.0295C86.0786 51.0295 86.3177 50.9327 86.4774 50.738C86.6364 50.5433 86.7159 50.213 86.7159 49.7459V47.8979H87.533V51.5939H86.8951ZM90.6002 47.8203C90.7598 47.8203 90.8993 47.8394 90.9983 47.8585L90.9188 48.5979C90.8006 48.5756 90.6807 48.5629 90.5604 48.5597C90.2418 48.5597 89.9831 48.6565 89.7837 48.8703C89.5843 49.0847 89.4846 49.3374 89.4846 49.6683V51.5939H88.6883V47.8979H89.3256L89.4253 48.54H89.465C89.5872 48.3296 89.7576 48.1497 89.9629 48.0144C90.1421 47.8979 90.361 47.8203 90.6002 47.8203ZM93.2099 51.6525C92.6124 51.6525 92.1536 51.4768 91.835 51.1465C91.4968 50.8156 91.3371 50.3492 91.3371 49.7656C91.3371 49.1624 91.4968 48.6953 91.7952 48.3453C92.0943 47.9953 92.5322 47.8203 93.0704 47.8203C93.5683 47.8203 93.9664 47.9755 94.2453 48.2676C94.5444 48.5591 94.6838 48.9676 94.6838 49.4933V49.9209H92.1536C92.1738 50.2709 92.2735 50.563 92.4527 50.738C92.6319 50.9327 92.9108 51.0295 93.2496 51.0295C93.4686 51.0295 93.6875 51.0104 93.8667 50.9715C94.0661 50.9327 94.2655 50.8545 94.4844 50.7577V51.3992C94.2952 51.4901 94.0942 51.5556 93.8869 51.5939C93.6638 51.6353 93.437 51.6549 93.2099 51.6525ZM93.0704 48.4229C92.8111 48.4229 92.6124 48.5012 92.4527 48.6565C92.2931 48.8124 92.2136 49.0453 92.1738 49.3565H93.8869C93.8869 49.0459 93.8074 48.8124 93.668 48.6565C93.5899 48.5798 93.4967 48.5196 93.3939 48.4794C93.2912 48.4392 93.1811 48.42 93.0704 48.4229ZM100.759 49.7262C100.759 50.3295 100.599 50.7965 100.281 51.1465C99.9619 51.4775 99.524 51.6525 98.9663 51.6525C98.6079 51.6525 98.3088 51.5742 98.0299 51.4189C97.751 51.263 97.5516 51.0301 97.4122 50.738C97.2633 50.4207 97.1886 50.0751 97.1932 49.7262C97.1932 49.1235 97.3529 48.6571 97.6715 48.3262C97.9901 47.9953 98.428 47.8203 99.006 47.8203C99.5436 47.8203 99.9821 47.9953 100.301 48.3453C100.619 48.6953 100.759 49.1426 100.759 49.7262ZM98.0103 49.7262C98.0103 50.5821 98.329 51.0104 98.9858 51.0104C99.6237 51.0104 99.9424 50.5821 99.9424 49.7262C99.9424 48.89 99.6237 48.4617 98.9858 48.4617C98.6476 48.4617 98.4085 48.5788 98.2488 48.7926C98.0898 49.0065 98.0103 49.3183 98.0103 49.7262ZM103.588 48.4815H102.671V51.5933H101.854V48.4815H101.237V48.1124L101.854 47.8782V47.6453C101.854 47.217 101.954 46.8861 102.173 46.6723C102.392 46.4585 102.711 46.3611 103.129 46.3611C103.408 46.3611 103.687 46.3999 103.965 46.4973L103.747 47.1005C103.56 47.0399 103.366 47.0071 103.169 47.0032C102.99 47.0032 102.851 47.0611 102.77 47.1585C102.691 47.2558 102.651 47.4308 102.651 47.6453V47.8782H103.567V48.4815H103.588ZM109.244 51.5933H108.428V49.3176C108.428 49.0262 108.368 48.8315 108.268 48.6762C108.168 48.54 107.989 48.4617 107.75 48.4617C107.431 48.4617 107.212 48.5591 107.073 48.7538C106.934 48.9485 106.854 49.2788 106.854 49.7459V51.5939H106.057V47.8979H106.694L106.814 48.3841H106.854C106.954 48.2091 107.113 48.0729 107.312 47.9755C107.512 47.8782 107.731 47.8394 107.97 47.8394C108.547 47.8394 108.946 48.0341 109.125 48.4229H109.184C109.303 48.2422 109.468 48.0948 109.663 47.9953C109.88 47.8914 110.118 47.8381 110.36 47.8394C110.818 47.8394 111.137 47.9565 111.355 48.1703C111.555 48.3841 111.674 48.7341 111.674 49.1821V51.5939H110.878V49.3176C110.878 49.0262 110.818 48.8315 110.718 48.6762C110.599 48.54 110.439 48.4617 110.2 48.4617C109.881 48.4617 109.663 48.5591 109.523 48.7538C109.384 48.9485 109.304 49.24 109.304 49.6288V51.5939L109.244 51.5933ZM116.097 49.7262C116.097 50.3295 115.937 50.7965 115.618 51.1465C115.3 51.4775 114.861 51.6525 114.303 51.6525C113.945 51.6525 113.647 51.5742 113.368 51.4189C113.089 51.263 112.889 51.0301 112.75 50.738C112.601 50.4208 112.526 50.0752 112.531 49.7262C112.531 49.1235 112.69 48.6571 113.009 48.3262C113.328 47.9953 113.766 47.8203 114.344 47.8203C114.881 47.8203 115.319 47.9953 115.638 48.3453C115.937 48.6953 116.097 49.1426 116.097 49.7262ZM113.347 49.7262C113.347 50.5821 113.666 51.0104 114.324 51.0104C114.961 51.0104 115.279 50.5821 115.279 49.7262C115.279 48.89 114.961 48.4617 114.324 48.4617C113.985 48.4617 113.746 48.5788 113.587 48.7926C113.427 49.0065 113.347 49.3183 113.347 49.7262ZM120.359 51.5939H119.542V49.3176C119.542 49.0262 119.482 48.8124 119.363 48.6762C119.243 48.54 119.064 48.4617 118.805 48.4617C118.467 48.4617 118.208 48.5591 118.068 48.7538C117.929 48.9485 117.829 49.2788 117.829 49.7459V51.5939H117.032V47.8979H117.67L117.79 48.3841H117.829C117.949 48.2091 118.108 48.0729 118.308 47.9755C118.506 47.8782 118.745 47.8394 119.005 47.8394C119.921 47.8394 120.359 48.2867 120.359 49.2012V51.5939ZM123.128 51.6525C122.53 51.6525 122.072 51.4768 121.753 51.1465C121.414 50.8156 121.255 50.3492 121.255 49.7656C121.255 49.1624 121.414 48.6953 121.714 48.3453C122.012 47.9953 122.451 47.8203 122.988 47.8203C123.486 47.8203 123.885 47.9755 124.164 48.2676C124.462 48.5591 124.602 48.9676 124.602 49.4933V49.9209H122.072C122.092 50.2709 122.191 50.563 122.371 50.738C122.55 50.9327 122.829 51.0295 123.167 51.0295C123.387 51.0295 123.606 51.0104 123.785 50.9715C123.964 50.9327 124.183 50.8545 124.403 50.7577V51.3992C124.213 51.4901 124.012 51.5556 123.805 51.5939C123.581 51.6354 123.355 51.655 123.128 51.6525ZM122.969 48.4229C122.709 48.4229 122.51 48.5012 122.351 48.6565C122.191 48.8124 122.112 49.0453 122.072 49.3565H123.785C123.785 49.0459 123.706 48.8124 123.566 48.6565C123.427 48.5012 123.227 48.4229 122.969 48.4229ZM124.801 47.8979H125.677L126.454 49.9985C126.573 50.2906 126.653 50.5821 126.693 50.8354H126.713C126.733 50.7183 126.773 50.563 126.833 50.388C126.893 50.213 127.171 49.3762 127.709 47.8979H128.585L126.972 52.0801C126.673 52.8386 126.195 53.2281 125.498 53.2281C125.319 53.2281 125.14 53.209 124.98 53.1695V52.5472C125.099 52.5663 125.239 52.5854 125.398 52.5854C125.777 52.5854 126.056 52.3722 126.215 51.9248L126.354 51.5748L124.801 47.8979Z" fill="#032123"/>
</g>
</g>
<defs>
<filter id="filter0_dd_2467_4198" x="0.977051" y="0.134521" width="162.489" height="92.213" filterUnits="userSpaceOnUse" color-interpolation-filters="sRGB">
<feFlood flood-opacity="0" result="BackgroundImageFix"/>
<feColorMatrix in="SourceAlpha" type="matrix" values="0 0 0 0 0 0 0 0 0 0 0 0 0 0 0 0 0 0 127 0" result="hardAlpha"/>
<feOffset dx="2" dy="5"/>
<feGaussianBlur stdDeviation="3"/>
<feComposite in2="hardAlpha" operator="out"/>
<feColorMatrix type="matrix" values="0 0 0 0 0.778872 0 0 0 0 0.845833 0 0 0 0 0.805656 0 0 0 0.7 0"/>
<feBlend mode="normal" in2="BackgroundImageFix" result="effect1_dropShadow_2467_4198"/>
<feColorMatrix in="SourceAlpha" type="matrix" values="0 0 0 0 0 0 0 0 0 0 0 0 0 0 0 0 0 0 127 0" result="hardAlpha"/>
<feOffset dx="-2" dy="-3"/>
<feGaussianBlur stdDeviation="3"/>
<feComposite in2="hardAlpha" operator="out"/>
<feColorMatrix type="matrix" values="0 0 0 0 0.780392 0 0 0 0 0.847059 0 0 0 0 0.803922 0 0 0 0.7 0"/>
<feBlend mode="normal" in2="effect1_dropShadow_2467_4198" result="effect2_dropShadow_2467_4198"/>
<feBlend mode="normal" in="SourceGraphic" in2="effect2_dropShadow_2467_4198" result="shape"/>
</filter>
<filter id="filter1_d_2467_4198" x="4.97705" y="6.13452" width="154.489" height="80.213" filterUnits="userSpaceOnUse" color-interpolation-filters="sRGB">
<feFlood flood-opacity="0" result="BackgroundImageFix"/>
<feColorMatrix in="SourceAlpha" type="matrix" values="0 0 0 0 0 0 0 0 0 0 0 0 0 0 0 0 0 0 127 0" result="hardAlpha"/>
<feOffset dy="1"/>
<feGaussianBlur stdDeviation="2"/>
<feComposite in2="hardAlpha" operator="out"/>
<feColorMatrix type="matrix" values="0 0 0 0 0.0969792 0 0 0 0 0.127894 0 0 0 0 0.2375 0 0 0 0.08 0"/>
<feBlend mode="normal" in2="BackgroundImageFix" result="effect1_dropShadow_2467_4198"/>
<feBlend mode="normal" in="SourceGraphic" in2="effect1_dropShadow_2467_4198" result="shape"/>
</filter>
<clipPath id="clip0_2467_4198">
<rect width="119.897" height="28" fill="white" transform="translate(22.2729 31.2411)"/>
</clipPath>
</defs>
</svg>
