<svg width="164" height="93" viewBox="0 0 164 93" fill="none" xmlns="http://www.w3.org/2000/svg">
<g filter="url(#filter0_dd_2467_4246)">
<g filter="url(#filter1_d_2467_4246)">
<rect x="8.74121" y="9.13452" width="146.489" height="72.2131" rx="8.25292" fill="#FBFFFD"/>
</g>
<path d="M38.8253 34.3591C36.936 34.7369 35.0982 36.3686 33.9989 38.653C32.9855 40.7656 32.7451 41.8305 32.642 44.5958C32.539 47.3955 32.7966 49.0959 33.6554 51.1569C35.0123 54.4032 37.331 56.2238 40.0963 56.241C41.041 56.241 41.3673 56.1379 42.6211 55.4852C44.167 54.6952 44.4589 54.6952 44.6994 55.5024C44.7681 55.6742 44.9227 55.8287 45.0601 55.8287C45.2662 55.8287 45.3006 55.3135 45.3006 52.7371C45.3006 50.1264 45.2662 49.6455 45.0429 49.6455C44.9055 49.6455 44.7509 49.8516 44.6994 50.1264C44.3559 51.6894 44.2013 52.2218 43.8234 52.9948C42.9647 54.6952 41.6593 55.657 40.165 55.657C39.1001 55.657 38.4131 55.1417 37.9665 53.9738C37.6917 53.2352 37.6573 52.4967 37.6573 45.3515C37.6573 39.5118 37.7089 37.3477 37.8806 36.8152C38.5505 34.6167 40.56 34.153 42.312 35.7675C43.2051 36.5919 43.8063 37.7427 44.2528 39.5118C44.4589 40.3191 44.6651 40.8 44.8025 40.8C44.9914 40.8 45.0601 40.1816 45.0944 37.7427C45.1288 34.9087 45.1116 34.7026 44.8196 34.7026C44.6135 34.7026 44.4589 34.8915 44.3559 35.2522C44.1326 36.0251 43.7891 36.0251 42.8788 35.3037C41.6765 34.3419 40.4226 34.0499 38.8253 34.3591Z" fill="#032123"/>
<path d="M46.8467 34.9603C46.8467 35.1493 47.0528 35.218 47.6196 35.218H48.3925V45.2658V55.3136H47.6196C47.0528 55.3136 46.8467 55.3823 46.8467 55.5712C46.8467 55.7945 47.3791 55.8289 50.6253 55.8289C53.8716 55.8289 54.404 55.7945 54.404 55.5712C54.404 55.3823 54.1979 55.3136 53.6311 55.3136H52.8582V45.2658V35.218H53.6311C54.1979 35.218 54.404 35.1493 54.404 34.9603C54.404 34.737 53.8716 34.7027 50.6253 34.7027C47.3791 34.7027 46.8467 34.737 46.8467 34.9603Z" fill="#032123"/>
<path d="M55.4341 38.1378C55.4341 41.3669 55.4513 41.573 55.7604 41.573C56.0181 41.573 56.0868 41.4012 56.1726 40.4909C56.3959 38.1722 57.478 36.4031 59.1269 35.6302C60.7414 34.8745 60.5868 33.8783 60.5868 45.2658V55.3136H59.6421C58.9208 55.3136 58.6975 55.3651 58.6975 55.5712C58.6975 55.7945 59.2643 55.8289 62.8197 55.8289C66.375 55.8289 66.9418 55.7945 66.9418 55.5712C66.9418 55.3651 66.7185 55.3136 65.9972 55.3136H65.0525V45.2486V35.1836L65.6193 35.3038C67.646 35.7504 68.9342 37.4336 69.3808 40.2676C69.5182 41.0921 69.6728 41.573 69.8102 41.573C69.9819 41.573 70.0335 40.8001 70.0335 38.1378V34.7027H62.7338H55.4341V38.1378Z" fill="#032123"/>
<path d="M70.3774 34.9432C70.3774 35.0977 70.5836 35.218 70.9271 35.2523L71.4767 35.3038L73.6752 40.8001L75.8737 46.2963V50.7964V55.3136H75.1008C74.534 55.3136 74.3279 55.3823 74.3279 55.5712C74.3279 55.7945 74.8603 55.8289 78.1065 55.8289C81.3527 55.8289 81.8852 55.7945 81.8852 55.5712C81.8852 55.3823 81.6791 55.3136 81.1123 55.3136H80.3394V50.3326V45.3517L82.2287 40.6799C83.2764 38.1035 84.2898 35.8191 84.4959 35.613C84.7192 35.3897 85.0627 35.218 85.3547 35.218C85.6639 35.218 85.8356 35.1321 85.8356 34.9603C85.8356 34.7542 85.5093 34.7027 83.9463 34.7027C82.3833 34.7027 82.0569 34.7542 82.0569 34.9603C82.0569 35.1321 82.2287 35.218 82.5379 35.218C83.0703 35.218 83.431 35.4928 83.431 35.905C83.431 36.3 79.8756 44.7162 79.7726 44.5616C79.6352 44.3211 76.2172 35.4756 76.2172 35.3382C76.2172 35.2695 76.492 35.218 76.8183 35.218C77.2306 35.218 77.4195 35.1321 77.4195 34.9603C77.4195 34.737 76.9214 34.7027 73.8985 34.7027C70.9442 34.7027 70.3774 34.737 70.3774 34.9432Z" fill="#032123"/>
<path d="M91.9324 35.5958C91.795 36.0939 90.5583 40.5596 89.2014 45.5234C87.0201 53.4586 86.6766 54.575 86.2644 54.9185C86.0239 55.1418 85.6632 55.3136 85.4743 55.3136C85.3025 55.3136 85.1479 55.4338 85.1479 55.5712C85.1479 55.7773 85.4743 55.8289 87.1232 55.8289C88.6174 55.8289 89.0984 55.7773 89.0984 55.6056C89.0984 55.4853 88.7549 55.2964 88.3255 55.1762C87.3636 54.9185 87.3636 54.9357 88.1881 51.8441L88.8064 49.4567L90.9705 49.5082L93.1175 49.5597L93.8561 52.3078C94.2511 53.8193 94.5774 55.1075 94.5946 55.1762C94.5946 55.2621 94.2854 55.3136 93.9076 55.3136C93.4095 55.3136 93.2205 55.3823 93.2205 55.5712C93.2205 55.7945 93.7358 55.8289 96.8275 55.8289C99.8504 55.8289 100.434 55.7945 100.434 55.5884C100.434 55.4166 100.211 55.3136 99.7989 55.2792L99.1462 55.2277L96.4152 44.9566L93.6671 34.7027H92.9457H92.2072L91.9324 35.5958ZM91.9152 45.1799C92.4476 47.1208 92.877 48.7696 92.877 48.8383C92.877 48.907 91.9839 48.9586 90.9018 48.9586C89.8198 48.9586 88.9266 48.9414 88.9266 48.907C88.9266 48.8899 89.356 47.2582 89.8713 45.283C90.3866 43.3077 90.8159 41.6589 90.8159 41.6073C90.8159 41.2467 91.0736 42.1054 91.9152 45.1799Z" fill="#032123"/>
<path d="M106.961 34.9603C106.961 35.1493 107.15 35.218 107.648 35.218H108.335L108.301 45.0253C108.249 54.5063 108.232 54.8327 107.923 55.0731C107.734 55.2105 107.408 55.3136 107.185 55.3136C106.944 55.3136 106.79 55.4166 106.79 55.5712C106.79 55.7773 107.116 55.8289 108.765 55.8289C110.414 55.8289 110.74 55.7773 110.74 55.5712C110.74 55.4166 110.585 55.3136 110.345 55.3136C109.589 55.3136 109.349 54.9529 109.177 53.5788C108.988 51.8097 109.005 35.5443 109.211 35.9909C109.314 36.2485 112.835 50.2124 114.089 55.4338C114.158 55.743 114.313 55.8289 114.69 55.8289C115.12 55.8289 115.223 55.743 115.36 55.1762C115.463 54.8327 116.545 50.4013 117.782 45.3517C119.019 40.302 120.066 36.0768 120.101 35.9909C120.135 35.8878 120.169 40.1989 120.169 45.5578L120.187 55.3136H119.414C118.847 55.3136 118.641 55.3823 118.641 55.5712C118.641 55.7945 119.173 55.8289 122.334 55.8289C125.494 55.8289 126.026 55.7945 126.026 55.5712C126.026 55.3823 125.82 55.3136 125.253 55.3136H124.481V45.2658V35.218H125.253C125.82 35.218 126.026 35.1493 126.026 34.9603C126.026 34.737 125.563 34.7027 122.952 34.7027C119.912 34.7027 119.877 34.7027 119.774 35.0806C119.723 35.3038 119.053 37.9489 118.28 40.9718C117.524 43.9948 116.82 46.7772 116.717 47.1551C116.545 47.8078 116.459 47.5673 114.879 41.3154L113.23 34.7886L110.087 34.737C107.391 34.7027 106.961 34.737 106.961 34.9603Z" fill="#032123"/>
<path d="M101.465 54.0254V55.8289H103.183H104.9V54.0254V52.222H103.183H101.465V54.0254Z" fill="#032123"/>
<path d="M127.916 54.0254V55.8289H129.634H131.351V54.0254V52.222H129.634H127.916V54.0254Z" fill="#032123"/>
</g>
<defs>
<filter id="filter0_dd_2467_4246" x="0.741211" y="0.134521" width="162.489" height="92.213" filterUnits="userSpaceOnUse" color-interpolation-filters="sRGB">
<feFlood flood-opacity="0" result="BackgroundImageFix"/>
<feColorMatrix in="SourceAlpha" type="matrix" values="0 0 0 0 0 0 0 0 0 0 0 0 0 0 0 0 0 0 127 0" result="hardAlpha"/>
<feOffset dx="2" dy="5"/>
<feGaussianBlur stdDeviation="3"/>
<feComposite in2="hardAlpha" operator="out"/>
<feColorMatrix type="matrix" values="0 0 0 0 0.778872 0 0 0 0 0.845833 0 0 0 0 0.805656 0 0 0 0.7 0"/>
<feBlend mode="normal" in2="BackgroundImageFix" result="effect1_dropShadow_2467_4246"/>
<feColorMatrix in="SourceAlpha" type="matrix" values="0 0 0 0 0 0 0 0 0 0 0 0 0 0 0 0 0 0 127 0" result="hardAlpha"/>
<feOffset dx="-2" dy="-3"/>
<feGaussianBlur stdDeviation="3"/>
<feComposite in2="hardAlpha" operator="out"/>
<feColorMatrix type="matrix" values="0 0 0 0 0.780392 0 0 0 0 0.847059 0 0 0 0 0.803922 0 0 0 0.7 0"/>
<feBlend mode="normal" in2="effect1_dropShadow_2467_4246" result="effect2_dropShadow_2467_4246"/>
<feBlend mode="normal" in="SourceGraphic" in2="effect2_dropShadow_2467_4246" result="shape"/>
</filter>
<filter id="filter1_d_2467_4246" x="4.74121" y="6.13452" width="154.489" height="80.213" filterUnits="userSpaceOnUse" color-interpolation-filters="sRGB">
<feFlood flood-opacity="0" result="BackgroundImageFix"/>
<feColorMatrix in="SourceAlpha" type="matrix" values="0 0 0 0 0 0 0 0 0 0 0 0 0 0 0 0 0 0 127 0" result="hardAlpha"/>
<feOffset dy="1"/>
<feGaussianBlur stdDeviation="2"/>
<feComposite in2="hardAlpha" operator="out"/>
<feColorMatrix type="matrix" values="0 0 0 0 0.0969792 0 0 0 0 0.127894 0 0 0 0 0.2375 0 0 0 0.08 0"/>
<feBlend mode="normal" in2="BackgroundImageFix" result="effect1_dropShadow_2467_4246"/>
<feBlend mode="normal" in="SourceGraphic" in2="effect1_dropShadow_2467_4246" result="shape"/>
</filter>
</defs>
</svg>
