<svg width="163" height="93" viewBox="0 0 163 93" fill="none" xmlns="http://www.w3.org/2000/svg">
<g filter="url(#filter0_dd_2467_4185)">
<g filter="url(#filter1_d_2467_4185)">
<rect x="8.48779" y="9.13452" width="146.489" height="72.2131" rx="8.25292" fill="#FBFFFD"/>
</g>
<path d="M91.1783 35.5466L89.152 36.813L88.1584 36.3259C87.6128 36.0337 86.6581 35.5271 86.0541 35.1764L84.9435 34.5529L83.4238 35.3517C82.586 35.7999 81.4365 36.4233 80.8909 36.7156L79.8583 37.2611L78.9426 36.774C78.4165 36.5013 77.5592 36.0337 77.0332 35.7219L76.059 35.1569L74.0522 36.4818C72.9416 37.2027 72.0648 37.8651 72.1038 37.9431C72.1428 38.0405 72.8247 38.586 73.6235 39.1511L75.0848 40.2032L75.1432 45.6002L75.1822 51.0166L74.7341 51.4453C74.4808 51.6791 74.1106 51.9713 73.8963 52.0882C73.3897 52.4 73.5066 52.4779 76.2538 53.9197L78.5919 55.1277L80.3259 54.1535C82.5665 52.8676 82.625 52.8286 81.9625 52.322C81.417 51.9324 81.417 51.9324 81.417 49.5164V47.1004H82.6834H83.9499V48.9319V50.7828L83.2679 51.3478C82.7224 51.7765 82.625 51.9518 82.8198 52.1077C82.9562 52.2051 84.2616 52.926 85.7424 53.7054L88.3922 55.0887L90.3795 53.8807L92.3668 52.6727L91.8018 52.2051C90.2626 50.9387 90.3795 51.2115 90.3795 49.0098V46.9835L91.6265 45.1325L92.8929 43.3011L91.6849 43.2037L90.4769 43.1062L90.4185 40.6123C90.3795 38.9562 90.4379 38.1379 90.5743 38.1379C90.8861 38.1379 92.7955 39.1316 92.9513 39.3849C93.0293 39.5018 93.1072 42.3269 93.1072 45.6586V51.6986L93.6138 52.7312C94.1204 53.7249 95.192 54.7185 96.0687 55.0108C96.4389 55.1277 98.095 54.134 99.6343 52.8481L100.219 52.361L99.5953 51.8349C98.4068 50.8218 98.3678 50.51 98.3678 43.5349C98.3678 37.7677 98.3483 37.2027 98.0366 36.9299C97.5885 36.5597 93.5553 34.2412 93.3605 34.2412C93.2631 34.2412 92.2889 34.8257 91.1783 35.5466ZM89.9898 38.2743C89.9898 38.6834 90.0483 39.8525 90.1067 40.8656C90.2041 42.775 90.0093 43.6323 89.6001 43.0088C89.3858 42.6776 89.3274 37.8846 89.5417 37.6898C89.834 37.378 89.9898 37.5924 89.9898 38.2743ZM81.0273 44.7624C81.0273 48.5032 80.9494 51.5817 80.8715 51.5817C80.3064 51.5817 80.248 51.0166 80.248 44.8987C80.248 38.9367 80.3259 37.9431 80.8325 37.9431C80.9494 37.9431 81.0273 40.5149 81.0273 44.7624ZM82.7809 38.7224L83.9499 39.3069V41.1579C83.9499 42.6192 83.8914 43.0283 83.6381 43.1647C83.4823 43.2426 82.9172 43.983 82.3912 44.7818L81.417 46.2236V42.171C81.417 39.9499 81.456 38.1379 81.5144 38.1379C81.5729 38.1379 82.1379 38.4107 82.7809 38.7224ZM90.1457 49.0098C90.1847 50.51 90.1457 50.8023 89.8924 50.8023C89.7365 50.8023 89.6001 50.7828 89.5807 50.7439C89.5807 50.7244 89.5417 50.1009 89.4832 49.3605C89.3663 47.8213 89.5027 47.042 89.8534 47.1589C90.0093 47.1978 90.1067 47.8408 90.1457 49.0098Z" fill="#032123"/>
<path d="M24.1353 43.5737V52.166H27.6423C31.6365 52.166 32.6886 51.9127 33.955 50.6853C36.1762 48.542 36.8581 43.4763 35.5332 39.2094C35.0266 37.5922 34.0914 36.5206 32.5717 35.7607L31.2468 35.1178L27.7008 35.0593L24.1353 34.9814V43.5737ZM31.656 36.7154C33.429 37.6507 34.2863 39.2483 34.6759 42.2878C35.0072 44.8986 34.3252 48.2693 33.1757 49.6137C32.221 50.7437 31.2273 51.036 28.2658 51.0749L25.5965 51.0944L25.5381 43.7101C25.5186 39.4042 25.577 36.2673 25.6745 36.2089C25.7719 36.1504 26.9799 36.1309 28.3437 36.1894C30.4285 36.2868 30.9935 36.3647 31.656 36.7154Z" fill="#032123"/>
<path d="M54.4325 35.2542C54.374 35.3906 54.3545 39.2289 54.374 43.7881L54.4325 52.0686L55.0754 52.1271L55.6989 52.1855V43.6127V35.0204H55.1144C54.7832 35.0204 54.4714 35.1373 54.4325 35.2542Z" fill="#032123"/>
<path d="M130.419 35.9362C128.919 36.4233 127.613 36.8909 127.516 36.9688C127.418 37.0662 127.594 37.339 127.905 37.6118L128.47 38.0989L128.529 44.5285L128.587 50.9581L128.081 51.5621C127.788 51.8933 127.594 52.2635 127.633 52.3804C127.711 52.6142 132.562 54.8938 132.991 54.8938C133.322 54.8938 135.894 52.9649 136.05 52.5947C136.108 52.4389 135.738 52.0881 135.095 51.6595L134.023 50.9776V43.0087V35.0204L133.595 35.0399C133.341 35.0399 131.919 35.4491 130.419 35.9362Z" fill="#032123"/>
<path d="M50.3603 35.9167C49.9122 37.0663 50.5162 37.8846 51.6268 37.6508C52.1139 37.5339 52.2113 37.4365 52.1139 37.1052C52.0554 36.8714 51.997 36.4428 51.997 36.1311C51.997 35.644 51.9385 35.605 51.2371 35.605C50.7305 35.605 50.4383 35.7024 50.3603 35.9167Z" fill="#032123"/>
<path d="M121.768 36.2869C120.833 37.0857 120.56 38.5859 121.086 39.9693C121.164 40.1836 121.105 40.281 120.891 40.281C120.443 40.281 117.072 42.5801 117.072 42.8723C117.072 43.0087 117.501 43.3789 118.027 43.6907L118.962 44.2752L119.099 47.49C119.254 50.8217 119.138 51.5816 118.514 51.9323C117.891 52.283 118.397 52.7311 120.774 53.9196L123.132 55.0886L124.963 53.8222C125.976 53.1013 126.814 52.4388 126.814 52.3414C126.814 52.244 126.483 52.0102 126.074 51.7959C124.846 51.1724 124.846 51.1919 124.905 47.3731L124.963 43.8855L125.509 43.6322C125.801 43.4958 126.035 43.2815 126.035 43.1451C126.035 43.0087 125.197 42.4827 124.184 41.9761C123.171 41.45 122.333 40.9629 122.333 40.9045C122.352 40.8266 122.625 40.5928 122.956 40.3784C123.969 39.7355 124.71 38.6639 124.807 37.6897C124.905 36.9298 124.846 36.735 124.418 36.3063C123.716 35.6244 122.586 35.6049 121.768 36.2869Z" fill="#032123"/>
<path d="M41.3197 38.9172C40.1312 39.0925 38.9427 39.5991 38.8063 39.9888C38.7869 40.1057 38.8258 40.3005 38.9038 40.4369C39.0207 40.6122 39.4103 40.5733 40.6963 40.2615C42.5277 39.7939 44.1254 39.8329 45.1386 40.359C46.2296 40.924 46.4245 41.5085 46.366 44.1583L46.3465 44.9961L45.6841 44.4116C44.6125 43.4763 43.463 43.1451 41.7679 43.2425C39.9364 43.3594 38.7479 44.0219 37.8711 45.4247C37.3451 46.282 37.2866 46.5548 37.2866 47.8797C37.2866 49.1851 37.3646 49.4773 37.8711 50.3346C39.3714 52.7701 43.2291 53.1013 45.6451 50.9581L46.5414 50.1787V51.1724C46.5414 52.1466 46.5609 52.1661 47.1259 52.1661H47.7104V46.9055C47.7104 41.2552 47.6519 40.8071 46.7167 39.9498C45.6646 38.9951 43.6383 38.6054 41.3197 38.9172ZM44.3982 44.7038C45.6062 45.3273 46.1127 45.9313 46.3465 47.0224C46.9895 49.8865 43.8721 52.1856 40.8327 51.114C39.8974 50.7632 39.3909 50.3151 38.9233 49.3994C38.2608 48.094 38.6115 46.0287 39.6831 45.0935C40.8132 44.0803 42.8395 43.9245 44.3982 44.7038Z" fill="#032123"/>
<path d="M50.6138 39.2094C50.5359 39.9303 50.6138 51.9907 50.7113 52.1271C50.7697 52.244 51.062 52.2635 51.3347 52.1855L51.8608 52.0492L51.8413 45.7754C51.8413 42.3268 51.8218 39.4042 51.8218 39.3068C51.8023 39.112 50.6528 39.0146 50.6138 39.2094Z" fill="#032123"/>
<path d="M57.4526 39.2874C57.4526 39.4043 58.6411 42.2489 60.0829 45.6391C61.5247 49.0292 62.7132 51.9713 62.7132 52.1661C62.7132 52.3609 62.3625 53.2767 61.9339 54.2314C61.0961 56.0239 61.1156 56.4135 61.9923 56.1797C62.3041 56.1018 62.6158 55.7901 62.8691 55.2445C63.6874 53.4715 69.7274 39.6965 69.7663 39.4627C69.8053 39.3263 69.591 39.1899 69.2987 39.151C68.9285 39.112 68.6947 39.2094 68.4804 39.5407C68.3245 39.7939 67.214 42.2684 66.0255 45.0545C64.8175 47.8407 63.7848 50.1788 63.7069 50.2567C63.629 50.3346 62.5768 48.055 61.3689 45.1909C60.1414 42.3268 59.0308 39.7939 58.8749 39.5407C58.6996 39.2484 58.4268 39.112 58.0371 39.112C57.7059 39.112 57.4526 39.1899 57.4526 39.2874Z" fill="#032123"/>
<path d="M107.74 40.8656C104.155 42.7361 101.758 44.7818 100.979 46.6133C100.803 47.0225 100.628 48.172 100.57 49.1657C100.472 50.8608 100.492 51.0556 100.979 52.0493C101.661 53.4326 102.615 54.2314 104.252 54.7185L105.577 55.1277L107.175 53.8418C108.071 53.1403 108.889 52.5558 109.006 52.5558C109.123 52.5558 110.331 53.0819 111.675 53.7249C113.039 54.3678 114.286 54.8939 114.462 54.8939C114.754 54.8939 117.852 52.5753 117.852 52.361C117.852 52.1272 117.501 51.8155 116.644 51.2115C116.137 50.8802 115.65 50.4516 115.553 50.2568C115.475 50.0814 115.416 48.6201 115.436 47.042C115.475 44.2168 115.475 44.1389 115.981 43.6128C116.254 43.3206 116.488 42.9893 116.488 42.8724C116.488 42.5997 110.935 39.6966 110.389 39.6966C110.156 39.6966 108.967 40.2227 107.74 40.8656ZM107.701 43.2037C108.597 43.6518 109.474 44.626 109.493 45.2105C109.493 45.4443 109.493 46.9445 109.474 48.5617C109.454 50.9192 109.396 51.5232 109.162 51.718C108.655 52.0882 107.72 51.6206 106.317 50.2373C105.226 49.1657 104.973 48.776 104.7 47.8213C104.194 46.0483 104.7 43.9051 105.811 43.1257C106.395 42.7166 106.804 42.7361 107.701 43.2037Z" fill="#032123"/>
</g>
<defs>
<filter id="filter0_dd_2467_4185" x="0.487793" y="0.134521" width="162.489" height="92.213" filterUnits="userSpaceOnUse" color-interpolation-filters="sRGB">
<feFlood flood-opacity="0" result="BackgroundImageFix"/>
<feColorMatrix in="SourceAlpha" type="matrix" values="0 0 0 0 0 0 0 0 0 0 0 0 0 0 0 0 0 0 127 0" result="hardAlpha"/>
<feOffset dx="2" dy="5"/>
<feGaussianBlur stdDeviation="3"/>
<feComposite in2="hardAlpha" operator="out"/>
<feColorMatrix type="matrix" values="0 0 0 0 0.778872 0 0 0 0 0.845833 0 0 0 0 0.805656 0 0 0 0.7 0"/>
<feBlend mode="normal" in2="BackgroundImageFix" result="effect1_dropShadow_2467_4185"/>
<feColorMatrix in="SourceAlpha" type="matrix" values="0 0 0 0 0 0 0 0 0 0 0 0 0 0 0 0 0 0 127 0" result="hardAlpha"/>
<feOffset dx="-2" dy="-3"/>
<feGaussianBlur stdDeviation="3"/>
<feComposite in2="hardAlpha" operator="out"/>
<feColorMatrix type="matrix" values="0 0 0 0 0.780392 0 0 0 0 0.847059 0 0 0 0 0.803922 0 0 0 0.7 0"/>
<feBlend mode="normal" in2="effect1_dropShadow_2467_4185" result="effect2_dropShadow_2467_4185"/>
<feBlend mode="normal" in="SourceGraphic" in2="effect2_dropShadow_2467_4185" result="shape"/>
</filter>
<filter id="filter1_d_2467_4185" x="4.48779" y="6.13452" width="154.489" height="80.213" filterUnits="userSpaceOnUse" color-interpolation-filters="sRGB">
<feFlood flood-opacity="0" result="BackgroundImageFix"/>
<feColorMatrix in="SourceAlpha" type="matrix" values="0 0 0 0 0 0 0 0 0 0 0 0 0 0 0 0 0 0 127 0" result="hardAlpha"/>
<feOffset dy="1"/>
<feGaussianBlur stdDeviation="2"/>
<feComposite in2="hardAlpha" operator="out"/>
<feColorMatrix type="matrix" values="0 0 0 0 0.0969792 0 0 0 0 0.127894 0 0 0 0 0.2375 0 0 0 0.08 0"/>
<feBlend mode="normal" in2="BackgroundImageFix" result="effect1_dropShadow_2467_4185"/>
<feBlend mode="normal" in="SourceGraphic" in2="effect1_dropShadow_2467_4185" result="shape"/>
</filter>
</defs>
</svg>
