<svg width="164" height="93" viewBox="0 0 164 93" fill="none" xmlns="http://www.w3.org/2000/svg">
<g filter="url(#filter0_dd_2467_4263)">
<g filter="url(#filter1_d_2467_4263)">
<rect x="8.71973" y="9.13452" width="146.489" height="72.2131" rx="8.25292" fill="#FBFFFD"/>
</g>
<g clip-path="url(#clip0_2467_4263)">
<path d="M67.1296 44.0696V41.6639C67.1296 41.6144 67.1102 41.5668 67.0755 41.5313C67.0408 41.4959 66.9936 41.4755 66.9441 41.4745H65.4108C62.7421 41.4745 61.5479 43.3139 61.5479 45.1356V50.54C61.5502 50.6442 61.6335 50.7265 61.7372 50.7265H64.7948C64.9 50.7265 64.9846 50.6404 64.9846 50.5366V45.4384C64.9846 44.6971 65.4265 44.2556 66.1674 44.2556H66.979C67.0213 44.2463 67.0593 44.2229 67.0866 44.1891C67.1139 44.1554 67.1289 44.1134 67.1292 44.0701L67.1296 44.0696ZM83.4517 53.6032C83.0385 53.1919 82.7353 52.8667 82.3431 52.2258L82.3398 52.2211C82.0394 51.7112 81.8878 50.9221 81.8878 49.8738V36.8698C81.8878 36.7661 81.8008 36.6518 81.7018 36.679L78.595 37.7475V37.7484C78.5536 37.7585 78.5168 37.7823 78.4906 37.8159C78.4644 37.8495 78.4503 37.8909 78.4505 37.9335L78.4515 50.0254C78.4515 51.1507 78.5041 52.4372 79.1359 53.4832C79.6548 54.3732 80.4262 55.1461 81.1795 55.8912C81.2536 55.9558 81.3632 55.9534 81.4349 55.8865L83.4665 53.8548C83.4948 53.8182 83.509 53.7726 83.5063 53.7263C83.5037 53.6801 83.484 53.6364 83.4517 53.6032ZM75.6226 41.4731H73.8545C73.8054 41.4722 73.7585 41.4522 73.724 41.4172C73.6895 41.3823 73.6701 41.3352 73.6699 41.2861V38.67C73.6699 38.5653 73.5799 38.4471 73.48 38.4806L70.5913 39.5285C70.5577 39.5435 70.5291 39.5679 70.5092 39.5988C70.4892 39.6297 70.4787 39.6658 70.4789 39.7026L70.4483 41.2847L70.4469 41.2861C70.4469 41.3358 70.4274 41.3834 70.3926 41.4189C70.3578 41.4543 70.3105 41.4746 70.2608 41.4755H69.1819C69.1322 41.4766 69.085 41.4971 69.0502 41.5326C69.0154 41.568 68.9959 41.6157 68.9958 41.6654V44.0662C68.9958 44.1715 69.0805 44.2561 69.1842 44.2561H70.0499C70.1503 44.2618 70.2297 44.3431 70.2297 44.4455L70.2321 44.4493V47.8163C70.2321 49.9895 71.4053 51.8781 73.1294 52.8428C73.1988 52.8772 73.2834 52.8667 73.3427 52.8117L75.2385 50.9398C75.272 50.9038 75.2902 50.8562 75.2893 50.8071C75.2884 50.7579 75.2685 50.711 75.2338 50.6763C74.7736 50.3267 74.3955 49.8807 74.1259 49.3695C73.8563 48.8584 73.7018 48.2945 73.6732 47.7173C73.6708 47.6895 73.6684 46.2184 73.6684 44.4383C73.6684 44.3522 73.7258 44.281 73.8042 44.2571H75.6226C75.7278 44.2571 75.812 44.1724 75.812 44.0677V41.6663C75.8125 41.6411 75.808 41.6161 75.7987 41.5927C75.7894 41.5692 75.7755 41.5479 75.7579 41.5299C75.7402 41.5119 75.7192 41.4976 75.696 41.4879C75.6727 41.4781 75.6478 41.4731 75.6226 41.4731ZM102.53 40.4381C102.53 39.3128 102.477 38.0263 101.846 36.9803C101.327 36.0903 100.555 35.3174 99.802 34.5723C99.7665 34.5412 99.7206 34.5244 99.6734 34.5253C99.6262 34.5262 99.581 34.5446 99.5466 34.5771L97.515 36.6087C97.4868 36.6449 97.4727 36.69 97.4752 36.7358C97.4776 36.7816 97.4965 36.8249 97.5284 36.8579C97.9406 37.2692 98.2434 37.5944 98.637 38.2353L98.6403 38.2401C98.9412 38.7499 99.0923 39.539 99.0923 40.5874V49.9331C99.0923 50.9809 98.9397 51.7715 98.6403 52.2804L98.637 52.2851C98.2448 52.9265 97.9421 53.2522 97.5279 53.6625C97.496 53.6954 97.4772 53.7387 97.4748 53.7845C97.4724 53.8302 97.4867 53.8752 97.515 53.9112L99.5466 55.9429C99.6184 56.0113 99.7279 56.0122 99.8015 55.9477C100.555 55.2025 101.328 54.4301 101.845 53.5396C102.477 52.4956 102.53 51.2081 102.53 50.0823V40.4381ZM94.1509 50.0177V52.2105H90.7261V50.0177H85.2462V46.3781L89.0627 38.1191H92.762L88.7499 46.7689H90.7256V44.5775H94.1509V46.7689H95.6579V50.0177H94.1509Z" fill="#032123"/>
</g>
</g>
<defs>
<filter id="filter0_dd_2467_4263" x="0.719727" y="0.134521" width="162.489" height="92.213" filterUnits="userSpaceOnUse" color-interpolation-filters="sRGB">
<feFlood flood-opacity="0" result="BackgroundImageFix"/>
<feColorMatrix in="SourceAlpha" type="matrix" values="0 0 0 0 0 0 0 0 0 0 0 0 0 0 0 0 0 0 127 0" result="hardAlpha"/>
<feOffset dx="2" dy="5"/>
<feGaussianBlur stdDeviation="3"/>
<feComposite in2="hardAlpha" operator="out"/>
<feColorMatrix type="matrix" values="0 0 0 0 0.778872 0 0 0 0 0.845833 0 0 0 0 0.805656 0 0 0 0.7 0"/>
<feBlend mode="normal" in2="BackgroundImageFix" result="effect1_dropShadow_2467_4263"/>
<feColorMatrix in="SourceAlpha" type="matrix" values="0 0 0 0 0 0 0 0 0 0 0 0 0 0 0 0 0 0 127 0" result="hardAlpha"/>
<feOffset dx="-2" dy="-3"/>
<feGaussianBlur stdDeviation="3"/>
<feComposite in2="hardAlpha" operator="out"/>
<feColorMatrix type="matrix" values="0 0 0 0 0.780392 0 0 0 0 0.847059 0 0 0 0 0.803922 0 0 0 0.7 0"/>
<feBlend mode="normal" in2="effect1_dropShadow_2467_4263" result="effect2_dropShadow_2467_4263"/>
<feBlend mode="normal" in="SourceGraphic" in2="effect2_dropShadow_2467_4263" result="shape"/>
</filter>
<filter id="filter1_d_2467_4263" x="4.71973" y="6.13452" width="154.489" height="80.213" filterUnits="userSpaceOnUse" color-interpolation-filters="sRGB">
<feFlood flood-opacity="0" result="BackgroundImageFix"/>
<feColorMatrix in="SourceAlpha" type="matrix" values="0 0 0 0 0 0 0 0 0 0 0 0 0 0 0 0 0 0 127 0" result="hardAlpha"/>
<feOffset dy="1"/>
<feGaussianBlur stdDeviation="2"/>
<feComposite in2="hardAlpha" operator="out"/>
<feColorMatrix type="matrix" values="0 0 0 0 0.0969792 0 0 0 0 0.127894 0 0 0 0 0.2375 0 0 0 0.08 0"/>
<feBlend mode="normal" in2="BackgroundImageFix" result="effect1_dropShadow_2467_4263"/>
<feBlend mode="normal" in="SourceGraphic" in2="effect1_dropShadow_2467_4263" result="shape"/>
</filter>
<clipPath id="clip0_2467_4263">
<rect width="41.1304" height="22" fill="white" transform="translate(61.3994 34.2411)"/>
</clipPath>
</defs>
</svg>
