<svg width="156" height="95" viewBox="0 0 156 95" fill="none" xmlns="http://www.w3.org/2000/svg">
<g filter="url(#filter0_dd_2467_4234)">
<g filter="url(#filter1_d_2467_4234)">
<rect x="8.97852" y="9.24097" width="138.763" height="74" rx="8.25292" fill="#FBFFFD" shape-rendering="crispEdges"/>
<path d="M18.5393 44.1827V53.1033L24.1645 53.0403C29.6638 52.9773 29.7898 52.9773 30.8183 52.4526C32.2456 51.7389 33.1271 50.5215 33.4 48.8844C33.8198 46.5545 33.0222 44.6025 31.28 43.7209L30.6503 43.3851L31.238 43.0072C33.316 41.6429 33.1901 38.0327 31.0072 36.3745C29.8317 35.472 28.2575 35.2411 23.1151 35.2411H18.5393V44.1827ZM27.5649 39.6489C27.7957 39.8798 27.9847 40.3416 27.9847 40.6984C27.9847 41.8528 27.3969 42.1677 25.256 42.1677H23.3669V40.6984V39.2291H25.256C26.8722 39.2291 27.208 39.2921 27.5649 39.6489ZM28.0896 46.0507C28.8032 46.7434 28.8032 47.8768 28.0896 48.5905C27.5858 49.0733 27.4599 49.1152 25.5289 49.0523L23.4719 48.9893L23.4089 47.2472L23.3459 45.526H25.4659C27.4389 45.526 27.6278 45.568 28.0896 46.0507Z" fill="#032123"/>
<path d="M34.2812 44.1615V53.0822H36.5901H38.899V44.1615V35.2409H36.5901H34.2812V44.1615Z" fill="#032123"/>
<path d="M88.8972 44.0987L88.9602 52.9773H91.0591H93.1581L93.2211 52.3266L93.284 51.6969L94.0187 52.3686C95.8658 54.1317 99.2661 53.7329 100.819 51.592C102.624 49.0942 102.624 44.5184 100.798 41.8737C99.392 39.8168 96.4535 39.376 94.3335 40.9292L93.4729 41.5379V38.3895V35.241H91.1641H88.8552L88.8972 44.0987ZM96.5794 43.6998C97.8598 44.7493 97.7548 49.0102 96.4535 49.7029C95.341 50.2906 94.2286 49.8498 93.6619 48.6114C92.6124 46.2816 93.8508 42.9652 95.6559 43.322C95.9917 43.385 96.4115 43.5529 96.5794 43.6998Z" fill="#032123"/>
<path d="M107.934 40.0686C105.94 40.4044 104.072 41.8317 103.275 43.6158C102.981 44.2665 102.813 45.1691 102.75 46.3655C102.645 48.5064 103.149 50.1226 104.324 51.424C106.969 54.3625 112.762 54.0897 114.693 50.9412C115.008 50.4375 115.323 49.8288 115.407 49.5559C115.533 49.0941 115.512 49.0941 113.434 49.0941C111.377 49.0941 111.335 49.0941 110.684 49.7448C110.117 50.3325 109.928 50.3955 109.194 50.2905C108.732 50.2276 108.207 50.0596 108.018 49.8917C107.577 49.5349 107.053 48.2965 107.221 48.0236C107.305 47.8977 108.942 47.8347 111.461 47.8347C113.706 47.8557 115.596 47.8137 115.658 47.7508C115.91 47.5199 115.281 44.4134 114.798 43.4689C113.539 40.9711 110.726 39.5858 107.934 40.0686ZM110.537 43.8047C110.852 44.0986 111.104 44.5604 111.104 44.8332C111.104 45.295 111.062 45.316 109.11 45.316C108.018 45.316 107.116 45.232 107.116 45.1271C107.116 44.5604 107.598 43.8047 108.207 43.4269C109.047 42.9022 109.718 43.0281 110.537 43.8047Z" fill="#032123"/>
<path d="M44.6719 40.2576C41.6704 41.0342 39.9492 43.3641 39.9492 46.6384C39.9492 48.5275 40.2221 49.556 41.0407 50.7734C41.8593 52.0118 42.9717 52.7884 44.483 53.1872C46.7918 53.7749 48.9538 53.4601 50.612 52.2427C53.0887 50.4586 53.8444 46.5125 52.3121 43.427C51.2207 41.2861 49.5835 40.2786 46.8968 40.1526C46.0152 40.1107 45.0287 40.1526 44.6719 40.2576ZM47.4635 43.532C48.1142 43.9938 48.6389 45.9458 48.492 47.3521C48.2611 49.577 47.2326 50.7104 45.8893 50.2277C44.2101 49.64 43.8113 45.2112 45.3016 43.7209C45.8893 43.1332 46.7709 43.0702 47.4635 43.532Z" fill="#032123"/>
<path d="M57.8531 40.4465C54.9145 41.496 53.3403 44.1616 53.6551 47.583C53.886 50.0387 55.0615 51.8019 57.1184 52.8094C58.1679 53.3131 58.5667 53.3971 60.2039 53.3971C62.4918 53.3971 63.8771 52.8724 65.0525 51.571C66.3329 50.1437 66.7107 49.0732 66.6897 46.7854C66.6897 44.4345 66.2279 43.1122 64.9686 41.8948C63.2894 40.2576 60.1619 39.6279 57.8531 40.4465ZM61.2114 43.6369C62.4918 44.6654 62.5757 48.5485 61.3164 49.8708C60.4768 50.7524 59.2384 50.5005 58.6297 49.2831C58.1469 48.3596 58.042 45.4 58.4408 44.6234C59.1754 43.2171 60.2039 42.8603 61.2114 43.6369Z" fill="#032123"/>
<path d="M74.0574 40.3625C73.7005 40.5095 73.1128 40.9503 72.735 41.3071L72.0633 41.9997V41.2441V40.4885H69.8594H67.6555L67.6975 46.7224L67.7605 52.9773L70.0064 53.0403L72.2313 53.1033L72.3152 49.0103C72.3782 45.0223 72.3992 44.9173 72.8819 44.3926C73.5956 43.6369 74.6451 43.6369 75.1488 44.4136C75.4847 44.8963 75.5266 45.526 75.5476 48.9893L75.5686 52.9773H77.7515H79.9345L80.0394 48.8634C80.1234 45.1902 80.1863 44.6864 80.5432 44.2876C81.0679 43.6999 82.1594 43.6999 82.6841 44.2876C83.0409 44.6864 83.0829 45.1482 83.1459 48.9053L83.2089 53.0823H85.4128H87.6167L87.5537 47.9818L87.4907 42.9023L86.924 41.9158C85.5597 39.6279 81.7606 39.397 79.9974 41.496L79.4517 42.1467L78.906 41.454C78.6331 41.0762 78.0664 40.5934 77.6676 40.4045C76.786 40.0057 74.9389 39.9847 74.0574 40.3625Z" fill="#032123"/>
<path d="M123.173 40.3834C122.711 40.5513 121.976 41.0551 121.557 41.5169L120.759 42.3564V41.4329V40.4884H118.66H116.561V46.7853V53.0822H118.765H120.969V49.8707C120.969 46.9532 121.011 46.5754 121.452 45.7358C121.997 44.6233 122.963 44.0566 124.285 44.0566H125.188L125.125 42.1046C125.062 40.2155 125.041 40.1735 124.537 40.1315C124.243 40.0896 123.635 40.2155 123.173 40.3834Z" fill="#032123"/>
<path d="M128.336 40.5304C126.552 41.4119 125.523 43.5949 125.523 46.4704C125.544 49.3041 126.426 50.9622 128.42 51.9278C129.931 52.6834 131.61 52.6204 132.912 51.7598L133.772 51.1931V51.9278C133.772 52.8093 133.311 53.8168 132.828 54.0057C132.072 54.2996 131.065 54.1317 130.456 53.6069C129.889 53.1242 129.658 53.0822 127.811 53.0822C125.502 53.0822 125.481 53.1242 126.237 54.7194C127.077 56.4615 129.449 57.4061 132.45 57.2172C135.473 57.0282 137.299 55.7479 137.97 53.2921C138.075 52.8933 138.18 49.7868 138.18 46.4075V40.2785H136.081H133.982V40.9082C133.982 41.244 133.898 41.5379 133.772 41.5379C133.667 41.5379 133.562 41.4539 133.562 41.328C133.562 41.223 133.143 40.8872 132.66 40.5933C131.464 39.9007 129.658 39.8587 128.336 40.5304ZM132.996 43.8677C134.129 44.7493 134.234 47.2471 133.206 48.4645C132.744 49.0312 132.555 49.1151 131.82 49.0522C131.107 49.0102 130.876 48.8633 130.498 48.3175C129.889 47.415 129.721 46.3445 129.994 45.295C130.456 43.5949 131.82 42.9442 132.996 43.8677Z" fill="#032123"/>
</g>
</g>
<defs>
<filter id="filter0_dd_2467_4234" x="0.978516" y="0.240967" width="154.763" height="94" filterUnits="userSpaceOnUse" color-interpolation-filters="sRGB">
<feFlood flood-opacity="0" result="BackgroundImageFix"/>
<feColorMatrix in="SourceAlpha" type="matrix" values="0 0 0 0 0 0 0 0 0 0 0 0 0 0 0 0 0 0 127 0" result="hardAlpha"/>
<feOffset dx="2" dy="5"/>
<feGaussianBlur stdDeviation="3"/>
<feComposite in2="hardAlpha" operator="out"/>
<feColorMatrix type="matrix" values="0 0 0 0 0.778872 0 0 0 0 0.845833 0 0 0 0 0.805656 0 0 0 0.7 0"/>
<feBlend mode="normal" in2="BackgroundImageFix" result="effect1_dropShadow_2467_4234"/>
<feColorMatrix in="SourceAlpha" type="matrix" values="0 0 0 0 0 0 0 0 0 0 0 0 0 0 0 0 0 0 127 0" result="hardAlpha"/>
<feOffset dx="-2" dy="-3"/>
<feGaussianBlur stdDeviation="3"/>
<feComposite in2="hardAlpha" operator="out"/>
<feColorMatrix type="matrix" values="0 0 0 0 0.780392 0 0 0 0 0.847059 0 0 0 0 0.803922 0 0 0 0.7 0"/>
<feBlend mode="normal" in2="effect1_dropShadow_2467_4234" result="effect2_dropShadow_2467_4234"/>
<feBlend mode="normal" in="SourceGraphic" in2="effect2_dropShadow_2467_4234" result="shape"/>
</filter>
<filter id="filter1_d_2467_4234" x="4.97852" y="6.24097" width="146.763" height="82" filterUnits="userSpaceOnUse" color-interpolation-filters="sRGB">
<feFlood flood-opacity="0" result="BackgroundImageFix"/>
<feColorMatrix in="SourceAlpha" type="matrix" values="0 0 0 0 0 0 0 0 0 0 0 0 0 0 0 0 0 0 127 0" result="hardAlpha"/>
<feOffset dy="1"/>
<feGaussianBlur stdDeviation="2"/>
<feComposite in2="hardAlpha" operator="out"/>
<feColorMatrix type="matrix" values="0 0 0 0 0.0969792 0 0 0 0 0.127894 0 0 0 0 0.2375 0 0 0 0.08 0"/>
<feBlend mode="normal" in2="BackgroundImageFix" result="effect1_dropShadow_2467_4234"/>
<feBlend mode="normal" in="SourceGraphic" in2="effect1_dropShadow_2467_4234" result="shape"/>
</filter>
</defs>
</svg>
