<svg width="596" height="382" viewBox="0 0 596 382" fill="none" xmlns="http://www.w3.org/2000/svg">
<mask id="path-1-outside-1_3447_6914" maskUnits="userSpaceOnUse" x="0.799805" y="0" width="596" height="382" fill="black">
<rect fill="white" x="0.799805" width="596" height="382"/>
<path fill-rule="evenodd" clip-rule="evenodd" d="M373.313 1.37771C385.023 0.914963 408.057 5.84247 408.184 26.4724L408.97 31.9274C409.963 36.1261 416.78 44.6624 436.103 45.2179C435.852 45.0592 523.588 45.6674 567.487 45.9913C576.332 46.596 594.154 51.0657 594.773 64.1049C594.709 64.1278 594.707 64.1451 594.775 64.1559L594.773 64.1049C594.818 64.0886 594.895 64.0695 594.999 64.0479V245.133C593.29 248.761 590.599 251.844 587.223 254.027L408.754 369.447C406.769 370.394 404.988 371.403 403.212 372.409C398.26 375.214 393.34 378.001 384.095 379.384C382.44 379.631 380.894 379.834 379.456 380H119.057C106.008 376.915 105.937 373.031 105.814 366.311C105.78 364.468 105.743 362.412 105.433 360.1V339.723C105.433 326.075 94.3687 315.012 80.7207 315.012H65.6532H47.0621C45.1054 315.012 43.1133 315.047 41.1049 315.084C29.1026 315.3 16.516 315.526 7.42387 308.175C5.38057 306.522 3.71017 304.479 2.26289 301.868V8.99998C2.26289 4.5817 5.84461 1 10.2629 1H373.277L373.313 1.37771ZM440.79 1.47803C434.715 1.47803 429.79 6.40289 429.79 12.478V20.2009C429.79 26.276 434.715 31.2009 440.79 31.2009H583.536C589.611 31.2009 594.536 26.2761 594.536 20.2009V12.478C594.536 6.40289 589.611 1.47803 583.536 1.47803H440.79ZM18.7998 327.594C9.41097 327.594 1.7998 335.205 1.7998 344.594V363.478C1.7998 372.866 9.41096 380.478 18.7998 380.478H67.9194C77.3082 380.478 84.9194 372.866 84.9194 363.478V344.594C84.9194 335.205 77.3082 327.594 67.9194 327.594H18.7998ZM580.989 294.607L513.524 334.117L465.72 363.835C458.031 368.614 461.418 380.478 470.471 380.478H585.537C590.507 380.478 594.537 376.449 594.537 371.478V302.373C594.537 295.42 586.988 291.093 580.989 294.607Z"/>
</mask>
<path fill-rule="evenodd" clip-rule="evenodd" d="M373.313 1.37771C385.023 0.914963 408.057 5.84247 408.184 26.4724L408.97 31.9274C409.963 36.1261 416.78 44.6624 436.103 45.2179C435.852 45.0592 523.588 45.6674 567.487 45.9913C576.332 46.596 594.154 51.0657 594.773 64.1049C594.709 64.1278 594.707 64.1451 594.775 64.1559L594.773 64.1049C594.818 64.0886 594.895 64.0695 594.999 64.0479V245.133C593.29 248.761 590.599 251.844 587.223 254.027L408.754 369.447C406.769 370.394 404.988 371.403 403.212 372.409C398.26 375.214 393.34 378.001 384.095 379.384C382.44 379.631 380.894 379.834 379.456 380H119.057C106.008 376.915 105.937 373.031 105.814 366.311C105.78 364.468 105.743 362.412 105.433 360.1V339.723C105.433 326.075 94.3687 315.012 80.7207 315.012H65.6532H47.0621C45.1054 315.012 43.1133 315.047 41.1049 315.084C29.1026 315.3 16.516 315.526 7.42387 308.175C5.38057 306.522 3.71017 304.479 2.26289 301.868V8.99998C2.26289 4.5817 5.84461 1 10.2629 1H373.277L373.313 1.37771ZM440.79 1.47803C434.715 1.47803 429.79 6.40289 429.79 12.478V20.2009C429.79 26.276 434.715 31.2009 440.79 31.2009H583.536C589.611 31.2009 594.536 26.2761 594.536 20.2009V12.478C594.536 6.40289 589.611 1.47803 583.536 1.47803H440.79ZM18.7998 327.594C9.41097 327.594 1.7998 335.205 1.7998 344.594V363.478C1.7998 372.866 9.41096 380.478 18.7998 380.478H67.9194C77.3082 380.478 84.9194 372.866 84.9194 363.478V344.594C84.9194 335.205 77.3082 327.594 67.9194 327.594H18.7998ZM580.989 294.607L513.524 334.117L465.72 363.835C458.031 368.614 461.418 380.478 470.471 380.478H585.537C590.507 380.478 594.537 376.449 594.537 371.478V302.373C594.537 295.42 586.988 291.093 580.989 294.607Z" fill="#FBFFFD"/>
<path d="M408.184 26.4724L407.184 26.4785L407.185 26.5471L407.194 26.6149L408.184 26.4724ZM373.313 1.37771L372.317 1.47135L372.406 2.41433L373.352 2.37693L373.313 1.37771ZM408.97 31.9274L407.98 32.0699L407.986 32.1141L407.997 32.1576L408.97 31.9274ZM436.103 45.2179L436.074 46.2174L439.721 46.3223L436.638 44.3727L436.103 45.2179ZM567.487 45.9913L567.555 44.9936L567.525 44.9915L567.495 44.9913L567.487 45.9913ZM594.775 64.1559L594.619 65.1436L595.83 65.335L595.774 64.1104L594.775 64.1559ZM594.999 64.0479H595.999V62.8197L594.796 63.0687L594.999 64.0479ZM594.999 245.133L595.904 245.559L595.999 245.357V245.133H594.999ZM587.223 254.027L586.68 253.187L587.223 254.027ZM408.754 369.447L409.185 370.35L409.243 370.322L409.297 370.287L408.754 369.447ZM403.212 372.409L402.719 371.539L403.212 372.409ZM384.095 379.384L384.243 380.373L384.095 379.384ZM379.456 380V381H379.514L379.571 380.993L379.456 380ZM119.057 380L118.827 380.973L118.941 381H119.057V380ZM105.814 366.311L106.814 366.293L105.814 366.311ZM105.433 360.1H104.433V360.167L104.441 360.233L105.433 360.1ZM41.1049 315.084L41.1229 316.083H41.1229L41.1049 315.084ZM7.42387 308.175L8.05262 307.397H8.05261L7.42387 308.175ZM2.26289 301.868H1.26289V302.127L1.38829 302.353L2.26289 301.868ZM373.277 1L374.273 0.906367L374.188 0H373.277V1ZM513.524 334.117L513.019 333.254L513.007 333.261L512.996 333.268L513.524 334.117ZM580.989 294.607L580.483 293.744L580.989 294.607ZM465.72 363.835L466.248 364.684L465.72 363.835ZM409.184 26.4662C409.118 15.6862 403.028 9.00319 395.552 5.12752C388.122 1.27536 379.254 0.142157 373.273 0.378493L373.352 2.37693C379.082 2.15052 387.585 3.24969 394.632 6.90307C401.633 10.533 407.124 16.6287 407.184 26.4785L409.184 26.4662ZM409.96 31.7848L409.174 26.3298L407.194 26.6149L407.98 32.0699L409.96 31.7848ZM436.132 44.2183C417.06 43.6701 410.792 35.2853 409.943 31.6972L407.997 32.1576C409.134 36.9669 416.501 45.6548 436.074 46.2174L436.132 44.2183ZM567.495 44.9913C545.545 44.8293 512.636 44.5963 485.245 44.4236C471.55 44.3373 459.234 44.266 450.357 44.2262C445.919 44.2063 442.339 44.1943 439.877 44.1922C438.646 44.1912 437.692 44.1926 437.049 44.1969C436.728 44.199 436.48 44.2018 436.312 44.2054C436.23 44.2072 436.157 44.2094 436.101 44.2125C436.079 44.2137 436.032 44.2163 435.983 44.2228C435.98 44.2232 435.883 44.2338 435.773 44.2726C435.683 44.3089 435.398 44.5076 435.242 44.7072C435.103 45.1829 435.362 45.8893 435.569 46.063L436.638 44.3727C436.844 44.5458 437.102 45.2516 436.963 45.7267C436.808 45.9257 436.524 46.1238 436.436 46.1594C436.392 46.1736 436.322 46.1918 436.297 46.197C436.282 46.1999 436.254 46.2043 436.244 46.2057C436.212 46.2099 436.193 46.2104 436.21 46.2095C436.231 46.2083 436.277 46.2067 436.355 46.205C436.507 46.2016 436.743 46.1989 437.062 46.1968C437.697 46.1927 438.645 46.1912 439.875 46.1922C442.334 46.1943 445.911 46.2063 450.348 46.2262C459.223 46.266 471.538 46.3372 485.233 46.4236C512.622 46.5963 545.53 46.8293 567.48 46.9913L567.495 44.9913ZM595.772 64.0575C595.437 57.0103 590.441 52.384 584.663 49.491C578.873 46.5925 572.068 45.3021 567.555 44.9936L567.419 46.989C571.751 47.2851 578.28 48.5319 583.767 51.2794C589.266 54.0322 593.49 58.1603 593.774 64.1523L595.772 64.0575ZM594.435 63.1636C594.397 63.1772 594.308 63.2103 594.212 63.27C594.165 63.299 594.07 63.3616 593.977 63.467C593.887 63.5693 593.724 63.7983 593.724 64.1358C593.725 64.4969 593.91 64.7458 594.046 64.8726C594.171 64.9889 594.295 65.0459 594.353 65.0698C594.472 65.1196 594.579 65.1373 594.619 65.1436L594.931 63.1681C594.937 63.1691 595.018 63.1805 595.121 63.2233C595.17 63.2437 595.289 63.2971 595.409 63.4095C595.541 63.5323 595.724 63.7772 595.724 64.134C595.725 64.4672 595.564 64.6918 595.478 64.7895C595.389 64.8903 595.301 64.948 595.262 64.972C595.181 65.0217 595.117 65.044 595.111 65.0462L594.435 63.1636ZM595.774 64.1104L595.772 64.0594L593.774 64.1504L593.776 64.2013L595.774 64.1104ZM594.796 63.0687C594.69 63.0906 594.553 63.1214 594.435 63.1637L595.111 65.0461C595.098 65.0507 595.091 65.0527 595.092 65.0523C595.093 65.0521 595.098 65.0507 595.108 65.0482C595.128 65.0432 595.158 65.0361 595.202 65.0271L594.796 63.0687ZM595.999 245.133V64.0479H593.999V245.133H595.999ZM587.766 254.866C591.299 252.582 594.116 249.356 595.904 245.559L594.094 244.707C592.465 248.166 589.899 251.105 586.68 253.187L587.766 254.866ZM409.297 370.287L587.766 254.866L586.68 253.187L408.211 368.608L409.297 370.287ZM403.705 373.279C405.485 372.271 407.236 371.279 409.185 370.35L408.324 368.545C406.302 369.509 404.492 370.535 402.719 371.539L403.705 373.279ZM384.243 380.373C393.671 378.963 398.719 376.103 403.705 373.279L402.719 371.539C397.802 374.325 393.009 377.04 383.947 378.395L384.243 380.373ZM379.571 380.993C381.02 380.826 382.577 380.622 384.243 380.373L383.947 378.395C382.304 378.64 380.769 378.842 379.342 379.006L379.571 380.993ZM119.057 381H379.456V379H119.057V381ZM104.814 366.33C104.874 369.608 104.894 372.619 106.791 375.122C108.682 377.618 112.272 379.423 118.827 380.973L119.288 379.026C112.793 377.491 109.823 375.812 108.385 373.915C106.953 372.025 106.877 369.734 106.814 366.293L104.814 366.33ZM104.441 360.233C104.743 362.481 104.781 364.484 104.814 366.33L106.814 366.293C106.78 364.453 106.743 362.343 106.424 359.967L104.441 360.233ZM104.433 339.723V360.1H106.433V339.723H104.433ZM80.7207 316.012C93.8164 316.012 104.433 326.628 104.433 339.723H106.433C106.433 325.523 94.921 314.012 80.7207 314.012V316.012ZM65.6532 316.012H80.7207V314.012H65.6532V316.012ZM47.0621 316.012H65.6532V314.012H47.0621V316.012ZM41.1229 316.083C43.133 316.047 45.116 316.012 47.0621 316.012V314.012C45.0949 314.012 43.0937 314.048 41.0869 314.084L41.1229 316.083ZM6.79512 308.952C11.5276 312.779 17.1389 314.606 23.0301 315.457C28.9078 316.306 35.1381 316.191 41.1229 316.083L41.0869 314.084C35.0694 314.192 29.0052 314.299 23.316 313.477C17.6403 312.657 12.4123 310.922 8.05262 307.397L6.79512 308.952ZM1.38829 302.353C2.88919 305.06 4.63869 307.209 6.79512 308.952L8.05261 307.397C6.12246 305.836 4.53114 303.897 3.13748 301.383L1.38829 302.353ZM1.26289 8.99998V301.868H3.26289V8.99998H1.26289ZM10.2629 0C5.29233 0 1.26289 4.02941 1.26289 8.99998H3.26289C3.26289 5.13399 6.39689 2 10.2629 2V0ZM373.277 0H10.2629V2H373.277V0ZM374.308 1.28408L374.273 0.906367L372.282 1.09363L372.317 1.47135L374.308 1.28408ZM430.79 12.478C430.79 6.95518 435.267 2.47803 440.79 2.47803V0.478027C434.162 0.478027 428.79 5.85061 428.79 12.478H430.79ZM430.79 20.2009V12.478H428.79V20.2009H430.79ZM440.79 30.2009C435.267 30.2009 430.79 25.7238 430.79 20.2009H428.79C428.79 26.8283 434.162 32.2009 440.79 32.2009V30.2009ZM583.536 30.2009H440.79V32.2009H583.536V30.2009ZM593.536 20.2009C593.536 25.7238 589.059 30.2009 583.536 30.2009V32.2009C590.163 32.2009 595.536 26.8283 595.536 20.2009H593.536ZM593.536 12.478V20.2009H595.536V12.478H593.536ZM583.536 2.47803C589.059 2.47803 593.536 6.95519 593.536 12.478H595.536C595.536 5.8506 590.163 0.478027 583.536 0.478027V2.47803ZM440.79 2.47803H583.536V0.478027H440.79V2.47803ZM2.7998 344.594C2.7998 335.757 9.96325 328.594 18.7998 328.594V326.594C8.85868 326.594 0.799805 334.653 0.799805 344.594H2.7998ZM2.7998 363.478V344.594H0.799805V363.478H2.7998ZM18.7998 379.478C9.96324 379.478 2.7998 372.314 2.7998 363.478H0.799805C0.799805 373.419 8.85867 381.478 18.7998 381.478V379.478ZM67.9194 379.478H18.7998V381.478H67.9194V379.478ZM83.9194 363.478C83.9194 372.314 76.7559 379.478 67.9194 379.478V381.478C77.8605 381.478 85.9194 373.419 85.9194 363.478H83.9194ZM83.9194 344.594V363.478H85.9194V344.594H83.9194ZM67.9194 328.594C76.756 328.594 83.9194 335.757 83.9194 344.594H85.9194C85.9194 334.653 77.8605 326.594 67.9194 326.594V328.594ZM18.7998 328.594H67.9194V326.594H18.7998V328.594ZM514.03 334.98L581.494 295.469L580.483 293.744L513.019 333.254L514.03 334.98ZM466.248 364.684L514.052 334.967L512.996 333.268L465.192 362.985L466.248 364.684ZM470.471 379.478C462.424 379.478 459.413 368.933 466.248 364.684L465.192 362.985C456.648 368.296 460.412 381.478 470.471 381.478V379.478ZM585.537 379.478H470.471V381.478H585.537V379.478ZM593.537 371.478C593.537 375.896 589.955 379.478 585.537 379.478V381.478C591.06 381.478 595.537 377.001 595.537 371.478H593.537ZM593.537 302.373V371.478H595.537V302.373H593.537ZM581.494 295.469C586.827 292.346 593.537 296.192 593.537 302.373H595.537C595.537 294.647 587.15 289.839 580.483 293.744L581.494 295.469Z" fill="#656565" mask="url(#path-1-outside-1_3447_6914)"/>
</svg>
