<svg width="121" height="120" viewBox="0 0 121 120" fill="none" xmlns="http://www.w3.org/2000/svg">
<g id="Image" filter="url(#filter0_b_3447_6985)">
<g id="Group 1000005932">
<g id="Group 1000005931">
<g id="Rectangle 6596">
<mask id="path-2-inside-1_3447_6985" fill="white">
<path d="M24.7295 39.8096L59.7371 20.0001L95.6824 39.5137L60.6748 59.3231L24.7295 39.8096Z"/>
</mask>
<path d="M24.7295 39.8096L59.7371 20.0001L95.6824 39.5137L60.6748 59.3231L24.7295 39.8096Z" fill="white"/>
<path d="M59.7371 20.0001L60.1722 19.7539L59.7328 19.5153L59.2977 19.7615L59.7371 20.0001ZM25.1689 40.0481L60.1765 20.2386L59.2977 19.7615L24.2901 39.571L25.1689 40.0481ZM59.3019 20.2463L95.2472 39.7599L96.1176 39.2674L60.1722 19.7539L59.3019 20.2463Z" fill="black" mask="url(#path-2-inside-1_3447_6985)"/>
</g>
<path id="Rectangle 6599" d="M28.6549 82.8718C26.228 81.5544 26.2089 79.3839 28.6122 78.0239L54.9166 63.1393C57.3199 61.7793 61.2356 61.7449 63.6625 63.0624L90.8193 77.8049C93.2462 79.1224 93.2653 81.2929 90.8619 82.6528L64.5576 97.5375C62.1542 98.8974 58.2386 98.9319 55.8117 97.6144L28.6549 82.8718Z" fill="#131313"/>
<path id="Rectangle 6597" d="M25.7072 72.8354L24.9559 40.1879L60.4561 59.4487V92.0971L25.7072 72.8354Z" fill="white" stroke="black" stroke-width="0.5"/>
<path id="Rectangle 6598" d="M60.8534 92.1095L60.8059 59.4319L94.9499 39.8723L95.592 72.8536L60.8534 92.1095Z" fill="white" stroke="black" stroke-width="0.5" stroke-linejoin="round"/>
</g>
<g id="Rectangle 6599_2">
<mask id="path-7-inside-2_3447_6985" fill="white">
<path d="M66.5028 69.21C66.5028 67.5531 67.666 65.5384 69.1009 64.71L86.5727 54.6226C88.0076 53.7941 89.1708 54.4657 89.1708 56.1226V56.323C89.1708 57.9799 88.0076 59.9946 86.5727 60.823L69.1009 70.9104C67.666 71.7388 66.5028 71.0673 66.5028 69.4104V69.21Z"/>
</mask>
<path d="M66.5028 69.21C66.5028 67.5531 67.666 65.5384 69.1009 64.71L86.5727 54.6226C88.0076 53.7941 89.1708 54.4657 89.1708 56.1226V56.323C89.1708 57.9799 88.0076 59.9946 86.5727 60.823L69.1009 70.9104C67.666 71.7388 66.5028 71.0673 66.5028 69.4104V69.21Z" fill="#131313"/>
<path d="M66.5028 66.21L89.1708 53.1226L66.5028 66.21ZM89.1708 56.323C89.1708 58.5321 87.6199 61.2184 85.7067 62.323L69.9669 71.4104C68.0537 72.515 66.5028 71.6195 66.5028 69.4104C66.5028 70.515 67.666 70.7388 69.1009 69.9104L86.5727 59.823C88.0076 58.9946 89.1708 57.4276 89.1708 56.323ZM66.5028 72.4104V66.21V72.4104ZM89.1708 53.1226V59.323V53.1226Z" fill="#B9B0B0" mask="url(#path-7-inside-2_3447_6985)"/>
</g>
<g id="Rectangle 6600">
<mask id="path-9-inside-3_3447_6985" fill="white">
<path d="M29.5167 56.1226C29.5167 54.4657 30.6799 53.7941 32.1147 54.6226L49.5866 64.71C51.0215 65.5384 52.1847 67.5531 52.1847 69.21V69.4104C52.1847 71.0673 51.0215 71.7388 49.5866 70.9104L32.1147 60.823C30.6799 59.9946 29.5167 57.9799 29.5167 56.323V56.1226Z"/>
</mask>
<path d="M29.5167 56.1226C29.5167 54.4657 30.6799 53.7941 32.1147 54.6226L49.5866 64.71C51.0215 65.5384 52.1847 67.5531 52.1847 69.21V69.4104C52.1847 71.0673 51.0215 71.7388 49.5866 70.9104L32.1147 60.823C30.6799 59.9946 29.5167 57.9799 29.5167 56.323V56.1226Z" fill="#131313"/>
<path d="M29.5167 53.1226L52.1847 66.21L29.5167 53.1226ZM52.1847 69.4104C52.1847 71.6195 50.6338 72.515 48.7206 71.4104L32.9808 62.323C31.0676 61.2184 29.5167 58.5321 29.5167 56.323C29.5167 57.4276 30.6799 58.9946 32.1147 59.823L49.5866 69.9104C51.0215 70.7388 52.1847 70.515 52.1847 69.4104ZM29.5167 59.323V53.1226V59.323ZM52.1847 66.21V72.4104V66.21Z" fill="#B9B0B0" mask="url(#path-9-inside-3_3447_6985)"/>
</g>
<g id="Vector">
<path d="M37.9702 39.3498C37.5819 39.1616 37.5753 38.8442 37.9554 38.6408L54.6004 29.739C55.6454 29.1801 57.358 29.1465 58.4254 29.6639L60.1696 30.5094C61.166 30.9924 61.7472 31.6582 61.792 32.3678L62.2474 39.5774L53.816 35.4903L46.9281 39.174C44.4807 40.4829 40.4701 40.5617 37.9702 39.3498Z" fill="#00C27C"/>
<path d="M77.5329 38.9268C77.9212 39.115 77.9278 39.4324 77.5476 39.6358L60.9027 48.5376C59.8577 49.0965 58.1451 49.1301 57.0777 48.6127L55.3335 47.7672C54.3371 47.2842 53.7559 46.6184 53.7111 45.9088L53.2557 38.6992L61.687 42.7863L68.575 39.1026C71.0224 37.7937 75.033 37.7149 77.5329 38.9268Z" fill="#00C27C"/>
</g>
</g>
</g>
<defs>
<filter id="filter0_b_3447_6985" x="-3.96198" y="-4" width="128" height="128" filterUnits="userSpaceOnUse" color-interpolation-filters="sRGB">
<feFlood flood-opacity="0" result="BackgroundImageFix"/>
<feGaussianBlur in="BackgroundImageFix" stdDeviation="2"/>
<feComposite in2="SourceAlpha" operator="in" result="effect1_backgroundBlur_3447_6985"/>
<feBlend mode="normal" in="SourceGraphic" in2="effect1_backgroundBlur_3447_6985" result="shape"/>
</filter>
</defs>
</svg>
