<svg width="121" height="121" viewBox="0 0 121 121" fill="none" xmlns="http://www.w3.org/2000/svg">
<mask id="path-2-inside-1_2467_4358" fill="white">
<path d="M23.4492 38.0083L60.01 17.3199L97.5502 37.6993L60.9894 58.3877L23.4492 38.0083Z"/>
</mask>
<path d="M23.4492 38.0083L60.01 17.3199L97.5502 37.6993L60.9894 58.3877L23.4492 38.0083Z" fill="white"/>
<path d="M60.01 17.3199L60.4452 17.0737L60.0058 16.8351L59.5706 17.0814L60.01 17.3199ZM23.8886 38.2469L60.4495 17.5585L59.5706 17.0814L23.0098 37.7698L23.8886 38.2469ZM59.5749 17.5661L97.1151 37.9455L97.9854 37.453L60.4452 17.0737L59.5749 17.5661Z" fill="black" mask="url(#path-2-inside-1_2467_4358)"/>
<path d="M28.9509 83.4089C26.524 82.0915 26.5049 79.921 28.9083 78.561L55.2126 63.6764C57.6159 62.3164 61.5316 62.282 63.9585 63.5995L91.1153 78.342C93.5422 79.6595 93.5613 81.83 91.1579 83.1899L64.8536 98.0746C62.4503 99.4345 58.5346 99.469 56.1077 98.1515L28.9509 83.4089Z" fill="#131313"/>
<path d="M24.4608 72.5052L23.6757 38.3868L60.7706 58.5128L60.7706 92.6321L24.4608 72.5052Z" fill="white" stroke="black" stroke-width="0.5"/>
<path d="M61.1671 92.6452L61.1174 58.4957L96.7956 38.0573L97.4666 72.5241L61.1671 92.6452Z" fill="white" stroke="black" stroke-width="0.5" stroke-linejoin="round"/>
<path d="M67.6055 62.6589C67.6041 61.6758 68.2939 60.4906 69.1543 59.9977L88.9847 48.6377C89.8505 48.1418 90.5651 48.532 90.5842 49.5113L90.9456 68.0764C90.965 69.075 90.2547 70.299 89.3717 70.7885L69.2066 81.9662C68.3381 82.4476 67.6337 82.034 67.6322 81.0418L67.6055 62.6589Z" fill="#00C27C" stroke="#403E3E" stroke-width="0.4" stroke-linejoin="round"/>
<path d="M83.0979 60.3867L77.2869 63.6763L77.2477 62.1929C77.2314 61.5748 77.4058 60.9429 77.771 60.297C78.1362 59.6511 78.5878 59.1759 79.1259 58.8713C79.6639 58.5667 80.127 58.5242 80.5151 58.7436C80.9031 58.963 81.1053 59.3818 81.1217 59.9998L82.413 59.2688C82.3859 58.2428 82.048 57.5464 81.3994 57.1797C80.7507 56.8129 79.9798 56.8823 79.0867 57.388C78.1935 57.8936 77.4417 58.6862 76.8313 59.7657C76.2209 60.8452 75.9293 61.8979 75.9564 62.9239L75.9956 64.4073L75.3499 64.7728C74.9948 64.9738 74.6947 65.2912 74.4495 65.7248C74.2043 66.1585 74.087 66.5793 74.0978 66.9872L74.2939 74.404C74.3047 74.8119 74.4404 75.0896 74.7009 75.2369C74.9615 75.3842 75.2693 75.3574 75.6244 75.1564L83.3724 70.7702C83.7275 70.5692 84.0277 70.2519 84.2729 69.8182C84.5181 69.3846 84.6353 68.9638 84.6245 68.5558L84.4284 61.139C84.4176 60.7311 84.282 60.4535 84.0214 60.3061C83.7608 60.1588 83.453 60.1856 83.0979 60.3867ZM83.3332 69.2869L75.5852 73.673L75.3892 66.2562L83.1371 61.87L83.3332 69.2869ZM79.4004 69.2549C79.0453 69.4559 78.7374 69.4828 78.4769 69.3354C78.2163 69.1881 78.0806 68.9105 78.0698 68.5025C78.0591 68.0946 78.1763 67.6738 78.4215 67.2402C78.6667 66.8065 78.9668 66.4892 79.3219 66.2881C79.6771 66.0871 79.9849 66.0603 80.2455 66.2076C80.506 66.3549 80.6417 66.6326 80.6525 67.0405C80.6633 67.4484 80.5461 67.8692 80.3009 68.3029C80.0557 68.7365 79.7555 69.0538 79.4004 69.2549Z" fill="white"/>
</svg>
