<svg width="121" height="121" viewBox="0 0 121 121" fill="none" xmlns="http://www.w3.org/2000/svg">
<g filter="url(#filter0_b_2467_4384)">
<g filter="url(#filter1_f_2467_4384)">
<path d="M59.457 77.8716L80.6879 88.9563L60.2435 99.1218L39.6919 88.0333L59.457 77.8716Z" fill="black"/>
</g>
<g filter="url(#filter2_f_2467_4384)">
<path d="M40.507 98.7568C48.4772 94.6592 64.8724 94.8855 73.1502 99.2074L73.7208 99.5053C79.2253 102.379 79.2889 106.214 73.8767 108.905C65.7294 112.956 49.3131 112.63 41.2055 108.255L40.6473 107.954C35.4049 105.126 35.3482 101.409 40.507 98.7568Z" fill="#232323"/>
</g>
<path d="M41.4514 28.6187L30.1016 35.1378C30.9627 36.947 32.1774 37.7964 33.703 39.4569L52.5841 32.0375L76.2451 52.8598V86.8457L70.2701 96.1798C77.3137 95.2393 84.8379 88.4604 89.3022 83.4063C90.9852 81.501 91.7981 79.0146 91.8266 76.4726C91.9463 65.8119 92.0661 50.4278 91.9328 44.7658C91.8981 43.2933 90.9908 42.7153 89.6411 42.1256C84.625 39.9341 74.8549 30.6017 68.7199 24.2512C67.525 23.0144 65.6825 22.6515 64.1194 23.3685L56.0913 27.0512C55.1757 27.4712 54.1801 27.6886 53.1727 27.6886H44.9378C43.7144 27.6886 42.5123 28.0093 41.4514 28.6187Z" fill="url(#paint0_linear_2467_4384)" stroke="black"/>
<path d="M30.1016 72.1288V35.1344C32.6376 39.823 46.6379 32.3931 51.6981 30.0244C52.8657 29.4778 53.9285 29.9576 54.751 30.9503C60.6727 38.0967 70.8099 45.5702 76.4809 49.2974C77.3602 49.8753 77.8888 50.8485 77.8688 51.9006C77.7025 60.6898 77.513 74.2294 77.6125 81.3541C77.6474 83.8491 77.4846 88.4294 76.1835 90.5585C70.2892 100.204 52.8946 103.257 53.5236 102.627C40.1387 93.4467 32.7175 80.0109 30.3745 73.7173C30.1849 73.208 30.1016 72.6723 30.1016 72.1288Z" fill="white" stroke="black"/>
<path d="M42.3828 68.5689V51.0068C43.4847 53.044 49.0388 50.3749 51.9625 48.9628C53.1234 48.4021 54.1687 48.7876 55.0341 49.7432C57.6984 52.6848 61.5997 55.6357 64.2038 57.4067C65.0739 57.9984 65.6064 58.9786 65.5875 60.0307C65.5279 63.3555 65.4676 67.7207 65.4657 71.0135C65.4642 73.5087 65.0532 78.1539 63.1965 79.8209C59.6139 83.0377 53.5082 84.0777 53.7688 83.8167C47.5286 79.5366 43.9548 73.3538 42.6679 70.1558C42.465 69.6516 42.3828 69.1124 42.3828 68.5689Z" fill="#00C27C" stroke="black"/>
<path d="M80.6618 62.4203L88.6862 60.9203" stroke="black"/>
<path d="M81.0436 69.3881L89.0597 67.8444" stroke="black"/>
<path d="M80.9456 66.0818L88.9275 64.3697" stroke="black"/>
<path d="M81.5504 72.8289L89.5767 71.3395" stroke="black"/>
<ellipse cx="4.0688" cy="4.07409" rx="4.0688" ry="4.07409" transform="matrix(0.961666 0.274224 -0.0330136 0.999455 49.6758 55.9502)" fill="white"/>
<path d="M46.9166 69.9319C46.9447 69.08 47.1327 68.2822 47.4696 67.5838C47.8066 66.8855 48.2861 66.3004 48.8806 65.8619C49.4751 65.4234 50.1731 65.1401 50.9346 65.0282C51.6962 64.9163 52.5064 64.9779 53.319 65.2097C54.1317 65.4414 54.9308 65.8386 55.6708 66.3787C56.4108 66.9188 57.0772 67.5912 57.632 68.3574C58.1867 69.1236 58.6189 69.9687 58.9039 70.8444C59.1889 71.7201 59.3211 72.6092 59.2929 73.4611L53.1048 71.6965L46.9166 69.9319Z" fill="white"/>
</g>
<defs>
<filter id="filter0_b_2467_4384" x="-3.95898" y="-3.50269" width="128" height="128" filterUnits="userSpaceOnUse" color-interpolation-filters="sRGB">
<feFlood flood-opacity="0" result="BackgroundImageFix"/>
<feGaussianBlur in="BackgroundImageFix" stdDeviation="2"/>
<feComposite in2="SourceAlpha" operator="in" result="effect1_backgroundBlur_2467_4384"/>
<feBlend mode="normal" in="SourceGraphic" in2="effect1_backgroundBlur_2467_4384" result="shape"/>
</filter>
<filter id="filter1_f_2467_4384" x="37.2919" y="75.4716" width="45.7961" height="26.0502" filterUnits="userSpaceOnUse" color-interpolation-filters="sRGB">
<feFlood flood-opacity="0" result="BackgroundImageFix"/>
<feBlend mode="normal" in="SourceGraphic" in2="BackgroundImageFix" result="shape"/>
<feGaussianBlur stdDeviation="1.2" result="effect1_foregroundBlur_2467_4384"/>
</filter>
<filter id="filter2_f_2467_4384" x="35.6763" y="94.8196" width="43.2168" height="17.9309" filterUnits="userSpaceOnUse" color-interpolation-filters="sRGB">
<feFlood flood-opacity="0" result="BackgroundImageFix"/>
<feBlend mode="normal" in="SourceGraphic" in2="BackgroundImageFix" result="shape"/>
<feGaussianBlur stdDeviation="0.5" result="effect1_foregroundBlur_2467_4384"/>
</filter>
<linearGradient id="paint0_linear_2467_4384" x1="42.1664" y1="22.1682" x2="97.1377" y2="89.5904" gradientUnits="userSpaceOnUse">
<stop stop-color="#F7FAE9"/>
<stop offset="0.465417" stop-color="#B3B3B3"/>
<stop offset="0.606491" stop-color="#EBE9E9"/>
<stop offset="1" stop-color="#EBE9E9"/>
</linearGradient>
</defs>
</svg>
