<svg width="121" height="120" viewBox="0 0 121 120" fill="none" xmlns="http://www.w3.org/2000/svg">
<g id="Image">
<g id="Group 1000005922">
<g id="Group 1000005932">
<g id="Group 1000005931">
<g id="Rectangle 6596">
<mask id="path-2-inside-1_3447_6959" fill="white">
<path d="M97.9498 37.4717L61.389 16.7833L23.8488 37.1626L60.4097 57.851L97.9498 37.4717Z"/>
</mask>
<path d="M97.9498 37.4717L61.389 16.7833L23.8488 37.1626L60.4097 57.851L97.9498 37.4717Z" fill="white"/>
<path d="M61.389 16.7833L60.9538 16.537L61.3933 16.2985L61.8284 16.5447L61.389 16.7833ZM97.5104 37.7102L60.9496 17.0218L61.8284 16.5447L98.3893 37.2331L97.5104 37.7102ZM61.8242 17.0295L24.284 37.4089L23.4137 36.9164L60.9538 16.537L61.8242 17.0295Z" fill="black" mask="url(#path-2-inside-1_3447_6959)"/>
</g>
<path id="Rectangle 6599" d="M92.4482 82.8723C94.875 81.5548 94.8941 79.3844 92.4908 78.0244L66.1864 63.1398C63.7831 61.7798 59.8674 61.7454 57.4406 63.0628L30.2837 77.8054C27.8569 79.1229 27.8378 81.2934 30.2411 82.6533L56.5455 97.538C58.9488 98.8979 62.8644 98.9324 65.2913 97.6149L92.4482 82.8723Z" fill="#131313"/>
<path id="Rectangle 6597" d="M96.9382 71.9686L97.7233 37.8502L60.6284 57.9762L60.6284 92.0955L96.9382 71.9686Z" fill="white" stroke="black" stroke-width="0.5"/>
<path id="Rectangle 6598" d="M60.2321 92.1089L60.2817 57.9593L24.6035 37.5209L23.9326 71.9877L60.2321 92.1089Z" fill="white" stroke="black" stroke-width="0.5" stroke-linejoin="round"/>
<path id="Rectangle 6600" d="M53.7935 62.1221C53.795 61.139 53.1052 59.9537 52.2447 59.4608L32.4143 48.1009C31.5486 47.6049 30.8339 47.9952 30.8149 48.9744L30.4535 67.5395C30.434 68.5382 31.1444 69.7621 32.0274 70.2516L52.1925 81.4293C53.0609 81.9107 53.7654 81.4971 53.7668 80.505L53.7935 62.1221Z" fill="#00C27C" stroke="#403E3E" stroke-width="0.4" stroke-linejoin="round"/>
</g>
</g>
</g>
<path id="Vector" d="M39.8566 70.6406L39.9234 69.0454L45.4321 72.2771L45.6693 66.6138C45.7344 65.0584 45.322 63.4646 44.432 61.8325C43.5421 60.2003 42.4257 58.9903 41.083 58.2026C39.7402 57.4149 38.5785 57.2884 37.5978 57.8231C36.6171 58.3579 36.0941 59.4029 36.029 60.9583L35.8252 65.8239L35.1366 65.42C34.7579 65.1978 34.4402 64.8514 34.1836 64.3808C33.927 63.9101 33.8079 63.4555 33.8263 63.0168L33.8931 61.4215C33.9048 61.1423 33.976 60.9151 34.1068 60.7399C34.2376 60.5646 34.4151 60.4678 34.6393 60.4495L34.7352 59.423C34.8649 58.5728 35.1266 57.8683 35.5204 57.3093C35.9142 56.7503 36.3956 56.3449 36.9647 56.0931C37.5338 55.8413 38.1779 55.7628 38.8971 55.8578C39.6162 55.9528 40.366 56.2293 41.1464 56.6871C41.9268 57.1449 42.6604 57.7387 43.3471 58.4684C44.0338 59.1982 44.6408 60.0072 45.168 60.8953C45.6952 61.7835 46.1205 62.7174 46.444 63.6972C46.7675 64.677 46.962 65.6492 47.0274 66.6137L47.0356 67.681C47.2487 67.9285 47.4104 68.2073 47.5209 68.5173C47.6314 68.8273 47.6811 69.1152 47.6699 69.3811L47.5931 71.2157C47.582 71.4816 47.5111 71.6988 47.3806 71.8674C47.2501 72.036 47.0733 72.1162 46.8502 72.1079L46.8093 73.085C46.7909 73.5237 46.6404 73.8201 46.3576 73.9743C46.0748 74.1285 45.7441 74.0945 45.3653 73.8723L39.8566 70.6406ZM38.7132 64.2492C38.5181 64.1348 38.3578 63.9624 38.2322 63.7321C38.1066 63.5018 38.0486 63.2736 38.058 63.0476C38.0675 62.8216 38.1414 62.6709 38.2798 62.5955C38.4182 62.52 38.5849 62.5395 38.78 62.654C38.9751 62.7684 39.1355 62.9408 39.261 63.1711C39.3866 63.4014 39.4447 63.6296 39.4352 63.8556C39.4257 64.0816 39.3518 64.2323 39.2134 64.3077C39.0751 64.3832 38.9083 64.3637 38.7132 64.2492ZM42.8448 66.673C42.6497 66.5586 42.4893 66.3862 42.3638 66.1559C42.2382 65.9256 42.1801 65.6974 42.1896 65.4714C42.199 65.2454 42.273 65.0947 42.4114 65.0192C42.5497 64.9438 42.7165 64.9633 42.9116 65.0777C43.1067 65.1922 43.267 65.3646 43.3926 65.5949C43.5182 65.8252 43.5762 66.0533 43.5668 66.2793C43.5573 66.5053 43.4834 66.6561 43.345 66.7315C43.2066 66.807 43.0399 66.7875 42.8448 66.673ZM36.7164 61.8111C36.6951 60.3548 37.113 59.3605 37.9702 58.8282C38.8273 58.2959 39.8641 58.3865 41.0806 59.1002C42.1021 59.6994 42.9844 60.6018 43.7276 61.8074C44.4708 63.0129 44.8982 64.2478 45.0099 65.5119C43.9661 64.8859 43.0186 63.9964 42.1674 62.8432C41.3161 61.6901 40.6781 60.4304 40.2532 59.0642C40.025 60.02 39.598 60.74 38.9722 61.2242C38.3463 61.7083 37.5944 61.9039 36.7164 61.8111Z" fill="white"/>
</g>
</svg>
