<svg width="74" height="75" viewBox="0 0 74 75" fill="none" xmlns="http://www.w3.org/2000/svg">
<g filter="url(#filter0_bf_2467_5453)">
<circle cx="37" cy="37.761" r="28" fill="#64B337" fill-opacity="0.1"/>
<circle cx="37" cy="37.761" r="27.9" stroke="url(#paint0_radial_2467_5453)" stroke-width="0.2"/>
</g>
<g filter="url(#filter1_b_2467_5453)">
<circle cx="37" cy="37.761" r="28" fill="white" fill-opacity="0.05"/>
<circle cx="37" cy="37.761" r="27.9" stroke="url(#paint1_radial_2467_5453)" stroke-width="0.2"/>
</g>
<path d="M27.8346 50.5945V48.7612H26.0013C25.4819 48.7612 25.0467 48.5852 24.696 48.2332C24.3452 47.8812 24.1692 47.446 24.168 46.9278V28.5945C24.168 28.075 24.344 27.6399 24.696 27.2892C25.048 26.9384 25.4831 26.7624 26.0013 26.7612H27.8346V24.9278C27.8346 24.4084 28.0106 23.9733 28.3626 23.6225C28.7146 23.2717 29.1497 23.0957 29.668 23.0945C30.1862 23.0933 30.6219 23.2693 30.9751 23.6225C31.3284 23.9757 31.5037 24.4108 31.5013 24.9278V26.7612H33.3346C33.8541 26.7612 34.2898 26.9372 34.6418 27.2892C34.9938 27.6412 35.1692 28.0763 35.168 28.5945V46.9278C35.168 47.4473 34.992 47.883 34.64 48.235C34.288 48.587 33.8529 48.7624 33.3346 48.7612H31.5013V50.5945C31.5013 51.1139 31.3253 51.5497 30.9733 51.9017C30.6213 52.2537 30.1862 52.429 29.668 52.4278C29.1497 52.4266 28.7146 52.2506 28.3626 51.8998C28.0106 51.549 27.8346 51.1139 27.8346 50.5945ZM42.5013 50.5945V43.2612H40.668C40.1485 43.2612 39.7134 43.0852 39.3626 42.7332C39.0119 42.3812 38.8359 41.946 38.8346 41.4278V32.2612C38.8346 31.7417 39.0106 31.3066 39.3626 30.9558C39.7146 30.605 40.1497 30.429 40.668 30.4278H42.5013V24.9278C42.5013 24.4084 42.6773 23.9733 43.0293 23.6225C43.3813 23.2717 43.8164 23.0957 44.3346 23.0945C44.8529 23.0933 45.2886 23.2693 45.6418 23.6225C45.995 23.9757 46.1704 24.4108 46.168 24.9278V30.4278H48.0013C48.5207 30.4278 48.9565 30.6038 49.3085 30.9558C49.6605 31.3078 49.8359 31.7429 49.8346 32.2612V41.4278C49.8346 41.9473 49.6586 42.383 49.3066 42.735C48.9546 43.087 48.5195 43.2624 48.0013 43.2612H46.168V50.5945C46.168 51.1139 45.992 51.5497 45.64 51.9017C45.288 52.2537 44.8529 52.429 44.3346 52.4278C43.8164 52.4266 43.3813 52.2506 43.0293 51.8998C42.6773 51.549 42.5013 51.1139 42.5013 50.5945Z" fill="#64B337"/>
<defs>
<filter id="filter0_bf_2467_5453" x="-1" y="-0.239014" width="76" height="76" filterUnits="userSpaceOnUse" color-interpolation-filters="sRGB">
<feFlood flood-opacity="0" result="BackgroundImageFix"/>
<feGaussianBlur in="BackgroundImageFix" stdDeviation="5"/>
<feComposite in2="SourceAlpha" operator="in" result="effect1_backgroundBlur_2467_5453"/>
<feBlend mode="normal" in="SourceGraphic" in2="effect1_backgroundBlur_2467_5453" result="shape"/>
<feGaussianBlur stdDeviation="4.45" result="effect2_foregroundBlur_2467_5453"/>
</filter>
<filter id="filter1_b_2467_5453" x="-1" y="-0.239014" width="76" height="76" filterUnits="userSpaceOnUse" color-interpolation-filters="sRGB">
<feFlood flood-opacity="0" result="BackgroundImageFix"/>
<feGaussianBlur in="BackgroundImageFix" stdDeviation="5"/>
<feComposite in2="SourceAlpha" operator="in" result="effect1_backgroundBlur_2467_5453"/>
<feBlend mode="normal" in="SourceGraphic" in2="effect1_backgroundBlur_2467_5453" result="shape"/>
</filter>
<radialGradient id="paint0_radial_2467_5453" cx="0" cy="0" r="1" gradientUnits="userSpaceOnUse" gradientTransform="translate(9.50371 11.4271) rotate(44.0741) scale(76.0495 121.63)">
<stop stop-color="#D8D8D8" stop-opacity="0"/>
<stop offset="1" stop-color="#D8D8D8" stop-opacity="0.33"/>
</radialGradient>
<radialGradient id="paint1_radial_2467_5453" cx="0" cy="0" r="1" gradientUnits="userSpaceOnUse" gradientTransform="translate(9.50371 11.4271) rotate(44.0741) scale(76.0495 121.63)">
<stop stop-color="#D8D8D8" stop-opacity="0"/>
<stop offset="1" stop-color="#D8D8D8" stop-opacity="0.33"/>
</radialGradient>
</defs>
</svg>
