<svg width="74" height="75" viewBox="0 0 74 75" fill="none" xmlns="http://www.w3.org/2000/svg">
<g filter="url(#filter0_bf_2467_5493)">
<circle cx="37" cy="37.761" r="28" fill="#64B337" fill-opacity="0.1"/>
<circle cx="37" cy="37.761" r="27.9" stroke="url(#paint0_radial_2467_5493)" stroke-width="0.2"/>
</g>
<g filter="url(#filter1_b_2467_5493)">
<circle cx="37" cy="37.761" r="28" fill="white" fill-opacity="0.05"/>
<circle cx="37" cy="37.761" r="27.9" stroke="url(#paint1_radial_2467_5493)" stroke-width="0.2"/>
</g>
<mask id="mask0_2467_5493" style="mask-type:alpha" maskUnits="userSpaceOnUse" x="22" y="22" width="30" height="31">
<rect x="22" y="22.761" width="30" height="30" fill="#64B337"/>
</mask>
<g mask="url(#mask0_2467_5493)">
<path d="M43.25 50.261C42.2083 50.261 41.3229 49.8964 40.5937 49.1672C39.8646 48.438 39.5 47.5526 39.5 46.511C39.5 46.386 39.5312 46.0943 39.5937 45.636L30.8125 40.511C30.4792 40.8235 30.0937 41.0682 29.6562 41.2453C29.2187 41.4224 28.75 41.511 28.25 41.511C27.2083 41.511 26.3229 41.1464 25.5937 40.4172C24.8646 39.688 24.5 38.8026 24.5 37.761C24.5 36.7193 24.8646 35.8339 25.5937 35.1047C26.3229 34.3755 27.2083 34.011 28.25 34.011C28.75 34.011 29.2187 34.0995 29.6562 34.2766C30.0937 34.4537 30.4792 34.6985 30.8125 35.011L39.5937 29.886C39.5521 29.7401 39.526 29.5995 39.5156 29.4641C39.5052 29.3287 39.5 29.1776 39.5 29.011C39.5 27.9693 39.8646 27.0839 40.5937 26.3547C41.3229 25.6255 42.2083 25.261 43.25 25.261C44.2917 25.261 45.1771 25.6255 45.9062 26.3547C46.6354 27.0839 47 27.9693 47 29.011C47 30.0526 46.6354 30.938 45.9062 31.6672C45.1771 32.3964 44.2917 32.761 43.25 32.761C42.75 32.761 42.2812 32.6724 41.8437 32.4953C41.4062 32.3182 41.0208 32.0735 40.6875 31.761L31.9062 36.886C31.9479 37.0318 31.974 37.1724 31.9844 37.3078C31.9948 37.4432 32 37.5943 32 37.761C32 37.9276 31.9948 38.0787 31.9844 38.2141C31.974 38.3495 31.9479 38.4901 31.9062 38.636L40.6875 43.761C41.0208 43.4485 41.4062 43.2037 41.8437 43.0266C42.2812 42.8495 42.75 42.761 43.25 42.761C44.2917 42.761 45.1771 43.1255 45.9062 43.8547C46.6354 44.5839 47 45.4693 47 46.511C47 47.5526 46.6354 48.438 45.9062 49.1672C45.1771 49.8964 44.2917 50.261 43.25 50.261ZM43.25 47.761C43.6042 47.761 43.901 47.6412 44.1406 47.4016C44.3802 47.162 44.5 46.8651 44.5 46.511C44.5 46.1568 44.3802 45.8599 44.1406 45.6203C43.901 45.3807 43.6042 45.261 43.25 45.261C42.8958 45.261 42.599 45.3807 42.3594 45.6203C42.1198 45.8599 42 46.1568 42 46.511C42 46.8651 42.1198 47.162 42.3594 47.4016C42.599 47.6412 42.8958 47.761 43.25 47.761ZM28.25 39.011C28.6042 39.011 28.901 38.8912 29.1406 38.6516C29.3802 38.412 29.5 38.1151 29.5 37.761C29.5 37.4068 29.3802 37.1099 29.1406 36.8703C28.901 36.6307 28.6042 36.511 28.25 36.511C27.8958 36.511 27.599 36.6307 27.3594 36.8703C27.1198 37.1099 27 37.4068 27 37.761C27 38.1151 27.1198 38.412 27.3594 38.6516C27.599 38.8912 27.8958 39.011 28.25 39.011ZM43.25 30.261C43.6042 30.261 43.901 30.1412 44.1406 29.9016C44.3802 29.662 44.5 29.3651 44.5 29.011C44.5 28.6568 44.3802 28.3599 44.1406 28.1203C43.901 27.8807 43.6042 27.761 43.25 27.761C42.8958 27.761 42.599 27.8807 42.3594 28.1203C42.1198 28.3599 42 28.6568 42 29.011C42 29.3651 42.1198 29.662 42.3594 29.9016C42.599 30.1412 42.8958 30.261 43.25 30.261Z" fill="#64B337"/>
</g>
<defs>
<filter id="filter0_bf_2467_5493" x="-1" y="-0.239014" width="76" height="76" filterUnits="userSpaceOnUse" color-interpolation-filters="sRGB">
<feFlood flood-opacity="0" result="BackgroundImageFix"/>
<feGaussianBlur in="BackgroundImageFix" stdDeviation="5"/>
<feComposite in2="SourceAlpha" operator="in" result="effect1_backgroundBlur_2467_5493"/>
<feBlend mode="normal" in="SourceGraphic" in2="effect1_backgroundBlur_2467_5493" result="shape"/>
<feGaussianBlur stdDeviation="4.45" result="effect2_foregroundBlur_2467_5493"/>
</filter>
<filter id="filter1_b_2467_5493" x="-1" y="-0.239014" width="76" height="76" filterUnits="userSpaceOnUse" color-interpolation-filters="sRGB">
<feFlood flood-opacity="0" result="BackgroundImageFix"/>
<feGaussianBlur in="BackgroundImageFix" stdDeviation="5"/>
<feComposite in2="SourceAlpha" operator="in" result="effect1_backgroundBlur_2467_5493"/>
<feBlend mode="normal" in="SourceGraphic" in2="effect1_backgroundBlur_2467_5493" result="shape"/>
</filter>
<radialGradient id="paint0_radial_2467_5493" cx="0" cy="0" r="1" gradientUnits="userSpaceOnUse" gradientTransform="translate(9.50371 11.4271) rotate(44.0741) scale(76.0495 121.63)">
<stop stop-color="#D8D8D8" stop-opacity="0"/>
<stop offset="1" stop-color="#D8D8D8" stop-opacity="0.33"/>
</radialGradient>
<radialGradient id="paint1_radial_2467_5493" cx="0" cy="0" r="1" gradientUnits="userSpaceOnUse" gradientTransform="translate(9.50371 11.4271) rotate(44.0741) scale(76.0495 121.63)">
<stop stop-color="#D8D8D8" stop-opacity="0"/>
<stop offset="1" stop-color="#D8D8D8" stop-opacity="0.33"/>
</radialGradient>
</defs>
</svg>
